<svg xmlns="http://www.w3.org/2000/svg" width="356.079" height="401.452" viewBox="0 0 356.079 401.452">
  <g id="Grupo_79784" data-name="Grupo 79784" transform="translate(-656.265 -4680.699)">
    <g id="Grupo_56942" data-name="Grupo 56942" transform="translate(669.639 4703.904)">
      <rect id="Rectángulo_5293" data-name="Rectángulo 5293" width="160.539" height="226.025" transform="translate(18.263 11.968)" fill="#344154" opacity="0.15"/>
      <g id="Grupo_56682" data-name="Grupo 56682" transform="translate(121.397 241.332)">
        <g id="Grupo_56681" data-name="Grupo 56681">
          <path id="Trazado_101894" data-name="Trazado 101894" d="M990.115,5003.868a33.648,33.648,0,0,0-8.227-3.577l-1.694-8.145-13.761-.238-1.978,8.077a33.656,33.656,0,0,0-8.349,3.284l-6.954-4.559-9.9,9.561,4.31,7.108a33.63,33.63,0,0,0-3.576,8.229l-8.144,1.7-.242,13.761,8.079,1.98a33.739,33.739,0,0,0,3.284,8.346l-4.556,6.955,9.558,9.9,7.108-4.313a33.645,33.645,0,0,0,8.23,3.574l1.7,8.146,13.759.239,1.981-8.077a33.708,33.708,0,0,0,8.347-3.286l6.954,4.557,9.9-9.557-4.312-7.109a33.63,33.63,0,0,0,3.577-8.229l8.144-1.7.242-13.758-8.08-1.977a33.727,33.727,0,0,0-3.284-8.349l4.558-6.955-9.56-9.9-7.11,4.314ZM982.78,5022.2a14.763,14.763,0,1,1-20.874-.366A14.761,14.761,0,0,1,982.78,5022.2Z" transform="translate(-931.599 -4991.908)" fill="#f5f5f5"/>
        </g>
      </g>
      <g id="Grupo_56683" data-name="Grupo 56683" transform="translate(0 280.244)">
        <path id="Trazado_101895" data-name="Trazado 101895" d="M678.222,5035.705s-.356-.016-1.082-.021-1.824-.012-3.293-.021v.082c17.015.085,86.313.147,169.157.147,47.929-.021,91.311-.042,122.722-.054,15.7-.027,28.4-.048,37.19-.061l10.111-.036,2.63-.02c.592-.005.9-.018.9-.018s-.3-.014-.9-.02l-2.63-.019c-2.319-.008-5.726-.019-10.111-.036-8.789-.014-21.492-.034-37.19-.061-31.411-.013-74.794-.033-122.722-.054-82.844,0-152.141.062-169.157.147v.082l3.293-.02C677.865,5035.719,678.222,5035.705,678.222,5035.705Z" transform="translate(-673.846 -5035.517)" fill="#1a2e35"/>
      </g>
      <g id="Grupo_56703" data-name="Grupo 56703" transform="translate(30.983 0)">
        <g id="Grupo_56699" data-name="Grupo 56699">
          <g id="Grupo_56685" data-name="Grupo 56685">
            <rect id="Rectángulo_5298" data-name="Rectángulo 5298" width="161.66" height="228.101" transform="translate(0.171 0.188)" fill="#fff"/>
            <g id="Grupo_56684" data-name="Grupo 56684">
              <path id="Trazado_101896" data-name="Trazado 101896" d="M824.024,4949.735c0-1.517.07-93.348.171-228.1l-.171.17,161.641.018h.019l-.188-.187c.013,85.478.026,164.519.036,228.1l.153-.152-161.66.152c1.249,0,63.468.06,161.66.153h.152v-.153c.01-63.581.022-142.622.036-228.1v-.189h-.206l-161.641.017h-.171v.172C823.954,4856.388,824.023,4948.218,824.024,4949.735Z" transform="translate(-823.853 -4721.446)" fill="#1a2e35"/>
            </g>
          </g>
          <rect id="Rectángulo_5299" data-name="Rectángulo 5299" width="69.011" height="15.823" rx="6.688" transform="translate(81.929 151.633)" fill="#f5f5f5"/>
          <rect id="Rectángulo_5300" data-name="Rectángulo 5300" width="32.405" height="15.823" rx="6.688" transform="translate(84.712 151.633)" fill="#f5f5f5"/>
          <rect id="Rectángulo_5301" data-name="Rectángulo 5301" width="142.299" height="15.823" rx="6.688" transform="translate(8.968 184.066)" fill="#f5f5f5"/>
          <g id="Grupo_56686" data-name="Grupo 56686" transform="translate(119.255 145.079)">
            <path id="Trazado_101897" data-name="Trazado 101897" d="M838.388,4884.225c0,.1,6.671.188,14.9.188s14.9-.084,14.9-.187-6.669-.188-14.9-.188S838.388,4884.121,838.388,4884.225Z" transform="translate(-838.388 -4884.037)" fill="#1a2e35"/>
          </g>
          <g id="Grupo_56687" data-name="Grupo 56687" transform="translate(100.348 177.348)">
            <path id="Trazado_101898" data-name="Trazado 101898" d="M838.808,4920.388c0,.1,10.819.189,24.162.189s24.164-.085,24.164-.189-10.817-.187-24.164-.187S838.808,4920.285,838.808,4920.388Z" transform="translate(-838.808 -4920.201)" fill="#1a2e35"/>
          </g>
          <rect id="Rectángulo_5302" data-name="Rectángulo 5302" width="69.554" height="17.297" rx="6.508" transform="translate(84.253 115.712)" fill="#e1e1e1"/>
          <rect id="Rectángulo_5303" data-name="Rectángulo 5303" width="144.84" height="17.297" rx="6.508" transform="translate(8.968 10.546)" fill="#e1e1e1"/>
          <g id="Grupo_56688" data-name="Grupo 56688" transform="translate(50.537 19.007)">
            <path id="Trazado_101899" data-name="Trazado 101899" d="M884.46,4742.936c0,.1,12.851.188,28.7.188s28.7-.084,28.7-.188-12.848-.188-28.7-.188S884.46,4742.832,884.46,4742.936Z" transform="translate(-884.46 -4742.748)" fill="#1a2e35"/>
          </g>
          <g id="Grupo_56689" data-name="Grupo 56689" transform="translate(0.171 31.844)">
            <path id="Trazado_101900" data-name="Trazado 101900" d="M823.9,4757.322c0,.1,36.224.188,80.9.188,44.69,0,80.906-.084,80.906-.188s-36.216-.187-80.906-.187C860.125,4757.134,823.9,4757.219,823.9,4757.322Z" transform="translate(-823.901 -4757.134)" fill="#ececec"/>
          </g>
          <g id="Grupo_56690" data-name="Grupo 56690" transform="translate(0.171 108.361)">
            <path id="Trazado_101901" data-name="Trazado 101901" d="M823.9,4843.076c0,.1,36.224.189,80.9.189,44.69,0,80.906-.085,80.906-.189s-36.216-.188-80.906-.188C860.125,4842.888,823.9,4842.972,823.9,4843.076Z" transform="translate(-823.901 -4842.888)" fill="#ececec"/>
          </g>
          <rect id="Rectángulo_5304" data-name="Rectángulo 5304" width="69.011" height="15.823" rx="6.688" transform="translate(81.929 49.372)" fill="#f5f5f5"/>
          <rect id="Rectángulo_5305" data-name="Rectángulo 5305" width="32.405" height="15.823" rx="6.688" transform="translate(84.712 49.372)" fill="#f5f5f5"/>
          <rect id="Rectángulo_5306" data-name="Rectángulo 5306" width="68.334" height="15.823" rx="6.688" transform="translate(84.253 81.805)" fill="#f5f5f5"/>
          <rect id="Rectángulo_32844" data-name="Rectángulo 32844" width="68.334" height="15.823" rx="6.688" transform="translate(10.904 81.805)" fill="#f5f5f5"/>
          <rect id="Rectángulo_32845" data-name="Rectángulo 32845" width="68.334" height="15.823" rx="6.688" transform="translate(10.904 114.945)" fill="#f5f5f5"/>
          <rect id="Rectángulo_32846" data-name="Rectángulo 32846" width="68.334" height="15.823" rx="6.688" transform="translate(10.904 151.634)" fill="#f5f5f5"/>
          <g id="Grupo_56691" data-name="Grupo 56691" transform="translate(119.255 42.818)">
            <path id="Trazado_101902" data-name="Trazado 101902" d="M838.388,4769.621c0,.1,6.671.188,14.9.188s14.9-.086,14.9-.188-6.669-.187-14.9-.187S838.388,4769.517,838.388,4769.621Z" transform="translate(-838.388 -4769.434)" fill="#1a2e35"/>
          </g>
          <g id="Grupo_56692" data-name="Grupo 56692" transform="translate(48.777 42.818)">
            <path id="Trazado_101903" data-name="Trazado 101903" d="M924.472,4769.621c0,.1,5.252.188,11.728.188s11.731-.086,11.731-.188-5.251-.187-11.731-.187S924.472,4769.517,924.472,4769.621Z" transform="translate(-924.472 -4769.434)" fill="#1a2e35"/>
          </g>
          <g id="Grupo_56693" data-name="Grupo 56693" transform="translate(100.348 75.086)">
            <path id="Trazado_101904" data-name="Trazado 101904" d="M838.808,4805.785c0,.1,10.819.187,24.162.187s24.164-.084,24.164-.187-10.817-.188-24.164-.188S838.808,4805.681,838.808,4805.785Z" transform="translate(-838.808 -4805.597)" fill="#1a2e35"/>
          </g>
          <g id="Grupo_87844" data-name="Grupo 87844" transform="translate(26.998 75.086)">
            <path id="Trazado_101904-2" data-name="Trazado 101904" d="M838.808,4805.785c0,.1,10.819.187,24.162.187s24.164-.084,24.164-.187-10.817-.188-24.164-.188S838.808,4805.681,838.808,4805.785Z" transform="translate(-838.808 -4805.597)" fill="#1a2e35"/>
          </g>
          <g id="Grupo_87845" data-name="Grupo 87845" transform="translate(26.998 108.227)">
            <path id="Trazado_101904-3" data-name="Trazado 101904" d="M838.808,4805.785c0,.1,10.819.187,24.162.187s24.164-.084,24.164-.187-10.817-.188-24.164-.188S838.808,4805.681,838.808,4805.785Z" transform="translate(-838.808 -4805.597)" fill="#1a2e35"/>
          </g>
          <g id="Grupo_87846" data-name="Grupo 87846" transform="translate(26.998 144.915)">
            <path id="Trazado_101904-4" data-name="Trazado 101904" d="M838.808,4805.785c0,.1,10.819.187,24.162.187s24.164-.084,24.164-.187-10.817-.188-24.164-.188S838.808,4805.681,838.808,4805.785Z" transform="translate(-838.808 -4805.597)" fill="#1a2e35"/>
          </g>
          <g id="Grupo_56694" data-name="Grupo 56694" transform="translate(13.961 209.317)">
            <path id="Trazado_101905" data-name="Trazado 101905" d="M936.954,4956.216c0,.1,10.552.188,23.567.188s23.57-.084,23.57-.188-10.55-.187-23.57-.187S936.954,4956.112,936.954,4956.216Z" transform="translate(-936.954 -4956.028)" fill="#1a2e35"/>
          </g>
        </g>
        <g id="Grupo_56700" data-name="Grupo 56700" transform="translate(92.531 53.092)">
          <path id="Trazado_101938" data-name="Trazado 101938" d="M843.345,4786.8a8.492,8.492,0,0,0,1.117.28,13.222,13.222,0,0,0,8.328-1.194,4.789,4.789,0,0,0,1.28-.969,3.046,3.046,0,0,0,.77-1.538,2.274,2.274,0,0,0-.371-1.789,1.736,1.736,0,0,0-1.823-.58,1.316,1.316,0,0,0-.8.675,1.691,1.691,0,0,0-.135,1.053,3.792,3.792,0,0,0,1,1.851,9.064,9.064,0,0,0,3.619,2.473,8.73,8.73,0,0,0,4.673.423,5.212,5.212,0,0,0,2.285-1,2.717,2.717,0,0,0,1.111-2.312,2.537,2.537,0,0,0-.5-1.257,1.974,1.974,0,0,0-1.137-.795,1.414,1.414,0,0,0-1.349.445,2.016,2.016,0,0,0-.484,1.333,2.729,2.729,0,0,0,.332,1.373,3.083,3.083,0,0,0,.98,1.028,8.92,8.92,0,0,0,2.581,1.036,11.352,11.352,0,0,0,5.613.6,5.289,5.289,0,0,0,2.583-1.4,3.708,3.708,0,0,0,1.12-2.76,2.447,2.447,0,0,0-.782-1.751,1.792,1.792,0,0,0-1.9-.2,1.468,1.468,0,0,0-.719.7,1.507,1.507,0,0,0-.086,1,2.84,2.84,0,0,0,1.126,1.486,14.6,14.6,0,0,0,6.492,2.468,6.567,6.567,0,0,0,3.381-.3,3.405,3.405,0,0,0,2.078-2.547,2.323,2.323,0,0,0-1.719-2.594,1.607,1.607,0,0,0-1.539.553,2.451,2.451,0,0,0-.541,1.5,3,3,0,0,0,.33,1.521,3.562,3.562,0,0,0,1.024,1.119,7.876,7.876,0,0,0,2.646,1.109,8.874,8.874,0,0,0,5.281.191,4.54,4.54,0,0,0,2.006-1.461,3.256,3.256,0,0,0,.711-2.223,3.117,3.117,0,0,0-.964-1.96,2.119,2.119,0,0,0-1.925-.575l-.078.02,0,.077a5.578,5.578,0,0,0,1.414,3.836,5.837,5.837,0,0,0,2.527,1.723,4.828,4.828,0,0,0,1.894.243,5.717,5.717,0,0,0,.648-.123,5.014,5.014,0,0,1-2.5-.225,5.8,5.8,0,0,1-2.441-1.724,5.424,5.424,0,0,1-1.328-3.72l-.08.1a1.9,1.9,0,0,1,1.719.538,2.887,2.887,0,0,1,.874,1.812,3.631,3.631,0,0,1-2.569,3.4,8.629,8.629,0,0,1-5.1-.227,7.628,7.628,0,0,1-2.537-1.07,3.276,3.276,0,0,1-.926-1.017,2.659,2.659,0,0,1-.286-1.352,2.14,2.14,0,0,1,.465-1.3,1.274,1.274,0,0,1,1.22-.436,1.983,1.983,0,0,1,1.438,2.211,3.059,3.059,0,0,1-1.871,2.267,6.245,6.245,0,0,1-3.2.264,14.262,14.262,0,0,1-6.312-2.4,2.5,2.5,0,0,1-.988-1.277,1.07,1.07,0,0,1,.6-1.27,1.424,1.424,0,0,1,1.5.15,2.072,2.072,0,0,1,.65,1.486,3.33,3.33,0,0,1-1.012,2.477,4.917,4.917,0,0,1-2.4,1.3,11.038,11.038,0,0,1-5.427-.586,8.62,8.62,0,0,1-2.479-.982,2.765,2.765,0,0,1-.868-.9,2.385,2.385,0,0,1-.29-1.191,1.669,1.669,0,0,1,.388-1.1,1.057,1.057,0,0,1,1.013-.34,2.023,2.023,0,0,1,1.364,1.742,2.385,2.385,0,0,1-.982,2.014,4.893,4.893,0,0,1-2.134.943,8.426,8.426,0,0,1-4.5-.392,8.762,8.762,0,0,1-3.511-2.375,3.508,3.508,0,0,1-.94-1.7,1.191,1.191,0,0,1,.742-1.428,1.481,1.481,0,0,1,1.546.482,2.038,2.038,0,0,1,.335,1.591,3.455,3.455,0,0,1-1.917,2.364,13.135,13.135,0,0,1-4.942,1.417,13.839,13.839,0,0,1-3.272-.116c-.37-.061-.653-.113-.842-.155A1.517,1.517,0,0,0,843.345,4786.8Z" transform="translate(-843.345 -4780.947)" fill="#7e5ee3"/>
        </g>
        <g id="Grupo_56701" data-name="Grupo 56701" transform="translate(21.968 52.572)">
          <path id="Trazado_101939" data-name="Trazado 101939" d="M930.949,4785.88a4.825,4.825,0,0,0,.907.45,8.253,8.253,0,0,0,2.839.6,8.732,8.732,0,0,0,4.457-1.042,5.545,5.545,0,0,0,2.17-1.905,2.585,2.585,0,0,0,.389-1.569,2.188,2.188,0,0,0-.837-1.486,1.409,1.409,0,0,0-.878-.29,1.351,1.351,0,0,0-.875.372,2.141,2.141,0,0,0-.585,1.777,3.144,3.144,0,0,0,.906,1.716,7.52,7.52,0,0,0,1.578,1.2,9.4,9.4,0,0,0,3.939,1.26,7.529,7.529,0,0,0,4.308-.8,4.216,4.216,0,0,0,1.67-1.616,3.135,3.135,0,0,0,.382-1.149,2.78,2.78,0,0,0-.177-1.22,2.826,2.826,0,0,0-1.718-1.732,1.644,1.644,0,0,0-1.3.129,2.01,2.01,0,0,0-.869.97,3,3,0,0,0,.1,2.526,5.227,5.227,0,0,0,1.718,1.89,9.418,9.418,0,0,0,4.841,1.674,9.61,9.61,0,0,0,5.009-1.077,7.57,7.57,0,0,0,2.037-1.518,3.446,3.446,0,0,0,1.011-2.316,2.283,2.283,0,0,0-1.389-2.055,1.4,1.4,0,0,0-1.295.153,1.891,1.891,0,0,0-.715,1.054,2.722,2.722,0,0,0,.486,2.333,7.222,7.222,0,0,0,1.661,1.6,10.149,10.149,0,0,0,8.148,1.743,5.5,5.5,0,0,0,3.305-1.979,3.057,3.057,0,0,0,.612-1.754,3.317,3.317,0,0,0-.435-1.725,2.194,2.194,0,0,0-1.332-1.063,1.888,1.888,0,0,0-1.577.353,2.9,2.9,0,0,0-1.065,2.645,3.564,3.564,0,0,0,1.274,2.158,4.8,4.8,0,0,0,1.884.957,9.277,9.277,0,0,0,2.9.18l.751-.066a1.353,1.353,0,0,0,.255-.038,1.329,1.329,0,0,0-.258,0l-.752.028a9.7,9.7,0,0,1-2.856-.247,4.652,4.652,0,0,1-1.806-.95,3.383,3.383,0,0,1-1.182-2.051,2.683,2.683,0,0,1,1-2.424,1.647,1.647,0,0,1,1.374-.3,1.944,1.944,0,0,1,1.163.95,2.9,2.9,0,0,1-.184,3.178,5.213,5.213,0,0,1-3.138,1.845,9.849,9.849,0,0,1-7.875-1.719,6.938,6.938,0,0,1-1.575-1.522,2.363,2.363,0,0,1-.432-2.034,1.538,1.538,0,0,1,.575-.853,1.035,1.035,0,0,1,.966-.111,1.93,1.93,0,0,1,1.147,1.719,3.089,3.089,0,0,1-.917,2.06,7.193,7.193,0,0,1-1.938,1.438,9.26,9.26,0,0,1-4.812,1.032,9.048,9.048,0,0,1-4.646-1.6,4.861,4.861,0,0,1-1.6-1.749,2.628,2.628,0,0,1-.093-2.213,1.441,1.441,0,0,1,1.725-.9,2.486,2.486,0,0,1,1.487,1.513,2.436,2.436,0,0,1,.159,1.057,2.826,2.826,0,0,1-.338,1.016,3.872,3.872,0,0,1-1.531,1.483,7.2,7.2,0,0,1-4.11.777,9.112,9.112,0,0,1-3.81-1.2,7.229,7.229,0,0,1-1.519-1.144,2.852,2.852,0,0,1-.834-1.543,1.861,1.861,0,0,1,.487-1.539,1.065,1.065,0,0,1,1.405-.07,1.941,1.941,0,0,1,.743,1.3,2.347,2.347,0,0,1-.344,1.417,5.348,5.348,0,0,1-2.065,1.843,8.7,8.7,0,0,1-7.169.559C931.26,4786.038,930.961,4785.855,930.949,4785.88Z" transform="translate(-930.949 -4780.364)" fill="#7e5ee3"/>
        </g>
        <g id="Grupo_56702" data-name="Grupo 56702" transform="translate(89.02 86.147)">
          <path id="Trazado_101940" data-name="Trazado 101940" d="M841.731,4821.789a1.82,1.82,0,0,0,.277.14l.828.376c.731.324,1.811.8,3.234,1.33a26.166,26.166,0,0,0,5.352,1.426,20.692,20.692,0,0,0,3.46.21,11.714,11.714,0,0,0,3.851-.582,4.589,4.589,0,0,0,2.926-3.047,2.973,2.973,0,0,0-.284-2.3,2.6,2.6,0,0,0-1.993-1.345,2.207,2.207,0,0,0-2.071,1.338,3.4,3.4,0,0,0-.182,2.564,5.019,5.019,0,0,0,1.511,2.168,9.831,9.831,0,0,0,2.266,1.46,7.761,7.761,0,0,0,5.476.64,5.549,5.549,0,0,0,3.8-4.193,4.56,4.56,0,0,0,.01-1.525,2.93,2.93,0,0,0-.62-1.429,1.941,1.941,0,0,0-1.389-.8,1.4,1.4,0,0,0-1.332.93,3.732,3.732,0,0,0,.532,3.066,9.283,9.283,0,0,0,2.022,2.4,8.533,8.533,0,0,0,11.3-.174,4.82,4.82,0,0,0,1.464-2.58,2.956,2.956,0,0,0-.1-1.5,3.027,3.027,0,0,0-.845-1.23,2.516,2.516,0,0,0-1.344-.633,1.773,1.773,0,0,0-1.42.445,2.742,2.742,0,0,0-.645,2.7,5.046,5.046,0,0,0,1.5,2.267,12.305,12.305,0,0,0,2.1,1.567,12.182,12.182,0,0,0,4.71,1.6,10.569,10.569,0,0,0,4.628-.415,5.162,5.162,0,0,0,1.9-1.141,3.571,3.571,0,0,0,1.032-1.863,3.247,3.247,0,0,0-.187-2.025,2,2,0,0,0-1.515-1.181,2.271,2.271,0,0,0-1.76.482,1.67,1.67,0,0,0-.559,1.607,2.52,2.52,0,0,0,.832,1.361,5.284,5.284,0,0,0,1.221.811,14.144,14.144,0,0,0,2.369.905,13.366,13.366,0,0,0,3.461.514,8.736,8.736,0,0,0,1.219-.051,1.966,1.966,0,0,0-.31-.007c-.2,0-.509,0-.907-.02a14.18,14.18,0,0,1-5.753-1.5,5.107,5.107,0,0,1-1.17-.792,2.342,2.342,0,0,1-.759-1.257,1.445,1.445,0,0,1,.5-1.4,2.037,2.037,0,0,1,1.579-.419,1.748,1.748,0,0,1,1.322,1.051,2.988,2.988,0,0,1,.157,1.862,3.932,3.932,0,0,1-2.773,2.786,10.3,10.3,0,0,1-4.495.379,11.839,11.839,0,0,1-4.579-1.575,11.972,11.972,0,0,1-2.034-1.528,4.72,4.72,0,0,1-1.395-2.112,2.408,2.408,0,0,1,.547-2.35,1.705,1.705,0,0,1,2.291.2,2.669,2.669,0,0,1,.741,1.08,2.591,2.591,0,0,1,.079,1.319,4.468,4.468,0,0,1-1.362,2.379,8.169,8.169,0,0,1-10.806.151,8.945,8.945,0,0,1-1.94-2.3,4.292,4.292,0,0,1-.552-1.353,2.522,2.522,0,0,1,.044-1.387,1.024,1.024,0,0,1,.974-.7,1.575,1.575,0,0,1,1.111.662,3.346,3.346,0,0,1,.537,2.656,5.194,5.194,0,0,1-3.544,3.916,7.426,7.426,0,0,1-5.226-.608,6.555,6.555,0,0,1-3.611-3.421,3.073,3.073,0,0,1,.157-2.317,1.889,1.889,0,0,1,1.763-1.17,2.3,2.3,0,0,1,1.753,1.186,2.678,2.678,0,0,1,.262,2.077,4.309,4.309,0,0,1-2.739,2.869,11.49,11.49,0,0,1-3.763.591,20.523,20.523,0,0,1-3.426-.178,26.907,26.907,0,0,1-5.331-1.353c-1.426-.514-2.514-.964-3.255-1.266l-.842-.34A2.264,2.264,0,0,0,841.731,4821.789Z" transform="translate(-841.731 -4817.992)" fill="#7e5ee3"/>
        </g>
      </g>
      <g id="Grupo_56941" data-name="Grupo 56941" transform="translate(125.231 116.131)">
        <g id="Grupo_56895" data-name="Grupo 56895" transform="translate(88.669)">
          <g id="Grupo_56891" data-name="Grupo 56891" transform="translate(12.551 10.055)">
            <g id="Grupo_56761" data-name="Grupo 56761" transform="translate(0)">
              <g id="Grupo_56760" data-name="Grupo 56760">
                <g id="Grupo_56759" data-name="Grupo 56759">
                  <g id="Grupo_56743" data-name="Grupo 56743">
                    <g id="Grupo_56742" data-name="Grupo 56742">
                      <g id="Grupo_56741" data-name="Grupo 56741">
                        <g id="Grupo_56740" data-name="Grupo 56740">
                          <g id="Grupo_56739" data-name="Grupo 56739">
                            <g id="Grupo_56738" data-name="Grupo 56738">
                              <g id="Grupo_56737" data-name="Grupo 56737">
                                <g id="Grupo_56736" data-name="Grupo 56736">
                                  <g id="Grupo_56735" data-name="Grupo 56735">
                                    <g id="Grupo_56734" data-name="Grupo 56734">
                                      <g id="Grupo_56733" data-name="Grupo 56733">
                                        <g id="Grupo_56732" data-name="Grupo 56732">
                                          <g id="Grupo_56731" data-name="Grupo 56731">
                                            <g id="Grupo_56730" data-name="Grupo 56730">
                                              <g id="Grupo_56729" data-name="Grupo 56729">
                                                <path id="Trazado_101953" data-name="Trazado 101953" d="M796.3,4784.849l.816,65.718c.139,11.177-1.941,27.623-19.62,27.036h0c-15.3-1.666-19.36-16.148-19.48-26.58-.056-4.947-.113-9.072-.152-9.58,0,0-16.749-1.366-18.164-17.909-.683-7.995-.75-24.577-.635-39.578a30.926,30.926,0,0,1,28.684-30.593l1.6-.117C786.645,4752.994,796.524,4767.547,796.3,4784.849Z" transform="translate(-739.017 -4753.242)" fill="#ffbf9d"/>
                                              </g>
                                            </g>
                                          </g>
                                        </g>
                                      </g>
                                    </g>
                                  </g>
                                </g>
                              </g>
                            </g>
                          </g>
                        </g>
                      </g>
                    </g>
                  </g>
                  <g id="Grupo_56758" data-name="Grupo 56758" transform="translate(18.844 80.252)">
                    <g id="Grupo_56757" data-name="Grupo 56757">
                      <g id="Grupo_56756" data-name="Grupo 56756">
                        <g id="Grupo_56755" data-name="Grupo 56755">
                          <g id="Grupo_56754" data-name="Grupo 56754">
                            <g id="Grupo_56753" data-name="Grupo 56753">
                              <g id="Grupo_56752" data-name="Grupo 56752">
                                <g id="Grupo_56751" data-name="Grupo 56751">
                                  <g id="Grupo_56750" data-name="Grupo 56750">
                                    <g id="Grupo_56749" data-name="Grupo 56749">
                                      <g id="Grupo_56748" data-name="Grupo 56748">
                                        <g id="Grupo_56747" data-name="Grupo 56747">
                                          <g id="Grupo_56746" data-name="Grupo 56746">
                                            <g id="Grupo_56745" data-name="Grupo 56745">
                                              <g id="Grupo_56744" data-name="Grupo 56744">
                                                <path id="Trazado_101954" data-name="Trazado 101954" d="M759.374,4851.13a40.123,40.123,0,0,0,21.094-7.948s-4.376,12.479-21.007,12.193Z" transform="translate(-759.374 -4843.182)" fill="#ff9a6c"/>
                                              </g>
                                            </g>
                                          </g>
                                        </g>
                                      </g>
                                    </g>
                                  </g>
                                </g>
                              </g>
                            </g>
                          </g>
                        </g>
                      </g>
                    </g>
                  </g>
                </g>
              </g>
            </g>
            <g id="Grupo_56845" data-name="Grupo 56845" transform="translate(3.161 24.992)">
              <g id="Grupo_56844" data-name="Grupo 56844">
                <g id="Grupo_56813" data-name="Grupo 56813" transform="translate(11.6 9.574)">
                  <g id="Grupo_56812" data-name="Grupo 56812" transform="translate(0)">
                    <g id="Grupo_56811" data-name="Grupo 56811">
                      <g id="Grupo_56778" data-name="Grupo 56778" transform="translate(13.523)">
                        <g id="Grupo_56777" data-name="Grupo 56777">
                          <g id="Grupo_56776" data-name="Grupo 56776">
                            <g id="Grupo_56775" data-name="Grupo 56775">
                              <g id="Grupo_56774" data-name="Grupo 56774">
                                <g id="Grupo_56773" data-name="Grupo 56773">
                                  <g id="Grupo_56772" data-name="Grupo 56772">
                                    <g id="Grupo_56771" data-name="Grupo 56771">
                                      <g id="Grupo_56770" data-name="Grupo 56770">
                                        <g id="Grupo_56769" data-name="Grupo 56769">
                                          <g id="Grupo_56768" data-name="Grupo 56768">
                                            <g id="Grupo_56767" data-name="Grupo 56767">
                                              <g id="Grupo_56766" data-name="Grupo 56766">
                                                <g id="Grupo_56765" data-name="Grupo 56765">
                                                  <g id="Grupo_56764" data-name="Grupo 56764">
                                                    <g id="Grupo_56763" data-name="Grupo 56763">
                                                      <g id="Grupo_56762" data-name="Grupo 56762">
                                                        <path id="Trazado_101955" data-name="Trazado 101955" d="M761.025,4794.907c.328.335,2.239-1.2,5.011-1.277,2.768-.115,4.842,1.286,5.133.928.144-.158-.2-.77-1.1-1.4a6.947,6.947,0,0,0-4.122-1.169,6.7,6.7,0,0,0-3.976,1.447C761.135,4794.127,760.864,4794.758,761.025,4794.907Z" transform="translate(-760.981 -4791.98)" fill="#1a2e35"/>
                                                      </g>
                                                    </g>
                                                  </g>
                                                </g>
                                              </g>
                                            </g>
                                          </g>
                                        </g>
                                      </g>
                                    </g>
                                  </g>
                                </g>
                              </g>
                            </g>
                          </g>
                        </g>
                      </g>
                      <g id="Grupo_56794" data-name="Grupo 56794" transform="translate(13.649 6.473)">
                        <g id="Grupo_56793" data-name="Grupo 56793">
                          <g id="Grupo_56792" data-name="Grupo 56792">
                            <g id="Grupo_56791" data-name="Grupo 56791">
                              <g id="Grupo_56790" data-name="Grupo 56790">
                                <g id="Grupo_56789" data-name="Grupo 56789">
                                  <g id="Grupo_56788" data-name="Grupo 56788">
                                    <g id="Grupo_56787" data-name="Grupo 56787">
                                      <g id="Grupo_56786" data-name="Grupo 56786">
                                        <g id="Grupo_56785" data-name="Grupo 56785">
                                          <g id="Grupo_56784" data-name="Grupo 56784">
                                            <g id="Grupo_56783" data-name="Grupo 56783">
                                              <g id="Grupo_56782" data-name="Grupo 56782">
                                                <g id="Grupo_56781" data-name="Grupo 56781">
                                                  <g id="Grupo_56780" data-name="Grupo 56780">
                                                    <g id="Grupo_56779" data-name="Grupo 56779">
                                                      <path id="Trazado_101956" data-name="Trazado 101956" d="M767.27,4801.423a2.242,2.242,0,0,0,2.322,2.1,2.146,2.146,0,0,0,2.158-2.186,2.243,2.243,0,0,0-2.32-2.1A2.146,2.146,0,0,0,767.27,4801.423Z" transform="translate(-767.269 -4799.235)" fill="#1a2e35"/>
                                                    </g>
                                                  </g>
                                                </g>
                                              </g>
                                            </g>
                                          </g>
                                        </g>
                                      </g>
                                    </g>
                                  </g>
                                </g>
                              </g>
                            </g>
                          </g>
                        </g>
                      </g>
                      <g id="Grupo_56810" data-name="Grupo 56810" transform="translate(0 0.921)">
                        <g id="Grupo_56809" data-name="Grupo 56809">
                          <g id="Grupo_56808" data-name="Grupo 56808">
                            <g id="Grupo_56807" data-name="Grupo 56807">
                              <g id="Grupo_56806" data-name="Grupo 56806">
                                <g id="Grupo_56805" data-name="Grupo 56805">
                                  <g id="Grupo_56804" data-name="Grupo 56804">
                                    <g id="Grupo_56803" data-name="Grupo 56803">
                                      <g id="Grupo_56802" data-name="Grupo 56802">
                                        <g id="Grupo_56801" data-name="Grupo 56801">
                                          <g id="Grupo_56800" data-name="Grupo 56800">
                                            <g id="Grupo_56799" data-name="Grupo 56799">
                                              <g id="Grupo_56798" data-name="Grupo 56798">
                                                <g id="Grupo_56797" data-name="Grupo 56797">
                                                  <g id="Grupo_56796" data-name="Grupo 56796">
                                                    <g id="Grupo_56795" data-name="Grupo 56795">
                                                      <path id="Trazado_101957" data-name="Trazado 101957" d="M786.79,4814.3c0-.146-1.6-.3-4.188-.445-.655-.019-1.279-.1-1.42-.539a3.315,3.315,0,0,1,.293-1.958q.744-2.424,1.561-5.088c2.154-7.239,3.663-13.172,3.37-13.257s-2.275,5.716-4.429,12.955q-.774,2.676-1.478,5.111a3.78,3.78,0,0,0-.151,2.577,1.637,1.637,0,0,0,1.138.871,4.4,4.4,0,0,0,1.115.073C785.19,4814.549,786.791,4814.446,786.79,4814.3Z" transform="translate(-780.165 -4793.012)" fill="#1a2e35"/>
                                                    </g>
                                                  </g>
                                                </g>
                                              </g>
                                            </g>
                                          </g>
                                        </g>
                                      </g>
                                    </g>
                                  </g>
                                </g>
                              </g>
                            </g>
                          </g>
                        </g>
                      </g>
                    </g>
                  </g>
                </g>
                <g id="Grupo_56828" data-name="Grupo 56828" transform="translate(26.328)">
                  <g id="Grupo_56827" data-name="Grupo 56827">
                    <g id="Grupo_56826" data-name="Grupo 56826">
                      <g id="Grupo_56825" data-name="Grupo 56825">
                        <g id="Grupo_56824" data-name="Grupo 56824">
                          <g id="Grupo_56823" data-name="Grupo 56823">
                            <g id="Grupo_56822" data-name="Grupo 56822">
                              <g id="Grupo_56821" data-name="Grupo 56821">
                                <g id="Grupo_56820" data-name="Grupo 56820">
                                  <g id="Grupo_56819" data-name="Grupo 56819">
                                    <g id="Grupo_56818" data-name="Grupo 56818">
                                      <g id="Grupo_56817" data-name="Grupo 56817">
                                        <g id="Grupo_56816" data-name="Grupo 56816">
                                          <g id="Grupo_56815" data-name="Grupo 56815">
                                            <g id="Grupo_56814" data-name="Grupo 56814">
                                              <path id="Trazado_101958" data-name="Trazado 101958" d="M759.517,4783.331c.269.614,2.487.152,5.144.288,2.66.081,4.842.722,5.149.131.136-.282-.277-.849-1.18-1.4a8.382,8.382,0,0,0-3.891-1.095,8.288,8.288,0,0,0-3.951.775C759.851,4782.507,759.4,4783.038,759.517,4783.331Z" transform="translate(-759.499 -4781.251)" fill="#1a2e35"/>
                                            </g>
                                          </g>
                                        </g>
                                      </g>
                                    </g>
                                  </g>
                                </g>
                              </g>
                            </g>
                          </g>
                        </g>
                      </g>
                    </g>
                  </g>
                </g>
                <g id="Grupo_56843" data-name="Grupo 56843" transform="translate(0 5.065)">
                  <g id="Grupo_56842" data-name="Grupo 56842">
                    <g id="Grupo_56841" data-name="Grupo 56841">
                      <g id="Grupo_56840" data-name="Grupo 56840">
                        <g id="Grupo_56839" data-name="Grupo 56839">
                          <g id="Grupo_56838" data-name="Grupo 56838">
                            <g id="Grupo_56837" data-name="Grupo 56837">
                              <g id="Grupo_56836" data-name="Grupo 56836">
                                <g id="Grupo_56835" data-name="Grupo 56835">
                                  <g id="Grupo_56834" data-name="Grupo 56834">
                                    <g id="Grupo_56833" data-name="Grupo 56833">
                                      <g id="Grupo_56832" data-name="Grupo 56832">
                                        <g id="Grupo_56831" data-name="Grupo 56831">
                                          <g id="Grupo_56830" data-name="Grupo 56830">
                                            <g id="Grupo_56829" data-name="Grupo 56829">
                                              <path id="Trazado_101959" data-name="Trazado 101959" d="M789.191,4789.078c.291.5,2.454-.055,5.075-.136,2.621-.128,4.8.255,5.074-.269.121-.25-.311-.7-1.224-1.1a9.172,9.172,0,0,0-3.877-.641,9.466,9.466,0,0,0-3.855.95C789.482,4788.355,789.063,4788.837,789.191,4789.078Z" transform="translate(-789.169 -4786.927)" fill="#1a2e35"/>
                                            </g>
                                          </g>
                                        </g>
                                      </g>
                                    </g>
                                  </g>
                                </g>
                              </g>
                            </g>
                          </g>
                        </g>
                      </g>
                    </g>
                  </g>
                </g>
              </g>
            </g>
            <g id="Grupo_56858" data-name="Grupo 56858" transform="translate(56.823 43.147)">
              <g id="Grupo_56857" data-name="Grupo 56857">
                <g id="Grupo_56856" data-name="Grupo 56856">
                  <g id="Grupo_56855" data-name="Grupo 56855">
                    <g id="Grupo_56854" data-name="Grupo 56854">
                      <g id="Grupo_56853" data-name="Grupo 56853">
                        <g id="Grupo_56852" data-name="Grupo 56852">
                          <g id="Grupo_56851" data-name="Grupo 56851">
                            <g id="Grupo_56850" data-name="Grupo 56850">
                              <g id="Grupo_56849" data-name="Grupo 56849">
                                <g id="Grupo_56848" data-name="Grupo 56848">
                                  <g id="Grupo_56847" data-name="Grupo 56847">
                                    <g id="Grupo_56846" data-name="Grupo 56846">
                                      <path id="Trazado_101960" data-name="Trazado 101960" d="M727.44,4802.416c.274-.143,11.131-4.2,11.6,7.151s-11.023,9.473-11.056,9.149S727.44,4802.416,727.44,4802.416Z" transform="translate(-727.44 -4801.597)" fill="#ffbf9d"/>
                                    </g>
                                  </g>
                                </g>
                              </g>
                            </g>
                          </g>
                        </g>
                      </g>
                    </g>
                  </g>
                </g>
              </g>
            </g>
            <g id="Grupo_56872" data-name="Grupo 56872" transform="translate(60.644 46.759)">
              <g id="Grupo_56871" data-name="Grupo 56871">
                <g id="Grupo_56870" data-name="Grupo 56870">
                  <g id="Grupo_56869" data-name="Grupo 56869">
                    <g id="Grupo_56868" data-name="Grupo 56868">
                      <g id="Grupo_56867" data-name="Grupo 56867">
                        <g id="Grupo_56866" data-name="Grupo 56866">
                          <g id="Grupo_56865" data-name="Grupo 56865">
                            <g id="Grupo_56864" data-name="Grupo 56864">
                              <g id="Grupo_56863" data-name="Grupo 56863">
                                <g id="Grupo_56862" data-name="Grupo 56862">
                                  <g id="Grupo_56861" data-name="Grupo 56861">
                                    <g id="Grupo_56860" data-name="Grupo 56860">
                                      <g id="Grupo_56859" data-name="Grupo 56859">
                                        <path id="Trazado_101961" data-name="Trazado 101961" d="M730.678,4814.71c.049-.038.2.131.543.271a1.972,1.972,0,0,0,1.479-.03c1.181-.49,2.112-2.434,2.083-4.481a6.533,6.533,0,0,0-.669-2.807,2.284,2.284,0,0,0-1.55-1.457,1.007,1.007,0,0,0-1.144.589c-.139.325-.058.547-.117.569-.031.03-.252-.18-.179-.653a1.262,1.262,0,0,1,.417-.729,1.5,1.5,0,0,1,1.081-.333,2.777,2.777,0,0,1,2.137,1.673,6.721,6.721,0,0,1,.816,3.135c.021,2.29-1.062,4.478-2.683,5.02a2.119,2.119,0,0,1-1.819-.227C730.71,4814.985,730.64,4814.734,730.678,4814.71Z" transform="translate(-730.669 -4805.646)" fill="#ff9a6c"/>
                                      </g>
                                    </g>
                                  </g>
                                </g>
                              </g>
                            </g>
                          </g>
                        </g>
                      </g>
                    </g>
                  </g>
                </g>
              </g>
            </g>
            <g id="Grupo_56873" data-name="Grupo 56873" transform="translate(24.058 57.324)">
              <path id="Trazado_101962" data-name="Trazado 101962" d="M770.44,4824.792c-.124-.287,2.1-.952,3.662-3.038a12.752,12.752,0,0,0,1.57-2.962c.331-.824.582-1.342.7-1.3s.087.594-.095,1.491a8.382,8.382,0,0,1-1.461,3.318,6.771,6.771,0,0,1-2.9,2.219C771.056,4824.868,770.47,4824.889,770.44,4824.792Z" transform="translate(-770.435 -4817.485)" fill="#1a2e35"/>
            </g>
            <g id="Grupo_56882" data-name="Grupo 56882" transform="translate(3.015 35.61)">
              <g id="Grupo_56881" data-name="Grupo 56881">
                <g id="Grupo_56880" data-name="Grupo 56880">
                  <g id="Grupo_56879" data-name="Grupo 56879">
                    <g id="Grupo_56878" data-name="Grupo 56878">
                      <g id="Grupo_56877" data-name="Grupo 56877">
                        <g id="Grupo_56876" data-name="Grupo 56876">
                          <g id="Grupo_56875" data-name="Grupo 56875">
                            <g id="Grupo_56874" data-name="Grupo 56874">
                              <path id="Trazado_101963" data-name="Trazado 101963" d="M789.344,4796.078c.329.335,2.239-1.2,5.011-1.277,2.768-.116,4.842,1.285,5.132.93.144-.16-.2-.772-1.1-1.406a6.935,6.935,0,0,0-4.12-1.169,6.69,6.69,0,0,0-3.977,1.447C789.454,4795.3,789.183,4795.929,789.344,4796.078Z" transform="translate(-789.3 -4793.151)" fill="#1a2e35"/>
                            </g>
                          </g>
                        </g>
                      </g>
                    </g>
                  </g>
                </g>
              </g>
            </g>
            <g id="Grupo_56890" data-name="Grupo 56890" transform="translate(3.514 41.844)">
              <g id="Grupo_56889" data-name="Grupo 56889">
                <g id="Grupo_56888" data-name="Grupo 56888">
                  <g id="Grupo_56887" data-name="Grupo 56887">
                    <g id="Grupo_56886" data-name="Grupo 56886">
                      <g id="Grupo_56885" data-name="Grupo 56885">
                        <g id="Grupo_56884" data-name="Grupo 56884">
                          <g id="Grupo_56883" data-name="Grupo 56883">
                            <path id="Trazado_101964" data-name="Trazado 101964" d="M795.173,4802.323a2.244,2.244,0,0,0,2.322,2.1,2.146,2.146,0,0,0,2.157-2.186,2.244,2.244,0,0,0-2.32-2.1A2.147,2.147,0,0,0,795.173,4802.323Z" transform="translate(-795.171 -4800.137)" fill="#1a2e35"/>
                          </g>
                        </g>
                      </g>
                    </g>
                  </g>
                </g>
              </g>
            </g>
          </g>
          <g id="Grupo_56892" data-name="Grupo 56892" transform="translate(0)">
            <path id="Trazado_101965" data-name="Trazado 101965" d="M729.529,4760.773a8.953,8.953,0,0,1,11.166-3.534,12.254,12.254,0,0,1,21.109-10.581,5.005,5.005,0,0,1,2.44-3.358,9.892,9.892,0,0,1,4.073-1.215,19.478,19.478,0,0,1,17.794,7.759,21.2,21.2,0,0,1,17.967,6.556c5.331,5.9,6.335,19.587.5,31.408l-1.374,7.411c-1.831,0-3.506.126-4.635,1.141-1.534,1.377-2.219,3.973-4.767,2.987-1.3-.5-2.481-3.221-2.915-4.542a64.566,64.566,0,0,1-2.8-27.332,20.732,20.732,0,0,0-6.409-4.624l.2.175c-4.623-1.606-9.854-3.185-14.24-1.014-3.4,1.683-5.4,5.213-7.947,8.033a25.973,25.973,0,0,1-18.513,8.549c-.245,4.66.146,11.244-.1,15.9l-3.919-7.462,0,.038c-.321-.546-.586-1.1-.843-1.65l-.087-.167v-.022l0,0c-.716-.583-1.261-1.65-2.472-3.037a9.774,9.774,0,0,1-1.605-10A8.952,8.952,0,0,1,729.529,4760.773Z" transform="translate(-728.475 -4741.973)" fill="#1a2e35"/>
            <path id="Trazado_101966" data-name="Trazado 101966" d="M811.014,4787.526l.015-.012h0Z" transform="translate(-804.619 -4746.878)" fill="#1a2e35"/>
          </g>
          <g id="Grupo_56893" data-name="Grupo 56893" transform="translate(7.645 18.97)">
            <path id="Trazado_101967" data-name="Trazado 101967" d="M787.908,4763.233a.731.731,0,0,0-.083.244,3.349,3.349,0,0,0-.1.734,4.925,4.925,0,0,0,.66,2.659,5.046,5.046,0,0,0,1.268,1.467,4.523,4.523,0,0,0,2.068.883,5.122,5.122,0,0,0,4.731-1.781l-.282-.244a3.129,3.129,0,0,0-.8,2.226,4.1,4.1,0,0,0,1.268,2.858,4.632,4.632,0,0,0,2.683,1.143,7.2,7.2,0,0,0,4.665-1.284,15.191,15.191,0,0,0,2.493-2.119,6.385,6.385,0,0,0,.794-.895,8.491,8.491,0,0,0-.9.79,17.558,17.558,0,0,1-2.535,2,7.05,7.05,0,0,1-4.485,1.163,4.311,4.311,0,0,1-2.468-1.064,3.771,3.771,0,0,1-1.145-2.6,2.769,2.769,0,0,1,.7-1.963l-.281-.241a4.814,4.814,0,0,1-4.389,1.686,4.44,4.44,0,0,1-3.173-2.151,5.017,5.017,0,0,1-.739-2.532C787.849,4763.583,787.942,4763.24,787.908,4763.233Z" transform="translate(-787.715 -4763.233)" fill="#375a64"/>
          </g>
          <g id="Grupo_56894" data-name="Grupo 56894" transform="translate(19.11 6.533)">
            <path id="Trazado_101968" data-name="Trazado 101968" d="M784.039,4749.3a.8.8,0,0,0-.244.109,5.015,5.015,0,0,0-.633.427,5.526,5.526,0,0,0-1.711,2.223,4.351,4.351,0,0,0,.39,4.088,3.356,3.356,0,0,0,2.067,1.419,3.4,3.4,0,0,0,2.644-.514,2.955,2.955,0,0,0,.629-.625l-.325-.185a3.177,3.177,0,0,0,.085,2.55,3.482,3.482,0,0,0,1.651,1.69,4.594,4.594,0,0,0,3.865-.008,6.17,6.17,0,0,0,2.083-1.569,2.989,2.989,0,0,0,.552-.773c-.024-.018-.228.249-.655.677a6.586,6.586,0,0,1-2.081,1.43,4.383,4.383,0,0,1-3.612-.059,3.165,3.165,0,0,1-1.471-1.538,2.822,2.822,0,0,1-.071-2.25l.6-1.393-.924,1.209a2.616,2.616,0,0,1-.544.54,3.062,3.062,0,0,1-2.348.457,3.012,3.012,0,0,1-1.86-1.256,4.11,4.11,0,0,1-.426-3.793,5.737,5.737,0,0,1,1.558-2.207C783.741,4749.51,784.058,4749.326,784.039,4749.3Z" transform="translate(-781.115 -4749.295)" fill="#375a64"/>
          </g>
        </g>
        <g id="Grupo_56940" data-name="Grupo 56940" transform="translate(0 87.521)">
          <g id="Grupo_56910" data-name="Grupo 56910">
            <g id="Grupo_56896" data-name="Grupo 56896" transform="translate(6.979)">
              <path id="Trazado_101969" data-name="Trazado 101969" d="M878.017,4841.8l26.18,19.991a3.39,3.39,0,0,1,.5,4.917h0a3.389,3.389,0,0,1-4.64.455l-25.964-20.176-3.513-6.927Z" transform="translate(-870.582 -4840.059)" fill="#d9a171"/>
              <path id="Trazado_101970" data-name="Trazado 101970" d="M903.008,4840.939l-1.857,2.163,2.007,3.979a1.593,1.593,0,0,0,1.745-1.811,1.4,1.4,0,0,0,1.584-1.818s1.361-.121.593-1.558Z" transform="translate(-899.646 -4840.153)" fill="#fff" opacity="0.5"/>
              <path id="Trazado_101971" data-name="Trazado 101971" d="M877.814,4864.263l-4.3,5.25-1.442-1.121,4.121-5.365Z" transform="translate(-844.199 -4842.532)" fill="#1a2e35"/>
            </g>
            <g id="Grupo_56897" data-name="Grupo 56897" transform="translate(0 3.387)">
              <path id="Trazado_101972" data-name="Trazado 101972" d="M911.381,4912.316l.941-.17-19.288-33.716,3.048-9.719s3.534-13.843.589-17.377c0,0-6.442-7.584-8.532-7.479s-3.762.523-4.18,2.089c0,0-3.553-.417-4.494.732a18.1,18.1,0,0,0-1.672,2.508s-3.866-.314-4.911,3.031c0,0-3.657,1.88-3.971,4.6s.732,15.361,1.881,18.6,5.434,10.031,6.688,20.063,5.673,16.543,9.6,31.2l10.671,4.219Z" transform="translate(-868.856 -4843.854)" fill="#ffbf9d"/>
            </g>
            <g id="Grupo_56899" data-name="Grupo 56899" transform="translate(15.285 5.255)">
              <g id="Grupo_56898" data-name="Grupo 56898">
                <path id="Trazado_101973" data-name="Trazado 101973" d="M896.33,4845.957a11.444,11.444,0,0,1,3.624,5.766,6.542,6.542,0,0,0-3.624-5.766Z" transform="translate(-896.326 -4845.947)" fill="#ff9a6c"/>
              </g>
            </g>
            <g id="Grupo_56901" data-name="Grupo 56901" transform="translate(9.144 8.701)">
              <g id="Grupo_56900" data-name="Grupo 56900">
                <path id="Trazado_101974" data-name="Trazado 101974" d="M903.188,4849.82a11.193,11.193,0,0,1,3.654,5.2,6.064,6.064,0,0,0-3.654-5.2Z" transform="translate(-903.185 -4849.809)" fill="#ff9a6c"/>
              </g>
            </g>
            <g id="Grupo_56903" data-name="Grupo 56903" transform="translate(4.228 11.633)">
              <g id="Grupo_56902" data-name="Grupo 56902">
                <path id="Trazado_101975" data-name="Trazado 101975" d="M909.183,4853.1c-.082.1.879.941,1.76,2.214s1.35,2.457,1.473,2.416a6.8,6.8,0,0,0-3.233-4.63Z" transform="translate(-909.178 -4853.096)" fill="#ff9a6c"/>
              </g>
            </g>
            <g id="Grupo_56905" data-name="Grupo 56905" transform="translate(22.341 11.941)">
              <g id="Grupo_56904" data-name="Grupo 56904">
                <path id="Trazado_101976" data-name="Trazado 101976" d="M887.8,4854.25a4.627,4.627,0,0,1,4.214.287c.038-.037-.1-.272-.453-.533a3.164,3.164,0,0,0-3.239-.218C887.94,4853.995,887.769,4854.209,887.8,4854.25Z" transform="translate(-887.798 -4853.44)" fill="#ff9a6c"/>
              </g>
            </g>
            <g id="Grupo_56907" data-name="Grupo 56907" transform="translate(14.628 14.54)">
              <g id="Grupo_56906" data-name="Grupo 56906">
                <path id="Trazado_101977" data-name="Trazado 101977" d="M896.856,4859.374a5.6,5.6,0,0,1,3.851-2.937c0-.053-.3-.122-.783-.059a3.839,3.839,0,0,0-2.919,2.225C896.816,4859.055,896.8,4859.361,896.856,4859.374Z" transform="translate(-896.83 -4856.353)" fill="#ff9a6c"/>
              </g>
            </g>
            <g id="Grupo_56909" data-name="Grupo 56909" transform="translate(7.009 17.384)">
              <g id="Grupo_56908" data-name="Grupo 56908">
                <path id="Trazado_101978" data-name="Trazado 101978" d="M904.062,4861.349a6.272,6.272,0,0,1,5.042-1.365c.019-.051-.255-.226-.764-.348a4.319,4.319,0,0,0-3.793,1.028C904.168,4861.024,904.02,4861.314,904.062,4861.349Z" transform="translate(-904.055 -4859.541)" fill="#ff9a6c"/>
              </g>
            </g>
          </g>
          <g id="Grupo_56934" data-name="Grupo 56934" transform="translate(9.533 8.203)">
            <g id="Grupo_56911" data-name="Grupo 56911" transform="translate(178.789 47.764)">
              <path id="Trazado_101979" data-name="Trazado 101979" d="M692.282,4902.78s11.82,67.139,11.25,73.416-3.715,16.265-10.846,17.977a31.372,31.372,0,0,1-13.694,0l8.561-82.464Z" transform="translate(-678.992 -4902.78)" fill="#7e5ee3"/>
            </g>
            <g id="Grupo_56912" data-name="Grupo 56912" transform="translate(81.557)">
              <path id="Trazado_101980" data-name="Trazado 101980" d="M767.365,4862.385s14.147,10.057,17.274,13.014c13.078,12.369,15.815,17.432,17.338,21.616s-9.08,101.39-9.08,101.39l-2.148,16.983h0l-99.294.257h0v-86.771l14.918-61.065,9.179-2.612,1.853-7.279s11.405-8.421,30.217-8.664c5.787-.076,13.973,2.2,18.546,5.747h0Z" transform="translate(-691.455 -4849.251)" fill="#7e5ee3"/>
            </g>
            <g id="Grupo_56913" data-name="Grupo 56913" transform="translate(0 18.503)">
              <path id="Trazado_101981" data-name="Trazado 101981" d="M884.7,4870.294s-10.2-.46-11.106-.252c-3.145.727-11.783,8.644-21.62,18.4-9.385,9.31-27.852,28.677-27.852,28.677s-3.319-3.353-7.1,1.121l-14.578-21.206s-21.881,2.689-25.322,19.2c0,0,6.707,12.805,12.2,21.961,0,0,20.336,33.746,36.4,27.635,14.673-5.582,33.07-20.51,35.661-23.7l21.6-15.414s14.8-28.213,8.258-42.32Z" transform="translate(-777.123 -4869.987)" fill="#7e5ee3"/>
            </g>
            <g id="Grupo_56915" data-name="Grupo 56915" transform="translate(105.654 11.26)">
              <g id="Grupo_56914" data-name="Grupo 56914">
                <path id="Trazado_101982" data-name="Trazado 101982" d="M730.411,4866.555a2.551,2.551,0,0,0,.524-.107l1.473-.388c1.281-.325,3.143-.772,5.465-1.212a152.539,152.539,0,0,1,18.326-2.258,125.33,125.33,0,0,1,18.457.054c2.354.2,4.246.5,5.545.732l1.494.3a2.567,2.567,0,0,0,.529.074,2.36,2.36,0,0,0-.508-.16c-.384-.1-.874-.223-1.481-.376a48.647,48.647,0,0,0-5.548-.874,113.485,113.485,0,0,0-18.515-.184,135.171,135.171,0,0,0-18.359,2.393c-2.323.479-4.179.973-5.45,1.35l-1.454.47A2.54,2.54,0,0,0,730.411,4866.555Z" transform="translate(-730.411 -4861.871)" fill="#1a2e35"/>
              </g>
            </g>
            <g id="Grupo_56917" data-name="Grupo 56917" transform="translate(144.287 3.409)">
              <g id="Grupo_56916" data-name="Grupo 56916">
                <path id="Trazado_101983" data-name="Trazado 101983" d="M743.963,4860.555a32.638,32.638,0,0,0,1.039-7.482,32.756,32.756,0,0,0-1.039,7.482Z" transform="translate(-743.92 -4853.073)" fill="#1a2e35"/>
              </g>
            </g>
            <g id="Grupo_56919" data-name="Grupo 56919" transform="translate(140.6 3.061)">
              <g id="Grupo_56918" data-name="Grupo 56918">
                <path id="Trazado_101984" data-name="Trazado 101984" d="M748.294,4860.2a11.839,11.839,0,0,0,.521-7.512c-.129.018.066,1.7-.085,3.769S748.168,4860.159,748.294,4860.2Z" transform="translate(-748.271 -4852.683)" fill="#1a2e35"/>
              </g>
            </g>
            <g id="Grupo_56921" data-name="Grupo 56921" transform="translate(109.404 11.542)" opacity="0.3">
              <g id="Grupo_56920" data-name="Grupo 56920">
                <path id="Trazado_101985" data-name="Trazado 101985" d="M778.514,4863.693c-15.539,2.75-31.291.025-47.736,1.971,15.879-3.287,32.416-4.845,47.736-1.971" transform="translate(-730.778 -4862.186)"/>
              </g>
            </g>
            <g id="Grupo_56923" data-name="Grupo 56923" transform="translate(184.41 73.447)" opacity="0.3">
              <g id="Grupo_56922" data-name="Grupo 56922">
                <path id="Trazado_101986" data-name="Trazado 101986" d="M692.036,4997.4c8.741-20.47,7.706-43.609,6.521-65.836Z" transform="translate(-692.036 -4931.564)"/>
              </g>
            </g>
            <g id="Grupo_56925" data-name="Grupo 56925" transform="translate(181.061 62.401)">
              <g id="Grupo_56924" data-name="Grupo 56924">
                <path id="Trazado_101987" data-name="Trazado 101987" d="M702.634,4919.185a1.144,1.144,0,0,0-.046.257c-.023.2-.053.446-.092.762-.074.7-.178,1.68-.311,2.93-.255,2.575-.619,6.252-1.067,10.781-.888,9.108-2.1,21.689-3.547,35.573s-2.9,26.444-4.055,35.519c-.57,4.538-1.061,8.207-1.405,10.742-.165,1.245-.294,2.223-.386,2.921-.037.314-.066.565-.089.76a1.092,1.092,0,0,0-.015.262,1.2,1.2,0,0,0,.06-.255l.132-.755c.112-.693.269-1.668.468-2.909.4-2.528.934-6.192,1.544-10.727,1.238-9.067,2.734-21.623,4.184-35.515s2.611-26.474,3.42-35.588c.39-4.536.707-8.217.929-10.8.1-1.253.174-2.235.228-2.937.02-.316.036-.569.048-.766A1.156,1.156,0,0,0,702.634,4919.185Z" transform="translate(-691.616 -4919.185)" fill="#1a2e35"/>
              </g>
            </g>
            <g id="Grupo_56927" data-name="Grupo 56927" transform="translate(124.854 51.227)">
              <g id="Grupo_56926" data-name="Grupo 56926">
                <path id="Trazado_101988" data-name="Trazado 101988" d="M697.161,4906.851a3.355,3.355,0,0,0,.64.036l1.834.012c1.592-.006,3.9.017,6.739.083,5.688.128,13.544.545,22.166,1.566s16.358,2.469,21.918,3.68c2.78.6,5.025,1.121,6.57,1.5l1.786.417a3.7,3.7,0,0,0,.63.118,3.386,3.386,0,0,0-.608-.2l-1.765-.5c-1.534-.431-3.77-1-6.546-1.638a207.48,207.48,0,0,0-44.146-5.253c-2.849-.027-5.155,0-6.747.056l-1.834.07A3.845,3.845,0,0,0,697.161,4906.851Z" transform="translate(-697.161 -4906.661)" fill="#1a2e35"/>
              </g>
            </g>
            <g id="Grupo_56929" data-name="Grupo 56929" transform="translate(161.494 31.643)">
              <g id="Grupo_56928" data-name="Grupo 56928">
                <path id="Trazado_101989" data-name="Trazado 101989" d="M725.682,4926.227c.121-.005-.107-9.3-.509-20.764s-.826-20.755-.948-20.75.107,9.3.51,20.766S725.562,4926.231,725.682,4926.227Z" transform="translate(-724.193 -4884.713)" fill="#1a2e35"/>
              </g>
            </g>
            <g id="Grupo_56931" data-name="Grupo 56931" transform="translate(103.304 17.279)">
              <g id="Grupo_56930" data-name="Grupo 56930">
                <path id="Trazado_101990" data-name="Trazado 101990" d="M777.522,4923.344a4.145,4.145,0,0,0,.373-.584q.371-.639.995-1.711l3.664-6.294a54.548,54.548,0,0,0,4.6-9.792,32.1,32.1,0,0,0,1.371-6.259,37.742,37.742,0,0,0,.02-6.879,36.523,36.523,0,0,0-3.278-12.817,21.082,21.082,0,0,0-3.232-4.821,18.35,18.35,0,0,0-3.882-3.243,14.8,14.8,0,0,0-6.888-2.306,9.7,9.7,0,0,0-2.67.148,24.379,24.379,0,0,1,2.656.022,15.032,15.032,0,0,1,6.737,2.4,18.282,18.282,0,0,1,3.777,3.222,21.011,21.011,0,0,1,3.14,4.757,36.666,36.666,0,0,1,3.2,12.68,37.848,37.848,0,0,1-.011,6.793,32.115,32.115,0,0,1-1.328,6.18,56.259,56.259,0,0,1-4.481,9.766l-3.542,6.362q-.579,1.1-.924,1.752A3.989,3.989,0,0,0,777.522,4923.344Z" transform="translate(-768.588 -4868.616)" fill="#1a2e35"/>
              </g>
            </g>
            <g id="Grupo_56933" data-name="Grupo 56933" transform="translate(130.973 51.613)" opacity="0.3">
              <g id="Grupo_56932" data-name="Grupo 56932">
                <path id="Trazado_101991" data-name="Trazado 101991" d="M753.1,4914.259a118.233,118.233,0,0,1-18.659-2.462,28.455,28.455,0,0,1,1.045,8.347,19.142,19.142,0,0,1-4.148-7.635,11.552,11.552,0,0,1-4.707,7.725,25.235,25.235,0,0,1-.42-8.505q-13.926-1.678-27.668-4.579a187.584,187.584,0,0,1,54.929,6.838" transform="translate(-698.545 -4907.093)"/>
              </g>
            </g>
          </g>
          <g id="Grupo_56935" data-name="Grupo 56935" transform="translate(75.693 84.011)">
            <path id="Trazado_101992" data-name="Trazado 101992" d="M788.785,4963.46a2.521,2.521,0,0,0,.427-.255c.3-.2.7-.465,1.187-.792,1.026-.693,2.5-1.712,4.313-2.985,3.625-2.543,8.593-6.115,14.01-10.153s10.258-7.784,13.73-10.534c1.736-1.373,3.134-2.5,4.09-3.28l1.1-.912a2.362,2.362,0,0,0,.367-.337,2.623,2.623,0,0,0-.414.278l-1.14.856-4.163,3.187c-3.513,2.694-8.376,6.4-13.791,10.442s-10.356,7.639-13.94,10.238c-1.765,1.281-3.205,2.327-4.242,3.083-.473.349-.853.63-1.146.848A2.254,2.254,0,0,0,788.785,4963.46Z" transform="translate(-788.785 -4934.209)" fill="#1a2e35"/>
          </g>
          <g id="Grupo_56936" data-name="Grupo 56936" transform="translate(51.325 72.955)">
            <path id="Trazado_101993" data-name="Trazado 101993" d="M853.7,4939.991c.065,0,.023-1.09.15-2.834a29.731,29.731,0,0,1,4.014-12.917c.884-1.509,1.536-2.38,1.483-2.42a3.028,3.028,0,0,0-.509.574,19.118,19.118,0,0,0-1.2,1.708,26.415,26.415,0,0,0-4.053,13.042,18.874,18.874,0,0,0,.021,2.086A3.007,3.007,0,0,0,853.7,4939.991Z" transform="translate(-853.569 -4921.818)" fill="#1a2e35"/>
          </g>
          <g id="Grupo_56937" data-name="Grupo 56937" transform="translate(46.38 74.587)">
            <path id="Trazado_101994" data-name="Trazado 101994" d="M863.587,4938.557c.06-.009-.078-.852-.182-2.22a27.746,27.746,0,0,1,1.216-10.566c.412-1.308.738-2.1.682-2.122a1.86,1.86,0,0,0-.3.525,15.424,15.424,0,0,0-.634,1.511,23.239,23.239,0,0,0-1.229,10.678,15.605,15.605,0,0,0,.273,1.617A1.855,1.855,0,0,0,863.587,4938.557Z" transform="translate(-862.978 -4923.648)" fill="#1a2e35"/>
          </g>
          <g id="Grupo_56938" data-name="Grupo 56938" transform="translate(13.101 59.27)">
            <path id="Trazado_101995" data-name="Trazado 101995" d="M874.915,4927.423c.021,0-.01-.139.168-.272a.872.872,0,0,0,.293-.317c.085-.15.139-.337.243-.511.193-.36.672-.641,1.02-1.174a7.651,7.651,0,0,0,.87-1.9,12.682,12.682,0,0,1,2.475-4.67,20.638,20.638,0,0,1,2.231-2.224,23.407,23.407,0,0,1,2.69-2.054,22.03,22.03,0,0,1,2.879-1.786l2.855-1.4c.913-.431,1.759-.876,2.589-1.233l2.31-.984a10.388,10.388,0,0,0,1-.458c.306-.185.561-.382.82-.525l.749-.4c.236-.125.426-.288.6-.4.355-.22.669-.343.868-.452a.936.936,0,0,0,.3-.181,1.487,1.487,0,0,0-.326.114,7.01,7.01,0,0,0-.914.4,9.841,9.841,0,0,1-1.371.735c-.279.143-.546.338-.838.5s-.647.274-.994.424l-2.321.938c-.833.341-1.7.783-2.622,1.209s-1.874.9-2.866,1.379a21.513,21.513,0,0,0-2.922,1.8,22.879,22.879,0,0,0-2.726,2.092,20.221,20.221,0,0,0-2.254,2.277,12.64,12.64,0,0,0-2.462,4.808,7.728,7.728,0,0,1-.792,1.871c-.3.507-.768.8-.973,1.221-.105.2-.146.388-.215.53a.85.85,0,0,1-.244.313C874.848,4927.27,874.912,4927.435,874.915,4927.423Z" transform="translate(-874.902 -4906.482)" fill="#1a2e35"/>
          </g>
          <g id="Grupo_56939" data-name="Grupo 56939" transform="translate(105.457 91.399)">
            <path id="Trazado_101996" data-name="Trazado 101996" d="M799.149,5024c.1,0,.188-18.249.188-40.755s-.084-40.76-.188-40.76-.187,18.245-.187,40.76S799.046,5024,799.149,5024Z" transform="translate(-798.962 -4942.489)" fill="#1a2e35"/>
          </g>
        </g>
      </g>
    </g>
    <g id="freepik--speech-bubble--inject-11" transform="translate(656.265 4680.699)">
      <path id="Trazado_99401" data-name="Trazado 99401" d="M550.514,4148.015A44.175,44.175,0,0,1,480,4183.5l-21.691,5.519,9.013-20.156a44.189,44.189,0,1,1,83.137-20.844Z" transform="translate(-457.372 -4103.588)" fill="#fff"/>
      <path id="Trazado_99402" data-name="Trazado 99402" d="M550.892,4148.094a44.4,44.4,0,0,1-6.55,23.2,50.137,50.137,0,0,1-3.506,4.991,49.577,49.577,0,0,1-4.222,4.405c-.781.662-1.47,1.43-2.3,2.012l-2.448,1.839c-.807.608-1.721,1.1-2.568,1.642l-1.323.806c-.436.253-.913.463-1.324.69L523.894,4189l-2.871,1.072a20.413,20.413,0,0,1-2.924.889c-.993.237-1.971.582-2.978.727a42.939,42.939,0,0,1-6.088.739,37.638,37.638,0,0,1-6.127,0,44.268,44.268,0,0,1-22.775-8.481l.4.08-21.611,5.636-1.165.3.49-1.112,8.96-20.169v.555a43.758,43.758,0,0,1-5.292-19.467,44.506,44.506,0,1,1,88.985-1.682Zm0,0a44.294,44.294,0,0,0-17.085-34.727,44.876,44.876,0,0,0-18-8.269,44.038,44.038,0,0,0-19.747.542,43.443,43.443,0,0,0-17.521,9.054,45.519,45.519,0,0,0-11.725,15.762,43.667,43.667,0,0,0,1.455,38.191l.146.278-.119.278-9.065,20.128-.676-.8,21.678-5.422h.212l.184.131a43.69,43.69,0,0,0,22.26,8.617,38.481,38.481,0,0,0,6.048.09,43.952,43.952,0,0,0,6.022-.646c1.007-.148,1.971-.464,2.965-.689a20.149,20.149,0,0,0,2.911-.848l2.859-1.018,2.739-1.325c.463-.224.926-.424,1.323-.662l1.324-.78c.859-.545,1.772-1.005,2.58-1.6l2.448-1.811a27.451,27.451,0,0,0,2.3-1.985,50.28,50.28,0,0,0,4.236-4.368,48.251,48.251,0,0,0,3.52-4.963A44.288,44.288,0,0,0,550.892,4148.094Z" transform="translate(-457.75 -4103.668)" fill="#344154"/>
      <path id="Trazado_99403" data-name="Trazado 99403" d="M490.781,4161.726l-16.45-16.635,5.532-5.452,9.595,9.712,19.957-31.271,6.538,4.169Z" transform="translate(-446.605 -4093.98)" fill="#ff9d00"/>
    </g>
  </g>
</svg>
