<svg xmlns="http://www.w3.org/2000/svg" width="351.406" height="627.99" viewBox="0 0 351.406 627.99">
  <g id="img9" transform="translate(-987.907 -9265.08)">
    <g id="Capa_2" data-name="Capa 2" transform="translate(975.779 9237.08)">
      <g id="Capa_1" data-name="Capa 1" transform="translate(12.127 28)">
        <g id="freepik--Plant--inject-204" transform="translate(302.58 322.713)">
          <g id="freepik--Plants--inject-204" transform="translate(0 0)">
            <path id="Trazado_107137" data-name="Trazado 107137" d="M290.461,369.466s-5.983-25.93,7.179-51.235C305,304.088,319,296.425,326.2,295.916c8.083-.547,15.873,6.759,8.159,16.013-7.332,8.821-20.647,12.207-29.761,35.362-6,15.275-5.932,26.731-5.932,26.731Z" transform="translate(-289.104 -295.887)" fill="#d9a171"/>
            <path id="Trazado_107138" data-name="Trazado 107138" d="M290.461,369.466s-5.983-25.93,7.179-51.235C305,304.088,319,296.425,326.2,295.916c8.083-.547,15.873,6.759,8.159,16.013-7.332,8.821-20.647,12.207-29.761,35.362-6,15.275-5.932,26.731-5.932,26.731Z" transform="translate(-289.104 -295.887)" fill="#fff" opacity="0.5"/>
            <path id="Trazado_107139" data-name="Trazado 107139" d="M294.424,361.628a.446.446,0,0,0,.471-.42h0c-1.693-28.564,16.968-52.088,30.754-59.675a.344.344,0,0,0,.216-.471.464.464,0,0,0,0-.115.585.585,0,0,0-.7-.1c-14,7.637-32.931,31.518-31.212,60.388a.471.471,0,0,0,.509.382Z" transform="translate(-287.811 -294.554)" fill="#fff"/>
            <path id="Trazado_107140" data-name="Trazado 107140" d="M297.538,367.193c1.6-6.53,6.619-14.435,16.764-21.385s23.944-13.162,22.416-19.6-12.169-6.556-19.832-3.233-25.458,18.559-23.638,41.892Z" transform="translate(-288.009 -289.083)" fill="#d9a171"/>
            <path id="Trazado_107141" data-name="Trazado 107141" d="M297.538,367.193c1.6-6.53,6.619-14.435,16.764-21.385s23.944-13.162,22.416-19.6-12.169-6.556-19.832-3.233-25.458,18.559-23.638,41.892Z" transform="translate(-288.009 -289.083)" fill="#fff" opacity="0.65"/>
            <path id="Trazado_107142" data-name="Trazado 107142" d="M295.478,357.834a.483.483,0,0,0,.471-.357c2.317-13.824,23.46-30.754,32.867-33.2a.395.395,0,0,0,.344-.446.115.115,0,0,0,0-.064.509.509,0,0,0-.624-.254c-9.865,2.546-31.123,19.5-33.516,33.885a.446.446,0,0,0,.446.433Z" transform="translate(-287.49 -288.354)" fill="#fff"/>
          </g>
        </g>
        <g id="freepik--Folder--inject-204" transform="translate(0 0)">
          <g id="freepik--folder--inject-204-2" data-name="freepik--folder--inject-204" transform="translate(0 0)">
            <path id="Trazado_107143" data-name="Trazado 107143" d="M51.425,521.373a3.73,3.73,0,0,1,2.037-2.991l202.23-127.127V205.2l25.077-31.021a37.372,37.372,0,0,0,7.179-20.138V49.206c0-6.263-4.3-8.656-9.572-5.359L53.437,183.6a3.691,3.691,0,0,0-2.037,2.991Z" transform="translate(-51.4 -42.367)" fill="#ff9d00"/>
            <path id="Trazado_107144" data-name="Trazado 107144" d="M274.033,71.227c0-6.263-4.43-8.911-9.9-5.843l-205.9,113.94a10.909,10.909,0,0,1-6.734,1.006V515.109h0a3.819,3.819,0,0,1,1.986-2.673L255.728,385.309V199.271L274.1,176.523Z" transform="translate(-51.373 -36.434)" fill="#ac6c06" opacity="0.3"/>
            <path id="Trazado_107145" data-name="Trazado 107145" d="M53.266,517.275a10.769,10.769,0,0,0,9.572-.089l205.9-113.94a21.144,21.144,0,0,0,9.916-16.79V74.3c0-6.25-4.43-8.91-9.916-5.843L62.838,182.406a10.769,10.769,0,0,1-9.572.1,3.182,3.182,0,0,1-1.846-2.635v334.78a3.183,3.183,0,0,0,1.846,2.622Z" transform="translate(-51.395 -35.596)" fill="#d9a171"/>
            <path id="Trazado_107146" data-name="Trazado 107146" d="M53.266,517.275a10.769,10.769,0,0,0,9.572-.089l205.9-113.94a21.144,21.144,0,0,0,9.916-16.79V74.3c0-6.25-4.43-8.91-9.916-5.843L62.838,182.406a10.769,10.769,0,0,1-9.572.1,3.182,3.182,0,0,1-1.846-2.635v334.78a3.183,3.183,0,0,0,1.846,2.622Z" transform="translate(-51.395 -35.596)" fill="#eba93f" opacity="0.3"/>
            <path id="Trazado_107147" data-name="Trazado 107147" d="M57.912,159.4a9.407,9.407,0,0,1-4.621-1.057,3.221,3.221,0,0,1-1.871-2.635V490.489a3.182,3.182,0,0,0,1.846,2.673,9.357,9.357,0,0,0,4.608,1.082Z" transform="translate(-51.395 -11.433)" fill="#fff" opacity="0.3"/>
            <path id="Trazado_107148" data-name="Trazado 107148" d="M82.2,155.61a.56.56,0,0,0-.56.56h0V469.59a.6.6,0,1,0,1.2,0V156.183a.56.56,0,0,0-.547-.573ZM63.81,166.29a.573.573,0,0,0-.56.573h0V480.219a.56.56,0,1,0,1.12,0h0V166.812a.56.56,0,0,0-.535-.573Zm9.2-5.308a.573.573,0,0,0-.573.56V474.911a.585.585,0,0,0,.573.56.56.56,0,0,0,.56-.56h0V161.491a.547.547,0,0,0-.535-.56Z" transform="translate(-48.166 -11.46)" fill="#12263f"/>
          </g>
        </g>
        <g id="freepik--Contract--inject-204" transform="translate(48.397 36.728)">
          <g id="freepik--Sheet--inject-204" transform="translate(0 0)">
            <path id="Trazado_107149" data-name="Trazado 107149" d="M94.155,196.654l-4.735-2.737L301.935,71.22l4.748,2.724Z" transform="translate(-89.42 -71.22)" fill="#f0f0f0"/>
            <path id="Trazado_107150" data-name="Trazado 107150" d="M305.687,73.36v326.4L93.07,522.5l.089-326.429Z" transform="translate(-88.424 -70.636)" fill="#fafafa"/>
            <path id="Trazado_107151" data-name="Trazado 107151" d="M304.538,75.32V399.114L94.251,520.539V196.707L304.538,75.32m1.2-1.96L93.156,196.07,93.08,522.512,305.659,399.764V73.36Z" transform="translate(-88.421 -70.636)" fill="#ebebeb"/>
            <path id="Trazado_107152" data-name="Trazado 107152" d="M94.155,170.347l-.089,326.429-4.6-2.648L89.42,167.61l4.646,2.673Z" transform="translate(-89.42 -44.913)" fill="#e0e0e0"/>
          </g>
          <g id="freepik--contract--inject-204-2" data-name="freepik--contract--inject-204" transform="translate(14.562 27.215)">
            <g id="freepik--sheet--inject-204-2" data-name="freepik--sheet--inject-204">
              <path id="Trazado_107153" data-name="Trazado 107153" d="M363.034,423.624v5.537L150.455,551.846l-2.329-1.426a94.744,94.744,0,0,1-47.226-81.8V215.31L313.479,92.6l4.786,2.737V345.9a89.827,89.827,0,0,0,44.787,77.736Z" transform="translate(-100.849 -92.6)" fill="#f0f0f0"/>
              <path id="Trazado_107154" data-name="Trazado 107154" d="M317.145,345.3V94.78L104.63,217.477v250.55a89.767,89.767,0,0,0,44.857,77.725l212.579-122.7a89.779,89.779,0,0,1-44.922-77.75ZM105.636,468.027V218.076L316.088,96.588V345.3a91.027,91.027,0,0,0,43.865,77.712l-210.466,121.5a88.978,88.978,0,0,1-43.852-76.49Z" transform="translate(-99.831 -92.005)" fill="#e0e0e0"/>
              <path id="Trazado_107155" data-name="Trazado 107155" d="M359.738,422.629,149.272,544.13a88.978,88.978,0,0,1-43.852-76.49V217.688L315.873,96.2V344.917a91.027,91.027,0,0,0,43.865,77.712Z" transform="translate(-99.615 -91.617)" fill="#fafafa"/>
              <path id="Trazado_107156" data-name="Trazado 107156" d="M105.646,442.312V191.762L100.86,189V442.312a94.744,94.744,0,0,0,47.277,81.811l2.393,1.362v-5.461A89.792,89.792,0,0,1,105.646,442.312Z" transform="translate(-100.86 -66.29)" fill="#e0e0e0"/>
              <path id="Trazado_107157" data-name="Trazado 107157" d="M139.87,475.347v5.461l212.54-122.7V352.65Z" transform="translate(-90.213 -21.626)" opacity="0.15"/>
            </g>
            <g id="freepik--Text--inject-204" transform="translate(148.818 39.318)">
              <path id="Trazado_107158" data-name="Trazado 107158" d="M220.036,153.086l50.726-29.277c1.2-.713,2.266-.2,2.266,1.2a4.888,4.888,0,0,1-2.266,3.819L220.036,158.1c-1.273.713-2.266.2-2.266-1.2a4.786,4.786,0,0,1,2.266-3.819Z" transform="translate(-217.77 -123.488)" fill="#e0e0e0"/>
              <path id="Trazado_107159" data-name="Trazado 107159" d="M220.036,168.517l50.726-29.277c1.2-.726,2.266-.2,2.266,1.2a4.862,4.862,0,0,1-2.266,3.819l-50.726,29.277c-1.273.726-2.266.2-2.266-1.2A4.774,4.774,0,0,1,220.036,168.517Z" transform="translate(-217.77 -119.278)" fill="#e0e0e0"/>
              <path id="Trazado_107160" data-name="Trazado 107160" d="M234.959,149.839l31.734-18.33c1.2-.713,2.266-.2,2.266,1.2a4.862,4.862,0,0,1-2.266,3.819l-31.734,18.317c-1.2.726-2.279.2-2.279-1.2a4.786,4.786,0,0,1,2.279-3.806Z" transform="translate(-213.701 -121.387)" fill="#e0e0e0"/>
            </g>
            <g id="freepik--text--inject-204-2" data-name="freepik--text--inject-204" transform="translate(27.533 100.953)">
              <path id="Trazado_107161" data-name="Trazado 107161" d="M124.756,267.94l165.773-95.711c1.273-.713,2.266-.2,2.266,1.2a4.812,4.812,0,0,1-2.266,3.819L124.756,272.955c-1.2.726-2.266.216-2.266-1.2A4.888,4.888,0,0,1,124.756,267.94Z" transform="translate(-122.49 -171.908)" fill="#e0e0e0"/>
              <path id="Trazado_107162" data-name="Trazado 107162" d="M124.756,275.662,290.529,179.9c1.273-.726,2.266-.2,2.266,1.2a4.812,4.812,0,0,1-2.266,3.755L124.756,280.576c-1.2.726-2.266.216-2.266-1.2A4.939,4.939,0,0,1,124.756,275.662Z" transform="translate(-122.49 -169.816)" fill="#e0e0e0"/>
              <path id="Trazado_107163" data-name="Trazado 107163" d="M124.756,283.372,290.529,187.61c1.273-.726,2.266-.2,2.266,1.2a4.812,4.812,0,0,1-2.266,3.819L124.756,288.337c-1.2.738-2.266.216-2.266-1.2A4.888,4.888,0,0,1,124.756,283.372Z" transform="translate(-122.49 -167.712)" fill="#e0e0e0"/>
              <path id="Trazado_107164" data-name="Trazado 107164" d="M124.756,291.081l165.773-95.762c1.273-.713,2.266-.2,2.266,1.2a4.812,4.812,0,0,1-2.266,3.755L124.756,295.994c-1.2.726-2.266.216-2.266-1.2A4.862,4.862,0,0,1,124.756,291.081Z" transform="translate(-122.49 -165.606)" fill="#e0e0e0"/>
            </g>
            <g id="freepik--text--inject-204-3" data-name="freepik--text--inject-204" transform="translate(27.533 150.157)">
              <path id="Trazado_107165" data-name="Trazado 107165" d="M124.756,306.665,290.529,210.89c1.273-.726,2.266-.216,2.266,1.2a4.888,4.888,0,0,1-2.266,3.819l-165.773,95.66c-1.2.726-2.266.2-2.266-1.2A4.825,4.825,0,0,1,124.756,306.665Z" transform="translate(-122.49 -210.562)" fill="#e0e0e0"/>
              <path id="Trazado_107166" data-name="Trazado 107166" d="M124.756,314.362l165.773-95.711c1.273-.726,2.266-.216,2.266,1.146a4.888,4.888,0,0,1-2.266,3.819L124.756,319.327c-1.2.713-2.266.2-2.266-1.2a4.888,4.888,0,0,1,2.266-3.768Z" transform="translate(-122.49 -208.444)" fill="#e0e0e0"/>
              <path id="Trazado_107167" data-name="Trazado 107167" d="M124.756,322.059l165.773-95.7c1.273-.726,2.266-.216,2.266,1.146a4.888,4.888,0,0,1-2.266,3.819L124.756,326.973c-1.2.726-2.266.2-2.266-1.209a4.939,4.939,0,0,1,2.266-3.7Z" transform="translate(-122.49 -206.34)" fill="#e0e0e0"/>
              <path id="Trazado_107168" data-name="Trazado 107168" d="M124.756,329.768l165.773-95.7c1.273-.726,2.266-.2,2.266,1.209a4.888,4.888,0,0,1-2.266,3.819L124.756,334.631c-1.2.726-2.266.216-2.266-1.146a4.951,4.951,0,0,1,2.266-3.717Z" transform="translate(-122.49 -204.235)" fill="#e0e0e0"/>
            </g>
            <path id="Trazado_107169" data-name="Trazado 107169" d="M124.756,345.339l165.773-95.7c1.273-.726,2.266-.216,2.266,1.2a4.812,4.812,0,0,1-2.266,3.819l-165.773,95.7c-1.2.726-2.266.2-2.266-1.2a4.914,4.914,0,0,1,2.266-3.819Z" transform="translate(-94.957 -49.829)" fill="#e0e0e0"/>
            <path id="Trazado_107170" data-name="Trazado 107170" d="M124.756,353.1l165.773-95.762c1.273-.713,2.266-.216,2.266,1.2a4.811,4.811,0,0,1-2.266,3.819L124.756,357.964c-1.2.726-2.266.2-2.266-1.2A4.9,4.9,0,0,1,124.756,353.1Z" transform="translate(-94.957 -47.727)" fill="#e0e0e0"/>
            <path id="Trazado_107171" data-name="Trazado 107171" d="M124.756,351.256l88.85-51.337c1.2-.713,2.266-.2,2.266,1.2a4.888,4.888,0,0,1-2.266,3.819l-88.85,51.324c-1.2.713-2.266.2-2.266-1.2A4.85,4.85,0,0,1,124.756,351.256Z" transform="translate(-94.957 -36.105)" fill="#e0e0e0"/>
            <path id="Trazado_107172" data-name="Trazado 107172" d="M124.756,361.268l59.026-34.127c1.2-.726,2.266-.216,2.266,1.2a4.774,4.774,0,0,1-2.266,3.755l-59.026,34.127c-1.2.726-2.266.2-2.266-1.2A4.85,4.85,0,0,1,124.756,361.268Z" transform="translate(-94.957 -28.678)" fill="#ff9d00"/>
            <path id="Trazado_107173" data-name="Trazado 107173" d="M244.931,305.364v-5.092c-11.329,6.543-20.558,24.186-20.558,39.27l3.819-2.215C228.218,325.031,235.715,310.7,244.931,305.364ZM259.748,319.1c0-10.9-6.645-15.924-14.817-11.2s-14.817,17.414-14.817,28.31,6.645,15.912,14.817,11.2S259.748,330,259.748,319.1ZM232,335.113c0-9.471,5.779-20.532,12.895-24.631a15.833,15.833,0,0,1,1.464-.738L232.1,337.022c-.025-.624-.1-1.26-.1-1.909Zm.547,4.659,16.077-30.7c4.162-.726,7.421,1.782,8.643,6.645l-15.988,30.55c-4.137.751-7.434-1.706-8.694-6.517Zm25.14-21.309c0,.56.076,1.2.076,1.769,0,9.483-5.792,20.532-12.907,24.631a13.434,13.434,0,0,1-1.349.687Zm-12.729-23.307c-13.429,7.752-24.377,28.641-24.377,46.564s10.947,26.2,24.377,18.419,24.351-28.615,24.351-46.564-10.973-26.171-24.376-18.419Zm0,62.373c-12.386,7.179-22.454-.471-22.454-16.968s10.069-35.744,22.454-42.9,22.454.471,22.454,16.981-10.094,35.846-22.48,42.936Zm16.752-39.588c0,12.3-7.5,26.63-16.752,31.938v5.092c11.329-6.556,20.558-24.186,20.558-39.283Z" transform="translate(-68.185 -38.114)" fill="#d9a171" opacity="0.2"/>
            <path id="Trazado_107174" data-name="Trazado 107174" d="M227.412,369.841,135.99,422.654a1.629,1.629,0,0,1-2.266-.484,1.488,1.488,0,0,1-.2-.458v-.153a2.737,2.737,0,0,1,1.2-3.042l91.422-52.826a1.6,1.6,0,0,1,2.2.522,1.387,1.387,0,0,1,.191.445v.153A2.686,2.686,0,0,1,227.412,369.841Z" transform="translate(-91.972 -18.131)" fill="#e0e0e0"/>
            <path id="Trazado_107175" data-name="Trazado 107175" d="M204.34,389.528l-64.028,37.106a1.833,1.833,0,0,1-2.546-.6,2.518,2.518,0,0,1-.127-.267v-.115a2.393,2.393,0,0,1,1.006-2.979l64.028-37.118a1.8,1.8,0,0,1,2.457.573,1.464,1.464,0,0,1,.153.318v.076a2.419,2.419,0,0,1-.942,3Z" transform="translate(-90.872 -12.717)" fill="#e0e0e0"/>
            <path id="Trazado_107176" data-name="Trazado 107176" d="M286.863,342.2,222.835,379.3a1.82,1.82,0,0,1-2.546-.585,1.935,1.935,0,0,1-.14-.28v-.076a2.406,2.406,0,0,1,1.006-2.991l64.015-37.106a1.807,1.807,0,0,1,2.546.611,1.9,1.9,0,0,1,.14.28v.127A2.418,2.418,0,0,1,286.863,342.2Z" transform="translate(-68.353 -25.632)" fill="#e0e0e0"/>
            <path id="Trazado_107177" data-name="Trazado 107177" d="M188.331,373.211a18.967,18.967,0,0,1-5.092,7.1,1.909,1.909,0,0,1-.738.484c-.446.076-.6-.293-.649-.789a10.183,10.183,0,0,1,.153-2.546c.191-1.642.433-3.259.7-4.888q.675-3.933,1.426-7.841c.471-1.107.917-2.215,1.337-3.361a86.165,86.165,0,0,0,3.055-10.043,26.212,26.212,0,0,0,.929-10.463c-.064-.331-.509-.6-.675-.216-1.438,3.182-1.935,7.039-2.648,10.54L183.583,363.4c-.064.28-.1.547-.165.815q-1.2,2.9-2.61,5.639c-.547,1.082-1.133,2.139-1.731,3.157a19.89,19.89,0,0,1-1.795,2.889c-.917,1.107-2.113.751-2.66-.649a3.819,3.819,0,0,1-.242-.929,11.875,11.875,0,0,0,2.113-2.966,26.961,26.961,0,0,0,1.718-3.819,28.179,28.179,0,0,0,1.107-4.341c.153-.967.522-2.457-.064-3.259s-1.426-.089-1.884.675a28.57,28.57,0,0,0-1.859,3.946,24.568,24.568,0,0,0-1.871,8.911v.407c-.089,0-.178.153-.28.216a1.655,1.655,0,0,1-2.342-.178,1.629,1.629,0,0,1-.395-1.273.407.407,0,0,0-.764-.242c-.636,1.426-.687,3.233-1.464,4.557-.369.6-1.018,1.336-1.6.9a1.273,1.273,0,0,1-.471-1.044c.076-.216.153-.42.216-.636.153-.458-.458-.776-.675-.471a1.73,1.73,0,0,0-.318.929c-.369,1.069-.764,2.126-1.2,3.144a10.181,10.181,0,0,1,0-3.3c.064-.433-.662-.713-.751-.242a29.642,29.642,0,0,1-1.2,4.277c-.242.713-.535,1.4-.84,2.088a7.967,7.967,0,0,1-1.2,2.189c-.242.242-.586.471-.891.28s-.344-.917-.356-1.387c0-.776,0-1.566.064-2.393a27.614,27.614,0,0,1,.726-4.557c.115-.509-.611-.853-.764-.331a56.512,56.512,0,0,1-2.546,6.976c-.5,1.082-1.006,2.164-1.591,3.182-.255.484-.955,1.54-1.528,1.528l.344-.637a55.021,55.021,0,0,0,3.322-7.637A33.683,33.683,0,0,0,159,371.684a2.342,2.342,0,0,0-.675-2.062,12.3,12.3,0,0,0,.089-4.264c-.458-2.546-2.317-3.424-4.137-2.839-2.177.675-3.908,2.864-5.41,4.939a52.19,52.19,0,0,0-7.077,13.557,58.635,58.635,0,0,0-2.113,7.752c-.509,2.482-1.2,5.5-.344,7.956,2.037,5.843,7.7.471,9.992-2.393a39.736,39.736,0,0,0,3.59-5.55,1.68,1.68,0,0,0,1.807-.6,12.032,12.032,0,0,0,1.833-3.093c.636-1.273,1.2-2.673,1.744-4.061v1.553a5.537,5.537,0,0,0,.306,2.546,1.273,1.273,0,0,0,1.273.687c1.273-.115,2.037-2.164,2.546-3.437a29.049,29.049,0,0,0,1.12-3.042,9.8,9.8,0,0,0,.369,1.578.356.356,0,0,0,.42.28.331.331,0,0,0,.242-.191,22.866,22.866,0,0,0,1.273-3.2,1.706,1.706,0,0,0,1.655.84c1.757-.433,2.062-2.928,2.635-4.9a2.635,2.635,0,0,0,1.031,1.082,2.393,2.393,0,0,0,2.546-.178,4.1,4.1,0,0,0,1.107,2.049,1.82,1.82,0,0,0,2.546.153,12.731,12.731,0,0,0,2.317-3.4c.738-1.273,1.464-2.622,2.138-3.972l.777-1.591c-.446,2.215-.853,4.443-1.2,6.67-.153.955-.28,1.9-.382,2.851a10.763,10.763,0,0,0-.153,2.393c.153,1.273.98,2.049,1.973,1.642a6.045,6.045,0,0,0,1.693-1.273,18.6,18.6,0,0,0,1.769-1.986,22.376,22.376,0,0,0,2.737-4.8C189.3,373.058,188.535,372.715,188.331,373.211Zm-1.655-21.092c.407-1.973.789-3.959,1.2-5.919a30.085,30.085,0,0,1,1.006-3.819,23.892,23.892,0,0,1-.675,6.365c-.522,2.393-1.2,4.863-1.846,7.179-.407,1.337-.84,2.635-1.273,3.933.535-2.546,1.069-5.206,1.6-7.816Zm-36.126,39a25.254,25.254,0,0,1-4.315,5.206,12.97,12.97,0,0,1-2.546,1.718c-.853.458-1.808.789-2.622.076-1.566-1.375-1.388-4.226-1.057-6.365a58.384,58.384,0,0,1,1.413-6.556,55.693,55.693,0,0,1,4.9-12.131,48.373,48.373,0,0,1,3.475-5.423c1.362-1.82,2.979-3.819,4.977-4.226,2.851-.586,3.03,2.788,2.469,6.148a3.819,3.819,0,0,0-2.24,1.426,16.816,16.816,0,0,0-3.068,7.065,22.967,22.967,0,0,0-.433,2.546,4.722,4.722,0,0,1-2.393.815c-1.273,0-1.069-2.088-.942-3.22a15.15,15.15,0,0,1,.9-3.59c.127-.28-.369-.7-.5-.407a15.273,15.273,0,0,0-1.107,4.01,4.939,4.939,0,0,0,.458,3.3,2.19,2.19,0,0,0,2.546.42,6.941,6.941,0,0,0,.967-.382,19.217,19.217,0,0,0,.178,4.443,7.206,7.206,0,0,0,.636,2.228c-.522.955-1.12,1.909-1.706,2.839Zm6.556-20.545a26.178,26.178,0,0,1-1.273,4.481,12.435,12.435,0,0,1-3.259,4.786,23.094,23.094,0,0,1,1.5-5.3,10.269,10.269,0,0,1,1.693-2.915,3.627,3.627,0,0,1,1.2-.993Zm-4.366,16.752c-.089-.344-.153-.751-.2-1.018a13.909,13.909,0,0,1-.229-1.782,17.484,17.484,0,0,1,0-3.462h0a8.9,8.9,0,0,0,1.082-.866,15.135,15.135,0,0,0,3.819-6.708c.255-.8.509-1.693.713-2.622v.255a4.778,4.778,0,0,1,0,.853,35.57,35.57,0,0,1-1.553,6.874,49.081,49.081,0,0,1-3.628,8.5Zm21.78-16.548a28.411,28.411,0,0,1,2.037-6.988,13.773,13.773,0,0,1,1.642-3.119c0-.089.407-.458.509-.356s.076.369.076.433a4.916,4.916,0,0,1,0,.866c-.076.649-.191,1.273-.331,1.948a24.545,24.545,0,0,1-2.648,7.307,14.494,14.494,0,0,1-1.477,2.24,17.822,17.822,0,0,1,.191-2.291Zm38.57-11.558-.369-.076c.089-1.871.1-3.755.076-5.6-.064-3.59-.293-7.065-.687-10.565a8.129,8.129,0,0,0-.14-1.082c.178-1.069.331-2.151.446-3.233.216-2.126.369-4.8-1.2-6.046a.318.318,0,0,0-.573.216,25.662,25.662,0,0,0,.369,7.319,8.726,8.726,0,0,0,.166,1.2,50.1,50.1,0,0,1-1.082,5.092,50.9,50.9,0,0,1-2.088,6.365c-.407,1.031-.84,2.049-1.273,3.042a5.5,5.5,0,0,1-2.088,2.648,2.662,2.662,0,0,1-.242-1.337c0-.445-.586-.738-.7-.242a1.639,1.639,0,0,1-.1.356c.1-1.2.229-2.393.407-3.6.064-.395-.573-.726-.675-.305a22.239,22.239,0,0,1-1.362,3.946,18.764,18.764,0,0,1-1.031,1.935c-.216.357-.687,1.2-1.082,1.095-.891-.115-.229-3.59,0-4.3a2.926,2.926,0,0,1,.165-.636,26.448,26.448,0,0,0,1.2-3.221c.165-.433-.433-.827-.624-.433a17.09,17.09,0,0,0-.878,2.189,47.517,47.517,0,0,1-3.755,7.179c-.866,1.375-2.011,3.488-3.462,3.717-.84.115-1.12-.624-1.146-1.578a26.732,26.732,0,0,0,3.819-5.283c.789-1.413,4.6-9.2,1.069-8.911-1.527.153-2.482,2.151-3.157,3.742a33.189,33.189,0,0,0-1.922,6.123,30.764,30.764,0,0,0-.484,3.068,5.365,5.365,0,0,0,0,.9,23.491,23.491,0,0,1-3.653,3.182c-.293.191.14.751.395.585a23.082,23.082,0,0,0,3.335-2.75,3.175,3.175,0,0,0,.255.764c.866,1.629,2.61.827,3.59-.191a26.511,26.511,0,0,0,3.819-5.677c.2-.382.407-.764.6-1.2-.178,1.2-.242,2.826.624,3.272s1.9-.98,2.393-1.9c.356-.662.687-1.336.98-2.037a5.979,5.979,0,0,1-.076,1.2c-.076.356.305.636.522.484A2.661,2.661,0,0,0,204,358.1a3.693,3.693,0,0,0,.382.891.446.446,0,0,0,.433.191c2.024-.6,3.106-3.679,4.01-5.856a52.77,52.77,0,0,0,2.393-7.179c.165-.687.331-1.375.484-2.075.14,1.5.255,2.991.331,4.493a85.378,85.378,0,0,1,.076,10.183,8.007,8.007,0,0,0-4.684,1.629,20.559,20.559,0,0,0-5.194,4.646,9.6,9.6,0,0,0-2.024,6.454c.14,2.215,1.2,4.112,2.9,4.621,3.59,1.107,6.657-3.59,8.032-7.358a33.378,33.378,0,0,0,1.718-9.076h.395c.433.369.433-.407-.064-.522Zm-21.36.815a32.75,32.75,0,0,1,1.337-4.926,11.546,11.546,0,0,1,2.393-4.557c.229-.216.84-.675,1.107-.5s.369.878.306,1.413a12.822,12.822,0,0,1-.713,2.635,26.326,26.326,0,0,1-2.215,4.544,27.315,27.315,0,0,1-2.546,3.59,21.142,21.142,0,0,1,.331-2.164Zm19.845-21.041a21.863,21.863,0,0,1-.242-5.155c.725,1.337.484,3.513.242,5.194Zm-.216,25.331c-.751,4.175-2.457,8.911-5.664,10.769a2.788,2.788,0,0,1-4.252-1.273,7.88,7.88,0,0,1,.471-6.365,16.179,16.179,0,0,1,5.092-5.334,9.063,9.063,0,0,1,4.863-2.1,42.9,42.9,0,0,1-.547,4.4Z" transform="translate(-90.469 -27.128)" fill="#455a64"/>
            <path id="freepik--shadow--inject-204" d="M101.39,395.662a89.105,89.105,0,0,0,2.737,19.654l25.739-14.766,6.861-19.947-6.861-1.273Z" transform="translate(-100.715 -14.344)" fill="#e0e0e0"/>
          </g>
        </g>
        <g id="freepik--Sticker--inject-204" transform="translate(39.193 424.856)">
          <g id="freepik--sticker--inject-204-2" data-name="freepik--sticker--inject-204" transform="translate(0 0)">
            <path id="Trazado_107194" data-name="Trazado 107194" d="M132.8,376.13,82.19,405.344V426.6L132.8,397.375l9.191-15.937Z" transform="translate(-82.19 -376.13)" fill="#7e5ee3"/>
            <path id="Trazado_107195" data-name="Trazado 107195" d="M98.626,394.179a.128.128,0,0,1,.191,0h0a.293.293,0,0,1,.089.242V404.6a.612.612,0,0,1-.089.331.408.408,0,0,1-.191.242l-.827.484a.178.178,0,0,1-.191,0,.318.318,0,0,1-.076-.255v-4.188L94.426,403v4.137a.765.765,0,0,1-.076.344.737.737,0,0,1-.191.242l-.827.484a.178.178,0,0,1-.191,0,.28.28,0,0,1-.089-.255V397.769a.7.7,0,0,1,.089-.356.574.574,0,0,1,.191-.242l.827-.471a.14.14,0,0,1,.191,0,.331.331,0,0,1,.076.267v4.01l3.08-1.769v-3.972a.839.839,0,0,1,.076-.344.892.892,0,0,1,.191-.242Z" transform="translate(-79.227 -371.216)" fill="#fff"/>
            <path id="Trazado_107196" data-name="Trazado 107196" d="M103.621,400.2a.14.14,0,0,1,.191,0,.318.318,0,0,1,0,.242v1.12a.955.955,0,0,1,0,.331.6.6,0,0,1-.191.242l-4.481,2.546a.14.14,0,0,1-.191,0,.306.306,0,0,1-.089-.255V394.247a.637.637,0,0,1,.089-.344.458.458,0,0,1,.191-.242l4.481-2.546a.178.178,0,0,1,.191,0,.382.382,0,0,1,.076.255v1.12a1.12,1.12,0,0,1-.076.344.827.827,0,0,1-.191.229l-3.31,2v2.546l3.068-1.757a.115.115,0,0,1,.178,0h0a.28.28,0,0,1,.076.242v1.12a.8.8,0,0,1-.076.344.483.483,0,0,1-.191.229l-3.055,1.718v2.61Z" transform="translate(-77.641 -372.048)" fill="#fff"/>
            <path id="Trazado_107197" data-name="Trazado 107197" d="M106.729,389.231c.853-.484,1.5-.56,1.948-.2a2.75,2.75,0,0,1,.649,2.151,6.907,6.907,0,0,1-.343,2.15,5.507,5.507,0,0,1-.993,1.77l1.438,3.068a.306.306,0,0,1,0,.153.586.586,0,0,1-.076.293.56.56,0,0,1-.153.191l-.878.5c-.127.076-.229.089-.293,0a.586.586,0,0,1-.14-.2l-1.273-2.877-1.349.789v3.653a.686.686,0,0,1-.089.344.574.574,0,0,1-.191.242l-.827.471a.14.14,0,0,1-.191,0,.28.28,0,0,1-.076-.242v-10.12a.763.763,0,0,1,.076-.344.459.459,0,0,1,.191-.242Zm-1.528,5.83,1.477-.84a2.98,2.98,0,0,0,.929-.853,2.546,2.546,0,0,0,.344-1.4c0-.586-.115-.916-.344-.967a1.272,1.272,0,0,0-.929.216l-1.477.866Z" transform="translate(-76.268 -372.67)" fill="#fff"/>
            <path id="Trazado_107198" data-name="Trazado 107198" d="M113.946,394.254a.153.153,0,0,1,.2,0h0a.458.458,0,0,1,.076.255v1.12a1.12,1.12,0,0,1-.076.344.51.51,0,0,1-.2.229l-4.468,2.546a.153.153,0,0,1-.2,0h0a.369.369,0,0,1,0-.255V388.309a1.106,1.106,0,0,1,0-.356.508.508,0,0,1,.2-.229l4.392-2.546a.14.14,0,0,1,.191,0,.4.4,0,0,1,.089.255v1.107a.865.865,0,0,1-.089.356.547.547,0,0,1-.191.229l-3.284,1.9v2.546l3.055-1.769a.14.14,0,0,1,.191,0,.331.331,0,0,1,.089.254v1.108a.7.7,0,0,1-.089.356.572.572,0,0,1-.191.242l-3.068,1.744v2.546Z" transform="translate(-74.804 -373.671)" fill="#fff"/>
          </g>
        </g>
      </g>
    </g>
    <g id="freepik--Character--inject-204" transform="translate(1132.005 9525.419)">
      <g id="freepik--Chartacter--inject-204">
        <g id="freepik--Bottom--inject-204" transform="translate(72.934 156.459)">
          <path id="Trazado_107199" data-name="Trazado 107199" d="M379.207,394.387l-5.587-2.123,1.842-3.774L378.9,391.7Z" transform="translate(-341.464 -213.885)"/>
          <path id="Trazado_107200" data-name="Trazado 107200" d="M385.05,384.33s.21,3.644.25,4.8-4.866,4.706-6.077,5.266l-.31-2.633a20.474,20.474,0,0,0-2.823,4.325c-.941,1.632-2.173,4.716-4.766,6.818-3.855,3.124-9.852,4.715-15.959,4.876s-9.6-1.332-11.3-2.663-2.273-2.883-1.832-4.435S385.05,384.33,385.05,384.33Z" transform="translate(-341.501 -213.89)" fill="#344154"/>
          <path id="Trazado_107201" data-name="Trazado 107201" d="M368.762,371.842l-.07-2.112c-1.121,0-1.271,3-2.923,5.7a54.8,54.8,0,0,1-8.65,10.953c-6.227,5.647-11.774,9.131-14.537,11.664-3.764,3.384,2.753,8.82,12.725,8.31,4.946-.26,13.746-2.7,16.229-5.657s4-7.459,6.007-9.571,6.247-4.235,7.489-6.818c.691-1.412.34-4.705-.05-7.529-.35-2.583-.42-6.538-1.882-6.217l-.11,1.321c-.591,1.131-2,3-6.007,3.634C375.039,375.877,369.122,376.007,368.762,371.842Z" transform="translate(-341.501 -213.907)" fill="#37474f"/>
          <path id="Trazado_107202" data-name="Trazado 107202" d="M373.842,375.643c-1.882-.17-3.945-.811-4.706-2.533v-.06a4.876,4.876,0,0,1-1.311,4.065c-1.792,2.072-13.125,16.73-13.125,16.73s10.542-12.084,12.555-14.357c3-3.364,3.945-3.774,6.658-3.834Z" transform="translate(-341.486 -213.903)" opacity="0.15"/>
          <path id="Trazado_107203" data-name="Trazado 107203" d="M371.32,379.521a.6.6,0,0,0,.7.5.587.587,0,1,0-.7-.5Z" transform="translate(-341.466 -213.897)" opacity="0.15"/>
          <path id="Trazado_107204" data-name="Trazado 107204" d="M368.36,382.761a.6.6,0,1,0,.541-.671.611.611,0,0,0-.541.671Z" transform="translate(-341.47 -213.893)" opacity="0.15"/>
          <path id="Trazado_107205" data-name="Trazado 107205" d="M365.4,386a.611.611,0,1,0,1.211-.13.591.591,0,0,0-.661-.531h0a.6.6,0,0,0-.551.651Z" transform="translate(-341.473 -213.889)" opacity="0.15"/>
          <path id="Trazado_107206" data-name="Trazado 107206" d="M362.45,389.231a.611.611,0,0,0,.681.531.591.591,0,0,0,.531-.661h0a.611.611,0,0,0-1.211.13Z" transform="translate(-341.477 -213.885)" opacity="0.15"/>
          <path id="Trazado_107207" data-name="Trazado 107207" d="M359.5,392.461a.611.611,0,0,0,.661.541.6.6,0,0,0,.551-.651h0a.614.614,0,1,0-1.221.12Z" transform="translate(-341.48 -213.881)" opacity="0.15"/>
          <path id="Trazado_107208" data-name="Trazado 107208" d="M371.948,379.7a.25.25,0,0,0,.22-.27.27.27,0,0,0-.07-.14,10.082,10.082,0,0,0-6.878-2.773h0a.25.25,0,0,0-.22.27.24.24,0,0,0,.26.22h0c3.614-.19,6.478,2.6,6.508,2.633A.23.23,0,0,0,371.948,379.7Z" transform="translate(-341.474 -213.899)" fill="#344154"/>
          <path id="Trazado_107209" data-name="Trazado 107209" d="M369.008,382.934a.2.2,0,0,0,.15-.08.24.24,0,0,0,0-.34h0a10.012,10.012,0,0,0-6.878-2.753h0a.25.25,0,0,0-.23.26h0a.26.26,0,0,0,.26.23c3.614-.19,6.488,2.583,6.518,2.613A.25.25,0,0,0,369.008,382.934Z" transform="translate(-341.477 -213.896)" fill="#344154"/>
          <path id="Trazado_107210" data-name="Trazado 107210" d="M366.008,386.174a.2.2,0,0,0,.15-.07.24.24,0,0,0,0-.35h0a10.142,10.142,0,0,0-6.878-2.763h0a.26.26,0,0,0-.23.27.24.24,0,0,0,.26.22c3.614-.19,6.488,2.6,6.508,2.623A.23.23,0,0,0,366.008,386.174Z" transform="translate(-341.481 -213.892)" fill="#344154"/>
          <path id="Trazado_107211" data-name="Trazado 107211" d="M363.1,389.414a.19.19,0,0,0,.15-.08.24.24,0,0,0,0-.33h0a10.011,10.011,0,0,0-6.888-2.763h0a.24.24,0,0,0-.22.26h0a.23.23,0,0,0,.24.23h0c3.614-.19,6.478,2.593,6.508,2.623A.29.29,0,0,0,363.1,389.414Z" transform="translate(-341.484 -213.888)" fill="#344154"/>
          <path id="Trazado_107212" data-name="Trazado 107212" d="M360.128,392.694a.27.27,0,0,0,.16-.08.25.25,0,0,0,0-.34,10.082,10.082,0,0,0-6.888-2.763h0a.25.25,0,0,0-.23.26.24.24,0,0,0,.26.23h0c3.614-.19,6.478,2.593,6.508,2.613A.27.27,0,0,0,360.128,392.694Z" transform="translate(-341.488 -213.884)" fill="#344154"/>
          <path id="Trazado_107213" data-name="Trazado 107213" d="M424.84,412.009c.851,4.766,2,7.859,4,10.472s5.7,2.9,8.42,2.333c3.814-.8,7.529-3.454,9.011-8.921.871-3.284.27-7.008-1-11.423Z" transform="translate(-341.403 -213.867)" fill="#344154"/>
          <path id="Trazado_107214" data-name="Trazado 107214" d="M435.457,375.4c1.352-.06,2.513,6.337,4.065,12.695,1.642,6.818,4.225,10.432,5.466,15.018,1.722,6.347,1.622,9.311-.19,13.506s-11.183,9.291-15.809,4.145c-3.764-4.185-4.505-9.241-5.006-15.739a165.193,165.193,0,0,0-1.672-16.509c-.831-4.816-1.732-9.481-.631-10.152.17.7.37,1.6.551,2.283s.581,3.134,1.331,3.074a10.256,10.256,0,0,0-.2-1.832,2.132,2.132,0,0,1,.19-1.6,2.513,2.513,0,0,1,1.4-.841,37.778,37.778,0,0,1,3.914-1.091,16.847,16.847,0,0,1,2-.32,20.944,20.944,0,0,1,3.534-.27,1.141,1.141,0,0,1,.8.561,2,2,0,0,1,.16.731,5.364,5.364,0,0,0,.33,1.312c.06.19.22.4.41.34s.19-.26.17-.42c-.08-.781-.25-1.342-.391-2.243-.07-.421-.21-.941-.26-1.4S435.517,375.81,435.457,375.4Z" transform="translate(-341.408 -213.901)" fill="#37474f"/>
          <path id="Trazado_107215" data-name="Trazado 107215" d="M440.2,405.26a.46.46,0,0,1-.36.561.471.471,0,1,1,.36-.561Z" transform="translate(-341.387 -213.866)" opacity="0.15"/>
          <path id="Trazado_107216" data-name="Trazado 107216" d="M439.261,400.85a.46.46,0,0,1-.36.561.471.471,0,0,1-.561-.36.48.48,0,0,1,.36-.561.47.47,0,0,1,.561.36Z" transform="translate(-341.388 -213.871)" opacity="0.15"/>
          <path id="Trazado_107217" data-name="Trazado 107217" d="M438.321,396.69a.471.471,0,0,1-.36.561.481.481,0,0,1-.561-.36.472.472,0,0,1,.921-.21Z" transform="translate(-341.389 -213.876)" opacity="0.15"/>
          <path id="Trazado_107218" data-name="Trazado 107218" d="M437.381,392.59a.471.471,0,0,1-.36.561.48.48,0,0,1-.561-.36.472.472,0,0,1,.921-.21Z" transform="translate(-341.39 -213.881)" opacity="0.15"/>
          <path id="Trazado_107219" data-name="Trazado 107219" d="M426.9,394.5a.471.471,0,1,1-.561-.35.461.461,0,0,1,.561.35Z" transform="translate(-341.402 -213.879)" opacity="0.15"/>
          <path id="Trazado_107220" data-name="Trazado 107220" d="M427.831,398.64a.461.461,0,0,1-.351.551h0a.472.472,0,1,1-.21-.921.461.461,0,0,1,.561.36Z" transform="translate(-341.401 -213.874)" opacity="0.15"/>
          <path id="Trazado_107221" data-name="Trazado 107221" d="M428.751,402.8a.471.471,0,1,1-.921.2.472.472,0,0,1,.921-.21Z" transform="translate(-341.4 -213.869)" opacity="0.15"/>
          <path id="Trazado_107222" data-name="Trazado 107222" d="M429.731,407.22a.491.491,0,0,1-.381.571.48.48,0,1,1,.381-.571Z" transform="translate(-341.399 -213.864)" opacity="0.15"/>
          <path id="Trazado_107223" data-name="Trazado 107223" d="M433.928,408.9,426.61,378.12l1.722-.24Z" transform="translate(-341.401 -213.898)" opacity="0.15"/>
          <path id="Trazado_107224" data-name="Trazado 107224" d="M439.843,405.6h-.08c-3.174-.31-8.42.631-10.352,1.882a.24.24,0,0,1-.33-.07h0a.24.24,0,0,1,.07-.33c2.063-1.342,7.359-2.3,10.683-2a.235.235,0,0,1,0,.471Z" transform="translate(-341.399 -213.866)" fill="#344154"/>
          <path id="Trazado_107225" data-name="Trazado 107225" d="M438.863,401.151a.242.242,0,0,1-.12,0c-2.5-.831-8.1.461-10.362,1.882a.24.24,0,0,1-.26-.4h0c2.313-1.512,8.089-2.823,10.733-1.952a.24.24,0,0,1,0,.461Z" transform="translate(-341.4 -213.871)" fill="#344154"/>
          <path id="Trazado_107226" data-name="Trazado 107226" d="M437.943,397a.17.17,0,0,1-.14,0c-2.493-.831-8.089.471-10.352,1.892a.25.25,0,0,1-.32-.13.241.241,0,0,1,.06-.28c2.323-1.492,8.1-2.823,10.733-1.952a.24.24,0,0,1,.16.28h0A.26.26,0,0,1,437.943,397Z" transform="translate(-341.401 -213.876)" fill="#344154"/>
          <path id="Trazado_107227" data-name="Trazado 107227" d="M437.013,392.911h-.13c-2.493-.831-8.1.47-10.352,1.892a.241.241,0,1,1-.27-.4h0c2.333-1.5,8.11-2.823,10.733-2a.24.24,0,0,1,.16.3h0a.21.21,0,0,1-.14.21Z" transform="translate(-341.402 -213.881)" fill="#344154"/>
          <path id="Trazado_107228" data-name="Trazado 107228" d="M428.258,218.715c3.134,39.646,5.006,93.64,5.006,93.64.29,3,3.184,15.859,4.635,30.706,1.532,15.668,2.773,45.053,2.773,45.053s-10.953,5.9-19.833,2.943c0,0-9.521-49.428-14.067-67.89-4.315-17.481-11.013-50.6-11.013-50.6l-4.585,32.808s.6,11.3.27,19.212c-.391,9.191-6.257,53.393-6.257,53.393s-11.924,7.008-21.155-.11c0,0-1.6-60.951-1.882-72.014-.511-21.705,2-63.755,2.823-91.768Z" transform="translate(-341.477 -214.09)" fill="#12263f"/>
          <path id="Trazado_107229" data-name="Trazado 107229" d="M412.08,264.3q1.252,14.257,2.783,28.483.741,7.108,1.552,14.217l.811,7.108.411,3.554c.13,1.181.38,2.353.561,3.524,1.562,9.421,4,26.5,5.647,35.882s3.524,18.752,5.456,28.093q-1.872-14.187-4.065-28.3c-1.472-9.421-3.764-26.521-5.386-35.912-.19-1.181-.43-2.343-.571-3.524l-.43-3.544-.9-7.088q-.881-7.088-1.882-14.177Q414.232,278.436,412.08,264.3Z" transform="translate(-341.418 -214.031)"/>
          <path id="Trazado_107230" data-name="Trazado 107230" d="M368.233,261.62c-1,8.85-1.522,17.771-1.882,26.681s-.731,17.881-.39,26.741.44,23.848.781,32.768.731,17.811,1.262,26.711q.21-13.376.08-26.741c-.05-8.9-.21-23.838-.4-32.748l-.16-6.668v-6.688l.17-13.366.22-13.356C367.942,270.52,368.083,266.065,368.233,261.62Z" transform="translate(-341.473 -214.034)"/>
          <path id="Trazado_107231" data-name="Trazado 107231" d="M395.744,272.5l-3.865-21.715s-10.763-1.572-16.279-6.528c0,0,3.554,6.6,13.706,9.121l3.895,19.182-2,32.738Z" transform="translate(-341.461 -214.055)"/>
        </g>
        <g id="freepik--Top--inject-204">
          <g id="freepik--Arm--inject-204" transform="translate(66.035 70.368)">
            <path id="Trazado_107232" data-name="Trazado 107232" d="M349,151.02c.08-1.882.941-3.364,3.224-4.9a16.349,16.349,0,0,0,4.615-4c1.251-1.672,3.374-4.806,4.655-5.847s-.25-2.533-2.5-2.273-7.349,2.823-8.57,5.536A24.479,24.479,0,0,0,349,151.02Z" transform="translate(-334.593 -128.093)" fill="#f28f8f"/>
            <path id="Trazado_107233" data-name="Trazado 107233" d="M378.281,142.076c-5.176.4-11.373.4-16.74,10.3-5.536,10.232-10.142,18.3-10.142,18.3a96.978,96.978,0,0,1-2.173-14.377c-.441-7.1-.26-10.2,2-14.287a118.421,118.421,0,0,0,8.63-13.916,69.08,69.08,0,0,0-11.844,1.622,2.413,2.413,0,0,0-1.492,1c-.2.39-.19.871-.38,1.281a2.624,2.624,0,0,1-1.4,1.181c-1.191.571-2.573,1.061-3.134,2.253-.31.661-.31,1.442-.581,2.112a7.909,7.909,0,0,1-2.383,2.663,7.348,7.348,0,0,0-1.742,3.764c-1.8,7.309-2.293,14.737-2.293,26.031,0,7.859.471,18.622,3.164,24.569s8.11,12.675,16.019,4.716S375.6,169.258,375.6,169.258Z" transform="translate(-334.61 -128.1)" fill="#ffa8a7"/>
            <path id="Trazado_107234" data-name="Trazado 107234" d="M352.087,140.66a13.417,13.417,0,0,0-3.694,2.163,4.555,4.555,0,0,1,.05,4c-.941,2.413-2.753,3.344-2.3,5.647a3.925,3.925,0,0,1,2.112-3.614C350.866,147.248,352.4,142.052,352.087,140.66Z" transform="translate(-334.597 -128.085)" fill="#f28f8f"/>
            <path id="Trazado_107235" data-name="Trazado 107235" d="M377.714,141.73c-4.926.531-10.012.8-14.827,7.459S351.2,169.9,351.2,169.9l.18.791s4,5.086,4.816,15.118a20.9,20.9,0,0,1-5.426,16.019,8.489,8.489,0,0,1-2.343,1s2,1.442,4.846-.581S378.3,168.5,378.3,168.5Z" transform="translate(-334.594 -128.084)" fill="#f0f0f0"/>
            <path id="Trazado_107236" data-name="Trazado 107236" d="M351.089,169.222l.31,1.412s2.6,9.131-.711,16.019-8.119,7.639-10.612,7.419c-2.743-.23-3.644-3.574-3.644-3.574l-.511-2.343a2,2,0,0,0-.611,2.343,62.121,62.121,0,0,0,3.764,8.47c1.512,2.743,6.588,6.7,10.963,4.285s7.088-8.33,7.088-16.2-1.812-12.9-3-14.567-3.4-5.256-3.4-5.256Z" transform="translate(-334.609 -128.054)" fill="#e0e0e0"/>
          </g>
          <g id="freepik--Chest--inject-204" transform="translate(96.112 80.069)">
            <path id="Trazado_107237" data-name="Trazado 107237" d="M429.226,145.88s6.938,5.747,3.664,19.853a206.138,206.138,0,0,0-4.4,27.963c-.511,7.439.33,32.518.33,32.518-11.253,13.446-58.3,10.012-64.135-2.223,0,0-.671-47.586,3.584-64.446,2.413-9.541,5.8-15.018,9.411-17.811L393.7,137.97l14.527-.18Z" transform="translate(-364.651 -137.79)" fill="#e6e6e6"/>
          </g>
          <g id="freepik--Pen--inject-204">
            <path id="Trazado_107238" data-name="Trazado 107238" d="M422.693,65.509a5.046,5.046,0,1,0-8.59-5.3h0l-2.673,4.325a2.523,2.523,0,0,0,.18,2.533,7.919,7.919,0,0,0,6.087,3.774,2.523,2.523,0,0,0,2.333-1l2.663-4.325Z" transform="translate(-268.485 -57.814)" fill="#455a64"/>
            <path id="Trazado_107239" data-name="Trazado 107239" d="M417.7,70.822a2.543,2.543,0,0,0,2.333-.941l2.663-4.335h0a5.006,5.006,0,0,0,.22-4.906h0c.451,1.352-.831,3.4-2.313,5.807s-3.294,3.564-6.928,1.562c-2.643-1.482-2.323-3.1-1.942-3.875l-.3.481a2.523,2.523,0,0,0,.18,2.533A7.909,7.909,0,0,0,417.7,70.822Z" transform="translate(-268.485 -57.811)" fill="#37474f"/>
            <path id="Trazado_107240" data-name="Trazado 107240" d="M422.442,86.228a15.687,15.687,0,1,0-26.714-16.451l0,0c-1.211,2-1.131,4.706.551,7.859,3.364,6.227,11.824,11.433,18.892,11.634C418.708,89.372,421.221,88.21,422.442,86.228Z" transform="translate(-268.504 -57.809)" fill="#aed3f2"/>
            <path id="Trazado_107241" data-name="Trazado 107241" d="M421.95,78.364C418.6,72.146,410.137,66.93,403.068,66.73c-3.534-.1-6.057,1.081-7.268,3l-58.7,95.382c-1.221,2-1.121,4.706.551,7.859,3.364,6.227,11.814,11.433,18.882,11.644,3.534.09,6.057-1.081,7.269-3l58.709-95.392C423.722,84.261,423.632,81.477,421.95,78.364Z" transform="translate(-268.573 -57.804)" fill="#12263f"/>
            <path id="Trazado_107242" data-name="Trazado 107242" d="M353.224,190.426c-7.269-.21-15.959-5.566-19.413-11.954-1.722-3.2-1.812-6.007-.561-8.079l4.505-7.339c1.251-2,3.844-3.224,7.479-3.124,7.269.21,15.959,5.566,19.413,11.954,1.722,3.2,1.822,6.007.571,8.09L360.7,187.3C359.452,189.324,356.859,190.536,353.224,190.426Z" transform="translate(-268.578 -57.695)" fill="#cdedfc"/>
            <path id="Trazado_107243" data-name="Trazado 107243" d="M340.72,167.25c7.269.21,15.959,5.557,19.413,11.964,1.732,3.194,1.812,6.007.561,8.079s-3.835,3.224-7.469,3.124c-7.269-.21-15.959-5.566-19.413-11.954-1.722-3.2-1.812-6.007-.561-8.08S337.085,167.15,340.72,167.25Z" transform="translate(-268.578 -57.686)" fill="#4c708f"/>
            <path id="Trazado_107244" data-name="Trazado 107244" d="M281.162,259c1.081-1.752,3.324-2.823,6.478-2.7,6.287.18,13.816,4.816,16.82,10.352,1.492,2.773,1.572,5.246.481,7.008h0l-3.6,3.544h0a7.008,7.008,0,0,1-5.346,1.732c-5.8-.16-12.725-4.435-15.488-9.541a7.009,7.009,0,0,1-.851-5.557h0Z" transform="translate(-268.64 -57.582)" fill="#4c708f"/>
            <path id="Trazado_107245" data-name="Trazado 107245" d="M287.638,256.431c6.287.18,13.816,4.816,16.82,10.352,1.492,2.773,1.572,5.246.481,7.008L357.88,187.85c1.081-1.762,1-4.235-.491-7.008-3-5.536-10.512-10.172-16.81-10.352-3.144-.09-5.4.941-6.477,2.7L281.16,259.1h0C282.211,257.372,284.484,256.341,287.638,256.431Z" transform="translate(-268.638 -57.682)" fill="#12263f"/>
            <path id="Trazado_107246" data-name="Trazado 107246" d="M300.886,277.528c1-1.562.941-3.764-.41-6.307-2.683-5.006-9.461-9.1-15.128-9.241-2.833-.06-4.816.841-5.777,2.413h0v.05h0c-3.374,5.517-10.012,22.176-9.211,30.486l.15.09a2.943,2.943,0,0,0,.39,1.291,7.288,7.288,0,0,0,5.647,3.414,3.005,3.005,0,0,0,1.272-.22h0C285.558,296.49,297.532,282.965,300.886,277.528Z" transform="translate(-268.651 -57.575)" fill="#cdedfc"/>
            <path id="Trazado_107247" data-name="Trazado 107247" d="M357.4,180.951a16.2,16.2,0,0,0-2-2.863l-52.942,85.991a16.016,16.016,0,0,1,2,2.873c.09.18.16.36.25.541l52.952-85.951A2.917,2.917,0,0,0,357.4,180.951Zm8.59-5.5a6.887,6.887,0,0,0-.21-.871L418,89.844c6.858-11.113,6.828-15.8,4.335-20.4,1.482,4.545-4.8,14.667-5.647,16.019l-52.582,85.41c.24.37.45.741.661,1.1l-4.515,7.339a12.466,12.466,0,0,1,1.271,3.454ZM274,299.329l2.753-1.231s2,.21,7.949-5.206,9.531-11.3,15.8-21.445a15.418,15.418,0,0,0-2.463-3.274c-.06.14-7.008,13.656-15.789,23.217a50.623,50.623,0,0,1-8.71,7.7Z" transform="translate(-268.647 -57.801)" fill="#fff" opacity="0.2"/>
            <path id="Trazado_107248" data-name="Trazado 107248" d="M272.565,295.27l-2.192,3.564c-.941,1.552-2.493,5.937-1.262,6.7s4.465-2.583,5.426-4.135h0l2.192-3.554s-.05-.941-1.682-1.882A3.544,3.544,0,0,0,272.565,295.27Z" transform="translate(-268.653 -57.536)" fill="#455a64"/>
            <path id="Trazado_107249" data-name="Trazado 107249" d="M270.7,305.232a1.612,1.612,0,0,0-1.872-1.292h-.16c-.07.731.07,1.322.441,1.552A1.593,1.593,0,0,0,270.7,305.232Z" transform="translate(-268.653 -57.526)" fill="#344154"/>
          </g>
          <g id="freepik--Hand--inject-204" transform="translate(80.021 70.368)">
            <path id="Trazado_107250" data-name="Trazado 107250" d="M359.809,128.1c1.342,0,3.825,1.442,5.777,2.713s3.764,1.372,3.124,2.833a2.813,2.813,0,0,1-2.583,1.181,11.011,11.011,0,0,1-3.174-.591c2.3,2,2.823,2.773,2.132,3.474-.941,1-2.653.881-4,.2.781.791,1.662,1.211,1.261,2s-1.832,1-3.484.7a9.822,9.822,0,0,1-3-1.071c-1.762.471-3.714,1.151-3.714,1.151a42.359,42.359,0,0,1,7.669-12.595Z" transform="translate(-348.576 -128.1)" fill="#ffa8a7"/>
            <path id="Trazado_107251" data-name="Trazado 107251" d="M361.015,137.843c-.941-.541-1.882-1.211-2.823-1.772a4.285,4.285,0,0,0-3.1-.34c-1.081.13-2.163.34-3.244.551s-2.163.37-3.264.511c1.051-.3,2.122-.561,3.2-.821a32.933,32.933,0,0,1,3.264-.631,10.475,10.475,0,0,1,1.682-.1,3.174,3.174,0,0,1,1.622.571C359.343,136.471,360.164,137.182,361.015,137.843Z" transform="translate(-348.58 -128.092)" fill="#f28f8f"/>
            <path id="Trazado_107252" data-name="Trazado 107252" d="M362.953,134.193c-.841-.541-1.682-1.071-2.533-1.572-.431-.24-.871-.511-1.292-.691a3.906,3.906,0,0,0-1.4-.13,25.457,25.457,0,0,0-3,.3c-1,.12-2,.26-3,.34.941-.25,1.942-.461,2.933-.651a22.938,22.938,0,0,1,3-.38,4.005,4.005,0,0,1,1.542.18,9.692,9.692,0,0,1,1.322.771A20.826,20.826,0,0,1,362.953,134.193Z" transform="translate(-348.576 -128.096)" fill="#f28f8f"/>
          </g>
          <g id="freepik--Head--inject-204" transform="translate(108.451 28.617)">
            <path id="Trazado_107253" data-name="Trazado 107253" d="M411.938,95.43s3.134,0,5.436,3.835c1.161,1.882,2.122,5.476,0,16.019a41.577,41.577,0,0,1-4.225,11.684,5.116,5.116,0,0,1-2.823,2.553l-.31-7.939-.01-5.557s-3.855-4.615-4.5-8.56c-.821-5.066.12-7.218.12-7.218Z" transform="translate(-376.943 -86.388)" fill="#37474f"/>
            <path id="Trazado_107254" data-name="Trazado 107254" d="M413.042,95.631c-1.061-4.405-7.008-9.341-18.021-9.231-8.951.1-14.016,3.5-16.75,8.9s-.29,12.014-.29,12.014L405.9,103.68Z" transform="translate(-376.977 -86.398)" fill="#37474f"/>
            <path id="Trazado_107255" data-name="Trazado 107255" d="M417.436,123.384c-3,1.792-6.057-.871-6.057-.871l.43,16.379s-.12,3.164-5.006,6.257c-6.878,4.375-9.892,5.516-12.675,9.9-2.753-6.888-5.576-10.672-1.352-16.3l-.23-3.764a26.209,26.209,0,0,1-4.936.16c-3.674-.34-6.137-3.074-7.469-6.948-2-5.727-3.2-15.018-1.642-25.029a8.44,8.44,0,0,1,2.693-5.066c6.818-6.007,15.128-2.463,21.365-.481A11.454,11.454,0,0,0,410.2,97.1c-2,2.473-2.823,4.806-2.213,16.019a6.729,6.729,0,0,0,1.7,1.942c1.4,1.071,2.293-2,3.334-3.214a4.585,4.585,0,0,1,6.478.13,4.832,4.832,0,0,1,.751,1,7.539,7.539,0,0,1-2.763,10.292Z" transform="translate(-376.976 -86.388)" fill="#ffa8a7"/>
            <path id="Trazado_107256" data-name="Trazado 107256" d="M396.51,106.662l4.125,1.492a2.293,2.293,0,0,0-1.362-2.873,2.142,2.142,0,0,0-2.733,1.3Z" transform="translate(-376.954 -86.376)" fill="#37474f"/>
            <path id="Trazado_107257" data-name="Trazado 107257" d="M381.3,107.854l4.165-1.5a2.122,2.122,0,0,0-2.663-1.4h-.1A2.333,2.333,0,0,0,381.3,107.854Z" transform="translate(-376.972 -86.377)" fill="#37474f"/>
            <path id="Trazado_107258" data-name="Trazado 107258" d="M399.094,110.892a1.792,1.792,0,1,1-3.574.11,1.772,1.772,0,0,1,1.732-1.842h0a1.772,1.772,0,0,1,1.842,1.722Z" transform="translate(-376.955 -86.371)" fill="#344154"/>
            <path id="Trazado_107259" data-name="Trazado 107259" d="M385.814,111.072a1.792,1.792,0,1,1-1.882-1.732,1.645,1.645,0,0,1,1.882,1.732Z" transform="translate(-376.97 -86.371)" fill="#344154"/>
            <path id="Trazado_107260" data-name="Trazado 107260" d="M392.328,107.35l-.751,11.433-6.137-1.832A26.711,26.711,0,0,1,392.328,107.35Z" transform="translate(-376.967 -86.374)" fill="#f28f8f"/>
            <path id="Trazado_107261" data-name="Trazado 107261" d="M408.036,112.21c-.27,7.8-2.944,8.37-5.707,8.85-3.664.651-5.487-1.3-12.014-1.221-4,0-5.206,1.241-7.459,2.2-1.652.711-3,.521-3.674-.941a26.034,26.034,0,0,1-1.362-8.4,63.194,63.194,0,0,0,.481,12.755c.591,3.654,2,6.778,4,8.48,2.823,2.333,8.69,3.224,16.019,1.522s10.012-4.786,10.893-7.379c2.743-8.48,1.582-12.395,2.523-14.016S408.036,112.21,408.036,112.21Z" transform="translate(-376.976 -86.368)" fill="#37474f"/>
            <path id="Trazado_107262" data-name="Trazado 107262" d="M391.236,122.15c3.774-.12,5.006.541,5.186,3.1.3,3.654.14,4.9-1.261,5.1-1.652.26-2.823.37-2.933-.671a4.285,4.285,0,0,1,.21-2.353c.571-.711.37-.8-1.271-.751s-1.622.35-1.121.851.34,1.622.35,2.343-.17,1.1-2.533.941c-2.062-.17-1.732-1.822-1.732-5.006C386.13,123.572,387,122.29,391.236,122.15Z" transform="translate(-376.966 -86.356)" fill="#ffa8a7"/>
            <path id="Trazado_107263" data-name="Trazado 107263" d="M394.787,122.68l-6.087.941a3,3,0,0,0,3.314,2.693h.12A3.224,3.224,0,0,0,394.787,122.68Z" transform="translate(-376.963 -86.356)" fill="#b16668"/>
            <path id="Trazado_107264" data-name="Trazado 107264" d="M394,123.61a3,3,0,0,1,.741.06,3.174,3.174,0,0,1-2.6,2.593,2.754,2.754,0,0,1-1,0A2.823,2.823,0,0,1,394,123.61Z" transform="translate(-376.96 -86.355)" fill="#f28f8f"/>
          </g>
          <g id="freepik--Tie--inject-204" transform="translate(116.91 76.606)">
            <path id="Trazado_107265" data-name="Trazado 107265" d="M391.193,154.432s-2.713-5.106-2.723-7.108l3.234-3.384,1.061,8.35Z" transform="translate(-385.422 -134.319)" fill="#d98b0d"/>
            <path id="Trazado_107267" data-name="Trazado 107267" d="M395.63,152.6l5.537-3.8,4.645,3.1-8.51,4.4Z" transform="translate(-385.413 -134.314)" fill="#d98b0d"/>
            <path id="Trazado_107269" data-name="Trazado 107269" d="M399.546,204.053c-.531-17.891-4.525-40.608-4.205-44.963l-3-.28c-2.082,5.226-6.728,34.23-6.508,46.575-.13,4.315,4.075,12.244,7.008,12.375S399.616,206.636,399.546,204.053Z" transform="translate(-385.425 -134.302)" fill="#ff9d00"/>
            <path id="Trazado_107271" data-name="Trazado 107271" d="M392.05,159.471c.1-.27.15-.451.24-.661h0l3,.28h0a10.031,10.031,0,0,0,0,1.342,5.406,5.406,0,0,1-3.244-.961Z" transform="translate(-385.418 -134.302)" fill="#d98b0d" opacity="0.5"/>
            <path id="Trazado_107272" data-name="Trazado 107272" d="M395.705,152.18a12.534,12.534,0,0,0-2.873-.1,6.626,6.626,0,0,0-1.642,2.343,10.351,10.351,0,0,0,1.1,4.365,3.644,3.644,0,0,0,3,.28,6.346,6.346,0,0,0,2.173-2.933A5.767,5.767,0,0,0,395.705,152.18Z" transform="translate(-385.419 -134.31)" fill="#ff9d00"/>
            <path id="Trazado_107274" data-name="Trazado 107274" d="M395.64,152.191c.1,0,.23.23.32.24,2.112-1.161,2.443-1.552,3-1.4,1.071.3,3.634,4.715,4.265,6.127s.531,1.412,2.473.09a35.044,35.044,0,0,0,8.75-8.64,26.035,26.035,0,0,0,3.444-7.068s-2.263-3.054-2.933-4.225c-1.292-2.253-2-3.164-3.294-2.953v1.482c-.21,2-2.253,3.895-5.006,6.317s-7.2,4.706-8.24,5.777a21.139,21.139,0,0,0-2.783,4.255Z" transform="translate(-385.413 -134.331)" fill="#f5f5f5"/>
            <path id="Trazado_107275" data-name="Trazado 107275" d="M385.66,154.021c.32.8,2.823-5.546,4.075-5.436.6.05,2,1.742,3.144,3.544h.871a19.666,19.666,0,0,1-1.372-4.806c-.28-2.143.5-8.56.5-8.56l-.19-2.473-1.111.05a9.756,9.756,0,0,0-1.081,1.472c-1.2,2-4.355,6.748-4.706,9.151A21.158,21.158,0,0,0,385.66,154.021Z" transform="translate(-385.425 -134.328)" fill="#f5f5f5"/>
          </g>
          <g id="freepik--arm--inject-204-2" data-name="freepik--arm--inject-204" transform="translate(109.867 87.078)">
            <path id="Trazado_107276" data-name="Trazado 107276" d="M404.592,189.336a23.645,23.645,0,0,1-3.674-5.206c-1.271-2.4-1.732-4-2.673-6.007l-.941-1.892a1.132,1.132,0,0,0-.29-.43,1,1,0,0,0-1.1.05,3.844,3.844,0,0,0-1.722,3.294,15.559,15.559,0,0,0,.611,3.834c.18.831,1,3.885,1,3.885Z" transform="translate(-378.373 -144.754)" fill="#f28f8f"/>
            <path id="Trazado_107277" data-name="Trazado 107277" d="M444.077,156.883c-3.094-7.309-7.008-8.41-17.3-11.373-5.6,9.561-1.422,28.123-1.422,28.123l4.706,21.956s-16.109-.5-18.952-1.8-10.883-7.869-13.536-9.8c-3.624-2.623-5.156-2-6.748-1.532-5.206,1.542-6.317,2.153-7.339,3a2.413,2.413,0,0,0-.741,2.213c-1.4.37-3.514.621-3.474,3a6.68,6.68,0,0,0,.18,1.892,1.462,1.462,0,0,0-.841.641c-1,1.532,1.672,6.007,3.114,6.938,1,.681,2.3.611,4,.15,1.4-.4.541-1.762.541-1.762l2-.16c4.756,2.473,5.817,8.13,11.724,8.68a57.128,57.128,0,0,1,7.158.791c12.9,2.433,25.55,9.932,36.653,9.361,10.843-.571,9.751-6.237,9.011-12.815C452.086,198.5,447.591,165.223,444.077,156.883Z" transform="translate(-378.391 -144.789)" fill="#ffa8a7"/>
            <path id="Trazado_107278" data-name="Trazado 107278" d="M429.54,193.32l.471,2.183c5.006.581,10.793,3.364,12.334,5.867C440.853,197.295,438.43,194.451,429.54,193.32Z" transform="translate(-378.331 -144.733)" fill="#f28f8f"/>
            <path id="Trazado_107279" data-name="Trazado 107279" d="M426.455,144.79c3.764,1.121,10.422,2.243,13.326,5.126s4.836,4.585,7.118,14.127,5.066,32.238,6.277,36.263,2.2,6.728,0,9.181c-2.723-7.279-10.422-13.486-23.147-13.926-2.1,0-1.612-2.6-2.353-5.006s-3.514-16.689-4.716-21.435S420,149.826,426.455,144.79Z" transform="translate(-378.34 -144.79)" fill="#f0f0f0"/>
            <path id="Trazado_107280" data-name="Trazado 107280" d="M428.48,194.45l-.3.941a29.745,29.745,0,0,1,11.734,6.478c5.006,4.766,6.107,8.67,6.367,11.163s0,4-1.882,4.065l-1.722.06s.35.941,3.614.681c2.823-.22,5.556-1,6.888-3.925a8.82,8.82,0,0,0,.35-7.529c-.941-2.623-3.434-7.249-11.173-10.442C436.009,193.319,428.48,194.45,428.48,194.45Z" transform="translate(-378.333 -144.732)" fill="#e0e0e0"/>
            <path id="Trazado_107281" data-name="Trazado 107281" d="M382.74,187.683l6.137-2.152-6.127,1.211a2.483,2.483,0,0,0-.01.941Z" transform="translate(-378.386 -144.742)" fill="#f28f8f"/>
            <path id="Trazado_107282" data-name="Trazado 107282" d="M379.46,192.492l7.148-2-7.268,1.1A4.437,4.437,0,0,0,379.46,192.492Z" transform="translate(-378.39 -144.736)" fill="#f28f8f"/>
            <path id="Trazado_107283" data-name="Trazado 107283" d="M380.86,195.55a2.352,2.352,0,0,0,1.091.721,4.814,4.814,0,0,0,1.3.24l-.1-.06c.24.36.5.711.761,1.051l.13-.22a1.512,1.512,0,0,0-1.121.441,2,2,0,0,0-.5,1,2.492,2.492,0,0,1,.631-.9,1.462,1.462,0,0,1,.941-.31h.29l-.16-.23a10.548,10.548,0,0,0-.781-1v-.06h-.06a6.607,6.607,0,0,1-1.251-.17A2.714,2.714,0,0,1,380.86,195.55Z" transform="translate(-378.388 -144.73)" fill="#f28f8f"/>
            <path id="Trazado_107284" data-name="Trazado 107284" d="M382.91,196.22a23.634,23.634,0,0,0,2.663-.18s.13.511,1.091,1.272a16.726,16.726,0,0,0,1.572.941l-2,.16a3.224,3.224,0,0,0-2.463-.941Z" transform="translate(-378.386 -144.73)" fill="#f28f8f"/>
          </g>
        </g>
      </g>
    </g>
  </g>
</svg>
