<svg xmlns="http://www.w3.org/2000/svg" width="335.443" height="501.78" viewBox="0 0 335.443 501.78">
  <g id="Grupo_88831" data-name="Grupo 88831" transform="translate(-287.391 -843.561)">
    <g id="Grupo_57310" data-name="Grupo 57310" transform="translate(317.014 843.561)">
      <g id="Grupo_57209" data-name="Grupo 57209" transform="translate(11.317 38.907)">
        <g id="Grupo_57208" data-name="Grupo 57208">
          <g id="Grupo_57131" data-name="Grupo 57131">
            <g id="Grupo_57126" data-name="Grupo 57126">
              <g id="Grupo_57123" data-name="Grupo 57123" transform="translate(0.233 0.233)">
                <path id="Trazado_102050" data-name="Trazado 102050" d="M-275.917,2714.08H-440.074V2399.41h219.817v258.4" transform="translate(440.074 -2399.41)" fill="#fff"/>
              </g>
              <g id="Grupo_57125" data-name="Grupo 57125">
                <g id="Grupo_57124" data-name="Grupo 57124">
                  <path id="Trazado_102051" data-name="Trazado 102051" d="M-220.283,2657.786s-.012-.407-.017-1.209-.009-2-.016-3.576c-.007-3.159-.018-7.836-.031-13.929-.013-12.2-.033-30.053-.058-52.724-.021-45.35-.049-109.949-.084-186.965l.207.207-219.818.026.234-.233v.28c-.022,120.965-.043,231.433-.058,314.39l-.176-.175,120.007.078,32.724.047,8.521.025c1.92.008,2.905.026,2.905.026s-.985.017-2.905.025l-8.521.025-32.724.048-120.007.077h-.175v-.176c-.015-82.957-.036-193.425-.058-314.39v-.513h.233l219.818.026h.207v.207c-.035,77.016-.064,141.615-.084,186.965-.025,22.671-.045,40.528-.058,52.724-.013,6.093-.024,10.771-.031,13.929-.007,1.574-.013,2.769-.016,3.576S-220.283,2657.786-220.283,2657.786Z" transform="translate(440.334 -2399.15)" fill="#344154"/>
                </g>
              </g>
            </g>
            <g id="Grupo_57130" data-name="Grupo 57130" transform="translate(203.436 277.488)">
              <g id="Grupo_57127" data-name="Grupo 57127">
                <path id="Trazado_102052" data-name="Trazado 102052" d="M-213.385,2708.71" transform="translate(213.385 -2708.71)" fill="#fff"/>
              </g>
              <g id="Grupo_57129" data-name="Grupo 57129">
                <g id="Grupo_57128" data-name="Grupo 57128">
                  <path id="Trazado_102053" data-name="Trazado 102053" d="M-213.385,2708.71" transform="translate(213.385 -2708.71)" fill="none" stroke="#44555b" stroke-miterlimit="10" stroke-width="0.05"/>
                </g>
              </g>
            </g>
          </g>
          <g id="Grupo_57132" data-name="Grupo 57132" transform="translate(14.133 19.751)">
            <rect id="Rectángulo_5309" data-name="Rectángulo 5309" width="96.009" height="51.755" fill="#d9a171"/>
          </g>
          <g id="Grupo_57134" data-name="Grupo 57134" transform="translate(125.436 31.471)">
            <g id="Grupo_57133" data-name="Grupo 57133">
              <path id="Trazado_102054" data-name="Trazado 102054" d="M-223.294,2434.491c0,.129-17.263.233-38.551.233s-38.555-.1-38.555-.233,17.258-.233,38.555-.233S-223.294,2434.361-223.294,2434.491Z" transform="translate(300.4 -2434.258)" fill="#344154"/>
            </g>
          </g>
          <g id="Grupo_57136" data-name="Grupo 57136" transform="translate(125.436 40.754)">
            <g id="Grupo_57135" data-name="Grupo 57135">
              <path id="Trazado_102055" data-name="Trazado 102055" d="M-223.294,2444.847c0,.129-17.263.233-38.551.233s-38.555-.1-38.555-.233,17.258-.233,38.555-.233S-223.294,2444.718-223.294,2444.847Z" transform="translate(300.4 -2444.614)" fill="#344154"/>
            </g>
          </g>
          <g id="Grupo_57138" data-name="Grupo 57138" transform="translate(125.436 50.036)">
            <g id="Grupo_57137" data-name="Grupo 57137">
              <path id="Trazado_102056" data-name="Trazado 102056" d="M-223.294,2455.2c0,.129-17.263.233-38.551.233s-38.555-.1-38.555-.233,17.258-.234,38.555-.234S-223.294,2455.073-223.294,2455.2Z" transform="translate(300.4 -2454.969)" fill="#344154"/>
            </g>
          </g>
          <g id="Grupo_57140" data-name="Grupo 57140" transform="translate(125.436 59.319)">
            <g id="Grupo_57139" data-name="Grupo 57139">
              <path id="Trazado_102057" data-name="Trazado 102057" d="M-253.975,2465.558c0,.129-10.394.233-23.212.233s-23.213-.1-23.213-.233,10.391-.234,23.213-.234S-253.975,2465.429-253.975,2465.558Z" transform="translate(300.4 -2465.324)" fill="#344154"/>
            </g>
          </g>
          <g id="Grupo_57142" data-name="Grupo 57142" transform="translate(15.196 81.744)">
            <g id="Grupo_57141" data-name="Grupo 57141">
              <path id="Trazado_102058" data-name="Trazado 102058" d="M-233.093,2490.575c0,.129-42.6.234-95.14.234-52.557,0-95.149-.1-95.149-.234s42.591-.233,95.149-.233C-275.695,2490.342-233.093,2490.445-233.093,2490.575Z" transform="translate(423.382 -2490.342)" fill="#344154"/>
            </g>
          </g>
          <g id="Grupo_57144" data-name="Grupo 57144" transform="translate(17.275 87.463)">
            <g id="Grupo_57143" data-name="Grupo 57143">
              <path id="Trazado_102059" data-name="Trazado 102059" d="M-232.853,2496.954c0,.129-42.135.235-94.1.235-51.983,0-94.109-.105-94.109-.235s42.126-.233,94.109-.233C-274.988,2496.722-232.853,2496.827-232.853,2496.954Z" transform="translate(421.062 -2496.722)" fill="#344154"/>
            </g>
          </g>
          <g id="Grupo_57145" data-name="Grupo 57145" transform="translate(15.196 96.924)">
            <rect id="Rectángulo_5310" data-name="Rectángulo 5310" width="190.289" height="11.042" fill="#e1e1e1"/>
          </g>
          <g id="Grupo_57146" data-name="Grupo 57146" transform="translate(13.147 198.136)">
            <rect id="Rectángulo_5311" data-name="Rectángulo 5311" width="190.289" height="11.042" fill="#e1e1e1"/>
          </g>
          <g id="Grupo_57147" data-name="Grupo 57147" transform="translate(15.196 143.75)">
            <rect id="Rectángulo_5312" data-name="Rectángulo 5312" width="75.892" height="11.042" fill="#e1e1e1"/>
          </g>
          <g id="Grupo_57148" data-name="Grupo 57148" transform="translate(108.553 143.75)">
            <rect id="Rectángulo_5313" data-name="Rectángulo 5313" width="94.882" height="11.042" fill="#e1e1e1"/>
          </g>
          <g id="Grupo_57150" data-name="Grupo 57150" transform="translate(16.065 117.489)">
            <g id="Grupo_57149" data-name="Grupo 57149">
              <path id="Trazado_102060" data-name="Trazado 102060" d="M-313.333,2530.451c0,.129-24.42.233-54.537.233s-54.542-.1-54.542-.233,24.415-.233,54.542-.233S-313.333,2530.323-313.333,2530.451Z" transform="translate(422.412 -2530.218)" fill="#344154"/>
            </g>
          </g>
          <g id="Grupo_57152" data-name="Grupo 57152" transform="translate(15.861 126.178)">
            <g id="Grupo_57151" data-name="Grupo 57151">
              <path id="Trazado_102061" data-name="Trazado 102061" d="M-234.078,2540.144c0,.129-42.214.232-94.277.232-52.08,0-94.286-.1-94.286-.232s42.206-.234,94.286-.234C-276.292,2539.91-234.078,2540.014-234.078,2540.144Z" transform="translate(422.64 -2539.91)" fill="#344154"/>
            </g>
          </g>
          <g id="Grupo_57154" data-name="Grupo 57154" transform="translate(15.861 134.407)">
            <g id="Grupo_57153" data-name="Grupo 57153">
              <path id="Trazado_102062" data-name="Trazado 102062" d="M-234.078,2549.325c0,.13-42.214.234-94.277.234-52.08,0-94.286-.1-94.286-.234s42.206-.233,94.286-.233C-276.292,2549.092-234.078,2549.2-234.078,2549.325Z" transform="translate(422.64 -2549.092)" fill="#344154"/>
            </g>
          </g>
          <g id="Grupo_57156" data-name="Grupo 57156" transform="translate(14.597 161.296)">
            <g id="Grupo_57155" data-name="Grupo 57155">
              <path id="Trazado_102063" data-name="Trazado 102063" d="M-348.22,2579.322c0,.128-16.977.233-37.913.233s-37.917-.1-37.917-.233,16.972-.234,37.917-.234S-348.22,2579.193-348.22,2579.322Z" transform="translate(424.05 -2579.088)" fill="#344154"/>
            </g>
          </g>
          <g id="Grupo_57158" data-name="Grupo 57158" transform="translate(15.856 169.777)">
            <g id="Grupo_57157" data-name="Grupo 57157">
              <path id="Trazado_102064" data-name="Trazado 102064" d="M-348.075,2588.783c0,.129-16.695.233-37.284.233s-37.286-.1-37.286-.233,16.691-.233,37.286-.233S-348.075,2588.654-348.075,2588.783Z" transform="translate(422.645 -2588.55)" fill="#344154"/>
            </g>
          </g>
          <g id="Grupo_57160" data-name="Grupo 57160" transform="translate(14.906 178.397)">
            <g id="Grupo_57159" data-name="Grupo 57159">
              <path id="Trazado_102065" data-name="Trazado 102065" d="M-348.494,2598.4c0,.129-16.838.234-37.6.234s-37.607-.1-37.607-.234,16.834-.233,37.607-.233S-348.494,2598.27-348.494,2598.4Z" transform="translate(423.705 -2598.166)" fill="#344154"/>
            </g>
          </g>
          <g id="Grupo_57162" data-name="Grupo 57162" transform="translate(14.906 186.765)">
            <g id="Grupo_57161" data-name="Grupo 57161">
              <path id="Trazado_102066" data-name="Trazado 102066" d="M-348.494,2607.735c0,.128-16.838.233-37.6.233s-37.607-.1-37.607-.233,16.834-.235,37.607-.235S-348.494,2607.606-348.494,2607.735Z" transform="translate(423.705 -2607.501)" fill="#344154"/>
            </g>
          </g>
          <g id="Grupo_57167" data-name="Grupo 57167" transform="translate(111.712 160.578)">
            <g id="Grupo_57164" data-name="Grupo 57164" transform="translate(11.724 2.707)">
              <g id="Grupo_57163" data-name="Grupo 57163">
                <path id="Trazado_102067" data-name="Trazado 102067" d="M-224.091,2581.54c0,.128-17.584.233-39.269.233s-39.272-.1-39.272-.233,17.579-.234,39.272-.234S-224.091,2581.412-224.091,2581.54Z" transform="translate(302.632 -2581.306)" fill="#344154"/>
              </g>
            </g>
            <g id="Grupo_57166" data-name="Grupo 57166">
              <g id="Grupo_57165" data-name="Grupo 57165">
                <path id="Trazado_102068" data-name="Trazado 102068" d="M-310.018,2583.931a13.117,13.117,0,0,1-.1-1.552c-.038-.954-.083-2.279-.1-3.856l.2.2-5.407.031c-.052.051.441-.441.233-.232v.735l0,.724q0,.713-.006,1.4c-.008.9-.016,1.753-.023,2.551l-.2-.2c1.578.019,2.9.064,3.856.1a13,13,0,0,1,1.552.1,8.525,8.525,0,0,1-1.423.1c-.939.038-2.318.083-3.985.1l-.2,0,0-.2c-.007-.8-.015-1.651-.023-2.551q0-.683-.006-1.4l0-.724v-.735c-.209.208.284-.285.234-.234l5.407.031h.2l0,.2c-.021,1.666-.065,3.045-.1,3.984A8.4,8.4,0,0,1-310.018,2583.931Z" transform="translate(315.711 -2578.287)" fill="#344154"/>
              </g>
            </g>
          </g>
          <g id="Grupo_57172" data-name="Grupo 57172" transform="translate(111.712 170.965)">
            <g id="Grupo_57169" data-name="Grupo 57169" transform="translate(11.724 2.708)">
              <g id="Grupo_57168" data-name="Grupo 57168">
                <path id="Trazado_102069" data-name="Trazado 102069" d="M-224.091,2593.129c0,.128-17.584.233-39.269.233s-39.272-.1-39.272-.233,17.579-.234,39.272-.234S-224.091,2593-224.091,2593.129Z" transform="translate(302.632 -2592.896)" fill="#344154"/>
              </g>
            </g>
            <g id="Grupo_57171" data-name="Grupo 57171">
              <g id="Grupo_57170" data-name="Grupo 57170">
                <path id="Trazado_102070" data-name="Trazado 102070" d="M-310.018,2595.52a13.1,13.1,0,0,1-.1-1.552c-.038-.953-.083-2.279-.1-3.856l.2.2-5.407.031c-.052.051.441-.441.233-.231h0v.734l0,.723c0,.476,0,.943-.006,1.4-.008.9-.016,1.754-.023,2.552l-.2-.2c1.578.019,2.9.065,3.856.1a13.067,13.067,0,0,1,1.552.1,8.549,8.549,0,0,1-1.423.1c-.939.038-2.318.084-3.985.1l-.2,0,0-.2c-.007-.8-.015-1.652-.023-2.552,0-.455,0-.922-.006-1.4l0-.723v-.734h0c-.209.208.284-.287.234-.235l5.407.032h.2l0,.2c-.021,1.667-.065,3.046-.1,3.985A8.429,8.429,0,0,1-310.018,2595.52Z" transform="translate(315.711 -2589.875)" fill="#344154"/>
              </g>
            </g>
          </g>
          <g id="Grupo_57177" data-name="Grupo 57177" transform="translate(111.712 181.353)">
            <g id="Grupo_57174" data-name="Grupo 57174" transform="translate(11.724 2.708)">
              <g id="Grupo_57173" data-name="Grupo 57173">
                <path id="Trazado_102071" data-name="Trazado 102071" d="M-224.091,2604.718c0,.129-17.584.233-39.269.233s-39.272-.1-39.272-.233,17.579-.233,39.272-.233S-224.091,2604.588-224.091,2604.718Z" transform="translate(302.632 -2604.484)" fill="#344154"/>
              </g>
            </g>
            <g id="Grupo_57176" data-name="Grupo 57176">
              <g id="Grupo_57175" data-name="Grupo 57175">
                <path id="Trazado_102072" data-name="Trazado 102072" d="M-310.018,2607.109a13.1,13.1,0,0,1-.1-1.552c-.038-.953-.083-2.279-.1-3.857l.2.2-5.407.031c-.052.05.441-.441.233-.232h0v.733l0,.724q0,.713-.006,1.4c-.008.9-.016,1.752-.023,2.55l-.2-.2c1.578.02,2.9.066,3.856.1a12.914,12.914,0,0,1,1.552.1,8.444,8.444,0,0,1-1.423.1c-.939.038-2.318.084-3.985.1h-.2l0-.2c-.007-.8-.015-1.651-.023-2.55q0-.684-.006-1.4l0-.724v-.733h0l.234-.234,5.407.031h.2l0,.2c-.021,1.668-.065,3.046-.1,3.986A8.422,8.422,0,0,1-310.018,2607.109Z" transform="translate(315.711 -2601.464)" fill="#344154"/>
              </g>
            </g>
          </g>
          <g id="Grupo_57192" data-name="Grupo 57192" transform="translate(14.373 218.8)">
            <g id="Grupo_57179" data-name="Grupo 57179">
              <g id="Grupo_57178" data-name="Grupo 57178">
                <path id="Trazado_102073" data-name="Trazado 102073" d="M-236.7,2694.625s-.01-.3-.014-.885-.009-1.452-.015-2.587c-.008-2.28-.02-5.645-.035-10.02-.019-8.743-.046-21.515-.079-37.66l.143.143-187.359.09h-.012l.234-.233c0,17.6,0,34.754-.005,51.152l-.229-.229,133.814.1,39.305.065,10.569.03,2.741.014c.618.006.941.016.941.016s-.3.01-.912.014l-2.713.015c-2.4.006-5.942.016-10.521.03l-39.252.064-133.973.1h-.228v-.227c0-16.4,0-33.552-.005-51.152v-.234h.245l187.359.091h.143v.143c-.034,16.183-.061,28.983-.08,37.746-.015,4.36-.027,7.713-.035,9.988q-.009,1.685-.014,2.56C-236.687,2694.341-236.7,2694.625-236.7,2694.625Z" transform="translate(424.3 -2643.239)" fill="#344154"/>
              </g>
            </g>
            <g id="Grupo_57181" data-name="Grupo 57181" transform="translate(0.757 12.874)">
              <g id="Grupo_57180" data-name="Grupo 57180">
                <path id="Trazado_102074" data-name="Trazado 102074" d="M-236.608,2657.833c0,.129-41.83.234-93.419.234-51.606,0-93.428-.1-93.428-.234s41.821-.233,93.428-.233C-278.439,2657.6-236.608,2657.706-236.608,2657.833Z" transform="translate(423.455 -2657.601)" fill="#344154"/>
              </g>
            </g>
            <g id="Grupo_57183" data-name="Grupo 57183" transform="translate(0.757 25.576)">
              <g id="Grupo_57182" data-name="Grupo 57182">
                <path id="Trazado_102075" data-name="Trazado 102075" d="M-236.608,2672c0,.129-41.83.233-93.419.233-51.606,0-93.428-.1-93.428-.233s41.821-.234,93.428-.234C-278.439,2671.771-236.608,2671.875-236.608,2672Z" transform="translate(423.455 -2671.771)" fill="#344154"/>
              </g>
            </g>
            <g id="Grupo_57185" data-name="Grupo 57185" transform="translate(0.757 38.417)">
              <g id="Grupo_57184" data-name="Grupo 57184">
                <path id="Trazado_102076" data-name="Trazado 102076" d="M-236.608,2686.329c0,.129-41.83.234-93.419.234-51.606,0-93.428-.1-93.428-.234s41.821-.233,93.428-.233C-278.439,2686.1-236.608,2686.2-236.608,2686.329Z" transform="translate(423.455 -2686.095)" fill="#344154"/>
              </g>
            </g>
            <g id="Grupo_57187" data-name="Grupo 57187" transform="translate(21.78 0.151)">
              <g id="Grupo_57186" data-name="Grupo 57186">
                <path id="Trazado_102077" data-name="Trazado 102077" d="M-399.77,2695.09c-.129,0-.233-11.57-.233-25.839s.1-25.842.233-25.842.233,11.567.233,25.842S-399.641,2695.09-399.77,2695.09Z" transform="translate(400.003 -2643.408)" fill="#344154"/>
              </g>
            </g>
            <g id="Grupo_57189" data-name="Grupo 57189" transform="translate(85.14 0.929)">
              <g id="Grupo_57188" data-name="Grupo 57188">
                <path id="Trazado_102078" data-name="Trazado 102078" d="M-329.086,2693.625c-.129,0-.234-11.048-.234-24.675s.1-24.675.234-24.675.233,11.045.233,24.675S-328.958,2693.625-329.086,2693.625Z" transform="translate(329.32 -2644.275)" fill="#344154"/>
              </g>
            </g>
            <g id="Grupo_57191" data-name="Grupo 57191" transform="translate(151.902 1.706)">
              <g id="Grupo_57190" data-name="Grupo 57190">
                <path id="Trazado_102079" data-name="Trazado 102079" d="M-254.607,2696.046c-.129,0-.234-11.4-.234-25.451s.1-25.453.234-25.453.233,11.393.233,25.453S-254.479,2696.046-254.607,2696.046Z" transform="translate(254.841 -2645.142)" fill="#344154"/>
              </g>
            </g>
          </g>
          <g id="Grupo_57196" data-name="Grupo 57196" transform="translate(164.176 258.403)">
            <g id="Grupo_57193" data-name="Grupo 57193" transform="translate(0.214 0.234)">
              <path id="Trazado_102080" data-name="Trazado 102080" d="M-256.944,2743.946l55.661-56.267h-55.661Z" transform="translate(256.944 -2687.679)" fill="#e1e1e1"/>
            </g>
            <g id="Grupo_57195" data-name="Grupo 57195">
              <g id="Grupo_57194" data-name="Grupo 57194">
                <path id="Trazado_102081" data-name="Trazado 102081" d="M-256.969,2743.919c-.007-1.88-.088-23.261-.213-56.268v-.212h.214l39.265-.021,16.4,0h.552l-.389.392-39.873,40.118-15.951,15.987c.8-.813,6.161-6.282,15.975-16.288l39.522-40.141.164.392-16.4,0-39.265-.021.212-.213C-256.881,2720.659-256.962,2742.041-256.969,2743.919Z" transform="translate(257.183 -2687.419)" fill="#344154"/>
              </g>
            </g>
          </g>
          <g id="Grupo_57198" data-name="Grupo 57198" transform="translate(15.497 281.417)">
            <g id="Grupo_57197" data-name="Grupo 57197">
              <path id="Trazado_102082" data-name="Trazado 102082" d="M-276.9,2713.326c0,.128-32.718.233-73.067.233s-73.074-.1-73.074-.233,32.71-.234,73.074-.234S-276.9,2713.2-276.9,2713.326Z" transform="translate(423.046 -2713.092)" fill="#344154"/>
            </g>
          </g>
          <g id="Grupo_57200" data-name="Grupo 57200" transform="translate(15.497 288.811)">
            <g id="Grupo_57199" data-name="Grupo 57199">
              <path id="Trazado_102083" data-name="Trazado 102083" d="M-276.9,2721.574c0,.129-32.718.233-73.067.233s-73.074-.1-73.074-.233,32.71-.234,73.074-.234S-276.9,2721.446-276.9,2721.574Z" transform="translate(423.046 -2721.341)" fill="#344154"/>
            </g>
          </g>
          <g id="Grupo_57202" data-name="Grupo 57202" transform="translate(15.497 296.204)">
            <g id="Grupo_57201" data-name="Grupo 57201">
              <path id="Trazado_102084" data-name="Trazado 102084" d="M-356.544,2729.823c0,.13-14.888.234-33.249.234s-33.253-.1-33.253-.234,14.885-.234,33.253-.234S-356.544,2729.694-356.544,2729.823Z" transform="translate(423.046 -2729.589)" fill="#344154"/>
            </g>
          </g>
          <g id="Grupo_57203" data-name="Grupo 57203" transform="translate(27.775 34.209)">
            <path id="Trazado_102085" data-name="Trazado 102085" d="M-400.95,2441.3h-8.4v-3.983h21.505v3.983h-8.4v21.361h-4.707Z" transform="translate(409.349 -2437.313)" fill="#fff"/>
            <path id="Trazado_102086" data-name="Trazado 102086" d="M-366.793,2456.791h-12.671l-2.5,5.866h-4.852l11.4-25.344h4.634l11.442,25.344h-4.925Zm-1.557-3.692-4.779-11.079-4.743,11.079Z" transform="translate(407.014 -2437.313)" fill="#fff"/>
            <path id="Trazado_102087" data-name="Trazado 102087" d="M-338.37,2462.656l-6.879-9.63-6.806,9.63h-5.359l9.413-12.925-8.906-12.419h5.322l6.481,9.016,6.408-9.016h5.1l-8.87,12.237,9.521,13.106Z" transform="translate(403.968 -2437.313)" fill="#fff"/>
          </g>
          <g id="Grupo_57205" data-name="Grupo 57205" transform="translate(14.202 10.958)">
            <g id="Grupo_57204" data-name="Grupo 57204">
              <path id="Trazado_102088" data-name="Trazado 102088" d="M-231.458,2411.607c0,.13-43.215.234-96.511.234-53.316,0-96.521-.1-96.521-.234s43.205-.232,96.521-.232C-274.674,2411.375-231.458,2411.478-231.458,2411.607Z" transform="translate(424.491 -2411.375)" fill="#e1e1e1"/>
            </g>
          </g>
          <g id="Grupo_57207" data-name="Grupo 57207" transform="translate(14.202 14.467)">
            <g id="Grupo_57206" data-name="Grupo 57206">
              <path id="Trazado_102089" data-name="Trazado 102089" d="M-327.313,2415.522c0,.129-21.756.233-48.587.233s-48.591-.1-48.591-.233,21.751-.234,48.591-.234S-327.313,2415.394-327.313,2415.522Z" transform="translate(424.491 -2415.289)" fill="#e1e1e1"/>
            </g>
          </g>
        </g>
      </g>
      <g id="Grupo_57298" data-name="Grupo 57298" transform="translate(0 20.431)">
        <g id="Grupo_57213" data-name="Grupo 57213">
          <g id="Grupo_57210" data-name="Grupo 57210" transform="translate(0.236 0.233)">
            <rect id="Rectángulo_5314" data-name="Rectángulo 5314" width="241.345" height="342.555" rx="10.877" fill="#e1e1e1"/>
          </g>
          <g id="Grupo_57212" data-name="Grupo 57212">
            <g id="Grupo_57211" data-name="Grupo 57211">
              <path id="Trazado_102090" data-name="Trazado 102090" d="M-221.129,2721.326s.252-.021.748-.05a10.572,10.572,0,0,0,2.173-.422,10.053,10.053,0,0,0,3.189-1.73,9.776,9.776,0,0,0,2.927-4.032,9.276,9.276,0,0,0,.634-2.948c.056-1.063.012-2.2.022-3.377q0-3.549-.011-7.756c-.006-5.606-.013-12.073-.021-19.354-.017-29.127-.043-71.269-.074-123.341-.008-26.037-.018-54.558-.028-85.174q-.007-22.962-.013-47.449,0-12.232,0-24.814-.01-6.286-.018-12.656a9.555,9.555,0,0,0-2.151-5.752,9.621,9.621,0,0,0-5.259-3.242,13.348,13.348,0,0,0-3.166-.242h-9.757l-13.144,0-26.739,0-55.149.006-115.973.005a9.543,9.543,0,0,0-6.581,2.627,9.484,9.484,0,0,0-2.939,6.419c-.048,4.913-.014,9.852-.024,14.753q0,14.717,0,29.232,0,29.026,0,57.152c0,37.471-.009,73.613-.013,108.043s-.015,67.147-.022,97.767q0,5.741,0,11.383c.009,1.877-.022,3.761.02,5.607a9.465,9.465,0,0,0,1.731,5.095,9.667,9.667,0,0,0,4.165,3.334,10.255,10.255,0,0,0,2.593.665c.883.077,1.8.06,2.7.06l10.766,0,40.87.015,123.334.074,33.531.044c3.83.01,6.752.018,8.72.022s2.971.025,2.971.025-1.006.016-2.971.024-4.89.013-8.72.023l-33.531.043-123.334.075-40.87.015q-5.33,0-10.766,0c-.905,0-1.812.018-2.743-.063a10.656,10.656,0,0,1-2.695-.687,10.032,10.032,0,0,1-4.329-3.462,9.847,9.847,0,0,1-1.8-5.293c-.043-1.878-.013-3.739-.022-5.623q0-5.642,0-11.383c-.006-30.62-.014-63.336-.022-97.767s-.009-70.572-.013-108.043q0-28.1,0-57.152,0-14.513,0-29.232c.011-4.91-.025-9.816.024-14.775a9.954,9.954,0,0,1,3.083-6.735,10.01,10.01,0,0,1,6.9-2.756c39.725,0,78.512,0,115.973,0l55.149.006,26.739,0,13.144,0h9.757a13.778,13.778,0,0,1,3.26.254,10.056,10.056,0,0,1,5.5,3.39,9.989,9.989,0,0,1,2.246,6.01q.005,6.376.013,12.67,0,12.579-.005,24.814-.005,24.463-.012,47.449c-.01,30.617-.02,59.137-.028,85.174-.031,52.072-.057,94.214-.074,123.341-.008,7.281-.015,13.747-.022,19.354q-.007,4.2-.011,7.756c-.015,1.184.025,2.308-.035,3.384a9.378,9.378,0,0,1-.651,2.977,9.854,9.854,0,0,1-2.97,4.052,10.059,10.059,0,0,1-3.219,1.72,10.21,10.21,0,0,1-2.185.4C-220.877,2721.321-221.129,2721.326-221.129,2721.326Z" transform="translate(452.959 -2378.538)" fill="#344154"/>
            </g>
          </g>
        </g>
        <g id="Grupo_57214" data-name="Grupo 57214" transform="translate(21.292 270.492)" opacity="0.3">
          <path id="Trazado_102091" data-name="Trazado 102091" d="M-429.206,2744.848h161.472l38.863-42.13v-22.426l-200.334,31.3Z" transform="translate(429.206 -2680.292)"/>
        </g>
        <g id="Grupo_57215" data-name="Grupo 57215" transform="translate(181.22 0.933)" opacity="0.3">
          <path id="Trazado_102092" data-name="Trazado 102092" d="M-250.206,2379.579l4.6,13.651v6.689h-5.19Z" transform="translate(250.793 -2379.579)"/>
        </g>
        <g id="Grupo_57297" data-name="Grupo 57297" transform="translate(10.767 13.725)">
          <g id="Grupo_57220" data-name="Grupo 57220">
            <g id="Grupo_57219" data-name="Grupo 57219">
              <g id="Grupo_57216" data-name="Grupo 57216" transform="translate(0.233 0.234)">
                <path id="Trazado_102093" data-name="Trazado 102093" d="M-276.532,2708.78H-440.688v-314.67h219.817v258.4" transform="translate(440.688 -2394.109)" fill="#fff"/>
              </g>
              <g id="Grupo_57218" data-name="Grupo 57218">
                <g id="Grupo_57217" data-name="Grupo 57217">
                  <path id="Trazado_102094" data-name="Trazado 102094" d="M-220.9,2652.485s-.012-.407-.017-1.21-.009-2-.016-3.576c-.007-3.158-.018-7.835-.032-13.928-.013-12.2-.033-30.054-.057-52.724-.021-45.35-.05-109.95-.084-186.965l.206.207-219.817.026.233-.232v.279c-.022,120.965-.042,231.433-.057,314.39l-.176-.176,120.006.078,32.724.046,8.521.026c1.921.008,2.905.026,2.905.026s-.984.018-2.905.025l-8.521.025-32.724.047-120.006.078h-.176v-.176c-.015-82.958-.036-193.426-.057-314.39v-.514h.233l219.817.027h.208v.208c-.034,77.014-.064,141.614-.084,186.965-.024,22.67-.044,40.528-.057,52.724-.014,6.093-.024,10.77-.031,13.928-.008,1.575-.013,2.77-.017,3.576S-220.9,2652.485-220.9,2652.485Z" transform="translate(440.948 -2393.849)" fill="#344154"/>
                </g>
              </g>
            </g>
          </g>
          <g id="Grupo_57221" data-name="Grupo 57221" transform="translate(14.133 19.751)">
            <rect id="Rectángulo_5315" data-name="Rectángulo 5315" width="96.009" height="51.755" fill="#ff9d00"/>
          </g>
          <g id="Grupo_57223" data-name="Grupo 57223" transform="translate(125.435 31.471)">
            <g id="Grupo_57222" data-name="Grupo 57222">
              <path id="Trazado_102095" data-name="Trazado 102095" d="M-223.909,2429.191c0,.128-17.262.233-38.551.233s-38.555-.105-38.555-.233,17.259-.233,38.555-.233S-223.909,2429.062-223.909,2429.191Z" transform="translate(301.015 -2428.958)" fill="#344154"/>
            </g>
          </g>
          <g id="Grupo_57225" data-name="Grupo 57225" transform="translate(125.435 40.754)">
            <g id="Grupo_57224" data-name="Grupo 57224">
              <path id="Trazado_102096" data-name="Trazado 102096" d="M-223.909,2439.546c0,.129-17.262.233-38.551.233s-38.555-.1-38.555-.233,17.259-.234,38.555-.234S-223.909,2439.418-223.909,2439.546Z" transform="translate(301.015 -2439.313)" fill="#344154"/>
            </g>
          </g>
          <g id="Grupo_57227" data-name="Grupo 57227" transform="translate(125.435 50.037)">
            <g id="Grupo_57226" data-name="Grupo 57226">
              <path id="Trazado_102097" data-name="Trazado 102097" d="M-223.909,2449.9c0,.129-17.262.233-38.551.233s-38.555-.1-38.555-.233,17.259-.233,38.555-.233S-223.909,2449.773-223.909,2449.9Z" transform="translate(301.015 -2449.669)" fill="#344154"/>
            </g>
          </g>
          <g id="Grupo_57229" data-name="Grupo 57229" transform="translate(125.435 59.32)">
            <g id="Grupo_57228" data-name="Grupo 57228">
              <path id="Trazado_102098" data-name="Trazado 102098" d="M-254.59,2460.257c0,.129-10.393.234-23.211.234s-23.214-.1-23.214-.234,10.392-.232,23.214-.232S-254.59,2460.13-254.59,2460.257Z" transform="translate(301.015 -2460.025)" fill="#344154"/>
            </g>
          </g>
          <g id="Grupo_57231" data-name="Grupo 57231" transform="translate(15.196 81.744)">
            <g id="Grupo_57230" data-name="Grupo 57230">
              <path id="Trazado_102099" data-name="Trazado 102099" d="M-233.707,2485.274c0,.13-42.6.234-95.14.234-52.557,0-95.149-.1-95.149-.234s42.591-.234,95.149-.234C-276.308,2485.04-233.707,2485.146-233.707,2485.274Z" transform="translate(423.996 -2485.04)" fill="#344154"/>
            </g>
          </g>
          <g id="Grupo_57233" data-name="Grupo 57233" transform="translate(17.275 87.464)">
            <g id="Grupo_57232" data-name="Grupo 57232">
              <path id="Trazado_102100" data-name="Trazado 102100" d="M-233.467,2491.655c0,.129-42.136.233-94.1.233-51.983,0-94.109-.1-94.109-.233s42.126-.233,94.109-.233C-275.6,2491.422-233.467,2491.526-233.467,2491.655Z" transform="translate(421.676 -2491.422)" fill="#344154"/>
            </g>
          </g>
          <g id="Grupo_57234" data-name="Grupo 57234" transform="translate(15.195 96.924)">
            <rect id="Rectángulo_5316" data-name="Rectángulo 5316" width="190.289" height="11.042" fill="#e1e1e1"/>
          </g>
          <g id="Grupo_57235" data-name="Grupo 57235" transform="translate(13.147 198.136)">
            <rect id="Rectángulo_5317" data-name="Rectángulo 5317" width="190.289" height="11.042" fill="#e1e1e1"/>
          </g>
          <g id="Grupo_57236" data-name="Grupo 57236" transform="translate(15.195 143.751)">
            <rect id="Rectángulo_5318" data-name="Rectángulo 5318" width="75.892" height="11.042" fill="#e1e1e1"/>
          </g>
          <g id="Grupo_57237" data-name="Grupo 57237" transform="translate(108.553 143.751)">
            <rect id="Rectángulo_5319" data-name="Rectángulo 5319" width="94.882" height="11.042" fill="#e1e1e1"/>
          </g>
          <g id="Grupo_57239" data-name="Grupo 57239" transform="translate(16.065 117.49)">
            <g id="Grupo_57238" data-name="Grupo 57238">
              <path id="Trazado_102101" data-name="Trazado 102101" d="M-313.947,2525.15c0,.13-24.42.234-54.537.234s-54.542-.1-54.542-.234,24.415-.232,54.542-.232S-313.947,2525.022-313.947,2525.15Z" transform="translate(423.026 -2524.918)" fill="#344154"/>
            </g>
          </g>
          <g id="Grupo_57241" data-name="Grupo 57241" transform="translate(15.861 126.178)">
            <g id="Grupo_57240" data-name="Grupo 57240">
              <path id="Trazado_102102" data-name="Trazado 102102" d="M-234.692,2534.843c0,.129-42.215.234-94.277.234-52.08,0-94.286-.1-94.286-.234s42.205-.233,94.286-.233C-276.907,2534.61-234.692,2534.714-234.692,2534.843Z" transform="translate(423.254 -2534.61)" fill="#344154"/>
            </g>
          </g>
          <g id="Grupo_57243" data-name="Grupo 57243" transform="translate(15.861 134.408)">
            <g id="Grupo_57242" data-name="Grupo 57242">
              <path id="Trazado_102103" data-name="Trazado 102103" d="M-234.692,2544.024c0,.129-42.215.233-94.277.233-52.08,0-94.286-.1-94.286-.233s42.205-.233,94.286-.233C-276.907,2543.792-234.692,2543.9-234.692,2544.024Z" transform="translate(423.254 -2543.792)" fill="#344154"/>
            </g>
          </g>
          <g id="Grupo_57245" data-name="Grupo 57245" transform="translate(14.596 161.296)">
            <g id="Grupo_57244" data-name="Grupo 57244">
              <path id="Trazado_102104" data-name="Trazado 102104" d="M-348.834,2574.021c0,.129-16.977.234-37.913.234s-37.918-.1-37.918-.234,16.973-.233,37.918-.233S-348.834,2573.892-348.834,2574.021Z" transform="translate(424.665 -2573.788)" fill="#344154"/>
            </g>
          </g>
          <g id="Grupo_57247" data-name="Grupo 57247" transform="translate(15.855 169.777)">
            <g id="Grupo_57246" data-name="Grupo 57246">
              <path id="Trazado_102105" data-name="Trazado 102105" d="M-348.689,2583.482c0,.129-16.694.233-37.284.233s-37.287-.1-37.287-.233,16.692-.233,37.287-.233S-348.689,2583.354-348.689,2583.482Z" transform="translate(423.26 -2583.249)" fill="#344154"/>
            </g>
          </g>
          <g id="Grupo_57249" data-name="Grupo 57249" transform="translate(14.906 178.397)">
            <g id="Grupo_57248" data-name="Grupo 57248">
              <path id="Trazado_102106" data-name="Trazado 102106" d="M-349.109,2593.1c0,.129-16.838.233-37.6.233s-37.606-.1-37.606-.233,16.834-.234,37.606-.234S-349.109,2592.969-349.109,2593.1Z" transform="translate(424.319 -2592.865)" fill="#344154"/>
            </g>
          </g>
          <g id="Grupo_57251" data-name="Grupo 57251" transform="translate(14.906 186.766)">
            <g id="Grupo_57250" data-name="Grupo 57250">
              <path id="Trazado_102107" data-name="Trazado 102107" d="M-349.109,2602.434c0,.129-16.838.234-37.6.234s-37.606-.1-37.606-.234,16.834-.233,37.606-.233S-349.109,2602.3-349.109,2602.434Z" transform="translate(424.319 -2602.201)" fill="#344154"/>
            </g>
          </g>
          <g id="Grupo_57256" data-name="Grupo 57256" transform="translate(111.711 160.577)">
            <g id="Grupo_57253" data-name="Grupo 57253" transform="translate(11.724 2.708)">
              <g id="Grupo_57252" data-name="Grupo 57252">
                <path id="Trazado_102108" data-name="Trazado 102108" d="M-224.706,2576.24c0,.129-17.583.234-39.268.234s-39.272-.105-39.272-.234,17.579-.233,39.272-.233S-224.706,2576.111-224.706,2576.24Z" transform="translate(303.246 -2576.007)" fill="#344154"/>
              </g>
            </g>
            <g id="Grupo_57255" data-name="Grupo 57255">
              <g id="Grupo_57254" data-name="Grupo 57254">
                <path id="Trazado_102109" data-name="Trazado 102109" d="M-310.632,2578.631a12.926,12.926,0,0,1-.1-1.553c-.038-.953-.083-2.279-.1-3.855l.2.2-5.408.031c-.051.05.442-.442.233-.232v.735c0,.243,0,.484,0,.723,0,.475,0,.943-.006,1.4-.008.9-.016,1.754-.023,2.552l-.2-.2c1.578.02,2.9.065,3.856.1a12.6,12.6,0,0,1,1.552.1,8.718,8.718,0,0,1-1.423.1c-.94.038-2.319.084-3.985.1l-.2,0,0-.2c-.008-.8-.015-1.652-.023-2.552,0-.456,0-.923-.006-1.4l0-.723v-.735l.234-.235,5.408.031.2,0,0,.2c-.02,1.666-.065,3.045-.1,3.984A8.523,8.523,0,0,1-310.632,2578.631Z" transform="translate(316.325 -2572.985)" fill="#344154"/>
              </g>
            </g>
          </g>
          <g id="Grupo_57261" data-name="Grupo 57261" transform="translate(111.711 170.966)">
            <g id="Grupo_57258" data-name="Grupo 57258" transform="translate(11.724 2.707)">
              <g id="Grupo_57257" data-name="Grupo 57257">
                <path id="Trazado_102110" data-name="Trazado 102110" d="M-224.706,2587.828c0,.13-17.583.234-39.268.234s-39.272-.1-39.272-.234,17.579-.234,39.272-.234S-224.706,2587.7-224.706,2587.828Z" transform="translate(303.246 -2587.594)" fill="#344154"/>
              </g>
            </g>
            <g id="Grupo_57260" data-name="Grupo 57260">
              <g id="Grupo_57259" data-name="Grupo 57259">
                <path id="Trazado_102111" data-name="Trazado 102111" d="M-310.632,2590.219a12.848,12.848,0,0,1-.1-1.552c-.038-.953-.083-2.279-.1-3.856l.2.2-5.408.032c-.051.05.442-.442.233-.233v.735q0,.365,0,.723c0,.476,0,.943-.006,1.4-.008.9-.016,1.753-.023,2.552l-.2-.2c1.578.02,2.9.066,3.856.1a13.185,13.185,0,0,1,1.552.1,8.332,8.332,0,0,1-1.423.1c-.94.037-2.319.083-3.985.1h-.2l0-.2c-.008-.8-.015-1.651-.023-2.552,0-.454,0-.921-.006-1.4l0-.723v-.735l.234-.234,5.408.031h.2l0,.2c-.02,1.667-.065,3.045-.1,3.985A8.489,8.489,0,0,1-310.632,2590.219Z" transform="translate(316.325 -2584.574)" fill="#344154"/>
              </g>
            </g>
          </g>
          <g id="Grupo_57266" data-name="Grupo 57266" transform="translate(111.711 181.354)">
            <g id="Grupo_57263" data-name="Grupo 57263" transform="translate(11.724 2.707)">
              <g id="Grupo_57262" data-name="Grupo 57262">
                <path id="Trazado_102112" data-name="Trazado 102112" d="M-224.706,2599.417c0,.128-17.583.233-39.268.233s-39.272-.1-39.272-.233,17.579-.234,39.272-.234S-224.706,2599.289-224.706,2599.417Z" transform="translate(303.246 -2599.184)" fill="#344154"/>
              </g>
            </g>
            <g id="Grupo_57265" data-name="Grupo 57265">
              <g id="Grupo_57264" data-name="Grupo 57264">
                <path id="Trazado_102113" data-name="Trazado 102113" d="M-310.632,2601.809a12.924,12.924,0,0,1-.1-1.553c-.038-.953-.083-2.278-.1-3.856l.2.2-5.408.032.233-.232h0v.734c0,.243,0,.484,0,.723q0,.714-.006,1.4c-.008.9-.016,1.752-.023,2.551l-.2-.2c1.578.02,2.9.065,3.856.1a12.955,12.955,0,0,1,1.552.1,8.657,8.657,0,0,1-1.423.1c-.94.037-2.319.082-3.985.1l-.2,0,0-.2c-.008-.8-.015-1.652-.023-2.551q0-.684-.006-1.4l0-.723v-.734h0c-.208.208.284-.285.234-.234l5.408.031h.2l0,.2c-.02,1.666-.065,3.045-.1,3.985A8.514,8.514,0,0,1-310.632,2601.809Z" transform="translate(316.325 -2596.164)" fill="#344154"/>
              </g>
            </g>
          </g>
          <g id="Grupo_57281" data-name="Grupo 57281" transform="translate(14.373 218.801)">
            <g id="Grupo_57268" data-name="Grupo 57268">
              <g id="Grupo_57267" data-name="Grupo 57267">
                <path id="Trazado_102114" data-name="Trazado 102114" d="M-237.311,2689.323s-.009-.3-.014-.884-.008-1.452-.014-2.586c-.008-2.281-.02-5.646-.035-10.02-.019-8.743-.046-21.514-.08-37.661l.143.143-187.358.091h-.012l.233-.233c0,17.6,0,34.755-.005,51.151l-.228-.227,133.814.1,39.3.065,10.57.03,2.741.015c.618,0,.94.013.94.013s-.3.01-.912.016l-2.713.014-10.521.03-39.252.066-133.973.1h-.228v-.229c0-16.4,0-33.55-.005-51.151v-.234h.245l187.358.09h.144v.144c-.034,16.183-.06,28.982-.079,37.746-.015,4.36-.027,7.715-.035,9.988q-.009,1.685-.015,2.561C-237.3,2689.04-237.311,2689.323-237.311,2689.323Z" transform="translate(424.914 -2637.939)" fill="#344154"/>
              </g>
            </g>
            <g id="Grupo_57270" data-name="Grupo 57270" transform="translate(0.757 12.874)">
              <g id="Grupo_57269" data-name="Grupo 57269">
                <path id="Trazado_102115" data-name="Trazado 102115" d="M-237.223,2652.534c0,.129-41.83.233-93.419.233-51.605,0-93.427-.1-93.427-.233s41.821-.233,93.427-.233C-279.054,2652.3-237.223,2652.4-237.223,2652.534Z" transform="translate(424.069 -2652.301)" fill="#344154"/>
              </g>
            </g>
            <g id="Grupo_57272" data-name="Grupo 57272" transform="translate(0.757 25.576)">
              <g id="Grupo_57271" data-name="Grupo 57271">
                <path id="Trazado_102116" data-name="Trazado 102116" d="M-237.223,2666.7c0,.128-41.83.234-93.419.234-51.605,0-93.427-.105-93.427-.234s41.821-.234,93.427-.234C-279.054,2666.47-237.223,2666.576-237.223,2666.7Z" transform="translate(424.069 -2666.47)" fill="#344154"/>
              </g>
            </g>
            <g id="Grupo_57274" data-name="Grupo 57274" transform="translate(0.757 38.417)">
              <g id="Grupo_57273" data-name="Grupo 57273">
                <path id="Trazado_102117" data-name="Trazado 102117" d="M-237.223,2681.028c0,.129-41.83.234-93.419.234-51.605,0-93.427-.1-93.427-.234s41.821-.233,93.427-.233C-279.054,2680.8-237.223,2680.9-237.223,2681.028Z" transform="translate(424.069 -2680.796)" fill="#344154"/>
              </g>
            </g>
            <g id="Grupo_57276" data-name="Grupo 57276" transform="translate(21.779 0.151)">
              <g id="Grupo_57275" data-name="Grupo 57275">
                <path id="Trazado_102118" data-name="Trazado 102118" d="M-400.384,2689.789c-.129,0-.234-11.571-.234-25.84s.1-25.842.234-25.842.233,11.568.233,25.842S-400.256,2689.789-400.384,2689.789Z" transform="translate(400.618 -2638.107)" fill="#344154"/>
              </g>
            </g>
            <g id="Grupo_57278" data-name="Grupo 57278" transform="translate(85.14 0.928)">
              <g id="Grupo_57277" data-name="Grupo 57277">
                <path id="Trazado_102119" data-name="Trazado 102119" d="M-329.7,2688.324c-.128,0-.233-11.049-.233-24.674s.1-24.677.233-24.677.234,11.047.234,24.677S-329.572,2688.324-329.7,2688.324Z" transform="translate(329.934 -2638.973)" fill="#344154"/>
              </g>
            </g>
            <g id="Grupo_57280" data-name="Grupo 57280" transform="translate(151.902 1.705)">
              <g id="Grupo_57279" data-name="Grupo 57279">
                <path id="Trazado_102120" data-name="Trazado 102120" d="M-255.222,2690.747c-.129,0-.233-11.4-.233-25.452s.1-25.455.233-25.455.234,11.395.234,25.455S-255.093,2690.747-255.222,2690.747Z" transform="translate(255.455 -2639.84)" fill="#344154"/>
              </g>
            </g>
          </g>
          <g id="Grupo_57285" data-name="Grupo 57285" transform="translate(164.176 258.404)">
            <g id="Grupo_57282" data-name="Grupo 57282" transform="translate(0.214 0.233)">
              <path id="Trazado_102121" data-name="Trazado 102121" d="M-257.559,2738.646l55.661-56.267h-55.661Z" transform="translate(257.559 -2682.378)" fill="#e1e1e1"/>
            </g>
            <g id="Grupo_57284" data-name="Grupo 57284">
              <g id="Grupo_57283" data-name="Grupo 57283">
                <path id="Trazado_102122" data-name="Trazado 102122" d="M-257.584,2738.618c-.007-1.879-.088-23.261-.212-56.267v-.212h.213l39.266-.02,16.4,0h.553l-.389.391c-15.886,15.983-29.857,30.042-39.873,40.119l-15.952,15.986,15.976-16.288,39.522-40.14.163.391-16.4,0-39.266-.021.213-.213C-257.5,2715.357-257.576,2736.739-257.584,2738.618Z" transform="translate(257.797 -2682.119)" fill="#344154"/>
              </g>
            </g>
          </g>
          <g id="Grupo_57287" data-name="Grupo 57287" transform="translate(15.497 281.418)">
            <g id="Grupo_57286" data-name="Grupo 57286">
              <path id="Trazado_102123" data-name="Trazado 102123" d="M-277.519,2708.025c0,.129-32.718.234-73.067.234s-73.074-.105-73.074-.234,32.71-.233,73.074-.233S-277.519,2707.9-277.519,2708.025Z" transform="translate(423.66 -2707.792)" fill="#344154"/>
            </g>
          </g>
          <g id="Grupo_57289" data-name="Grupo 57289" transform="translate(15.497 288.811)">
            <g id="Grupo_57288" data-name="Grupo 57288">
              <path id="Trazado_102124" data-name="Trazado 102124" d="M-277.519,2716.273c0,.13-32.718.234-73.067.234s-73.074-.1-73.074-.234,32.71-.233,73.074-.233S-277.519,2716.145-277.519,2716.273Z" transform="translate(423.66 -2716.041)" fill="#344154"/>
            </g>
          </g>
          <g id="Grupo_57291" data-name="Grupo 57291" transform="translate(15.497 296.205)">
            <g id="Grupo_57290" data-name="Grupo 57290">
              <path id="Trazado_102125" data-name="Trazado 102125" d="M-357.158,2724.521c0,.13-14.888.235-33.249.235s-33.253-.1-33.253-.235,14.885-.232,33.253-.232S-357.158,2724.394-357.158,2724.521Z" transform="translate(423.66 -2724.289)" fill="#344154"/>
            </g>
          </g>
          <g id="Grupo_57293" data-name="Grupo 57293" transform="translate(14.201 10.957)">
            <g id="Grupo_57292" data-name="Grupo 57292">
              <path id="Trazado_102126" data-name="Trazado 102126" d="M-232.073,2406.306c0,.129-43.215.234-96.512.234-53.315,0-96.521-.1-96.521-.234s43.206-.233,96.521-.233C-275.288,2406.073-232.073,2406.177-232.073,2406.306Z" transform="translate(425.106 -2406.073)" fill="#e1e1e1"/>
            </g>
          </g>
          <g id="Grupo_57295" data-name="Grupo 57295" transform="translate(14.201 14.468)">
            <g id="Grupo_57294" data-name="Grupo 57294">
              <path id="Trazado_102127" data-name="Trazado 102127" d="M-327.927,2410.221c0,.13-21.756.234-48.587.234s-48.592-.1-48.592-.234,21.751-.233,48.592-.233S-327.927,2410.092-327.927,2410.221Z" transform="translate(425.106 -2409.988)" fill="#e1e1e1"/>
            </g>
          </g>
        </g>
      </g>
      <g id="Grupo_57309" data-name="Grupo 57309" transform="translate(70.586 0)">
        <g id="Grupo_57299" data-name="Grupo 57299" transform="translate(0 12.132)">
          <path id="Rectángulo_5320" data-name="Rectángulo 5320" d="M6.326,0H104.9a6.326,6.326,0,0,1,6.326,6.326V32.259a0,0,0,0,1,0,0H0a0,0,0,0,1,0,0V6.326A6.326,6.326,0,0,1,6.326,0Z" fill="#344154"/>
        </g>
        <g id="Grupo_57300" data-name="Grupo 57300" transform="translate(41.457)">
          <path id="Trazado_102146" data-name="Trazado 102146" d="M-299.659,2355.746h-28.308l3.309,24.264h21.323Z" transform="translate(327.966 -2355.746)" fill="#344154"/>
        </g>
        <g id="Grupo_57302" data-name="Grupo 57302" transform="translate(7.145 11.899)">
          <g id="Grupo_57301" data-name="Grupo 57301">
            <path id="Trazado_102147" data-name="Trazado 102147" d="M-269.312,2369.253c0,.129-21.7.234-48.464.234s-48.468-.1-48.468-.234,21.7-.233,48.468-.233S-269.312,2369.124-269.312,2369.253Z" transform="translate(366.244 -2369.02)" fill="#5e6178"/>
          </g>
        </g>
        <g id="Grupo_57304" data-name="Grupo 57304" transform="translate(2.256 18.804)">
          <g id="Grupo_57303" data-name="Grupo 57303">
            <path id="Trazado_102148" data-name="Trazado 102148" d="M-371.465,2397.106c-.129,0-.233-4.564-.233-10.191s.1-10.192.233-10.192.234,4.563.234,10.192S-371.336,2397.106-371.465,2397.106Z" transform="translate(371.698 -2376.722)" fill="#5e6178"/>
          </g>
        </g>
        <g id="Grupo_57306" data-name="Grupo 57306" transform="translate(107.388 18.268)">
          <g id="Grupo_57305" data-name="Grupo 57305">
            <path id="Trazado_102149" data-name="Trazado 102149" d="M-254.182,2394.63a91.921,91.921,0,0,1-.233-9.253,91.885,91.885,0,0,1,.233-9.252,91.914,91.914,0,0,1,.233,9.252A91.95,91.95,0,0,1-254.182,2394.63Z" transform="translate(254.415 -2376.125)" fill="#5e6178"/>
          </g>
        </g>
        <g id="Grupo_57308" data-name="Grupo 57308" transform="translate(2.757 40.831)">
          <g id="Grupo_57307" data-name="Grupo 57307">
            <path id="Trazado_102150" data-name="Trazado 102150" d="M-271.639,2401.528c0,.129-22.275.235-49.747.235s-49.753-.105-49.753-.235,22.271-.233,49.753-.233S-271.639,2401.4-271.639,2401.528Z" transform="translate(371.139 -2401.296)" fill="#5e6178"/>
          </g>
        </g>
      </g>
    </g>
    <g id="Grupo_88830" data-name="Grupo 88830" transform="translate(206.728 811.513)">
      <g id="Grupo_88818" data-name="Grupo 88818" transform="translate(78.009 119.458)">
        <g id="Grupo_88817" data-name="Grupo 88817">
          <path id="Trazado_142339" data-name="Trazado 142339" d="M102.275,180.559s-13.078-.095-17.626,16.963c-3.448,12.926-3.671,22.826-4.549,36.1-.63,9.528.78,19.688,2.387,29.227a24.538,24.538,0,0,0,5.984,12.666c3.7,4.195,8.7,4.732,14.183,4.732C112.508,279.113,126.155,191.172,102.275,180.559Z" transform="translate(-77.291 -94.503)" fill="#191c26"/>
          <path id="Trazado_142340" data-name="Trazado 142340" d="M175.2,255.129s3.794,47.975-5.964,52.041c0,0-2.98,1.355-1.491-17.347-.541-1.085-1.67-1.221-1.806-.271-.107.743-.185,6.177-.214,8.492a1.79,1.79,0,0,1-1.5,1.794.939.939,0,0,1-.811-.256c-.814-.814-1.627-16.264,1.625-23.581-.948-9.758-1.761-21.414-1.761-21.414S170.047,244.829,175.2,255.129Z" transform="translate(-46.656 -68.638)" fill="#fe9c70"/>
          <g id="Grupo_88811" data-name="Grupo 88811" transform="translate(61.454 163.897)">
            <path id="Trazado_142341" data-name="Trazado 142341" d="M163.446,416.055s-1.358,1.306.81,4.769c.24.382,12.778-3.235,25.524-6.65,16.138-4.325,32.8-8.966,27.42-11.848" transform="translate(-107.981 -176.281)" fill="#fff"/>
            <path id="Trazado_142342" data-name="Trazado 142342" d="M180.145,400.608l-7.423-20.142-16.322.612s5.106,15.294,7.916,26.3C164.317,407.376,174.982,424.417,180.145,400.608Z" transform="translate(-110.434 -184.376)" fill="#fe9c70"/>
            <path id="Trazado_142343" data-name="Trazado 142343" d="M164.1,419.192c1.879-.371,6.631-1.536,12.571-3.042,3.631-.915,7.7-1.953,11.834-3.021,14.3-3.689,29.357-7.668,29.357-7.668s-1.97-1.58-9.692-.455a26.821,26.821,0,0,1-12.117-.865c-.671-.216-1.355-.441-2.049-.7a50.461,50.461,0,0,1-15.017-9.344.886.886,0,0,0-1.476.558c-.76,5.8-3.645,16.42-14.1,7.608l-.935-.821c-1.035.263-.889,1.347-.988,2.45a37.879,37.879,0,0,0,.181,9.855A10.525,10.525,0,0,0,164.1,419.192Z" transform="translate(-108.639 -179.413)" fill="#2e2f44"/>
            <path id="Trazado_142344" data-name="Trazado 142344" d="M163.989,414.428c1.879-.371,6.631-1.536,12.571-3.042l1.05-.437s-4.978-7.993-16.056-1.966A10.525,10.525,0,0,0,163.989,414.428Z" transform="translate(-108.526 -174.649)" fill="#191c26"/>
            <path id="Trazado_142345" data-name="Trazado 142345" d="M181.154,410.542c14.3-3.689,29.357-7.668,29.357-7.668s-1.97-1.58-9.692-.455a26.821,26.821,0,0,1-12.117-.865c-.671-.216-1.355-.441-2.049-.7C183.714,403.022,180.681,406.327,181.154,410.542Z" transform="translate(-101.286 -176.826)" fill="#191c26"/>
            <path id="Trazado_142346" data-name="Trazado 142346" d="M178.858,404.328a15.006,15.006,0,0,1,3.171-5.17" transform="translate(-102.119 -177.454)" fill="none" stroke="#fff" stroke-linecap="round" stroke-linejoin="round" stroke-width="0.859"/>
            <path id="Trazado_142347" data-name="Trazado 142347" d="M176.682,402.768a13.042,13.042,0,0,1,2.858-4.9" transform="translate(-102.924 -177.93)" fill="none" stroke="#fff" stroke-linecap="round" stroke-linejoin="round" stroke-width="0.859"/>
            <path id="Trazado_142348" data-name="Trazado 142348" d="M127.908,237.365s-5.27,20.226-5.045,34.478c.252,16.075,10.2,29.411,14.618,44.741S168.4,427.256,171.1,446.157c0,0,15.038,4.8,20.648-5.274,2.4-.454-5.673-52.7-5.965-69.62s-1.548-25.779-8.252-48.082-9.092-51.375-4.049-63.186" transform="translate(-122.856 -237.365)" fill="#191c26"/>
          </g>
          <g id="Grupo_88812" data-name="Grupo 88812" transform="translate(15.653 171.759)">
            <path id="Trazado_142349" data-name="Trazado 142349" d="M90.52,408.28s-1.717.7-.837,4.437c.1.414,13.115,1.328,26.259,2.487,16.642,1.466,33.889,2.827,29.787-1.448" transform="translate(-89.432 -181.938)" fill="#fff"/>
            <path id="Trazado_142350" data-name="Trazado 142350" d="M110.415,403.33l-.229-20.052L94.619,378.5s-.326,15.053-1.372,25.6C93.247,404.1,97.568,422.5,110.415,403.33Z" transform="translate(-88.019 -192.964)" fill="#fe9c70"/>
            <path id="Trazado_142351" data-name="Trazado 142351" d="M90.4,413.031c1.894.288,6.757.814,12.855,1.429,3.726.381,7.9.795,12.153,1.206,14.7,1.425,30.209,2.842,30.209,2.842s-1.325-2.024-8.971-3.553a28.146,28.146,0,0,1-11.117-4.7c-.559-.407-1.128-.828-1.694-1.28a48.718,48.718,0,0,1-11-13.069.914.914,0,0,0-1.576.007c-2.662,4.832-8.941,13.192-15.831,2.07l-.6-1.022c-1.062-.106-1.289.889-1.753,1.824a33.41,33.41,0,0,0-3.135,8.688A9.26,9.26,0,0,0,90.4,413.031Z" transform="translate(-89.321 -186.686)" fill="#2e2f44"/>
            <path id="Trazado_142352" data-name="Trazado 142352" d="M90.4,409.842c1.894.288,6.757.814,12.855,1.429l1.135-.041s-2-8.618-14.454-6.947A9.26,9.26,0,0,0,90.4,409.842Z" transform="translate(-89.321 -183.497)" fill="#191c26"/>
            <path id="Trazado_142353" data-name="Trazado 142353" d="M108.473,412.013c14.7,1.425,30.209,2.842,30.209,2.842s-1.325-2.024-8.971-3.553a28.146,28.146,0,0,1-11.117-4.7c-.559-.407-1.128-.828-1.694-1.28C113.406,406.262,109.442,408.17,108.473,412.013Z" transform="translate(-82.381 -183.033)" fill="#191c26"/>
            <path id="Trazado_142354" data-name="Trazado 142354" d="M108,406.034a14.626,14.626,0,0,1,4.721-3.494" transform="translate(-82.557 -184.063)" fill="none" stroke="#fff" stroke-linecap="round" stroke-linejoin="round" stroke-width="0.83"/>
            <path id="Trazado_142355" data-name="Trazado 142355" d="M106.45,403.988a12.639,12.639,0,0,1,4.334-3.356" transform="translate(-83.13 -184.77)" fill="none" stroke="#fff" stroke-linecap="round" stroke-linejoin="round" stroke-width="0.83"/>
            <path id="Trazado_142356" data-name="Trazado 142356" d="M122.248,243.1S110.5,259.1,105.929,271.647c-5.156,14.158-.266,29.071-1.25,43.932s-8.03,106.961-11.827,124.388c0,0,12.546,9.1,21.208,2.1,2.406.384,12.34-47.985,17.744-62.9S139,356.1,140.168,334.39s8.678-47.94,17.389-56.64" transform="translate(-88.166 -243.102)" fill="#191c26"/>
            <path id="Trazado_142357" data-name="Trazado 142357" d="M123.086,248.859s-7.553,11.264-11.324,23.332.032,38.616-1.869,53.443S100.587,421.28,95.2,436.621" transform="translate(-87.295 -240.97)" fill="none" stroke="#fff" stroke-linecap="round" stroke-linejoin="round" stroke-width="0.749"/>
          </g>
          <g id="Grupo_88816" data-name="Grupo 88816" transform="translate(48.67)">
            <path id="Trazado_142358" data-name="Trazado 142358" d="M166.15,138.225a3.394,3.394,0,0,0-.241.925c-.652,3.124-5.81,5.425-8.682,5.484a3.83,3.83,0,0,1-3.03-1.195.929.929,0,0,0-.4-.341c-.286-.086-.555.16-.767.371-2.727,2.71-4.747,1.1-7.683.211-2.658-.806-5.958-.469-8.729-.732-.084.6-.286,1.535-.54,2.645-.7,3.031-1.927,7.486-2.832,10.913-.778-2.669-1.7-3.424-1.7-3.424l1.791,7.531,1.1,1.391,2.28,2.905c.619.789-10.048,4.074-11.128,3.89-1.587-.27-3.1-1.679-2.89-3.274a4.934,4.934,0,0,1-5.2-5.509,2.8,2.8,0,0,0,.071-1.557,2.213,2.213,0,0,0-.633-.755,10.812,10.812,0,0,1-3-3.738,4.461,4.461,0,0,1,.46-4.564,5.494,5.494,0,0,0,.622-.74,2.939,2.939,0,0,0,.136-2c-.343-1.935-.751-4.182.548-5.658a5.782,5.782,0,0,0,1.017-1.163c.4-.814-.005-1.772-.03-2.678a4.243,4.243,0,0,1,1.664-3.234c1.331-1.113,3.069-1.284,4.588-2.006,2.049-.976.865-2.679,1.7-4.6a3.405,3.405,0,0,1,3.165-2.186,10.241,10.241,0,0,1,2.451-4.581c1.285-1.191,3.4-1.662,4.8-.606a15.068,15.068,0,0,1,4.018-1.973,5.219,5.219,0,0,1,4.315.563,2.859,2.859,0,0,0,1.056.614,2.436,2.436,0,0,0,1.368-.34A7.973,7.973,0,0,1,155.1,121.3c-.592-.8,3.871-1.968,6.031-1.028a8.535,8.535,0,0,1,4.466,4.843,4.936,4.936,0,0,1-.813,4.945,4.306,4.306,0,0,1,2.1,7.387A3.218,3.218,0,0,0,166.15,138.225Z" transform="translate(-113.527 -117.758)" fill="#191c26"/>
            <g id="Grupo_88813" data-name="Grupo 88813" transform="translate(18.28 24.634)">
              <path id="Trazado_142359" data-name="Trazado 142359" d="M146.032,135.8c-1.918,1.336-11.806.614-16.542.164-.084.6-.286,1.535-.54,2.643-.523,2.251-1.331,5.284-2.083,8.1a9.108,9.108,0,0,1,1.443,3.138c.906-3.427,2.128-7.882,2.832-10.913.254-1.11.456-2.04.54-2.645,4.736.451,14.624,1.172,16.544-.163a.7.7,0,0,1,.359-.066A6.521,6.521,0,0,0,146.032,135.8Z" transform="translate(-126.867 -135.735)" fill="#ff8980"/>
            </g>
            <path id="Trazado_142360" data-name="Trazado 142360" d="M147.192,173.376s-5.121,3.387-5.657,3.679a12.524,12.524,0,0,1-2.56,1.118,15.065,15.065,0,0,1-2.984.421,25.405,25.405,0,0,1-6.688-.1c-2.349-.455-5.507-.921-7.506-2.309a5.014,5.014,0,0,1-1.425-1.677c-.284-.465-.824-.861-1.032-1.326,5.9-1.818,7.835-9.517,8.714-14.849.271-1.646.462-3.305.57-4.969.085-1.072.089-1.716.089-1.716,2.81,1.461,5.583,3.009,8.325,4.59,2.131,1.237,4.242,2.5,6.286,3.866a23.289,23.289,0,0,1,2.49,1.775c1.314,1.159.608,1.739.079,3.322-.055.162-.1.322-.141.484a11.884,11.884,0,0,0-.3,3.805c.092,1.594.132,2.641,1.42,3.664C147.038,173.285,147.142,173.331,147.192,173.376Z" transform="translate(-111.374 -105.208)" fill="#fe9c70"/>
            <path id="Trazado_142361" data-name="Trazado 142361" d="M142.885,164.7c-.055.162-.1.322-.141.484-8.712.071-15-12.013-15.262-12.2-.38.192,3.807,1.172,6.549,2.753,2.131,1.237,4.242,2.5,6.286,3.866a23.291,23.291,0,0,1,2.49,1.775C144.12,162.54,143.414,163.12,142.885,164.7Z" transform="translate(-108.368 -104.712)" fill="#dd966f" opacity="0.45"/>
            <path id="Trazado_142362" data-name="Trazado 142362" d="M158.353,141.717c.026.8.047,1.67.049,2.616.01,1.4-.025,2.942-.107,4.558-.014.312-.025.647-.048.97-.589,9.1-3.054,20.082-11.391,22-8.907,1.406-18.746-12.194-19.05-12.416-1.2.6-6.642-.929-5.964-6.365,1.08-8.655,6.658-2.577,6.658-2.577-.4-2.763-.739-11.519-.739-11.519l13.174-8.42,17.123,6.658S158.256,138.98,158.353,141.717Z" transform="translate(-110.469 -113.015)" fill="#fe9c70"/>
            <g id="Grupo_88814" data-name="Grupo 88814" transform="translate(15.707 46.284)" opacity="0.45">
              <path id="Trazado_142363" data-name="Trazado 142363" d="M124.989,151.642a4.038,4.038,0,0,0,.665.147,2.881,2.881,0,0,0-.216-.255A1.3,1.3,0,0,1,124.989,151.642Z" transform="translate(-124.989 -151.534)" fill="#ffccb0"/>
            </g>
            <path id="Trazado_142364" data-name="Trazado 142364" d="M159.586,138.089c-1.333,1.74-4.064,2.813-6.17,3.061-1.32.156-2.917-.116-3.483-1.318a3.7,3.7,0,0,1-5.87.107c-.3-.434-.585-.992-1.109-1.04a1.532,1.532,0,0,0-.826.26,11.253,11.253,0,0,1-6.708,1.169c-.375-.052-.761-.632-.382-.659a4.942,4.942,0,0,1-3,6.417,6.747,6.747,0,0,1,.57,4.126,3.085,3.085,0,0,1-3.979,2.428c-4.86-1.954-5.243-10.532-5.243-10.532s1.524-6.491,1.659-7.2,7.782-6.081,7.782-6.081l8.209-1.524,6.538-.121.815.717,1.566,1.372,9.181,8.057S159.72,137.914,159.586,138.089Z" transform="translate(-109.877 -114.266)" fill="#191c26"/>
            <path id="Trazado_142365" data-name="Trazado 142365" d="M144.2,145.994c-.182,3.256,2.554,5.747,2.554,5.747s-2.149,1.177-2.34,1.916" transform="translate(-102.173 -107.302)" fill="none" stroke="#ba6858" stroke-miterlimit="10" stroke-width="0.57"/>
            <g id="Grupo_88815" data-name="Grupo 88815" transform="translate(33.058 49.649)">
              <path id="Trazado_142366" data-name="Trazado 142366" d="M139.787,158.979c2.183.736,4.592-1.229,4.908-2.165s-.773-1.229-2.956-1.966-3.645-1.306-3.962-.369S137.6,158.242,139.787,158.979Z" transform="translate(-137.652 -153.99)" fill="#f9f6ed"/>
            </g>
            <path id="Trazado_142367" data-name="Trazado 142367" d="M132.292,150.861c-.056.948,1.458,1.81,3.382,1.925s3.529-.562,3.585-1.51-1.457-1.81-3.381-1.925S132.35,149.911,132.292,150.861Z" transform="translate(-106.578 -106.064)" fill="#dd966f"/>
          </g>
          <path id="Trazado_142368" data-name="Trazado 142368" d="M120.429,286.019s29.187,3.79,47-.758c2.653-10.992,5.584-105.451-18.961-117.2l-2.847.6A33.034,33.034,0,0,1,123.841,166h0S108.489,243.187,120.429,286.019Z" transform="translate(-63.984 -99.893)" fill="#fff"/>
          <path id="Trazado_142369" data-name="Trazado 142369" d="M139.665,167.526s9.243,21.879,9.324,38.666a79.874,79.874,0,0,0,.522,9.032c.791,6.656.851,15.664,1.155,31.6,2.084,20.09,7.2,64.439,7.2,64.439l13.456,1.136.569-8.529s8.529,2.654,14.4-.378c-.189-7.391-.189-24.639-2.653-31.462s-2.843-54.962-4.17-61.216-2.464-29.946-13.456-34.684S149.52,166.767,139.665,167.526Z" transform="translate(-55.178 -99.359)" fill="#7a86de"/>
          <path id="Trazado_142370" data-name="Trazado 142370" d="M130.769,165.967c.077-.018.119,10.046.173,10.846.381,5.687,2.724,11.031,3.224,16.7.719,8.164-2.424,16.123-3.566,24.239-.829,5.894-.6,11.878-.574,17.83.033,7.786-.292,15.571-.78,23.34-.437,6.971-1.65,14.185-.976,21.1.658,6.751-.588,14.176-.892,20.966q-.255,5.694-.5,11.389l-.016.38s-24.071-.947-27.292-4.359c-.569-8.529-3.412-42.644-1.326-51.172,1.516-16.489,5.117-71.451,3.6-77.138C107.718,176.3,109.733,173.927,130.769,165.967Z" transform="translate(-70.795 -99.906)" fill="#7a86de"/>
          <path id="Trazado_142371" data-name="Trazado 142371" d="M107.609,215.313c12.083,3.838,12.083,7.25,10.946,20.327-1.991,10.235-15.21,18.337-15.21,18.337l-9.1-1.137s-4.833-1.99-7.675-12.509c-1.137-20.753.852-23.311,6.823-32.692,4.833-30.7,12.6-31.367,12.6-31.367s5.448,20.421,3.174,29.235" transform="translate(-74.951 -96.09)" fill="#7a86de"/>
          <path id="Trazado_142372" data-name="Trazado 142372" d="M104.392,205.386s-9.239-.285-12.508,7.106" transform="translate(-72.871 -85.31)" fill="none" stroke="#596bc1" stroke-miterlimit="10" stroke-width="0.83"/>
          <path id="Trazado_142373" data-name="Trazado 142373" d="M92.921,205.572a9.454,9.454,0,0,1,5.97-.995" transform="translate(-72.487 -85.638)" fill="none" stroke="#596bc1" stroke-miterlimit="10" stroke-width="0.83"/>
          <path id="Trazado_142374" data-name="Trazado 142374" d="M111.441,171.375a58.787,58.787,0,0,1,4.715,28.736c-1.564,15.921-6.113,25.3-6.113,25.3s-2.7,10.377-.995,12.438c3.342-3.9,14.506-21.908,13.577-46.3a29.817,29.817,0,0,0-.284-3.045,141.688,141.688,0,0,0-4.078-19.973c-.377-1.211-4.756,1.135-5.388,1.621C112.75,170.249,111.364,171.219,111.441,171.375Z" transform="translate(-66.724 -99.083)" fill="#191c26"/>
          <path id="Trazado_142375" data-name="Trazado 142375" d="M101.012,210.679s.285,8.955,9.24,7.106c1.99-4.122,5.685-10.518,5.685-10.518s6.824-.426,8.529-.711.569-2.985.569-2.985,2.7.143,3.128-.569,0-3.27,0-3.27.995-1.847.71-2.984.143-4.691-1.564-5.259-10.235-.569-11.372.284S101.012,210.679,101.012,210.679Z" transform="translate(-69.491 -90.602)" fill="#fe9c70"/>
          <path id="Trazado_142376" data-name="Trazado 142376" d="M100.667,176.271s5.022,14.594,3.7,25.586" transform="translate(-69.618 -96.09)" fill="none" stroke="#596bc1" stroke-miterlimit="10" stroke-width="0.83"/>
          <path id="Trazado_142377" data-name="Trazado 142377" d="M164.36,298.846s.19-29-1.136-38.094.758-29.567,0-35.821-3.6-14.783-3.175-22.033,2.842-21.89,2.842-21.89" transform="translate(-47.646 -94.336)" fill="none" stroke="#596bc1" stroke-miterlimit="10" stroke-width="0.83"/>
          <path id="Trazado_142378" data-name="Trazado 142378" d="M128.974,159.17v.005c3.624,3.919,9.095,8.552,14.407,7.887,6.761-1.332,9.9-8.671,11.317-16.213-1.568-1.373-7.611-5.75-19.406-3.848-2.709.747-3.949,1.135-3.949,1.135Z" transform="translate(-59.137 -107.103)" fill="#fff"/>
          <path id="Trazado_142379" data-name="Trazado 142379" d="M132.323,148.56s-4.711-2.5-6-3c1.621-.728,4.611.918,8,2.44-2,.556-1.565.428-1.565.428" transform="translate(-60.118 -107.527)" fill="#fff"/>
          <path id="Trazado_142380" data-name="Trazado 142380" d="M130.26,157.241l-4.762-5.488a2.136,2.136,0,0,0,1.369.01c3.5,3.455,3.937,3.907,3.937,3.907Z" transform="translate(-60.424 -105.169)" fill="#fff"/>
          <path id="Trazado_142381" data-name="Trazado 142381" d="M101.617,261.452a23.626,23.626,0,0,0,15.845-13.508" transform="translate(-69.267 -69.55)" fill="none" stroke="#596bc1" stroke-miterlimit="10" stroke-width="0.83"/>
          <path id="Trazado_142382" data-name="Trazado 142382" d="M111.386,210.987c1.792,5.735,2.054,11.489-.574,16.89a25.42,25.42,0,0,1-3.433,5.055c-2.528,3.039-5.522,5.921-9.3,7.083" transform="translate(-70.577 -83.235)" fill="none" stroke="#596bc1" stroke-miterlimit="10" stroke-width="0.83"/>
          <path id="Trazado_142383" data-name="Trazado 142383" d="M113.463,193.806a41.494,41.494,0,0,1,10.3.163" transform="translate(-64.88 -89.688)" fill="none" stroke="#ef8054" stroke-miterlimit="10" stroke-width="0.83"/>
          <path id="Trazado_142384" data-name="Trazado 142384" d="M113.615,197q4.76.24,9.525.278" transform="translate(-64.824 -88.415)" fill="none" stroke="#ef8054" stroke-miterlimit="10" stroke-width="0.83"/>
          <path id="Trazado_142385" data-name="Trazado 142385" d="M113.46,200.1a49.994,49.994,0,0,0,7.818.264" transform="translate(-64.881 -87.268)" fill="none" stroke="#ef8054" stroke-miterlimit="10" stroke-width="0.83"/>
          <path id="Trazado_142386" data-name="Trazado 142386" d="M131.326,295.627a23.967,23.967,0,0,1,2.22-9.118,110.482,110.482,0,0,1,9.176-17.821c.256-.4.762-.856,1.135-.556" transform="translate(-58.266 -62.111)" fill="none" stroke="#3f3f3f" stroke-linecap="round" stroke-linejoin="round" stroke-width="0.83"/>
          <path id="Trazado_142387" data-name="Trazado 142387" d="M148.522,228.23a6.616,6.616,0,0,0,3.978-.856" transform="translate(-51.898 -77.167)" fill="none" stroke="#596bc1" stroke-miterlimit="10" stroke-width="0.83"/>
          <path id="Trazado_142388" data-name="Trazado 142388" d="M149.975,196.05v.284" transform="translate(-51.36 -88.766)" fill="none" stroke="#596bc1" stroke-miterlimit="10" stroke-width="0.83"/>
          <path id="Trazado_142389" data-name="Trazado 142389" d="M151.381,211.414l.286,1.136" transform="translate(-50.839 -83.077)" fill="none" stroke="#596bc1" stroke-miterlimit="10" stroke-width="0.83"/>
        </g>
        <path id="Trazado_142390" data-name="Trazado 142390" d="M126.67,148.453a3.289,3.289,0,0,0-.577-2.654,1.875,1.875,0,0,0-2.5-.371,2.886,2.886,0,0,0-.785,1.981" transform="translate(-61.42 -107.634)" fill="none" stroke="#ef8054" stroke-miterlimit="10" stroke-width="0.83"/>
        <path id="Trazado_142391" data-name="Trazado 142391" d="M126.016,146.49a1.773,1.773,0,0,0-2.22.271" transform="translate(-61.054 -107.219)" fill="none" stroke="#ef8054" stroke-miterlimit="10" stroke-width="0.83"/>
        <path id="Trazado_142392" data-name="Trazado 142392" d="M143.45,141.142a8.916,8.916,0,0,0-7.92.308" transform="translate(-56.709 -109.388)" fill="none" stroke="#191c26" stroke-miterlimit="10" stroke-width="0.956"/>
        <path id="Trazado_142393" data-name="Trazado 142393" d="M146.2,141.567a2.853,2.853,0,0,1,2.321.451" transform="translate(-52.758 -108.97)" fill="none" stroke="#191c26" stroke-miterlimit="10" stroke-width="0.956"/>
        <path id="Trazado_142394" data-name="Trazado 142394" d="M139.448,142.926a5,5,0,0,0-.81,1.429,1.97,1.97,0,0,0,.119,1.6c.088.145.251.29.408.226a.4.4,0,0,0,.182-.226,4.593,4.593,0,0,0,.315-2.671" transform="translate(-55.599 -108.438)" fill="none" stroke="#191c26" stroke-miterlimit="10" stroke-width="0.956"/>
        <path id="Trazado_142395" data-name="Trazado 142395" d="M146.741,143.934a3.942,3.942,0,0,0-.322,2.456,3.072,3.072,0,0,0,.655-2.434" transform="translate(-52.703 -108.065)" fill="none" stroke="#191c26" stroke-miterlimit="10" stroke-width="0.956"/>
        <path id="Trazado_142396" data-name="Trazado 142396" d="M132.261,138.294a20.035,20.035,0,0,1-7.017-5.585c-1.362-1.714-2.476-3.812-2.265-5.992" transform="translate(-61.366 -114.44)" fill="none" stroke="#272f44" stroke-miterlimit="10" stroke-width="1"/>
        <path id="Trazado_142397" data-name="Trazado 142397" d="M134.834,135.641a5.281,5.281,0,0,1,5.04-.976c1.437.489,2.717,1.618,4.234,1.551,1.091-.049,2.071-.724,3.156-.836a10.8,10.8,0,0,1,2.952.454,4.745,4.745,0,0,0,4.625-1.439c1.029-1.352.6-3.722-1.018-4.229" transform="translate(-56.967 -113.162)" fill="none" stroke="#272f44" stroke-miterlimit="10" stroke-width="1"/>
        <path id="Trazado_142398" data-name="Trazado 142398" d="M150.309,128.118c.57-.382,1.281.211,1.7.752a4.641,4.641,0,0,1,.993,1.742,1.612,1.612,0,0,1-.641,1.772" transform="translate(-51.236 -113.966)" fill="none" stroke="#272f44" stroke-miterlimit="10" stroke-width="1"/>
        <path id="Trazado_142399" data-name="Trazado 142399" d="M145.059,121.957" transform="translate(-53.18 -116.202)" fill="none" stroke="#272f44" stroke-miterlimit="10" stroke-width="1"/>
        <path id="Trazado_142400" data-name="Trazado 142400" d="M145.429,122.014a5.187,5.187,0,0,1,4.384,6.82" transform="translate(-53.043 -116.181)" fill="none" stroke="#272f44" stroke-miterlimit="10" stroke-width="1"/>
        <path id="Trazado_142401" data-name="Trazado 142401" d="M140.531,122.14a4.177,4.177,0,0,1,5.866,3.829" transform="translate(-54.857 -116.263)" fill="none" stroke="#272f44" stroke-miterlimit="10" stroke-width="1"/>
        <path id="Trazado_142402" data-name="Trazado 142402" d="M126.8,141.064a2.36,2.36,0,0,1-.164,4.71" transform="translate(-60.002 -109.127)" fill="none" stroke="#272f44" stroke-miterlimit="10" stroke-width="1"/>
        <path id="Trazado_142403" data-name="Trazado 142403" d="M119.168,143.938a5.511,5.511,0,0,0-1.263,4.474c.38,1.557,2.138,2.8,3.62,2.194" transform="translate(-63.275 -108.063)" fill="none" stroke="#272f44" stroke-miterlimit="10" stroke-width="1"/>
        <path id="Trazado_142404" data-name="Trazado 142404" d="M118.6,137.616a4.626,4.626,0,0,0,3.467,5.233" transform="translate(-63.005 -110.404)" fill="none" stroke="#272f44" stroke-miterlimit="10" stroke-width="1"/>
        <path id="Trazado_142405" data-name="Trazado 142405" d="M145.256,149.15c.44,4.47.2,9.452-2.856,12.745" transform="translate(-54.165 -106.133)" fill="none" stroke="#e3e4e5" stroke-miterlimit="10" stroke-width="0.75"/>
      </g>
      <g id="Grupo_88829" data-name="Grupo 88829" transform="translate(280.038 113.166)">
        <path id="Trazado_142407" data-name="Trazado 142407" d="M283.6,143.43s-.944.695-1.844,3.3c-1.007-4.682-2.468-11.287-2.672-13.534-4.691.215-14.472.454-16.3-.959-4.954.84-9.907.528-11.43-4.342s.663-13.056,4.23-14.354,3.714,1.192,3.714,1.192-2.945-1.109-2.217,1.951c.186,1.052,3.748-.534,2.945-2.921.451,1.721.713,2.1.047,3.261,1.033.56,3.253-.91,4.98-1.7s5.221-1.13,9,.445c1.761-2.232,12.925-3.337,16.9,5.662.878,1.658,5.64.469,7.457,8.1s.478,26.933-13.412,28.382c-3.916.16-7.043-3.063-7.043-3.063l3.526-4.074Z" transform="translate(-216.032 -113.166)" fill="#191c26"/>
        <path id="Trazado_142408" data-name="Trazado 142408" d="M266.25,167.86c7.722,1.273,13.988,1.206,17.889-4.719-4.2-2.419-3.949-19.872-3.949-19.872s-14.481,6.716-18.43,10.113c.038.508.071.965.081,1.357.06,1.831,1.847,5.7-1.1,9.58C260.741,164.318,258.517,166.587,266.25,167.86Z" transform="translate(-212.483 -102.019)" fill="#fe9c70"/>
        <path id="Trazado_142409" data-name="Trazado 142409" d="M232.691,248.719s-4.267,53.955,6.706,58.528c0,0,3.353,1.524,1.677-19.51.61-1.218,1.879-1.372,2.032-.3.119.836.207,6.947.24,9.551A2.014,2.014,0,0,0,245.037,299a1.057,1.057,0,0,0,.914-.289c.914-.914,1.829-18.291-1.829-26.521,1.067-10.975,1.981-24.082,1.981-24.082S238.483,237.135,232.691,248.719Z" transform="translate(-223.062 -64.939)" fill="#fc8876"/>
        <g id="Grupo_88820" data-name="Grupo 88820" transform="translate(36.861 7.235)">
          <path id="Trazado_142410" data-name="Trazado 142410" d="M282.84,151.136c-.127.082-1.906,2.26-4.564,4.7v.005c-3.881,3.571-9.635,7.7-14.813,6.621-5.481-1.544-8.134-7.032-9.318-13.2-.189-.987-.341-2-.462-3.006-.032-.222-.051-.437-.075-.652-.2-1.817-.292-3.633-.317-5.374-.007-.317-.007-.645,0-.955-.007-1.6.032-3.122.107-4.5.051-.93.114-1.791.178-2.576.227-2.7.506-4.412.506-4.412l17.2-5.747,12.585,8.932s-.563,9.191-1.095,11.894c0,0,5.495-2.419,6.254,2.291C289.892,150.478,284,151.781,282.84,151.136Z" transform="translate(-251.994 -117.118)" fill="#fe9c70"/>
          <path id="Trazado_142411" data-name="Trazado 142411" d="M252.361,128.623c2.7,3.805,12.1,4.042,18.715.633,2.971-1.4,7.406-1.95,7.937,2.312.169,1.627-.778,14.306,4.109,12.615s4.734-9.862,4.734-9.862-1.192-6.479-1.288-7.176-7.383-6.372-7.383-6.372l-8.02-1.891-6.442-.436-11.88,9.452S252.235,128.445,252.361,128.623Z" transform="translate(-252.343 -118.446)" fill="#191c26"/>
          <g id="Grupo_88819" data-name="Grupo 88819" transform="translate(1.689 23.76)">
            <path id="Trazado_142412" data-name="Trazado 142412" d="M262.19,146.348c1.769-.21,4.077-2.809,3.075-4.573a.946.946,0,0,0-.4-.41,1.19,1.19,0,0,0-.689-.026c-.888.143-1.777.3-2.669.408-2.406.286-3.908.211-3.786,1.244S259.783,146.634,262.19,146.348Z" transform="translate(-252.043 -133.742)" fill="#f8f5ec"/>
            <path id="Trazado_142413" data-name="Trazado 142413" d="M256.07,140.971c.077.715-.785,1.424-2.032,1.74-.189-.987-.341-2-.462-3.006C254.924,139.717,255.988,140.224,256.07,140.971Z" transform="translate(-253.576 -134.333)" fill="#bb675a"/>
            <path id="Trazado_142414" data-name="Trazado 142414" d="M260.3,135.785a6.169,6.169,0,0,1-1.739,4.434s1.858.814,1.835,1.37" transform="translate(-251.729 -135.785)" fill="none" stroke="#bb675a" stroke-miterlimit="10" stroke-width="0.462"/>
          </g>
        </g>
        <path id="Trazado_142415" data-name="Trazado 142415" d="M272.061,158.63s-28.773,3.408-34.566,50.353c-3.657,43.288-7.62,108.331-7.62,108.331l8.231-.61s-3.874,68.123-.215,69.342a87.4,87.4,0,0,0,9.755,0Z" transform="translate(-223.803 -96.331)" fill="#fff"/>
        <g id="Grupo_88825" data-name="Grupo 88825" transform="translate(10.13 172.666)">
          <g id="Grupo_88821" data-name="Grupo 88821" transform="translate(51.049 196.374)">
            <path id="Trazado_142416" data-name="Trazado 142416" d="M309.216,402.786s3.316,1.225,3.293,7.38c-.011,2.963-15.826,13.144-16.5,13.495s-14.152,6.362-24.993.055a9.017,9.017,0,0,1-.921-3.648Z" transform="translate(-270.09 -374.962)" fill="#fff"/>
            <path id="Trazado_142417" data-name="Trazado 142417" d="M286.028,403.392,284,384.6l15.245-2.12v23.464S295.153,422.2,286.028,403.392Z" transform="translate(-264.941 -382.481)" fill="#fe9c70"/>
            <path id="Trazado_142418" data-name="Trazado 142418" d="M309.216,405.662c.4.178.355,1.662.332,2-.121,1.8-.126,3.2-1.325,4.648-3.138,3.785-6.532,7.557-10.9,9.939a33.1,33.1,0,0,1-13.862,3.845c-.244.015-.488.027-.73.037a30.715,30.715,0,0,1-9.519-1.433c-.311-.107-3.164-1.728-3.116-1.755a61.423,61.423,0,0,0,13.322-11.219c.7-.8,1.373-1.629,2.013-2.471,3.15-4.174,5.376-8.852,4.989-13.478,0,0,3.811-3.08,5.844,3.1,2.214-.232,5.192-1.681,7.123-2.734a1.579,1.579,0,0,1,2.308,1.157,37.314,37.314,0,0,0,.854,3.755C307.163,403.16,308.037,405.137,309.216,405.662Z" transform="translate(-270.091 -377.841)" fill="#2e2f44"/>
            <path id="Trazado_142419" data-name="Trazado 142419" d="M286.045,409.362a15.257,15.257,0,0,0-5.17-3.363" transform="translate(-266.097 -373.772)" fill="none" stroke="#fff" stroke-linecap="round" stroke-linejoin="round" stroke-width="0.873"/>
            <path id="Trazado_142420" data-name="Trazado 142420" d="M287.284,407.017a13.279,13.279,0,0,0-4.763-3.248" transform="translate(-265.488 -374.598)" fill="none" stroke="#fff" stroke-linecap="round" stroke-linejoin="round" stroke-width="0.873"/>
          </g>
          <g id="Grupo_88822" data-name="Grupo 88822" transform="translate(0 196.374)">
            <path id="Trazado_142421" data-name="Trazado 142421" d="M283.064,410.245s1.465.8.354,4.159c-.123.371-11.78.025-23.572-.11-14.929-.169-30.386-.491-26.362-4.049" transform="translate(-232.836 -372.2)" fill="#fff"/>
            <path id="Trazado_142422" data-name="Trazado 142422" d="M256.78,403.882l-.333-17.947,16.572-3.455s-1.039,13.88-1.039,23.68C271.981,406.161,266.516,422.688,256.78,403.882Z" transform="translate(-224.094 -382.481)" fill="#fe9c70"/>
            <path id="Trazado_142423" data-name="Trazado 142423" d="M282.893,415.151c-1.709.092-6.08.132-11.557.142-3.346.01-7.1.01-10.914,0-13.2-.031-27.115-.142-27.115-.142s1.357-1.742,8.292-2.45a24.538,24.538,0,0,0,10.3-3.312c.533-.323,1.076-.658,1.618-1.022a44.3,44.3,0,0,0,10.938-11.02.8.8,0,0,1,1.4.151c1.94,4.686,6.787,12.952,13.895,3.349l.629-.887c.952,0,1.067.937,1.4,1.839a31.761,31.761,0,0,1,2.023,8.279A8.8,8.8,0,0,1,282.893,415.151Z" transform="translate(-232.663 -377.103)" fill="#2e2f44"/>
            <path id="Trazado_142424" data-name="Trazado 142424" d="M253.5,408.616a15.258,15.258,0,0,0-3.224-5.255" transform="translate(-226.377 -374.749)" fill="none" stroke="#fff" stroke-linecap="round" stroke-linejoin="round" stroke-width="0.873"/>
            <path id="Trazado_142425" data-name="Trazado 142425" d="M255.63,407.031a13.255,13.255,0,0,0-2.906-4.978" transform="translate(-225.472 -375.234)" fill="none" stroke="#fff" stroke-linecap="round" stroke-linejoin="round" stroke-width="0.873"/>
          </g>
          <path id="Trazado_142426" data-name="Trazado 142426" d="M241.064,280.627a143.183,143.183,0,0,1,2.989-21.915l1.984-9.17.53-2.456.19-.095,9.358-4.655,29.678-3.164,5.9,5.159,13-1.8,5.376-.739,1.341-.182,1.448-.2s3.715,10.163,3.715,10.172l1.942,5.3a89.339,89.339,0,0,1,1.97,34.344V345.09q.074,8.61.147,17.219l.314,36.908q.148,17.253.295,34.508c.023,2.794,1.7,9.244-.981,11.235-1.026.763-3.4.73-4.645.878a43.642,43.642,0,0,1-16.028-1.073A2.119,2.119,0,0,1,298.038,443L284.4,345.09c-3.892-26.189-6.335-45.033-6.335-45.033l-2.469,25.56a195.809,195.809,0,0,0,.126,38.936l7.945,77.027a2.366,2.366,0,0,1-1.653,2.49,40.128,40.128,0,0,1-21.536.743l-.185-.044-16.7-73.633a196,196,0,0,1-4.579-53.595C239.741,303.808,240.529,289.915,241.064,280.627Z" transform="translate(-230.646 -239.173)" fill="#75aaf5"/>
          <g id="Grupo_88824" data-name="Grupo 88824" transform="translate(15.391)">
            <path id="Trazado_142427" data-name="Trazado 142427" d="M309.442,241.613c-2.387,3.872-4.958,7.68-8.475,9.968-4.626,3.011-10.213,2.93-15.425,2.039s-10.39-2.508-15.658-2.31c-5.495.206-10.877,2.39-16.372,2.229a13.726,13.726,0,0,1-9.443-4l.53-2.456.19-.095,9.358-4.655,29.678-3.164,5.9,5.159,13-1.8,5.376-.739Z" transform="translate(-244.068 -239.173)" fill="#f3f3f3" style="mix-blend-mode: multiply;isolation: isolate"/>
            <g id="Grupo_88823" data-name="Grupo 88823" transform="translate(23.014 8.638)">
              <path id="Trazado_142428" data-name="Trazado 142428" d="M267.687,250.061s.815,27.082,1.325,33.7c-4.271.941-3.941-10.159-4.406-16.524s-3.744-21.762-3.744-21.762" transform="translate(-260.863 -245.477)" fill="none" stroke="#40507f" stroke-miterlimit="10" stroke-width="0.844"/>
              <path id="Trazado_142429" data-name="Trazado 142429" d="M266.81,269.448s.358,15.53.867,19.394" transform="translate(-258.661 -236.601)" fill="none" stroke="#40507f" stroke-miterlimit="10" stroke-width="0.844"/>
            </g>
          </g>
        </g>
        <path id="Trazado_142430" data-name="Trazado 142430" d="M278.878,150.869v.007c-3.993,3.674-9.915,7.922-15.246,6.814-6.743-1.9-9.323-9.6-10.144-17.358,1.7-1.263,8.183-5.2,19.983-2.313,2.684.978,3.909,1.473,3.909,1.473Z" transform="translate(-215.059 -104.347)" fill="#fff"/>
        <path id="Trazado_142431" data-name="Trazado 142431" d="M271.46,139.576s4.98-2.151,6.325-2.547c-1.583-.87-4.748.554-8.309,1.82,1.984.728,1.551.562,1.551.562" transform="translate(-209.139 -104.429)" fill="#fff"/>
        <path id="Trazado_142432" data-name="Trazado 142432" d="M268.025,158.948s-24,13.976-23.8,46.491c-3.657,32.923-3.455,94.55-3.455,94.55s9.609,1.273,20.13,1.923a62.655,62.655,0,0,0,38.718-10.464c5.108-3.422,9.417-6.31,11.723-7.463a32.741,32.741,0,0,0-.306-17.223l-7.468-96.785-12.149-12.207S280.337,165.9,268.025,158.948Z" transform="translate(-219.767 -96.649)" fill="#75aaf5"/>
        <path id="Trazado_142433" data-name="Trazado 142433" d="M277.736,157.816s5.239,38.93,7.271,62.1c.24,10.015.6,17.7.955,23.343.486,7.771,3.287,136.687,3.287,136.687s34.929-1.318,35.743-7.009c-1.422-7.519-5.64-97.743-6.453-101.4s-6.3-102.831-6.3-102.831S299.933,156.075,277.736,157.816Z" transform="translate(-206.08 -96.694)" fill="#fff"/>
        <path id="Trazado_142434" data-name="Trazado 142434" d="M272.131,148.548l5.276-5.173a2.168,2.168,0,0,1-1.388-.1c-3.834,3.216-4.31,3.638-4.31,3.638Z" transform="translate(-208.312 -102.019)" fill="#fff"/>
        <path id="Trazado_142435" data-name="Trazado 142435" d="M236.128,300.82s2.157-96.9,5.625-106.438" transform="translate(-221.487 -83.092)" fill="none" stroke="#c5c8d3" stroke-miterlimit="10" stroke-width="0.844"/>
        <path id="Trazado_142436" data-name="Trazado 142436" d="M303.893,165.521a6.891,6.891,0,0,0-4.581,2.327,20.437,20.437,0,0,0-2.9,4.378" transform="translate(-199.165 -93.78)" fill="none" stroke="#c5c8d3" stroke-miterlimit="10" stroke-width="0.844"/>
        <path id="Trazado_142437" data-name="Trazado 142437" d="M281.009,169.855a406.745,406.745,0,0,1,4.584,43.448c.732,14.221.743,28.661,4.614,42.364" transform="translate(-204.868 -92.175)" fill="none" stroke="#c5c8d3" stroke-miterlimit="10" stroke-width="0.844"/>
        <path id="Trazado_142438" data-name="Trazado 142438" d="M240.332,200.092q1.558-11.8,4.234-23.425" transform="translate(-219.93 -89.652)" fill="none" stroke="#c5c8d3" stroke-miterlimit="10" stroke-width="0.844"/>
        <path id="Trazado_142439" data-name="Trazado 142439" d="M301.213,165.055a7.007,7.007,0,0,0-3.179.73" transform="translate(-198.564 -93.952)" fill="none" stroke="#c5c8d3" stroke-miterlimit="10" stroke-width="0.844"/>
        <path id="Trazado_142440" data-name="Trazado 142440" d="M249.559,169.383a13.063,13.063,0,0,0-4.459,6.943" transform="translate(-218.165 -92.349)" fill="none" stroke="#c5c8d3" stroke-miterlimit="10" stroke-width="0.844"/>
        <path id="Trazado_142441" data-name="Trazado 142441" d="M241.946,260.91c17.589,1.062,35.766,4.721,52.46-.921" transform="translate(-219.333 -58.799)" fill="none" stroke="#40507f" stroke-miterlimit="10" stroke-width="0.844"/>
        <path id="Trazado_142442" data-name="Trazado 142442" d="M281.046,159.011l10.844,33.411a5.511,5.511,0,0,1-.464,5.435q-3.727,7.5-7.454,15" transform="translate(-204.854 -96.19)" fill="none" stroke="#c5c8d3" stroke-miterlimit="10" stroke-width="1"/>
        <path id="Trazado_142443" data-name="Trazado 142443" d="M290.525,274.649q9.231-.7,18.488-.98" transform="translate(-201.344 -53.733)" fill="none" stroke="#c5c8d3" stroke-miterlimit="10" stroke-width="1"/>
        <path id="Trazado_142444" data-name="Trazado 142444" d="M290.464,275.518a29.924,29.924,0,0,0,1.059,4.159,5.3,5.3,0,0,0,1.252,2.28c1.147,1.073,2.906,1.041,4.473.947l5.121-.311c2.328-.141,4.981-.455,6.324-2.362,1.358-1.927.732-4.56.052-6.817" transform="translate(-201.367 -53.828)" fill="none" stroke="#c5c8d3" stroke-miterlimit="10" stroke-width="1"/>
        <path id="Trazado_142445" data-name="Trazado 142445" d="M290.07,275.363q1.12,9.344,2.7,18.628a5.537,5.537,0,0,0,1.077,2.875,4.313,4.313,0,0,0,2.3,1.172c2.961.665,6.036-.127,8.958-.958,2.009-.571,4.167-1.269,5.365-2.98,1.321-1.887,1.074-4.414.773-6.7q-.539-4.062-1.074-8.126" transform="translate(-201.513 -53.106)" fill="none" stroke="#c5c8d3" stroke-miterlimit="10" stroke-width="1"/>
        <path id="Trazado_142446" data-name="Trazado 142446" d="M297.1,173.141a94.793,94.793,0,0,0-2.061,26.27" transform="translate(-199.738 -90.958)" fill="none" stroke="#c5c8d3" stroke-miterlimit="10" stroke-width="1"/>
        <path id="Trazado_142447" data-name="Trazado 142447" d="M282.7,159.941a25.265,25.265,0,0,1,18.258,9.123" transform="translate(-204.24 -95.846)" fill="none" stroke="#c5c8d3" stroke-miterlimit="10" stroke-width="1"/>
        <g id="Grupo_88826" data-name="Grupo 88826" transform="translate(47.164 155.824)">
          <rect id="Rectángulo_33139" data-name="Rectángulo 33139" width="43.547" height="59.037" transform="translate(0 38.145) rotate(-61.158)" fill="#1c1e3d"/>
          <rect id="Rectángulo_33140" data-name="Rectángulo 33140" width="13.444" height="7.891" rx="1.608" transform="translate(3.977 23.653) rotate(-61.157)" fill="#343b4f"/>
        </g>
        <g id="Grupo_88827" data-name="Grupo 88827" transform="translate(72.537 72.007)">
          <path id="Trazado_142448" data-name="Trazado 142448" d="M298.619,194.949c1.041,7.748,1.843,15.545,3.5,23.194,1.15,5.3,4.222,10.2,5.62,15.512,1.495,5.676-15.868,31.07-18.662,35.859" transform="translate(-274.417 -154.89)" fill="none" stroke="#c5c8d3" stroke-miterlimit="10" stroke-width="0.844"/>
          <path id="Trazado_142449" data-name="Trazado 142449" d="M292.429,256.374a15.834,15.834,0,0,1-3.778,1.653,25.771,25.771,0,0,0-8.351,5.045c-1.261,1.14-2.487,2.931-1.642,4.405.214.373.541.673.732,1.058.458.928,0,2.016-.284,3.009-.548,1.9-.136,4.418,1.722,5.082,1.195.428,2.628-.069,3.731.56a7.294,7.294,0,0,0,1.265.814c.614.195,1.3-.079,1.917.108.714.218,1.114.978,1.754,1.363,1.363.824,3.071-.327,4.081-1.561a15.971,15.971,0,0,0,3.468-8.068c.429-3.39,1.333-7.049,3.513-9.68,1.513-1.825,2.725-2.983,3.36-5.267a1.145,1.145,0,0,0,0-.78,1.372,1.372,0,0,0-.57-.536q-1.8-1.135-3.6-2.266a4.874,4.874,0,0,0-2.484-.978c-1.738,0-1.551,1.321-1.955,2.439A8.384,8.384,0,0,1,292.429,256.374Z" transform="translate(-278.379 -134.38)" fill="#fe9c70"/>
          <path id="Trazado_142450" data-name="Trazado 142450" d="M308.118,165.715c-5.622,12.181-11.243,26.5-9.421,40.059,1.041,7.748,1.843,15.545,3.5,23.194,1.15,5.3,4.222,10.2,5.62,15.512,1.495,5.676-16.156,31.744-18.95,36.533a27.293,27.293,0,0,0,18.939,12.141c3.686-2.682,17.453-28.657,20.408-32.088,3.626-4.212,7.564-8,9.01-13.54a31.217,31.217,0,0,0-.426-15.587c-2.262-8.689-5.892-17.031-9.425-25.264-3.956-9.218-6.7-18.872-10.328-28.2C315.6,174.749,312.02,167.388,308.118,165.715Z" transform="translate(-274.495 -165.715)" fill="#fff"/>
          <path id="Trazado_142451" data-name="Trazado 142451" d="M303.6,223.806a7.914,7.914,0,0,1,8.2,1.535" transform="translate(-269.04 -144.404)" fill="none" stroke="#c5c8d3" stroke-miterlimit="10" stroke-width="1"/>
          <path id="Trazado_142452" data-name="Trazado 142452" d="M303.773,225.089a8.844,8.844,0,0,1,7.215,9.01" transform="translate(-268.976 -143.729)" fill="none" stroke="#c5c8d3" stroke-miterlimit="10" stroke-width="1"/>
          <path id="Trazado_142453" data-name="Trazado 142453" d="M289.032,249.7a23.719,23.719,0,0,0,17.547,10.8" transform="translate(-274.434 -134.617)" fill="none" stroke="#c5c8d3" stroke-miterlimit="10" stroke-width="1"/>
          <path id="Trazado_142454" data-name="Trazado 142454" d="M302.9,257.967a52.733,52.733,0,0,0,6-6.517" transform="translate(-269.298 -133.968)" fill="none" stroke="#c5c8d3" stroke-miterlimit="10" stroke-width="1"/>
          <path id="Trazado_142455" data-name="Trazado 142455" d="M279.354,264.7a14,14,0,0,1,1.369-2.209" transform="translate(-278.018 -129.88)" fill="none" stroke="#ef8054" stroke-miterlimit="10" stroke-width="1"/>
          <path id="Trazado_142456" data-name="Trazado 142456" d="M282.564,269.916q.557-.719,1.115-1.437" transform="translate(-276.83 -127.662)" fill="none" stroke="#ef8054" stroke-miterlimit="10" stroke-width="1"/>
          <path id="Trazado_142457" data-name="Trazado 142457" d="M285.438,270.8q.584-.658,1.166-1.314" transform="translate(-275.765 -127.291)" fill="none" stroke="#ef8054" stroke-miterlimit="10" stroke-width="1"/>
        </g>
        <path id="Trazado_142458" data-name="Trazado 142458" d="M274.65,140.677a4.017,4.017,0,0,1,1.964-2.42,2.138,2.138,0,0,1,.993-.285,1.514,1.514,0,0,1,1.454,1.366" transform="translate(-207.223 -103.981)" fill="none" stroke="#ef8054" stroke-miterlimit="10" stroke-width="1"/>
        <path id="Trazado_142459" data-name="Trazado 142459" d="M275.2,139.028a4.527,4.527,0,0,1,1.785.023" transform="translate(-207.018 -103.618)" fill="none" stroke="#ef8054" stroke-miterlimit="10" stroke-width="1"/>
        <path id="Trazado_142460" data-name="Trazado 142460" d="M263.544,132.668a4.975,4.975,0,0,1,.776,1.447,1.971,1.971,0,0,1-.158,1.592c-.09.144-.258.284-.412.215a.391.391,0,0,1-.178-.23,4.6,4.6,0,0,1-.251-2.676" transform="translate(-211.453 -105.945)" fill="none" stroke="#191c26" stroke-miterlimit="10" stroke-width="0.956"/>
        <path id="Trazado_142461" data-name="Trazado 142461" d="M256.1,133.5a3.942,3.942,0,0,1,.264,2.462,3.068,3.068,0,0,1-.6-2.449" transform="translate(-214.233 -105.637)" fill="none" stroke="#191c26" stroke-miterlimit="10" stroke-width="0.956"/>
        <path id="Trazado_142462" data-name="Trazado 142462" d="M254.27,116.25A3.731,3.731,0,0,0,252.8,120.8a5.8,5.8,0,0,0,3.868,3.248,13.758,13.758,0,0,0,5.195.255q2.236-.218,4.444-.656c2.283-.452,4.615-1.083,6.906-.667s4.536,2.277,4.447,4.606" transform="translate(-215.407 -112.024)" fill="none" stroke="#272f44" stroke-miterlimit="10" stroke-width="1"/>
        <path id="Trazado_142463" data-name="Trazado 142463" d="M253.282,122.995a7.022,7.022,0,0,0,10.355,2.4" transform="translate(-215.135 -109.527)" fill="none" stroke="#272f44" stroke-miterlimit="10" stroke-width="1"/>
        <path id="Trazado_142464" data-name="Trazado 142464" d="M273.25,125.561a2.746,2.746,0,0,1,2.15,1.644,6.353,6.353,0,0,1,.467,2.775,19.56,19.56,0,0,1-.467,4.129,7.327,7.327,0,0,0-.316,2.553,2.01,2.01,0,0,0,1.573,1.813" transform="translate(-207.741 -108.576)" fill="none" stroke="#272f44" stroke-miterlimit="10" stroke-width="1"/>
        <path id="Trazado_142465" data-name="Trazado 142465" d="M275.952,132.1a5.646,5.646,0,0,0,3.648,5.428" transform="translate(-206.742 -106.155)" fill="none" stroke="#272f44" stroke-miterlimit="10" stroke-width="1"/>
        <path id="Trazado_142466" data-name="Trazado 142466" d="M272.514,126.255a2.217,2.217,0,0,1,.569-.877,14.9,14.9,0,0,1,9.266-4.666" transform="translate(-208.014 -110.372)" fill="none" stroke="#272f44" stroke-miterlimit="10" stroke-width="1"/>
        <path id="Trazado_142467" data-name="Trazado 142467" d="M269.173,115.976a8.241,8.241,0,0,1,5.652,7.417" transform="translate(-209.251 -112.126)" fill="none" stroke="#272f44" stroke-miterlimit="10" stroke-width="1"/>
        <path id="Trazado_142468" data-name="Trazado 142468" d="M283.042,132.61c.252,1.289.828,2.5,1.059,3.792a8.674,8.674,0,0,1-1.217,5.914,13.059,13.059,0,0,1-4.382,4.26" transform="translate(-205.796 -105.966)" fill="none" stroke="#272f44" stroke-miterlimit="10" stroke-width="1"/>
        <path id="Trazado_142469" data-name="Trazado 142469" d="M284.7,139.13a10.662,10.662,0,0,1-5.086,5.766" transform="translate(-205.384 -103.552)" fill="none" stroke="#272f44" stroke-miterlimit="10" stroke-width="1"/>
        <g id="Grupo_88828" data-name="Grupo 88828" transform="translate(31.058 58.747)">
          <path id="Trazado_142470" data-name="Trazado 142470" d="M277.259,156.038c4.252,2.686,6.839,11.184,7.054,17.088s-.776,11.776-1.764,17.6" transform="translate(-237.314 -156.038)" fill="none" stroke="#2e2f44" stroke-miterlimit="10" stroke-width="1"/>
          <path id="Trazado_142471" data-name="Trazado 142471" d="M271.925,212.347a49.9,49.9,0,0,1,7.313-26.138c1.152-1.881,2.642-3.83,4.806-4.267,2.284-.462,4.614,1.006,5.858,2.976a16.2,16.2,0,0,1,1.931,6.658,150.3,150.3,0,0,1,.983,28.828" transform="translate(-239.29 -146.478)" fill="none" stroke="#2e2f44" stroke-miterlimit="10" stroke-width="1"/>
          <path id="Trazado_142472" data-name="Trazado 142472" d="M272.168,204.06a55.862,55.862,0,0,0-.41,9.6,9.146,9.146,0,0,0,1.143,4.81c.93,1.387,2.9,2.218,4.331,1.365" transform="translate(-239.369 -138.256)" fill="none" stroke="#2e2f44" stroke-miterlimit="10" stroke-width="1"/>
          <path id="Trazado_142473" data-name="Trazado 142473" d="M276.142,214.764a3.378,3.378,0,0,0-.032,3.575,10.236,10.236,0,0,0,.1-3.782,2.882,2.882,0,0,0,.432,2.558,1.111,1.111,0,0,1,.127-.7.685.685,0,0,0-.025-.689c-.163-.18-.565-.012-.459.206" transform="translate(-237.923 -134.369)" fill="none" stroke="#2e2f44" stroke-miterlimit="10" stroke-width="1"/>
          <path id="Trazado_142474" data-name="Trazado 142474" d="M288.8,209.612q-.261,2.462-.695,4.9a6.438,6.438,0,0,1-1.47,3.579c-1.211,1.194-3.093,1.289-4.793,1.313" transform="translate(-235.618 -136.2)" fill="none" stroke="#2e2f44" stroke-miterlimit="10" stroke-width="1"/>
          <path id="Trazado_142475" data-name="Trazado 142475" d="M281.218,216a4.519,4.519,0,0,0-.325,2.675.54.54,0,0,0,.163.343c.307.23.629-.274.685-.652l.262-1.751c.052-.344-.053-.855-.4-.793-.2.036-.291.256-.341.447a6.022,6.022,0,0,0-.107,2.63,2.864,2.864,0,0,0,.171-1.336q-.092.366-.184.732" transform="translate(-235.996 -133.902)" fill="none" stroke="#2e2f44" stroke-miterlimit="10" stroke-width="1"/>
          <path id="Trazado_142476" data-name="Trazado 142476" d="M264.342,157.068a26.265,26.265,0,0,0-8.722,11.361,60.855,60.855,0,0,0-3.686,14c-1.074,6.469-1.8,13.074-.956,19.579" transform="translate(-247.182 -155.657)" fill="none" stroke="#2e2f44" stroke-miterlimit="10" stroke-width="1"/>
          <path id="Trazado_142477" data-name="Trazado 142477" d="M252.047,189.238a3.333,3.333,0,0,0-1.561,6.472,3.159,3.159,0,0,0,3.8-2.309,2.945,2.945,0,0,0-2.752-3.382,2.758,2.758,0,0,0-2.5,3.464,2.1,2.1,0,0,0,.788,1.062,1.772,1.772,0,1,0,1.947-2.96,1.122,1.122,0,0,0-.889-.182c-.71.2-.795,1.159-.725,1.892a1.092,1.092,0,0,0,.4.9c.46.259,1-.275,1.1-.8.085-.478-.107-1.076-.58-1.181s-.851.719-.391.873a.965.965,0,0,0,.695-.467l-.025,1.054" transform="translate(-248.108 -143.765)" fill="none" stroke="#2e2f44" stroke-miterlimit="10" stroke-width="1"/>
        </g>
        <path id="Trazado_142478" data-name="Trazado 142478" d="M254.673,131.043a2.653,2.653,0,0,1,4.042.989" transform="translate(-214.62 -106.753)" fill="none" stroke="#191c26" stroke-miterlimit="10" stroke-width="1.086"/>
        <path id="Trazado_142479" data-name="Trazado 142479" d="M260.96,131.916a6.227,6.227,0,0,1,7.024-1.176" transform="translate(-212.292 -106.882)" fill="none" stroke="#191c26" stroke-miterlimit="10" stroke-width="0.956"/>
        <path id="Trazado_142480" data-name="Trazado 142480" d="M259.657,138.632a21.277,21.277,0,0,0,3.145,17.352" transform="translate(-213.017 -103.736)" fill="none" stroke="#e3e4e5" stroke-miterlimit="10" stroke-width="0.75"/>
      </g>
    </g>
  </g>
</svg>
