<svg xmlns="http://www.w3.org/2000/svg" width="228" height="171.016" viewBox="0 0 228 171.016">
  <g id="Capa_2" data-name="Capa 2" transform="translate(0 -38.844)">
    <g id="Capa_1" data-name="Capa 1" transform="translate(0 0.208)">
      <rect id="Rectángulo_6606" data-name="Rectángulo 6606" width="228" height="171" transform="translate(0 38.635)" fill="#344154" opacity="0"/>
      <rect id="Rectángulo_6607" data-name="Rectángulo 6607" width="35.59" height="46.998" transform="translate(78.669 53.687)" fill="none" stroke="#1a2e35" stroke-linecap="round" stroke-linejoin="round" stroke-width="1"/>
      <rect id="Rectángulo_6608" data-name="Rectángulo 6608" width="27.3" height="36.047" transform="translate(82.816 59.163)" fill="none" stroke="#1a2e35" stroke-linecap="round" stroke-linejoin="round" stroke-width="1"/>
      <rect id="Rectángulo_6609" data-name="Rectángulo 6609" width="35.59" height="46.998" transform="translate(25.283 77.87)" fill="none" stroke="#1a2e35" stroke-linecap="round" stroke-linejoin="round" stroke-width="1"/>
      <rect id="Rectángulo_6610" data-name="Rectángulo 6610" width="27.3" height="36.047" transform="translate(29.431 83.346)" fill="none" stroke="#1a2e35" stroke-linecap="round" stroke-linejoin="round" stroke-width="1"/>
      <circle id="Elipse_4087" data-name="Elipse 4087" cx="20.551" cy="20.551" r="20.551" transform="matrix(0.995, -0.1, 0.1, 0.995, 142.843, 51.176)" fill="none" stroke="#1a2e35" stroke-linecap="round" stroke-linejoin="round" stroke-width="1"/>
      <circle id="Elipse_4088" data-name="Elipse 4088" cx="17.051" cy="17.051" r="17.051" transform="translate(146.271 54.878) rotate(-8.616)" fill="none" stroke="#1a2e35" stroke-linecap="round" stroke-linejoin="round" stroke-width="1.001"/>
      <path id="Trazado_106783" data-name="Trazado 106783" d="M338.56,152.84h10.864v15.673" transform="translate(-184.079 -83.26)" fill="none" stroke="#1a2e35" stroke-linecap="round" stroke-linejoin="round" stroke-width="1"/>
      <path id="Trazado_106784" data-name="Trazado 106784" d="M314.842,367.32l7.209,11.613a2.222,2.222,0,0,1-1.889,3.395H305.438a2.222,2.222,0,0,0,1.894-3.386L300.35,367.58Z" transform="translate(-163.304 -199.876)" fill="#fff" stroke="#1a2e35" stroke-linecap="round" stroke-linejoin="round" stroke-width="1"/>
      <path id="Trazado_106785" data-name="Trazado 106785" d="M314.842,367.32l-14.492.26,2.688,4.367h14.679Z" transform="translate(-163.304 -199.876)" fill="#344154" stroke="#1a2e35" stroke-linecap="round" stroke-linejoin="round" stroke-width="1"/>
      <rect id="Rectángulo_6611" data-name="Rectángulo 6611" width="61.581" height="52.008" rx="2.91" transform="translate(173.275 170.031) rotate(180)" fill="#fff" stroke="#1a2e35" stroke-linecap="round" stroke-linejoin="round" stroke-width="1"/>
      <rect id="Rectángulo_6612" data-name="Rectángulo 6612" width="61.581" height="52.008" rx="2.91" transform="translate(170.944 170.031) rotate(180)" fill="#fff" stroke="#1a2e35" stroke-linecap="round" stroke-linejoin="round" stroke-width="1"/>
      <path id="Trazado_106786" data-name="Trazado 106786" d="M241.725,259h57.442a2.072,2.072,0,0,1,2.072,2.072v40.61h-61.6v-40.61A2.067,2.067,0,0,1,241.725,259Z" transform="translate(-130.295 -140.981)" fill="#344154" stroke="#1a2e35" stroke-linecap="round" stroke-linejoin="round" stroke-width="1"/>
      <rect id="Rectángulo_6613" data-name="Rectángulo 6613" width="56.406" height="37.776" transform="translate(168.356 157.867) rotate(180)" fill="#fff" stroke="#1a2e35" stroke-linecap="round" stroke-linejoin="round" stroke-width="1"/>
      <rect id="Rectángulo_6614" data-name="Rectángulo 6614" width="52.062" height="3.221" transform="translate(114.295 130.229)" fill="#ff9d00"/>
      <path id="Trazado_106787" data-name="Trazado 106787" d="M250.86,316.3V297.65h51.556v19.333" transform="translate(-136.396 -161.995)" fill="none" stroke="#1a2e35" stroke-miterlimit="10" stroke-width="1"/>
      <line id="Línea_290" data-name="Línea 290" x2="51.218" transform="translate(114.633 141.929)" fill="none" stroke="#1a2e35" stroke-miterlimit="10" stroke-width="1"/>
      <line id="Línea_291" data-name="Línea 291" y2="19.47" transform="translate(151.775 135.518)" fill="none" stroke="#1a2e35" stroke-miterlimit="10" stroke-width="1"/>
      <rect id="Rectángulo_6615" data-name="Rectángulo 6615" width="1.793" height="0.598" transform="translate(84.911 179.851)" fill="#fff" stroke="#1a2e35" stroke-linecap="round" stroke-linejoin="round" stroke-width="1"/>
      <rect id="Rectángulo_6616" data-name="Rectángulo 6616" width="1.793" height="0.598" transform="translate(87.297 179.851)" fill="#fff" stroke="#1a2e35" stroke-linecap="round" stroke-linejoin="round" stroke-width="1"/>
      <rect id="Rectángulo_6617" data-name="Rectángulo 6617" width="1.793" height="0.598" transform="translate(89.688 179.851)" fill="#fff" stroke="#1a2e35" stroke-linecap="round" stroke-linejoin="round" stroke-width="1"/>
      <rect id="Rectángulo_6618" data-name="Rectángulo 6618" width="1.793" height="0.598" transform="translate(92.074 179.851)" fill="#fff" stroke="#1a2e35" stroke-linecap="round" stroke-linejoin="round" stroke-width="1"/>
      <rect id="Rectángulo_6619" data-name="Rectángulo 6619" width="1.793" height="0.598" transform="translate(94.465 179.851)" fill="#fff" stroke="#1a2e35" stroke-linecap="round" stroke-linejoin="round" stroke-width="1"/>
      <rect id="Rectángulo_6620" data-name="Rectángulo 6620" width="1.793" height="0.598" transform="translate(96.852 179.851)" fill="#fff" stroke="#1a2e35" stroke-linecap="round" stroke-linejoin="round" stroke-width="1"/>
      <rect id="Rectángulo_6621" data-name="Rectángulo 6621" width="1.793" height="0.598" transform="translate(99.243 179.851)" fill="#fff" stroke="#1a2e35" stroke-linecap="round" stroke-linejoin="round" stroke-width="1"/>
      <rect id="Rectángulo_6622" data-name="Rectángulo 6622" width="1.793" height="0.598" transform="translate(101.629 179.851)" fill="#fff" stroke="#1a2e35" stroke-linecap="round" stroke-linejoin="round" stroke-width="1"/>
      <rect id="Rectángulo_6623" data-name="Rectángulo 6623" width="1.793" height="0.598" transform="translate(104.02 179.851)" fill="#fff" stroke="#1a2e35" stroke-linecap="round" stroke-linejoin="round" stroke-width="1"/>
      <rect id="Rectángulo_6624" data-name="Rectángulo 6624" width="1.793" height="0.598" transform="translate(106.406 179.851)" fill="#fff" stroke="#1a2e35" stroke-linecap="round" stroke-linejoin="round" stroke-width="1"/>
      <rect id="Rectángulo_6625" data-name="Rectángulo 6625" width="1.793" height="0.598" transform="translate(108.797 179.851)" fill="#fff" stroke="#1a2e35" stroke-linecap="round" stroke-linejoin="round" stroke-width="1"/>
      <rect id="Rectángulo_6626" data-name="Rectángulo 6626" width="1.793" height="0.598" transform="translate(111.184 179.851)" fill="#fff" stroke="#1a2e35" stroke-linecap="round" stroke-linejoin="round" stroke-width="1"/>
      <rect id="Rectángulo_6627" data-name="Rectángulo 6627" width="1.793" height="0.598" transform="translate(113.575 179.851)" fill="#fff" stroke="#1a2e35" stroke-linecap="round" stroke-linejoin="round" stroke-width="1"/>
      <rect id="Rectángulo_6628" data-name="Rectángulo 6628" width="1.793" height="0.598" transform="translate(115.961 179.851)" fill="#fff" stroke="#1a2e35" stroke-linecap="round" stroke-linejoin="round" stroke-width="1"/>
      <rect id="Rectángulo_6629" data-name="Rectángulo 6629" width="1.793" height="0.598" transform="translate(118.352 179.851)" fill="#fff" stroke="#1a2e35" stroke-linecap="round" stroke-linejoin="round" stroke-width="1"/>
      <rect id="Rectángulo_6630" data-name="Rectángulo 6630" width="1.793" height="0.598" transform="translate(120.738 179.851)" fill="#fff" stroke="#1a2e35" stroke-linecap="round" stroke-linejoin="round" stroke-width="1"/>
      <rect id="Rectángulo_6631" data-name="Rectángulo 6631" width="1.793" height="0.598" transform="translate(123.129 179.851)" fill="#fff" stroke="#1a2e35" stroke-linecap="round" stroke-linejoin="round" stroke-width="1"/>
      <rect id="Rectángulo_6632" data-name="Rectángulo 6632" width="1.793" height="0.598" transform="translate(125.516 179.851)" fill="#fff" stroke="#1a2e35" stroke-linecap="round" stroke-linejoin="round" stroke-width="1"/>
      <rect id="Rectángulo_6633" data-name="Rectángulo 6633" width="1.793" height="0.598" transform="translate(127.907 179.851)" fill="#fff" stroke="#1a2e35" stroke-linecap="round" stroke-linejoin="round" stroke-width="1"/>
      <rect id="Rectángulo_6634" data-name="Rectángulo 6634" width="1.793" height="0.598" transform="translate(130.293 179.851)" fill="#fff" stroke="#1a2e35" stroke-linecap="round" stroke-linejoin="round" stroke-width="1"/>
      <rect id="Rectángulo_6635" data-name="Rectángulo 6635" width="1.793" height="0.598" transform="translate(132.684 179.851)" fill="#fff" stroke="#1a2e35" stroke-linecap="round" stroke-linejoin="round" stroke-width="1"/>
      <rect id="Rectángulo_6636" data-name="Rectángulo 6636" width="51.793" height="1.93" transform="translate(83.984 180.535)" fill="#fff" stroke="#1a2e35" stroke-linecap="round" stroke-linejoin="round" stroke-width="1"/>
      <rect id="Rectángulo_6637" data-name="Rectángulo 6637" width="12.635" height="1.93" transform="translate(123.143 180.535)" fill="#344154" stroke="#1a2e35" stroke-linecap="round" stroke-linejoin="round" stroke-width="1"/>
      <path id="Trazado_106788" data-name="Trazado 106788" d="M397.77,296.685V290.01h-4.791v6.676H389.79l5.585,9.673,5.585-9.673Z" transform="translate(-211.934 -157.841)" fill="#344154"/>
      <line id="Línea_292" data-name="Línea 292" y1="0.684" transform="translate(148.937 114.373)" fill="none" stroke="#1a2e35" stroke-miterlimit="10" stroke-width="1"/>
      <path id="Trazado_106789" data-name="Trazado 106789" d="M326.41,238.518V233.7a3.194,3.194,0,0,1,3.194-3.194h28.29a3.194,3.194,0,0,1,3.194,3.194v20.757" transform="translate(-177.473 -125.49)" fill="none" stroke="#1a2e35" stroke-miterlimit="10" stroke-width="1" stroke-dasharray="2.95 2.95"/>
      <line id="Línea_293" data-name="Línea 293" y2="0.684" transform="translate(183.615 129.659)" fill="none" stroke="#1a2e35" stroke-miterlimit="10" stroke-width="1"/>
      <path id="Trazado_106790" data-name="Trazado 106790" d="M362.762,334.51h28.974a2.852,2.852,0,0,1,2.852,2.852v23.047H359.91V337.362a2.852,2.852,0,0,1,2.852-2.852Z" transform="translate(-195.688 -182.037)" fill="#344154" stroke="#1a2e35" stroke-miterlimit="10" stroke-width="1"/>
      <rect id="Rectángulo_6638" data-name="Rectángulo 6638" width="31.028" height="29.093" transform="translate(166.048 149.279)" fill="#fff" stroke="#1a2e35" stroke-miterlimit="10" stroke-width="1"/>
      <path id="Trazado_106791" data-name="Trazado 106791" d="M325.27,358.1h54.394a1.743,1.743,0,0,1,1.743,1.743v17.27H325.284V358.1Z" transform="translate(-176.853 -194.863)" fill="#344154" stroke="#1a2e35" stroke-miterlimit="10" stroke-width="1"/>
      <path id="Trazado_106792" data-name="Trazado 106792" d="M308.187,358.1h53.956a1.091,1.091,0,0,1,1.091,1.091v17.923H307.11V359.191A1.091,1.091,0,0,1,308.2,358.1Z" transform="translate(-166.98 -194.863)" fill="#636363" stroke="#1a2e35" stroke-miterlimit="10" stroke-width="1"/>
      <path id="Trazado_106793" data-name="Trazado 106793" d="M317.66,358.1h46.482v12.448a3.847,3.847,0,0,1-3.847,3.846H321.511a3.847,3.847,0,0,1-3.847-3.846V358.1Z" transform="translate(-172.716 -194.863)" fill="#636363" stroke="#1a2e35" stroke-miterlimit="10" stroke-width="1"/>
      <rect id="Rectángulo_6639" data-name="Rectángulo 6639" width="29.275" height="19.014" transform="translate(153.55 163.237)" fill="#344154" stroke="#1a2e35" stroke-miterlimit="10" stroke-width="1"/>
      <path id="Trazado_106794" data-name="Trazado 106794" d="M324.612,379.78s1,4.732-1.246,6.479-13.456,1.369-13.456,1.369h36.631s4.485,1.122,4.239-6.977Z" transform="translate(-168.502 -206.65)" fill="#fff" stroke="#1a2e35" stroke-miterlimit="10" stroke-width="1"/>
      <path id="Trazado_106795" data-name="Trazado 106795" d="M363.423,394.576H339.97l1.278-.716h23.1Z" transform="translate(-184.846 -214.306)" fill="#d9a171"/>
      <path id="Trazado_106796" data-name="Trazado 106796" d="M345.844,383.43c0,2.888-.684,3.956-.684,3.956h22.6s.99-.611,1.218-3.883" transform="translate(-187.668 -208.635)" fill="none" stroke="#a3a3a3" stroke-miterlimit="10" stroke-width="1"/>
      <line id="Línea_294" data-name="Línea 294" x2="22.906" transform="translate(157.871 177.382)" fill="none" stroke="#a3a3a3" stroke-miterlimit="10" stroke-width="1"/>
      <line id="Línea_295" data-name="Línea 295" x2="22.983" transform="translate(158.099 175.936)" fill="none" stroke="#a3a3a3" stroke-miterlimit="10" stroke-width="1"/>
      <path id="Trazado_106797" data-name="Trazado 106797" d="M378.85,387.308s1.141-1.063,1.063-3.878" transform="translate(-205.985 -208.635)" fill="none" stroke="#a3a3a3" stroke-miterlimit="10" stroke-width="1"/>
      <rect id="Rectángulo_6640" data-name="Rectángulo 6640" width="29.275" height="10.91" transform="translate(153.55 163.237)" fill="#636363" stroke="#1a2e35" stroke-miterlimit="10" stroke-width="1"/>
      <rect id="Rectángulo_6641" data-name="Rectángulo 6641" width="31.926" height="1.25" transform="translate(150.894 181.001)" fill="#344154" stroke="#1a2e35" stroke-miterlimit="10" stroke-width="1"/>
      <path id="Trazado_106798" data-name="Trazado 106798" d="M334.2,358.1h31.393v1.51a3.016,3.016,0,0,1-3.016,3.016H337.216a3.016,3.016,0,0,1-3.016-3.016Z" transform="translate(-181.709 -194.863)" fill="#344154" stroke="#1a2e35" stroke-miterlimit="10" stroke-width="1"/>
      <path id="Trazado_106799" data-name="Trazado 106799" d="M423.8,364.371a.981.981,0,1,1-.981-.981A.981.981,0,0,1,423.8,364.371Z" transform="translate(-229.36 -197.739)" fill="#fff" stroke="#1a2e35" stroke-miterlimit="10" stroke-width="1"/>
      <path id="Trazado_106800" data-name="Trazado 106800" d="M423.8,373.972a.981.981,0,1,1-.976-.972A.981.981,0,0,1,423.8,373.972Z" transform="translate(-229.36 -202.964)" fill="#fff" stroke="#1a2e35" stroke-miterlimit="10" stroke-width="1"/>
      <path id="Trazado_106801" data-name="Trazado 106801" d="M422.825,394.419h-.593a.817.817,0,0,1-.812-.817h0a.812.812,0,0,1,.812-.812h.593a.812.812,0,0,1,.812.812h0A.817.817,0,0,1,422.825,394.419Z" transform="translate(-229.131 -213.724)" fill="#344154" stroke="#1a2e35" stroke-miterlimit="10" stroke-width="1"/>
      <path id="Trazado_106802" data-name="Trazado 106802" d="M357.007,431.123V411.27H348.26v19.922" transform="translate(-189.353 -223.772)" fill="#fff" stroke="#1a2e35" stroke-linecap="round" stroke-linejoin="round" stroke-width="1"/>
      <rect id="Rectángulo_6642" data-name="Rectángulo 6642" width="4.376" height="20.099" transform="translate(163.282 187.498)" fill="#344154" stroke="#1a2e35" stroke-linecap="round" stroke-linejoin="round" stroke-width="1"/>
      <path id="Trazado_106803" data-name="Trazado 106803" d="M442.867,431.123V411.27H434.12v19.922" transform="translate(-236.036 -223.772)" fill="#fff" stroke="#1a2e35" stroke-linecap="round" stroke-linejoin="round" stroke-width="1"/>
      <rect id="Rectángulo_6643" data-name="Rectángulo 6643" width="4.376" height="20.099" transform="translate(202.459 187.498)" fill="#344154" stroke="#1a2e35" stroke-linecap="round" stroke-linejoin="round" stroke-width="1"/>
      <rect id="Rectángulo_6644" data-name="Rectángulo 6644" width="178.408" height="6.926" transform="translate(30.758 184.099)" fill="#fff" stroke="#1a2e35" stroke-miterlimit="10" stroke-width="1"/>
      <rect id="Rectángulo_6645" data-name="Rectángulo 6645" width="42.928" height="6.926" transform="translate(166.235 184.099)" fill="#344154" stroke="#1a2e35" stroke-miterlimit="10" stroke-width="1"/>
      <rect id="Rectángulo_6646" data-name="Rectángulo 6646" width="178.408" height="2.432" transform="translate(30.758 182.21)" fill="#fff" stroke="#1a2e35" stroke-miterlimit="10" stroke-width="1"/>
      <rect id="Rectángulo_6647" data-name="Rectángulo 6647" width="39.035" height="2.432" transform="translate(170.131 182.21)" fill="#344154" stroke="#1a2e35" stroke-miterlimit="10" stroke-width="1"/>
      <path id="Trazado_106804" data-name="Trazado 106804" d="M151.618,179.417a19.862,19.862,0,0,1,.11,3.9c-.214,1.081-1.41,1.734-1.3,2.491s2.815,4.654,1.515,5.932a6.388,6.388,0,0,1-2.382,1.624l-.867,1.948a78.426,78.426,0,0,1-7.25,4.221c-2.053.862-.219,4.983-.219,4.983l-5.307-1.191-1.3,6.174a26.922,26.922,0,0,0-9.422-5.631c-5.416-1.729-7.469-1.519-7.469-1.519a33.988,33.988,0,0,0,1.948-6.689,129.059,129.059,0,0,0,1.191-13.534c0-.648,3.463-10.613,6.5-12.562s15.372.219,21.87,1.825,3.682,6.279,3.682,6.279Z" transform="translate(-64.011 -91.932)" fill="#ffbf9d" stroke="#1a2e35" stroke-miterlimit="10" stroke-width="1"/>
      <path id="Trazado_106805" data-name="Trazado 106805" d="M187.719,198.654a1.252,1.252,0,0,0-1.734-.757c-1.405.433-1.734,1.191-1.191,1.191s1.825-.648,2.167,0S187.61,199.412,187.719,198.654Z" transform="translate(-100.34 -107.707)" fill="#344154" stroke="#1a2e35" stroke-miterlimit="10" stroke-width="1"/>
      <path id="Trazado_106806" data-name="Trazado 106806" d="M186.066,208.21l-.652.329a1.877,1.877,0,0,1,.543,2.163c-.433,1.515-.867,2.815-.867,2.815" transform="translate(-100.636 -113.366)" fill="none" stroke="#1a2e35" stroke-miterlimit="10" stroke-width="1"/>
      <path id="Trazado_106807" data-name="Trazado 106807" d="M147.35,168.282s.976,4.107.543,4.983-3.682,2.053-4.006,3.244a47.9,47.9,0,0,0-.757,8.774c.219,1.191.757,3.249,1.3,3.249s4.563-3.034,6.06-3.144.867,2.6.109,3.468-2.281,1.081-2.163,2.058,2.053,4.33-.11,7.25-4.659,2.281-7.255.219a6.951,6.951,0,0,1-2.281-7.469,43.278,43.278,0,0,0,2.053-9.313c.1-2.272-.429-5.2-2.053-4.563s-.329,7.041-1.519,8.446-5.955,5.416-7.255,5.416-8.336-3.144-8.551-3.468.648-14.834-.219-20.569,1.191-9.856,7.8-11.8,18.621,1.624,18.621,1.624-1.191-1.948,1.41-2.815,8.77,1.515,9.2,5.412-1.825,4.006-1.515,5.307,4.44,3.792,2.281,5.85-5.617.771-5.617.771l-.433-3.358S150.691,165.033,147.35,168.282Z" transform="translate(-65.821 -83.723)" fill="#344154" stroke="#1a2e35" stroke-miterlimit="10" stroke-width="1"/>
      <path id="Trazado_106808" data-name="Trazado 106808" d="M164.509,203.084l-10.285-.324s-2.167.538-2.382,1.729-.456,4.006.214,4.107.648-.639.648-1.62,0-2.491.867-3.03a6.356,6.356,0,0,1,2.382-.652l8.77.867,8.213.648V203.4Z" transform="translate(-82.436 -110.402)" fill="#5e5e5e" stroke="#1a2e35" stroke-miterlimit="10" stroke-width="1"/>
      <path id="Trazado_106809" data-name="Trazado 106809" d="M158.433,207.186s.324-3.463-1.405-4.44-2.925,1.734-3.034,4.107,1.519,5.307,3.573,4.764" transform="translate(-83.725 -110.284)" fill="#ffbf9d" stroke="#1a2e35" stroke-miterlimit="10" stroke-width="1"/>
      <path id="Trazado_106810" data-name="Trazado 106810" d="M195.928,207.26s.214,2.491-.757,3.682a5.019,5.019,0,0,1-1.3,1.086" transform="translate(-105.41 -112.849)" fill="none" stroke="#1a2e35" stroke-miterlimit="10" stroke-width="1"/>
      <path id="Trazado_106811" data-name="Trazado 106811" d="M219.884,248.209l-4.358,15.235-3.267,8.706-3.536,9.381s-9.792-.132-14.145-.949a111.273,111.273,0,0,1-12.178-3.6,78.891,78.891,0,0,0,8.9-19.849c1.848-6.461,3.281-11.644,3.281-11.644Z" transform="translate(-99.173 -133.635)" fill="#fff" stroke="#1a2e35" stroke-miterlimit="10" stroke-width="1"/>
      <path id="Trazado_106812" data-name="Trazado 106812" d="M211.3,266.75s-3.258,11.69-4.59,14.063l15.838,2.368a60.08,60.08,0,0,0,5.179-14.213Z" transform="translate(-112.391 -145.195)" fill="none" stroke="#a3a3a3" stroke-miterlimit="10" stroke-width="1"/>
      <line id="Línea_296" data-name="Línea 296" x2="16.431" y2="2.218" transform="translate(98.02 124.22)" fill="none" stroke="#a3a3a3" stroke-miterlimit="10" stroke-width="1"/>
      <line id="Línea_297" data-name="Línea 297" x2="15.783" y2="2.094" transform="translate(97.281 128.067)" fill="none" stroke="#a3a3a3" stroke-miterlimit="10" stroke-width="1"/>
      <line id="Línea_298" data-name="Línea 298" x2="15.838" y2="2.222" transform="translate(95.98 131.977)" fill="none" stroke="#a3a3a3" stroke-miterlimit="10" stroke-width="1"/>
      <path id="Trazado_106813" data-name="Trazado 106813" d="M229.277,292.85l-3.107,8.514,5.033,1.04,1.78-5.923" transform="translate(-122.971 -159.386)" fill="none" stroke="#a3a3a3" stroke-miterlimit="10" stroke-width="1"/>
      <line id="Línea_299" data-name="Línea 299" x2="6.511" y2="1.186" transform="translate(88.251 136.503)" fill="none" stroke="#a3a3a3" stroke-miterlimit="10" stroke-width="1"/>
      <line id="Línea_300" data-name="Línea 300" x2="6.516" y2="1.182" transform="translate(87.803 137.393)" fill="none" stroke="#a3a3a3" stroke-miterlimit="10" stroke-width="1"/>
      <line id="Línea_301" data-name="Línea 301" x2="6.516" y2="1.186" transform="translate(87.361 138.278)" fill="none" stroke="#a3a3a3" stroke-miterlimit="10" stroke-width="1"/>
      <path id="Trazado_106814" data-name="Trazado 106814" d="M208.272,247.82l-1.962,6.8,22.9,2.747,2.227-6.8Z" transform="translate(-112.173 -134.902)" fill="#7e5ee3"/>
      <path id="Trazado_106815" data-name="Trazado 106815" d="M251.287,256.488a1.716,1.716,0,1,1-1.7-1.5A1.611,1.611,0,0,1,251.287,256.488Z" transform="translate(-134.77 -138.797)" fill="#fff"/>
      <path id="Trazado_106827" data-name="Trazado 106827" d="M214.638,316.538s4.084-9.655,4.49-13.465.68-7.346,1.634-8.432,3.126-6.256,3.536-7.757,1.369-2.993,2.446-1.907.68,3.673.274,4.627-.954,2.446-.954,2.446l2.856-3.126,1.77-4.216a1.8,1.8,0,0,1,1.766,1.369c.269,1.369,1.907,3.4,1.5,4.622a3.267,3.267,0,0,1-1.633,1.77,24.906,24.906,0,0,1,.548,4.622,6.927,6.927,0,0,1-2.45,4.107c-1.369,1.086-5.17,4.622-5.17,4.622s1.907,14.419,0,21.491-5.3,9.249-7.757,9.655-7.209-5.019-7.209-5.019S215.317,329.323,214.638,316.538Z" transform="translate(-114.332 -154.902)" fill="#ffbf9d" stroke="#1a2e35" stroke-miterlimit="10" stroke-width="1"/>
      <line id="Línea_302" data-name="Línea 302" x1="2.172" y2="2.176" transform="translate(115.815 137.562)" fill="none" stroke="#1a2e35" stroke-miterlimit="10" stroke-width="1"/>
      <line id="Línea_303" data-name="Línea 303" y1="1.77" x2="2.176" transform="translate(114.587 132.255)" fill="none" stroke="#1a2e35" stroke-miterlimit="10" stroke-width="1"/>
      <path id="Trazado_106828" data-name="Trazado 106828" d="M106.613,236.141s3.8-.913,9.582,1.524a26.533,26.533,0,0,1,10.8,8.058,23.787,23.787,0,0,1,3.043,5.475s-22.052-8.514-24.489-8.514H100.07S102.963,236.442,106.613,236.141Z" transform="translate(-54.409 -128.461)" fill="#81d4fa" stroke="#1a2e35" stroke-miterlimit="10" stroke-width="1"/>
      <path id="Trazado_106829" data-name="Trazado 106829" d="M163.468,432.145c-17.645-15.514-45.172-15.514-45.172-15.514l-4.107-3.951H65.33v19.689" transform="translate(-35.521 -224.539)" fill="#fff" stroke="#1a2e35" stroke-miterlimit="10" stroke-width="1"/>
      <path id="Trazado_106830" data-name="Trazado 106830" d="M171.1,423.34s-2.281,9.888-6.689,14.145" transform="translate(-89.392 -230.334)" fill="none" stroke="#1a2e35" stroke-miterlimit="10" stroke-width="1"/>
      <path id="Trazado_106831" data-name="Trazado 106831" d="M166.468,421.68a22.321,22.321,0,0,1-8.058,9.582" transform="translate(-86.129 -229.432)" fill="none" stroke="#1a2e35" stroke-miterlimit="10" stroke-width="1"/>
      <path id="Trazado_106832" data-name="Trazado 106832" d="M76.579,246.428s3.345-.762,9.883.607,16.125,6.995,20.382,8.82,7.606,1.98,8.364,4.718,9.126,28.591,12.776,31.484c5.384,4.266,10.495,11.749,4.563,17.95-3.5,3.65-8.213,3.956-10.339,3.194s-7.3-6.082-7.3-7.757v-2.131l-10.038-11.558s2.126,18.1,3.039,20.533,3.349,5.932,3.349,7.451-3.5,4.563-7.606,7.15-8.213,4.869-17.645,5.325-20.684-1.068-23.116-4.262-5.475-6.995-5.781-12.32-1.369-26.31-1.369-26.31.607-17.038,1.063-22.664,1.675-9.276,4.563-10.495S74.6,246.428,76.579,246.428Z" transform="translate(-30.307 -134.03)" fill="#00bcd4" stroke="#1a2e35" stroke-miterlimit="10" stroke-width="1"/>
      <path id="Trazado_106833" data-name="Trazado 106833" d="M111.76,323.54a18.886,18.886,0,0,0,1.369,1.889" transform="translate(-60.765 -176.072)" fill="none" stroke="#1a2e35" stroke-miterlimit="10" stroke-width="1"/>
      <path id="Trazado_106834" data-name="Trazado 106834" d="M96.74,277s1.634,11.407,5.722,19.264" transform="translate(-52.599 -150.768)" fill="none" stroke="#1a2e35" stroke-miterlimit="10" stroke-width="1"/>
      <path id="Trazado_106835" data-name="Trazado 106835" d="M99.07,308.34s3.349,10.8,8.519,16.426" transform="translate(-53.866 -167.808)" fill="none" stroke="#1a2e35" stroke-miterlimit="10" stroke-width="1"/>
      <line id="Línea_304" data-name="Línea 304" x2="7.606" y2="9.126" transform="translate(66.956 148.595)" fill="none" stroke="#1a2e35" stroke-miterlimit="10" stroke-width="1"/>
      <line id="Línea_305" data-name="Línea 305" x2="1.186" y2="1.419" transform="translate(64.674 145.857)" fill="none" stroke="#1a2e35" stroke-miterlimit="10" stroke-width="1"/>
      <line id="Línea_306" data-name="Línea 306" x2="7.145" y2="5.17" transform="translate(64.98 149.964)" fill="none" stroke="#1a2e35" stroke-miterlimit="10" stroke-width="1"/>
      <path id="Trazado_106836" data-name="Trazado 106836" d="M156.4,285s-7.15,6.844-6.995,14.752" transform="translate(-81.233 -155.117)" fill="none" stroke="#1a2e35" stroke-miterlimit="10" stroke-width="1"/>
      <path id="Trazado_106837" data-name="Trazado 106837" d="M198.487,346.68s2.587,5.019-1.214,8.669-11.863,2.583-11.863,2.583v2.126c0,1.675,5.17,6.995,7.3,7.757s6.844.456,10.339-3.194C209,358.425,203.871,350.933,198.487,346.68Z" transform="translate(-100.81 -188.654)" fill="#fff" stroke="#1a2e35" stroke-miterlimit="10" stroke-width="1"/>
      <line id="Línea_307" data-name="Línea 307" x1="8.213" y1="7.757" transform="translate(69.388 170.497)" fill="none" stroke="#1a2e35" stroke-miterlimit="10" stroke-width="1"/>
      <line id="Línea_308" data-name="Línea 308" x2="8.063" y2="5.781" transform="translate(64.825 166.084)" fill="none" stroke="#1a2e35" stroke-miterlimit="10" stroke-width="1"/>
      <path id="Trazado_106838" data-name="Trazado 106838" d="M116.75,382.18a15.213,15.213,0,0,0,1.825,1.141" transform="translate(-63.478 -207.955)" fill="none" stroke="#1a2e35" stroke-miterlimit="10" stroke-width="1"/>
      <path id="Trazado_106839" data-name="Trazado 106839" d="M78.07,353s9.158,7.145,14.98,11.407" transform="translate(-42.448 -192.09)" fill="none" stroke="#1a2e35" stroke-miterlimit="10" stroke-width="1"/>
      <path id="Trazado_106840" data-name="Trazado 106840" d="M82.07,363s6.694,4.869,7.757,5.475" transform="translate(-44.622 -197.527)" fill="none" stroke="#1a2e35" stroke-miterlimit="10" stroke-width="1"/>
      <path id="Trazado_106841" data-name="Trazado 106841" d="M60.131,370.51H96.177a4.221,4.221,0,0,1,4.221,4.221v30.8a3.08,3.08,0,0,1-3.08,3.08H58.99a3.08,3.08,0,0,1-3.08-3.08v-30.8A4.221,4.221,0,0,1,60.131,370.51Z" transform="translate(-30.399 -201.61)" fill="#344154" stroke="#1a2e35" stroke-miterlimit="10" stroke-width="1"/>
      <path id="Trazado_106842" data-name="Trazado 106842" d="M52.131,370.51H88.177a4.221,4.221,0,0,1,4.221,4.221v30.8a3.08,3.08,0,0,1-3.08,3.08H50.99a3.08,3.08,0,0,1-3.08-3.08v-30.8a4.221,4.221,0,0,1,4.221-4.221Z" transform="translate(-26.049 -201.61)" fill="#636363" stroke="#1a2e35" stroke-miterlimit="10" stroke-width="1"/>
      <path id="Trazado_106843" data-name="Trazado 106843" d="M63.148,422.945V393.369a1.369,1.369,0,1,0-2.738,0v29.572Z" transform="translate(-32.846 -213.295)" fill="#344154"/>
      <path id="Trazado_106844" data-name="Trazado 106844" d="M117.648,422.945V393.369a1.369,1.369,0,1,0-2.738,0v29.572Z" transform="translate(-62.478 -213.295)" fill="#344154"/>
      <text id="Sistemas_de_información" data-name="Sistemas de información" transform="translate(121 126.635)" fill="#12263f" font-size="4" font-family="Roboto-Regular, Roboto"><tspan x="0" y="0">Sistemas de información</tspan></text>
    </g>
  </g>
</svg>
