<svg xmlns="http://www.w3.org/2000/svg" width="245.549" height="210.305" viewBox="0 0 245.549 210.305">
  <g id="img4" transform="translate(-451.313 -16726.438)">
    <g id="freepik--Documents--inject-68" transform="translate(451.313 16726.438)">
      <path id="Trazado_106074" data-name="Trazado 106074" d="M5425.521,2972.395h0a6.984,6.984,0,0,0-6.807-5.417h-50.8a6.985,6.985,0,0,0-6.985,6.985h0v112.916a6.985,6.985,0,0,0,6.985,6.985H5529.2a6.985,6.985,0,0,0,6.985-6.985v-94.85a6.984,6.984,0,0,0-6.985-6.985h-87.788A16.307,16.307,0,0,1,5425.521,2972.395Z" transform="translate(-5350.001 -2898.456)" fill="#d9a171"/>
      <path id="Trazado_106075" data-name="Trazado 106075" d="M5425.521,2972.395h0a6.984,6.984,0,0,0-6.807-5.417h-50.8a6.985,6.985,0,0,0-6.985,6.985h0v112.916a6.985,6.985,0,0,0,6.985,6.985H5529.2a6.985,6.985,0,0,0,6.985-6.985v-94.85a6.984,6.984,0,0,0-6.985-6.985h-87.788A16.307,16.307,0,0,1,5425.521,2972.395Z" transform="translate(-5350.001 -2898.456)" fill="#8b5601" opacity="0.6" style="isolation: isolate"/>
      <path id="Trazado_106076" data-name="Trazado 106076" d="M5434.409,2920.128l4.527,14.662a7.373,7.373,0,0,0,9.214,4.864l14.656-4.527Z" transform="translate(-5376.822 -2881.356)" fill="#d9a171" opacity="0.22" style="isolation: isolate"/>
      <path id="Trazado_106077" data-name="Trazado 106077" d="M5401.309,2920.128l-52.388,16.186a7.36,7.36,0,0,0-4.874,9.2l0,.011,29.908,96.824a7.367,7.367,0,0,0,9.212,4.865h0l67.05-20.714a7.359,7.359,0,0,0,4.866-9.2l0-.007-25.4-82.163Z" transform="translate(-5343.721 -2881.356)" fill="#d9a171"/>
      <path id="Trazado_106078" data-name="Trazado 106078" d="M5401.309,2920.128l-52.388,16.186a7.36,7.36,0,0,0-4.874,9.2l0,.011,29.908,96.824a7.367,7.367,0,0,0,9.212,4.865h0l67.05-20.714a7.359,7.359,0,0,0,4.866-9.2l0-.007-25.4-82.163Z" transform="translate(-5343.721 -2881.356)" fill="#fff" stroke="#5e6178" stroke-miterlimit="10" stroke-width="0" opacity="0.8" style="isolation: isolate"/>
      <g id="Grupo_57126" data-name="Grupo 57126" transform="translate(38.022 134.623)" opacity="0.28">
        <path id="Trazado_106079" data-name="Trazado 106079" d="M5451.351,3077.363l-43.585,13.462a3.226,3.226,0,0,1-4.026-2.121h0a3.226,3.226,0,0,1,2.126-4.019l43.587-13.468a3.225,3.225,0,0,1,4.025,2.126h0A3.226,3.226,0,0,1,5451.351,3077.363Z" transform="translate(-5403.599 -3071.074)" fill="#d9a171"/>
      </g>
      <g id="Grupo_57127" data-name="Grupo 57127" transform="translate(11.651 55.614)" opacity="0.28">
        <path id="Trazado_106080" data-name="Trazado 106080" d="M5389.284,2952.942l-23.051,7.119a3.232,3.232,0,0,1-4.024-2.121h0a3.231,3.231,0,0,1,2.127-4.026l23.051-7.118a3.219,3.219,0,0,1,4.025,2.121h0A3.232,3.232,0,0,1,5389.284,2952.942Z" transform="translate(-5362.068 -2946.65)" fill="#d9a171"/>
      </g>
      <g id="Grupo_57128" data-name="Grupo 57128" transform="translate(15.427 63.166)" opacity="0.28">
        <path id="Trazado_106081" data-name="Trazado 106081" d="M5410.264,2964.833l-38.1,11.767a3.227,3.227,0,0,1-4.007-2.127h0a3.221,3.221,0,0,1,2.121-4.02l38.1-11.766a3.224,3.224,0,0,1,4.025,2.12h0A3.238,3.238,0,0,1,5410.264,2964.833Z" transform="translate(-5368.014 -2958.543)" fill="#d9a171"/>
      </g>
      <g id="Grupo_57129" data-name="Grupo 57129" transform="translate(19.188 69.956)" opacity="0.28">
        <path id="Trazado_106082" data-name="Trazado 106082" d="M5433.7,2975.523l-55.6,17.145a3.22,3.22,0,0,1-4.02-2.121h0a3.232,3.232,0,0,1,2.121-4.026l55.6-17.145a3.225,3.225,0,0,1,4.02,2.121h0A3.225,3.225,0,0,1,5433.7,2975.523Z" transform="translate(-5373.936 -2969.236)" fill="#d9a171"/>
      </g>
      <g id="Grupo_57130" data-name="Grupo 57130" transform="translate(46.233 82.15)" opacity="0.28">
        <path id="Trazado_106083" data-name="Trazado 106083" d="M5453.009,2994.725l-32.321,9.989a3.227,3.227,0,0,1-4.02-2.127h0a3.227,3.227,0,0,1,2.121-4.021l32.322-9.988a3.239,3.239,0,0,1,4.026,2.127h0A3.227,3.227,0,0,1,5453.009,2994.725Z" transform="translate(-5416.527 -2988.439)" fill="#d9a171"/>
      </g>
      <g id="Grupo_57131" data-name="Grupo 57131" transform="translate(22.952 96.714)" opacity="0.28">
        <path id="Trazado_106084" data-name="Trazado 106084" d="M5392.485,3017.664l-8.451,2.61a3.226,3.226,0,0,1-4.026-2.121h0a3.225,3.225,0,0,1,2.127-4.026l8.452-2.61a3.232,3.232,0,0,1,4.026,2.122h0A3.238,3.238,0,0,1,5392.485,3017.664Z" transform="translate(-5379.865 -3011.375)" fill="#d9a171"/>
      </g>
      <g id="Grupo_57132" data-name="Grupo 57132" transform="translate(26.724 94.346)" opacity="0.28">
        <path id="Trazado_106085" data-name="Trazado 106085" d="M5445.567,3013.934l-55.6,17.177a3.226,3.226,0,0,1-4.02-2.127h0a3.219,3.219,0,0,1,2.121-4.02l55.6-17.177a3.225,3.225,0,0,1,4.02,2.121h0A3.226,3.226,0,0,1,5445.567,3013.934Z" transform="translate(-5385.805 -3007.646)" fill="#d9a171"/>
      </g>
      <g id="Grupo_57133" data-name="Grupo 57133" transform="translate(30.491 113.168)" opacity="0.28">
        <path id="Trazado_106086" data-name="Trazado 106086" d="M5430.042,3043.573l-34.144,10.548a3.227,3.227,0,0,1-4.02-2.121h0a3.233,3.233,0,0,1,2.121-4.026l34.145-10.547a3.231,3.231,0,0,1,4.025,2.127h0A3.219,3.219,0,0,1,5430.042,3043.573Z" transform="translate(-5391.737 -3037.286)" fill="#d9a171"/>
      </g>
      <g id="Grupo_57134" data-name="Grupo 57134" transform="translate(76.974 106.543)" opacity="0.28">
        <path id="Trazado_106087" data-name="Trazado 106087" d="M5478.217,3033.143l-9.113,2.813a3.232,3.232,0,0,1-4.025-2.127h0a3.225,3.225,0,0,1,2.127-4.02l9.112-2.813a3.22,3.22,0,0,1,4.02,2.121h0A3.225,3.225,0,0,1,5478.217,3033.143Z" transform="translate(-5464.938 -3026.853)" fill="#d9a171"/>
      </g>
      <g id="Grupo_57135" data-name="Grupo 57135" transform="translate(34.262 118.719)" opacity="0.28">
        <path id="Trazado_106088" data-name="Trazado 106088" d="M5457.431,3052.346l-55.587,17.145a3.226,3.226,0,0,1-4.026-2.127h0a3.22,3.22,0,0,1,2.128-4.019l55.594-17.177a3.238,3.238,0,0,1,4.026,2.127h0a3.226,3.226,0,0,1-2.11,4.044Z" transform="translate(-5397.675 -3046.028)" fill="#d9a171"/>
      </g>
      <path id="Trazado_106089" data-name="Trazado 106089" d="M5448.725,2861.431l16.625,37.046a4.008,4.008,0,0,1-2.006,5.283l-70.523,31.655a4,4,0,0,1-5.284-2.006l-16.63-37.046a4,4,0,0,1,2.007-5.289l70.522-31.655A4.013,4.013,0,0,1,5448.725,2861.431Z" transform="translate(-5353.514 -2859.069)" fill="#d9a171"/>
      <path id="Trazado_106090" data-name="Trazado 106090" d="M5448.725,2861.431l16.625,37.046a4.008,4.008,0,0,1-2.006,5.283l-70.523,31.655a4,4,0,0,1-5.284-2.006l-16.63-37.046a4,4,0,0,1,2.007-5.289l70.522-31.655A4.013,4.013,0,0,1,5448.725,2861.431Z" transform="translate(-5353.514 -2859.069)" fill="#ff9d00" opacity="0.3" style="isolation: isolate"/>
      <rect id="Rectángulo_8125" data-name="Rectángulo 8125" width="2.47" height="0.635" transform="matrix(0.912, -0.409, 0.409, 0.912, 81.843, 1.542)" fill="#d9a171"/>
      <rect id="Rectángulo_8126" data-name="Rectángulo 8126" width="7.703" height="0.635" transform="matrix(0.912, -0.409, 0.409, 0.912, 71.659, 6.107)" fill="#d9a171"/>
      <rect id="Rectángulo_8127" data-name="Rectángulo 8127" width="0.635" height="4.699" transform="translate(16.751 41.286) rotate(-24.18)" fill="#d9a171"/>
      <path id="Trazado_106091" data-name="Trazado 106091" d="M5446.544,2859.284l-18.187,35.624a16.288,16.288,0,0,1-18.6,8.35l-38.7-10.09a4.056,4.056,0,0,1,2.044-2.1l70.523-31.655A4,4,0,0,1,5446.544,2859.284Z" transform="translate(-5353.695 -2859.069)" fill="#a9732d" opacity="0.6" style="isolation: isolate"/>
      <path id="Trazado_106092" data-name="Trazado 106092" d="M5493.87,2931.208l-54.725,3.378a7.366,7.366,0,0,0-6.916,7.789v.015l6.242,101.143a7.366,7.366,0,0,0,7.8,6.91h.021l70.042-4.324a7.353,7.353,0,0,0,6.9-7.783v-.022l-5.27-85.833Z" transform="translate(-5376.021 -2885.4)" fill="#d9a171"/>
      <path id="Trazado_106093" data-name="Trazado 106093" d="M5493.87,2931.208l-54.725,3.378a7.366,7.366,0,0,0-6.916,7.789v.015l6.242,101.143a7.366,7.366,0,0,0,7.8,6.91h.021l70.042-4.324a7.353,7.353,0,0,0,6.9-7.783v-.022l-5.27-85.833Z" transform="translate(-5376.021 -2885.4)" fill="#fff" stroke="#5e6178" stroke-miterlimit="10" stroke-width="0" opacity="0.8" style="isolation: isolate"/>
      <g id="Grupo_57136" data-name="Grupo 57136" transform="translate(72.213 145.282)" opacity="0.22">
        <path id="Trazado_106094" data-name="Trazado 106094" d="M5506.386,3094.284l-45.536,2.813a3.227,3.227,0,0,1-3.4-3.017h0a3.232,3.232,0,0,1,3.01-3.41l45.536-2.807a3.225,3.225,0,0,1,3.41,3.01h0A3.225,3.225,0,0,1,5506.386,3094.284Z" transform="translate(-5457.441 -3087.859)" fill="#d9a171"/>
      </g>
      <g id="Grupo_57137" data-name="Grupo 57137" transform="translate(66.707 57.436)" opacity="0.22">
        <path id="Trazado_106095" data-name="Trazado 106095" d="M5476.272,2955.957l-24.086,1.473a3.232,3.232,0,0,1-3.41-3.01h0a3.233,3.233,0,0,1,3.017-3.41l24.086-1.486a3.219,3.219,0,0,1,3.4,3.01h0A3.225,3.225,0,0,1,5476.272,2955.957Z" transform="translate(-5448.771 -2949.519)" fill="#d9a171"/>
      </g>
      <g id="Grupo_57138" data-name="Grupo 57138" transform="translate(67.494 69.221)" opacity="0.22">
        <path id="Trazado_106096" data-name="Trazado 106096" d="M5493.221,2974.5l-39.8,2.451a3.22,3.22,0,0,1-3.41-3.009h0a3.226,3.226,0,0,1,3.016-3.411l39.789-2.451a3.219,3.219,0,0,1,3.41,3.01h0A3.226,3.226,0,0,1,5493.221,2974.5Z" transform="translate(-5450.01 -2968.078)" fill="#d9a171"/>
      </g>
      <g id="Grupo_57139" data-name="Grupo 57139" transform="translate(68.269 80.829)" opacity="0.22">
        <path id="Trazado_106097" data-name="Trazado 106097" d="M5512.736,2992.792l-58.077,3.581a3.232,3.232,0,0,1-3.423-3.016h0a3.22,3.22,0,0,1,3.01-3.4l58.084-3.588a3.226,3.226,0,0,1,3.4,3.017h0A3.226,3.226,0,0,1,5512.736,2992.792Z" transform="translate(-5451.23 -2986.359)" fill="#d9a171"/>
      </g>
      <g id="Grupo_57140" data-name="Grupo 57140" transform="translate(93.383 93.573)" opacity="0.22">
        <path id="Trazado_106098" data-name="Trazado 106098" d="M5527.959,3012.854l-33.763,2.083a3.226,3.226,0,0,1-3.41-3.01h0a3.219,3.219,0,0,1,3.01-3.41l33.763-2.083a3.218,3.218,0,0,1,3.41,3.01h0A3.225,3.225,0,0,1,5527.959,3012.854Z" transform="translate(-5490.78 -3006.428)" fill="#d9a171"/>
      </g>
      <g id="Grupo_57141" data-name="Grupo 57141" transform="translate(69.069 96.609)" opacity="0.22">
        <path id="Trazado_106099" data-name="Trazado 106099" d="M5464.732,3017.635l-8.833.546a3.22,3.22,0,0,1-3.4-3.01h0a3.227,3.227,0,0,1,3.01-3.41l8.833-.546a3.231,3.231,0,0,1,3.41,3.016h0A3.226,3.226,0,0,1,5464.732,3017.635Z" transform="translate(-5452.49 -3011.209)" fill="#d9a171"/>
      </g>
      <g id="Grupo_57142" data-name="Grupo 57142" transform="translate(69.851 106.312)" opacity="0.22">
        <path id="Trazado_106100" data-name="Trazado 106100" d="M5515.22,3032.915l-58.083,3.582a3.227,3.227,0,0,1-3.41-3.011h0a3.232,3.232,0,0,1,3.017-3.409l58.077-3.582a3.226,3.226,0,0,1,3.41,3.016h0A3.219,3.219,0,0,1,5515.22,3032.915Z" transform="translate(-5453.721 -3026.489)" fill="#d9a171"/>
      </g>
      <g id="Grupo_57143" data-name="Grupo 57143" transform="translate(70.638 120.434)" opacity="0.22">
        <path id="Trazado_106101" data-name="Trazado 106101" d="M5494.043,3055.155l-35.667,2.2a3.233,3.233,0,0,1-3.41-3.016h0a3.225,3.225,0,0,1,3.016-3.4l35.668-2.2a3.223,3.223,0,0,1,3.4,3.016h0A3.213,3.213,0,0,1,5494.043,3055.155Z" transform="translate(-5454.96 -3048.729)" fill="#d9a171"/>
      </g>
      <g id="Grupo_57144" data-name="Grupo 57144" transform="translate(119.195 119.056)" opacity="0.22">
        <path id="Trazado_106102" data-name="Trazado 106102" d="M5544.365,3052.984l-9.525.584a3.22,3.22,0,0,1-3.4-3.01h0a3.218,3.218,0,0,1,3.009-3.41l9.525-.584a3.219,3.219,0,0,1,3.411,3.01h0A3.233,3.233,0,0,1,5544.365,3052.984Z" transform="translate(-5531.43 -3046.558)" fill="#d9a171"/>
      </g>
      <g id="Grupo_57145" data-name="Grupo 57145" transform="translate(71.425 131.794)" opacity="0.22">
        <path id="Trazado_106103" data-name="Trazado 106103" d="M5517.692,3073.044l-58.077,3.581a3.226,3.226,0,0,1-3.409-3.01h0a3.226,3.226,0,0,1,3.009-3.41l58.083-3.581a3.218,3.218,0,0,1,3.4,3.01h0A3.22,3.22,0,0,1,5517.692,3073.044Z" transform="translate(-5456.2 -3066.619)" fill="#d9a171"/>
      </g>
      <path id="Trazado_106104" data-name="Trazado 106104" d="M5529.31,2931.208l.946,15.316a7.367,7.367,0,0,0,7.8,6.9h0l15.335-.946Z" transform="translate(-5411.46 -2885.4)" fill="#d9a171" opacity="0.22" style="isolation: isolate"/>
      <path id="Trazado_106105" data-name="Trazado 106105" d="M5452.158,2988.261h0a5.492,5.492,0,0,0-5.563-5.42q-.076,0-.152,0H5395.58a8.879,8.879,0,0,0-8.343,6.986l-20.074,102.838a5.588,5.588,0,0,0,5.62,6.985h161.291a8.9,8.9,0,0,0,8.344-6.985l16.554-84.773a5.585,5.585,0,0,0-5.619-6.984h-87.764C5457.968,3000.912,5452.418,2995.666,5452.158,2988.261Z" transform="translate(-5352.228 -2904.246)" fill="#ff9d00" opacity="0.5" style="isolation: isolate"/>
    </g>
    <g id="freepik--Character--inject-68" transform="translate(584.396 16759.85)">
      <path id="Trazado_106106" data-name="Trazado 106106" d="M5647.573,2937.336c.889,2.978,5.474,8.554,5.835,12.611s-7.455,10.547-7.455,10.547-5.842-19.533-2.185-21.812S5647.573,2937.336,5647.573,2937.336Z" transform="translate(-5585.882 -2920.979)" fill="#344154"/>
      <path id="Trazado_106107" data-name="Trazado 106107" d="M5603.253,2968.441c-1.384,1.156-2.744,2.127-4.159,3.124s-2.877,1.905-4.363,2.756a49.239,49.239,0,0,1-4.6,2.407c-.8.362-1.594.717-2.42,1.028-.407.165-.819.324-1.238.464l-1.27.444a8.39,8.39,0,0,1-3.34.241,19.122,19.122,0,0,1-2.769-.533,36.719,36.719,0,0,1-4.959-1.765,66.09,66.09,0,0,1-9.011-4.794l1.187-2.21c1.5.635,3.035,1.27,4.56,1.822s3.061,1.137,4.6,1.613a38.525,38.525,0,0,0,4.572,1.194,14.879,14.879,0,0,0,2.152.26,4.47,4.47,0,0,0,1.6-.165,40.917,40.917,0,0,0,4.243-1.905c.7-.368,1.4-.743,2.089-1.149s1.384-.8,2.063-1.219c1.366-.844,2.7-1.74,4.02-2.66s2.635-1.905,3.81-2.838Z" transform="translate(-5557.616 -2930.983)" fill="#ffd2b1"/>
      <path id="Trazado_106108" data-name="Trazado 106108" d="M5624.666,2959.893c-1.575-1.232-8.089,2.8-10.064,4.483l1.441,8.718s9.367-3.924,9.924-6.6C5626.559,2963.69,5625.841,2960.833,5624.666,2959.893Z" transform="translate(-5575.676 -2929.197)" fill="#00bcd4"/>
      <path id="Trazado_106110" data-name="Trazado 106110" d="M5648.882,2984.2l-19.773,3.855c-10.217-27.667-7.995-28.575-7.995-28.575a39.876,39.876,0,0,1,4.445-2.1l.267-.1c1.27-.464,1.524-.533,3.213-1.029,2.908-.693,5.62-1.271,8.979-1.747l.635-.088c.635-.077,1.212-.14,1.8-.2.394-.044.787-.07,1.163-.095l1.27-.07c2.171-.108,3.727-.076,3.727-.076C5646.005,2971.261,5646.983,2976.22,5648.882,2984.2Z" transform="translate(-5577.979 -2927.122)" fill="#00bcd4"/>
      <path id="Trazado_106112" data-name="Trazado 106112" d="M5640.446,2937.235c-1.269,2.1,3.334,3.073,6.058.921,2.178-1.728,1.664-5.715-.2-6.642S5640.446,2937.235,5640.446,2937.235Z" transform="translate(-5585.031 -2918.89)" fill="#d9a171"/>
      <path id="Trazado_106113" data-name="Trazado 106113" d="M5640.446,2937.235c-1.269,2.1,3.334,3.073,6.058.921,2.178-1.728,1.664-5.715-.2-6.642S5640.446,2937.235,5640.446,2937.235Z" transform="translate(-5585.031 -2918.89)" fill="#344154" opacity="0.4" style="isolation: isolate"/>
      <path id="Trazado_106114" data-name="Trazado 106114" d="M5667,3175.372l-4.947.368-1.81-11.385,4.947-.369Z" transform="translate(-5592.335 -3003.775)" fill="#ffd2b1"/>
      <path id="Trazado_106115" data-name="Trazado 106115" d="M5719.272,3151.756l-4.2,2.642-7.474-8.865,4.2-2.647Z" transform="translate(-5609.621 -2996.074)" fill="#ffd2b1"/>
      <path id="Trazado_106116" data-name="Trazado 106116" d="M5660.242,3164.357l1,6.324,4.877-.819L5665.2,3164Z" transform="translate(-5592.335 -3003.778)" fill="#cf6f64"/>
      <path id="Trazado_106117" data-name="Trazado 106117" d="M5711.805,3142.9l-4.2,2.642,3.1,3.67,4.292-2.533Z" transform="translate(-5609.621 -2996.076)" fill="#cf6f64"/>
      <path id="Trazado_106118" data-name="Trazado 106118" d="M5634.3,3006.024s-.07,39.256,3.137,54.039c3.339,15.379,13.164,50.368,13.164,50.368l7.125-.921s-5.569-35.344-7.944-50.628c-2.584-16.656-1-55.677-1-55.677Z" transform="translate(-5582.867 -2945.09)" fill="#12263f"/>
      <path id="Trazado_106120" data-name="Trazado 106120" d="M5654.4,3028.6l-3.493-3.48c.133,15.081.978,22.53,3.879,30.645C5654.334,3047.191,5654.3,3037.044,5654.4,3028.6Z" transform="translate(-5588.929 -2953.091)" fill="#344154" opacity="0.5" style="isolation: isolate"/>
      <path id="Trazado_106121" data-name="Trazado 106121" d="M5642.041,3004.413s10.649,32.442,15.932,51.13c5.576,19.717,26.95,41.523,26.95,41.523l6.134-3.543s-14.6-20.7-19.977-39.1c-10.923-37.344-6.432-45.256-14.492-52.851Z" transform="translate(-5585.691 -2944.495)" fill="#12263f"/>
      <path id="Trazado_106123" data-name="Trazado 106123" d="M5625.691,2922.535c2.833.947,5.4,7.976,5.512,10.745s-8.2,6.585-8.2,6.585-3.664-8.89-2.642-14.6C5620.8,2922.776,5625.691,2922.535,5625.691,2922.535Z" transform="translate(-5577.711 -2915.645)" fill="#344154"/>
      <path id="Trazado_106124" data-name="Trazado 106124" d="M5565.089,2970.773l-3.359-3.658-1.1,4.584s2.388,2.108,4.318,1.385Z" transform="translate(-5555.977 -2931.917)" fill="#ffd2b1"/>
      <path id="Trazado_106125" data-name="Trazado 106125" d="M5555.651,2965.465l-2.351,1.867,4.655,3.766,1.1-4.585Z" transform="translate(-5553.301 -2931.314)" fill="#ffd2b1"/>
      <path id="Trazado_106126" data-name="Trazado 106126" d="M5715.941,3157.184l3.925-3.956a.4.4,0,0,1,.52-.038l3.576,2.654a.792.792,0,0,1,.135,1.114.676.676,0,0,1-.064.073c-1.4,1.353-2.134,1.937-3.861,3.677-1.06,1.073-2.5,2.743-3.969,4.223s-3.01.1-2.541-.635a9.769,9.769,0,0,0,1.906-6.3A1.272,1.272,0,0,1,5715.941,3157.184Z" transform="translate(-5611.801 -2999.806)" fill="#00bcd4"/>
      <path id="Trazado_106127" data-name="Trazado 106127" d="M5658.066,3181.375h5.576a.418.418,0,0,1,.412.343l.877,4.407a.749.749,0,0,1-.6.871.691.691,0,0,1-.139.012c-1.95-.032-2.889-.146-5.341-.146-1.5,0-4.616.152-6.7.152s-2.306-2.058-1.449-2.242c3.811-.838,5.3-1.987,6.554-3.092A1.271,1.271,0,0,1,5658.066,3181.375Z" transform="translate(-5588.68 -3010.122)" fill="#00bcd4"/>
      <path id="Trazado_106128" data-name="Trazado 106128" d="M5660.64,2969.755l-3.049,1.817,3.519,13.227C5660.341,2980.791,5660.684,2976.391,5660.64,2969.755Z" transform="translate(-5591.367 -2932.88)" fill="#d9a171" opacity="0.27" style="isolation: isolate"/>
      <path id="Trazado_106129" data-name="Trazado 106129" d="M5635.111,2932.343c2.166,1.81,5.309,4.445,9.011,1.365,3.175-2.655,5.4-9.62-.3-9.875C5640.846,2923.7,5635.111,2932.343,5635.111,2932.343Z" transform="translate(-5583.162 -2916.119)" fill="#344154"/>
      <path id="Trazado_106130" data-name="Trazado 106130" d="M5639.529,2939.185c0,3,.463,8.4,2.856,9.938,0,0-.216,3.086-5.588,4.128-5.9,1.149-3.391-2.381-3.391-2.381,3.073-1.4,2.539-3.772,1.523-5.906Z" transform="translate(-5582.346 -2921.722)" fill="#ffd2b1"/>
      <path id="Trazado_106131" data-name="Trazado 106131" d="M5638.839,2942.9l-2.718,3.423a9.7,9.7,0,0,1,.584,1.537c1.193-.419,2.622-2.1,2.5-3.41A4.339,4.339,0,0,0,5638.839,2942.9Z" transform="translate(-5583.531 -2923.076)" fill="#f5bc8c"/>
      <path id="Trazado_106132" data-name="Trazado 106132" d="M5635.988,2924.944c.635,4.883,1.022,6.934-.934,9.887-2.939,4.445-9.075,4.159-11.164-.431-1.905-4.134-2.616-11.43,1.728-14.256a6.711,6.711,0,0,1,10.369,4.8Z" transform="translate(-5578.521 -2914.365)" fill="#ffd2b1"/>
      <path id="Trazado_106133" data-name="Trazado 106133" d="M5629.911,2913.71c-3.3,2.343,3.321,3.036,3.327,6.433,0,1.4,2.305,5.854,5.583,5.6l3.174-5.639C5645.335,2914.708,5637.441,2908.358,5629.911,2913.71Z" transform="translate(-5580.927 -2911.685)" fill="#344154"/>
      <path id="Trazado_106134" data-name="Trazado 106134" d="M5625.968,2914.866c-5.81-.3-8.344,4.318-7.677,8.471a37.861,37.861,0,0,1,12.408-.984C5638.662,2923.166,5625.968,2914.866,5625.968,2914.866Z" transform="translate(-5576.983 -2912.841)" fill="#344154"/>
      <path id="Trazado_106135" data-name="Trazado 106135" d="M5644.407,2934.064a3.582,3.582,0,0,1-.832,2.616c-.819.959-1.905.394-2.285-.743-.325-1.029-.287-2.762.818-3.308a1.62,1.62,0,0,1,2.3,1.436Z" transform="translate(-5585.353 -2919.275)" fill="#ffd2b1"/>
      <path id="Trazado_106136" data-name="Trazado 106136" d="M5632.146,2932.343c.076.394-.07.749-.324.8s-.527-.229-.6-.635.069-.755.323-.806S5632.07,2931.949,5632.146,2932.343Z" transform="translate(-5581.734 -2918.989)" fill="#344154"/>
      <path id="Trazado_106137" data-name="Trazado 106137" d="M5625.157,2933.711c.076.394-.07.756-.324.806s-.527-.228-.6-.635.07-.756.324-.8S5625.081,2933.311,5625.157,2933.711Z" transform="translate(-5579.183 -2919.494)" fill="#344154"/>
      <path id="Trazado_106138" data-name="Trazado 106138" d="M5624.368,2933.048l-1-.083S5624,2933.606,5624.368,2933.048Z" transform="translate(-5578.876 -2919.452)" fill="#344154"/>
      <path id="Trazado_106139" data-name="Trazado 106139" d="M5627.235,2934.785a10.843,10.843,0,0,1-.914,2.775,1.72,1.72,0,0,0,1.455,0Z" transform="translate(-5579.954 -2920.116)" fill="#e8b590"/>
      <path id="Trazado_106140" data-name="Trazado 106140" d="M5631.154,2940a.115.115,0,0,1-.022-.228h0a3.173,3.173,0,0,0,2.3-1.715.117.117,0,0,1,.216.089,3.344,3.344,0,0,1-2.47,1.854Z" transform="translate(-5581.675 -2921.283)" fill="#344154"/>
      <path id="Trazado_106141" data-name="Trazado 106141" d="M5633.1,2929.442a.243.243,0,0,1-.158-.057,1.868,1.868,0,0,0-1.626-.482.249.249,0,0,1-.121-.483,2.356,2.356,0,0,1,2.064.591.234.234,0,0,1,0,.33A.228.228,0,0,1,5633.1,2929.442Z" transform="translate(-5581.663 -2917.777)" fill="#344154"/>
      <path id="Trazado_106142" data-name="Trazado 106142" d="M5621.7,2930.449a.191.191,0,0,1-.089,0,.237.237,0,0,1-.129-.306l0-.005a2.33,2.33,0,0,1,1.607-1.416.229.229,0,0,1,.271.177v.013a.228.228,0,0,1-.175.271l-.009,0a1.9,1.9,0,0,0-1.27,1.137A.239.239,0,0,1,5621.7,2930.449Z" transform="translate(-5578.181 -2917.901)" fill="#344154"/>
      <path id="Trazado_106143" data-name="Trazado 106143" d="M5714.613,3162.165a.675.675,0,0,1-.546-.305.4.4,0,0,1-.069-.394c.222-.6,1.974-.978,2.171-1.022a.121.121,0,0,1,.121.05.109.109,0,0,1,0,.127c-.344.565-1.017,1.511-1.645,1.543Zm1.328-1.429c-.693.178-1.606.5-1.721.813a.16.16,0,0,0,.039.171.431.431,0,0,0,.38.209C5714.975,3161.911,5715.451,3161.473,5715.941,3160.736Z" transform="translate(-5611.947 -3002.482)" fill="#d9a171"/>
      <path id="Trazado_106144" data-name="Trazado 106144" d="M5715.625,3160.182a2.315,2.315,0,0,1-1.663-.5.413.413,0,0,1,.043-.514.639.639,0,0,1,.464-.241h.051c.711,0,1.689.959,1.727,1a.113.113,0,0,1,.032.114.121.121,0,0,1-.083.083A2.282,2.282,0,0,1,5715.625,3160.182Zm-1.1-1.022h-.038a.384.384,0,0,0-.292.152c-.088.121-.063.19-.031.235.19.292,1.162.457,1.758.387a2.8,2.8,0,0,0-1.4-.774Z" transform="translate(-5611.917 -3001.928)" fill="#d9a171"/>
      <path id="Trazado_106145" data-name="Trazado 106145" d="M5658.864,3182.022a1.9,1.9,0,0,1-1.214-.305.636.636,0,0,1-.24-.565.365.365,0,0,1,.178-.317c.583-.343,2.628.673,2.856.787a.12.12,0,0,1,.064.12.121.121,0,0,1-.09.1A8.409,8.409,0,0,1,5658.864,3182.022Zm-.94-1.029a.419.419,0,0,0-.216.045.122.122,0,0,0-.063.121.445.445,0,0,0,.159.381,3.2,3.2,0,0,0,2.215.14,6.644,6.644,0,0,0-2.095-.686Z" transform="translate(-5591.3 -3009.899)" fill="#d9a171"/>
      <path id="Trazado_106146" data-name="Trazado 106146" d="M5661.064,3181.164h-.044c-.636-.273-1.861-1.353-1.772-1.905,0-.127.115-.292.433-.324h.095c1.1,0,1.391,2.019,1.4,2.108a.093.093,0,0,1-.114.121Zm-1.271-2.007h-.069c-.2,0-.216.1-.216.121-.051.336.787,1.18,1.423,1.555-.127-.5-.452-1.664-1.162-1.664Z" transform="translate(-5591.97 -3009.231)" fill="#d9a171"/>
      <path id="Trazado_106147" data-name="Trazado 106147" d="M5631.358,2931.684l-1-.089S5630.99,2932.243,5631.358,2931.684Z" transform="translate(-5581.427 -2918.952)" fill="#344154"/>
      <path id="Trazado_106148" data-name="Trazado 106148" d="M5634.386,2962.923c-10.623,2.369-7.34-4.058-6.705-5.474l.267-.1c1.271-.464,1.523-.533,3.213-1.029a63.862,63.862,0,0,1,8.979-1.746l.635-.089c.636-.083,1.214-.146,1.8-.2.394-.044.789-.07,1.162-.095l1.271-.076h0C5645.219,2955.106,5645.747,2960.4,5634.386,2962.923Z" transform="translate(-5580.094 -2927.173)" fill="#ffd2b1"/>
      <path id="Trazado_106149" data-name="Trazado 106149" d="M5653.181,2999.6l1.238,1.6c.095.121-.039.292-.267.336l-20.739,4.039c-.178.039-.343,0-.375-.133l-.526-1.734a.327.327,0,0,1,.292-.292l20.028-3.9A.362.362,0,0,1,5653.181,2999.6Z" transform="translate(-5582.214 -2943.739)" fill="#26395a"/>
      <path id="Trazado_106150" data-name="Trazado 106150" d="M5660.976,3002.512l.54-.1c.108,0,.178-.088.159-.158l-.7-2.248c0-.07-.127-.1-.235-.082l-.533.1c-.109,0-.178.1-.16.159l.7,2.254C5660.767,3002.5,5660.875,3002.538,5660.976,3002.512Z" transform="translate(-5592.263 -2943.89)" fill="#d9a171"/>
      <path id="Trazado_106151" data-name="Trazado 106151" d="M5640,3014.922l-4.134-1.537.635,3.931s3,1.079,4.527-.305Z" transform="translate(-5583.438 -2948.806)" fill="#ffd2b1"/>
      <path id="Trazado_106152" data-name="Trazado 106152" d="M5629.106,3014.427l-.984,2.578,5.556.311-.635-3.931Z" transform="translate(-5580.611 -2948.805)" fill="#ffd2b1"/>
      <path id="Trazado_106153" data-name="Trazado 106153" d="M5635.826,3007.413l.54-.1c.1,0,.178-.089.152-.159l-.7-2.248c0-.07-.122-.1-.229-.082l-.54.1c-.107,0-.178.095-.152.159l.7,2.254C5635.616,3007.4,5635.717,3007.438,5635.826,3007.413Z" transform="translate(-5583.083 -2945.678)" fill="#d9a171"/>
      <path id="Trazado_106154" data-name="Trazado 106154" d="M5648.4,3004.953l.534-.1c.108,0,.178-.089.158-.158l-.7-2.248c0-.07-.126-.1-.234-.083l-.533.1c-.109,0-.178.1-.159.159l.7,2.254A.2.2,0,0,0,5648.4,3004.953Z" transform="translate(-5587.672 -2944.78)" fill="#d9a171"/>
      <path id="Trazado_106155" data-name="Trazado 106155" d="M5642.135,2950.858c.451-.172,1.017,1.416.877,1.619-.324.464-6.256,2.083-6.521,1.175a3.969,3.969,0,0,1,.222-1.448C5636.884,2951.9,5638.2,2952.458,5642.135,2950.858Z" transform="translate(-5583.664 -2925.979)" fill="#d9a171"/>
      <path id="Trazado_106156" data-name="Trazado 106156" d="M5643.771,2950.332c.229-.527.883-1.372,1.454-.889s.813,1.524.438,1.7S5643.378,2951.214,5643.771,2950.332Z" transform="translate(-5586.303 -2925.414)" fill="#d9a171"/>
      <path id="Trazado_106157" data-name="Trazado 106157" d="M5645.625,2950.987c.394-.419,1.27-1,1.67-.349s.254,1.708-.152,1.74S5644.959,2951.679,5645.625,2950.987Z" transform="translate(-5586.945 -2925.796)" fill="#d9a171"/>
      <path id="Trazado_106158" data-name="Trazado 106158" d="M5646.047,2949.5a1.762,1.762,0,0,1,.882-1.7c.724-.47,1.429-.775,1.708-1.27a3.511,3.511,0,0,1,.07,1.422c-.146.68-2.4,1.2-2.248,1.791Z" transform="translate(-5587.151 -2924.406)" fill="#d9a171"/>
      <path id="Trazado_106159" data-name="Trazado 106159" d="M5645.684,2948.921a1.761,1.761,0,0,1-.178-1.9,5.649,5.649,0,0,0,.75-1.982,3.535,3.535,0,0,1,.832,1.156c.241.635-1.366,2.306-.915,2.725Z" transform="translate(-5586.882 -2923.857)" fill="#d9a171"/>
      <path id="Trazado_106160" data-name="Trazado 106160" d="M5697.053,3095.27a.078.078,0,0,1-.063-.038c-.146-.2-14.662-20.917-19.984-39.116a266.748,266.748,0,0,1-7.989-35.611c-1.1-6.782-1.765-10.878-3.949-14.237a.078.078,0,0,1,.107-.114c2.21,3.39,2.876,7.5,3.976,14.3a267.519,267.519,0,0,0,8,35.56c5.315,18.174,19.818,38.862,19.964,39.072a.088.088,0,0,1,0,.107A.083.083,0,0,1,5697.053,3095.27Z" transform="translate(-5594.088 -2946.159)" fill="#d9a171"/>
      <path id="Trazado_106161" data-name="Trazado 106161" d="M5697.053,3095.27a.078.078,0,0,1-.063-.038c-.146-.2-14.662-20.917-19.984-39.116a266.748,266.748,0,0,1-7.989-35.611c-1.1-6.782-1.765-10.878-3.949-14.237a.078.078,0,0,1,.107-.114c2.21,3.39,2.876,7.5,3.976,14.3a267.519,267.519,0,0,0,8,35.56c5.315,18.174,19.818,38.862,19.964,39.072a.088.088,0,0,1,0,.107A.083.083,0,0,1,5697.053,3095.27Z" transform="translate(-5594.088 -2946.159)" fill="#344154" opacity="0.4" style="isolation: isolate"/>
      <path id="Trazado_106162" data-name="Trazado 106162" d="M5667.26,3168.513l-9.7,1.257-.635-2.705,10.1-2.139Z" transform="translate(-5591.123 -3004.118)" fill="#727997"/>
      <path id="Trazado_106163" data-name="Trazado 106163" d="M5714.541,3144.181l-7.157,4.134-2.413-2.064,7.829-5.3Z" transform="translate(-5608.66 -2995.369)" fill="#727997"/>
      <path id="Trazado_106164" data-name="Trazado 106164" d="M5657.485,2964.575c.343,1.765.539,3.429.729,5.15s.26,3.423.312,5.143a50.628,50.628,0,0,1-.115,5.2c-.07.87-.145,1.74-.267,2.616-.051.432-.107.87-.19,1.308l-.235,1.346a8.451,8.451,0,0,1-1.4,3.042,18.9,18.9,0,0,1-1.8,2.165,35.908,35.908,0,0,1-3.937,3.493,65.736,65.736,0,0,1-8.548,5.582l-1.359-2.108q1.906-1.515,3.811-3.112c1.271-1.06,2.478-2.133,3.639-3.251a39.8,39.8,0,0,0,3.246-3.423,15.068,15.068,0,0,0,1.269-1.765,4.4,4.4,0,0,0,.635-1.48,41.82,41.82,0,0,0,.362-4.648v-2.382c0-.793-.031-1.6-.069-2.4-.077-1.6-.223-3.175-.394-4.8s-.4-3.232-.636-4.738Z" transform="translate(-5585.189 -2930.99)" fill="#ffd2b1"/>
      <path id="Trazado_106165" data-name="Trazado 106165" d="M5661.872,2955.308c2.711,2.2,2.064,8.725,2.064,8.725l-9.144,3.01s.419-7.525.876-10.23C5656.2,2953.594,5659.2,2953.143,5661.872,2955.308Z" transform="translate(-5590.346 -2927.121)" fill="#00bcd4"/>
    </g>
  </g>
</svg>
