<svg xmlns="http://www.w3.org/2000/svg" xmlns:xlink="http://www.w3.org/1999/xlink" width="243.763" height="210.934" viewBox="0 0 243.763 210.934">
  <defs>
    <linearGradient id="linear-gradient" x1="0.5" x2="0.5" y2="1" gradientUnits="objectBoundingBox">
      <stop offset="0.25" stop-color="#f5f5f5"/>
      <stop offset="1" stop-color="#e6eded"/>
    </linearGradient>
  </defs>
  <g id="img5" transform="translate(-70.832 -110.461)">
    <g id="Background_Complete" data-name="Background Complete" transform="translate(77.627 110.461)">
      <g id="Grupo_87086" data-name="Grupo 87086">
        <g id="Grupo_87078" data-name="Grupo 87078" transform="translate(28.784 9.995)">
          <rect id="Rectángulo_30595" data-name="Rectángulo 30595" width="5.649" height="5.649" transform="matrix(0.978, -0.21, 0.21, 0.978, 28.06, 6.434)" fill="#ebebeb"/>
          <circle id="Elipse_4242" data-name="Elipse 4242" cx="31.14" cy="31.14" r="31.14" transform="translate(5.365 69.184) rotate(-86.94)" fill="#e0e0e0"/>
          <circle id="Elipse_4243" data-name="Elipse 4243" cx="27.11" cy="27.11" r="27.11" transform="matrix(0.778, -0.628, 0.628, 0.778, 0, 35.679)" fill="#f0f0f0"/>
          <rect id="Rectángulo_30596" data-name="Rectángulo 30596" width="10.177" height="6.368" transform="matrix(0.978, -0.21, 0.21, 0.978, 24.82, 2.142)" fill="#e0e0e0"/>
          <path id="Trazado_141257" data-name="Trazado 141257" d="M180.6,181.847a2.639,2.639,0,1,1-3.135-2.024A2.639,2.639,0,0,1,180.6,181.847Z" transform="translate(-139.897 -142.653)" fill="#e0e0e0"/>
          <path id="Trazado_141258" data-name="Trazado 141258" d="M169.666,151.446c.827,1.74,1.534,3.515,2.246,5.288l1.022,2.675.965,2.691c.643,1.794,1.238,3.6,1.819,5.415s1.138,3.633,1.667,5.461l-2.045-.558q1.841-1.7,3.73-3.343t3.821-3.246c1.278-1.077,2.6-2.11,3.915-3.144s2.669-2.033,4.067-2.98c-1.048,1.325-2.159,2.582-3.275,3.834s-2.257,2.476-3.427,3.67-2.327,2.4-3.522,3.568-2.392,2.33-3.612,3.47l-1.455,1.359-.589-1.917c-.559-1.82-1.085-3.649-1.6-5.483s-1-3.674-1.443-5.528l-.666-2.78-.608-2.8C170.306,155.227,169.926,153.355,169.666,151.446Z" transform="translate(-138.066 -133.583)" fill="#e0e0e0"/>
        </g>
        <g id="Grupo_87084" data-name="Grupo 87084" transform="translate(109.529 1.856)">
          <path id="Trazado_141259" data-name="Trazado 141259" d="M365.311,147.206,340.86,218.289l-98.889-34.015,24.451-71.083,3.324,1.143a2.1,2.1,0,0,0-.632.931,2.153,2.153,0,1,0,4.071,1.4,2.1,2.1,0,0,0,.074-1.123l3.312,1.139a2.1,2.1,0,0,0-.632.931,2.153,2.153,0,1,0,4.071,1.4,2.1,2.1,0,0,0,.074-1.123l3.311,1.139a2.1,2.1,0,0,0-.631.931,2.153,2.153,0,1,0,4.071,1.4,2.1,2.1,0,0,0,.074-1.123l3.312,1.139a2.1,2.1,0,0,0-.632.931,2.153,2.153,0,1,0,4.071,1.4,2.1,2.1,0,0,0,.074-1.123l3.312,1.139a2.1,2.1,0,0,0-.632.931,2.153,2.153,0,1,0,4.071,1.4,2.1,2.1,0,0,0,.075-1.123l3.311,1.139a2.1,2.1,0,0,0-.632.931,2.153,2.153,0,1,0,4.071,1.4,2.1,2.1,0,0,0,.074-1.123l3.312,1.139a2.1,2.1,0,0,0-.632.931,2.153,2.153,0,1,0,4.071,1.4,2.1,2.1,0,0,0,.074-1.123l3.312,1.139a2.1,2.1,0,0,0-.631.931,2.153,2.153,0,1,0,4.071,1.4,2.106,2.106,0,0,0,.074-1.123l3.312,1.139a2.1,2.1,0,0,0-.632.93,2.153,2.153,0,1,0,4.071,1.4,2.1,2.1,0,0,0,.074-1.123l3.311,1.139a2.108,2.108,0,0,0-.632.931,2.153,2.153,0,1,0,4.071,1.4,2.1,2.1,0,0,0,.075-1.123L338,137.811a2.1,2.1,0,0,0-.632.931,2.153,2.153,0,1,0,4.071,1.4,2.1,2.1,0,0,0,.074-1.123l3.312,1.139a2.1,2.1,0,0,0-.632.93,2.153,2.153,0,1,0,4.071,1.4,2.1,2.1,0,0,0,.074-1.123l3.312,1.139a2.1,2.1,0,0,0-.633.931,2.153,2.153,0,1,0,4.071,1.4,2.1,2.1,0,0,0,.075-1.123l3.312,1.139a2.1,2.1,0,0,0-.632.931,2.153,2.153,0,0,0,4.071,1.4,2.1,2.1,0,0,0,.074-1.123Z" transform="translate(-241.971 -113.191)" fill="#f0f0f0"/>
          <path id="Trazado_141260" data-name="Trazado 141260" d="M374.484,147.206,369.5,161.694l-98.888-34.015,4.983-14.487,3.324,1.143a2.1,2.1,0,0,0-.632.931,2.153,2.153,0,1,0,4.071,1.4,2.1,2.1,0,0,0,.074-1.123l3.312,1.139a2.1,2.1,0,0,0-.632.931,2.153,2.153,0,1,0,4.071,1.4,2.1,2.1,0,0,0,.074-1.123l3.312,1.139a2.1,2.1,0,0,0-.631.931,2.153,2.153,0,1,0,4.071,1.4,2.105,2.105,0,0,0,.074-1.123l3.312,1.139a2.1,2.1,0,0,0-.632.931,2.153,2.153,0,1,0,4.071,1.4,2.1,2.1,0,0,0,.074-1.123l3.312,1.139a2.1,2.1,0,0,0-.632.931,2.153,2.153,0,1,0,4.071,1.4,2.1,2.1,0,0,0,.075-1.123l3.312,1.139a2.1,2.1,0,0,0-.632.931,2.153,2.153,0,1,0,4.071,1.4,2.1,2.1,0,0,0,.074-1.123l3.312,1.139a2.1,2.1,0,0,0-.632.931,2.153,2.153,0,1,0,4.071,1.4,2.1,2.1,0,0,0,.074-1.123l3.312,1.139a2.1,2.1,0,0,0-.631.931,2.153,2.153,0,1,0,4.071,1.4,2.105,2.105,0,0,0,.074-1.123l3.312,1.139a2.1,2.1,0,0,0-.632.93,2.153,2.153,0,1,0,4.071,1.4,2.1,2.1,0,0,0,.074-1.123l3.312,1.139a2.107,2.107,0,0,0-.632.931,2.153,2.153,0,1,0,4.071,1.4,2.1,2.1,0,0,0,.075-1.123l3.312,1.139a2.1,2.1,0,0,0-.632.931,2.153,2.153,0,1,0,4.071,1.4,2.1,2.1,0,0,0,.074-1.123L354,140.159a2.1,2.1,0,0,0-.632.93,2.153,2.153,0,1,0,4.071,1.4,2.1,2.1,0,0,0,.074-1.123l3.312,1.139a2.1,2.1,0,0,0-.633.931,2.153,2.153,0,1,0,4.071,1.4,2.1,2.1,0,0,0,.075-1.123l3.312,1.139a2.1,2.1,0,0,0-.632.931,2.153,2.153,0,0,0,4.071,1.4,2.1,2.1,0,0,0,.074-1.123Z" transform="translate(-251.145 -113.191)" fill="#e0e0e0"/>
          <g id="Grupo_87083" data-name="Grupo 87083" transform="translate(7.246 28.147)">
            <g id="Grupo_87079" data-name="Grupo 87079" transform="translate(38.55 0)">
              <rect id="Rectángulo_30597" data-name="Rectángulo 30597" width="11.456" height="11.456" transform="translate(3.726 0) rotate(18.982)" fill="#fafafa"/>
              <rect id="Rectángulo_30598" data-name="Rectángulo 30598" width="11.456" height="11.456" transform="translate(16.679 4.455) rotate(18.982)" fill="#fafafa"/>
              <rect id="Rectángulo_30599" data-name="Rectángulo 30599" width="11.456" height="11.456" transform="translate(29.631 8.911) rotate(18.982)" fill="#fafafa"/>
              <rect id="Rectángulo_30600" data-name="Rectángulo 30600" width="11.456" height="11.456" transform="translate(42.584 13.366) rotate(18.982)" fill="#fafafa"/>
              <rect id="Rectángulo_30601" data-name="Rectángulo 30601" width="11.456" height="11.456" transform="translate(55.536 17.821) rotate(18.982)" fill="#fafafa"/>
            </g>
            <g id="Grupo_87080" data-name="Grupo 87080" transform="translate(8.43 3.343)">
              <rect id="Rectángulo_30602" data-name="Rectángulo 30602" width="11.456" height="11.456" transform="matrix(0.946, 0.325, -0.325, 0.946, 3.726, 0)" fill="#fafafa"/>
              <rect id="Rectángulo_30603" data-name="Rectángulo 30603" width="11.456" height="11.456" transform="translate(16.679 4.455) rotate(18.982)" fill="#fafafa"/>
              <rect id="Rectángulo_30604" data-name="Rectángulo 30604" width="11.456" height="11.456" transform="matrix(0.946, 0.325, -0.325, 0.946, 29.631, 8.911)" fill="#fafafa"/>
              <rect id="Rectángulo_30605" data-name="Rectángulo 30605" width="11.456" height="11.456" transform="matrix(0.946, 0.325, -0.325, 0.946, 42.584, 13.366)" fill="#fafafa"/>
              <rect id="Rectángulo_30606" data-name="Rectángulo 30606" width="11.456" height="11.456" transform="translate(55.536 17.821) rotate(18.982)" fill="#fafafa"/>
              <rect id="Rectángulo_30607" data-name="Rectángulo 30607" width="11.456" height="11.456" transform="translate(68.489 22.277) rotate(18.982)" fill="#fafafa"/>
              <rect id="Rectángulo_30608" data-name="Rectángulo 30608" width="11.456" height="11.456" transform="translate(81.441 26.732) rotate(18.982)" fill="#fafafa"/>
            </g>
            <g id="Grupo_87081" data-name="Grupo 87081" transform="translate(4.215 15.598)">
              <rect id="Rectángulo_30609" data-name="Rectángulo 30609" width="11.456" height="11.456" transform="translate(3.726 0) rotate(18.982)" fill="#fafafa"/>
              <rect id="Rectángulo_30610" data-name="Rectángulo 30610" width="11.456" height="11.456" transform="translate(16.679 4.455) rotate(18.982)" fill="#fafafa"/>
              <rect id="Rectángulo_30611" data-name="Rectángulo 30611" width="11.456" height="11.456" transform="matrix(0.946, 0.325, -0.325, 0.946, 29.631, 8.911)" fill="#fafafa"/>
              <rect id="Rectángulo_30612" data-name="Rectángulo 30612" width="11.456" height="11.456" transform="translate(42.584 13.366) rotate(18.982)" fill="#fafafa"/>
              <rect id="Rectángulo_30613" data-name="Rectángulo 30613" width="11.456" height="11.456" transform="matrix(0.946, 0.325, -0.325, 0.946, 55.536, 17.821)" fill="#fafafa"/>
              <rect id="Rectángulo_30614" data-name="Rectángulo 30614" width="11.456" height="11.456" transform="translate(68.489 22.277) rotate(18.982)" fill="#fafafa"/>
              <rect id="Rectángulo_30615" data-name="Rectángulo 30615" width="11.456" height="11.456" transform="translate(81.441 26.732) rotate(18.982)" fill="#fafafa"/>
            </g>
            <g id="Grupo_87082" data-name="Grupo 87082" transform="translate(0 27.852)">
              <rect id="Rectángulo_30616" data-name="Rectángulo 30616" width="11.456" height="11.456" transform="translate(3.726 0) rotate(18.982)" fill="#fafafa"/>
              <rect id="Rectángulo_30617" data-name="Rectángulo 30617" width="11.456" height="11.456" transform="translate(16.679 4.455) rotate(18.982)" fill="#fafafa"/>
              <rect id="Rectángulo_30618" data-name="Rectángulo 30618" width="11.456" height="11.456" transform="translate(29.631 8.911) rotate(18.982)" fill="#fafafa"/>
              <rect id="Rectángulo_30619" data-name="Rectángulo 30619" width="11.456" height="11.456" transform="translate(42.584 13.366) rotate(18.982)" fill="#fafafa"/>
              <rect id="Rectángulo_30620" data-name="Rectángulo 30620" width="11.456" height="11.456" transform="translate(55.536 17.821) rotate(18.982)" fill="#fafafa"/>
              <rect id="Rectángulo_30621" data-name="Rectángulo 30621" width="11.456" height="11.456" transform="translate(68.489 22.277) rotate(18.982)" fill="#fafafa"/>
            </g>
          </g>
          <line id="Línea_1852" data-name="Línea 1852" x2="7.107" y2="14.559" transform="translate(58.26 44.856)" fill="none" stroke="#e0e0e0" stroke-linecap="round" stroke-linejoin="round" stroke-width="3"/>
          <line id="Línea_1853" data-name="Línea 1853" x1="14.559" y2="7.107" transform="translate(54.534 48.583)" fill="none" stroke="#e0e0e0" stroke-linecap="round" stroke-linejoin="round" stroke-width="3"/>
        </g>
        <g id="Grupo_87085" data-name="Grupo 87085">
          <path id="Trazado_141261" data-name="Trazado 141261" d="M80.829,147.259v4.509l2.321.218a12.04,12.04,0,0,0,1.732,4.165l-1.491,1.8,3.188,3.188,1.8-1.491a12.044,12.044,0,0,0,4.165,1.731l.219,2.322h4.509l.218-2.322a12.039,12.039,0,0,0,4.165-1.731l1.8,1.491,3.188-3.188-1.491-1.8a12.039,12.039,0,0,0,1.731-4.165l2.322-.218v-4.509l-2.322-.219a12.038,12.038,0,0,0-1.731-4.165l1.491-1.8-3.188-3.188-1.8,1.491a12.052,12.052,0,0,0-4.165-1.731l-.218-2.322H92.763l-.219,2.322a12.058,12.058,0,0,0-4.165,1.731l-1.8-1.491-3.188,3.188,1.491,1.8a12.04,12.04,0,0,0-1.732,4.165Zm14.189-3.849a6.1,6.1,0,1,1-6.1,6.1A6.1,6.1,0,0,1,95.018,143.41Z" transform="translate(-80.829 -118.424)" fill="#ebebeb"/>
          <path id="Trazado_141262" data-name="Trazado 141262" d="M224.957,290.914a20.808,20.808,0,0,0,7.189-2.989l3.109,2.573,5.5-5.5-2.574-3.109a20.791,20.791,0,0,0,2.989-7.188l4.007-.378v-7.782l-4.007-.377a20.783,20.783,0,0,0-2.989-7.189l2.574-3.11-5.5-5.5-3.109,2.573a20.808,20.808,0,0,0-7.189-2.989l-.377-4.007H216.8l-.377,4.007a20.807,20.807,0,0,0-7.189,2.989l-3.109-2.573-5.5,5.5,2.574,3.11a20.783,20.783,0,0,0-2.989,7.189l-4.007.377v7.782l4.007.378a20.79,20.79,0,0,0,2.989,7.188L200.62,285l5.5,5.5,3.109-2.573a20.807,20.807,0,0,0,7.189,2.989l.377,4.007h7.783Zm-14.8-20.484a10.535,10.535,0,1,1,10.535,10.535A10.535,10.535,0,0,1,210.153,270.43Z" transform="translate(-117.781 -153.854)" fill="#e0e0e0"/>
          <path id="Trazado_141263" data-name="Trazado 141263" d="M104.507,353.184l1.185.982,2.1-2.1-.981-1.185a7.917,7.917,0,0,0,1.139-2.741l1.529-.143v-2.968l-1.529-.144a7.922,7.922,0,0,0-1.139-2.741l.981-1.185-2.1-2.1-1.185.981a7.933,7.933,0,0,0-2.741-1.14l-.144-1.528H98.654L98.51,338.7a7.929,7.929,0,0,0-2.741,1.14l-1.185-.981-2.1,2.1.981,1.185a7.937,7.937,0,0,0-1.14,2.741l-1.528.144V348l1.528.143a7.931,7.931,0,0,0,1.14,2.741l-.981,1.185,2.1,2.1,1.185-.982a7.927,7.927,0,0,0,2.741,1.139l.144,1.528h2.968l.144-1.528A7.919,7.919,0,0,0,104.507,353.184Zm-8.386-6.671a4.017,4.017,0,1,1,4.018,4.017A4.017,4.017,0,0,1,96.12,346.512Z" transform="translate(-84.022 -183.075)" fill="#e6e6e6"/>
          <path id="Trazado_141264" data-name="Trazado 141264" d="M232.21,127.7l.687.569,1.216-1.216-.569-.687a4.576,4.576,0,0,0,.66-1.588l.886-.083v-1.72l-.885-.084a4.6,4.6,0,0,0-.661-1.588l.569-.686L232.9,119.4l-.687.569a4.587,4.587,0,0,0-1.588-.661l-.084-.886h-1.72l-.083.886a4.584,4.584,0,0,0-1.588.661l-.687-.569-1.216,1.216.569.686a4.6,4.6,0,0,0-.661,1.588l-.885.084v1.72l.885.083a4.589,4.589,0,0,0,.661,1.588l-.569.687,1.216,1.216.687-.569a4.6,4.6,0,0,0,1.588.66l.083.886h1.72l.084-.886A4.6,4.6,0,0,0,232.21,127.7Zm-4.859-3.865a2.328,2.328,0,1,1,2.328,2.327A2.328,2.328,0,0,1,227.351,123.834Z" transform="translate(-126.771 -113.011)" fill="#f5f5f5"/>
          <path id="Trazado_141265" data-name="Trazado 141265" d="M385.536,119.738l.687.569,1.216-1.216-.569-.687a4.581,4.581,0,0,0,.66-1.588l.886-.084v-1.719l-.885-.084a4.59,4.59,0,0,0-.661-1.588l.569-.687-1.216-1.216-.687.569a4.6,4.6,0,0,0-1.588-.66l-.084-.886h-1.72l-.084.886a4.585,4.585,0,0,0-1.588.66l-.687-.569-1.216,1.216.569.687a4.589,4.589,0,0,0-.661,1.588l-.885.084v1.719l.885.084a4.6,4.6,0,0,0,.661,1.588l-.569.687,1.216,1.216.687-.569a4.587,4.587,0,0,0,1.588.661l.084.886h1.72l.084-.886A4.587,4.587,0,0,0,385.536,119.738Zm-4.859-3.866a2.328,2.328,0,1,1,2.328,2.328A2.328,2.328,0,0,1,380.677,115.872Z" transform="translate(-175.881 -110.461)" fill="#f0f0f0"/>
          <path id="Trazado_141266" data-name="Trazado 141266" d="M415.69,276.585l1.185.982,2.1-2.1-.982-1.185a7.934,7.934,0,0,0,1.14-2.741l1.528-.144v-2.968l-1.528-.144a7.934,7.934,0,0,0-1.14-2.741l.982-1.186-2.1-2.1-1.185.982a7.937,7.937,0,0,0-2.741-1.14l-.144-1.528h-2.968l-.143,1.527a7.932,7.932,0,0,0-2.741,1.14l-1.185-.982-2.1,2.1.982,1.186a7.918,7.918,0,0,0-1.139,2.741l-1.528.144V271.4l1.528.144a7.919,7.919,0,0,0,1.139,2.741l-.982,1.185,2.1,2.1,1.185-.982a7.931,7.931,0,0,0,2.741,1.14l.143,1.528H412.8l.144-1.529A7.923,7.923,0,0,0,415.69,276.585Zm-8.386-6.671a4.017,4.017,0,1,1,4.017,4.017A4.017,4.017,0,0,1,407.3,269.913Z" transform="translate(-183.692 -158.541)" fill="#ebebeb"/>
          <path id="Trazado_141267" data-name="Trazado 141267" d="M292.012,366.918l1.874,1.552,3.318-3.318-1.552-1.874a12.519,12.519,0,0,0,1.8-4.333l2.416-.228v-4.691l-2.416-.228a12.533,12.533,0,0,0-1.8-4.334l1.552-1.875-3.318-3.318-1.874,1.552a12.552,12.552,0,0,0-4.334-1.8l-.228-2.416h-4.692l-.227,2.415a12.543,12.543,0,0,0-4.334,1.8l-1.875-1.552-3.318,3.318,1.552,1.875a12.526,12.526,0,0,0-1.8,4.334l-2.415.228v4.691l2.415.228a12.547,12.547,0,0,0,1.8,4.333l-1.552,1.874,3.318,3.318,1.875-1.552a12.53,12.53,0,0,0,4.334,1.8l.227,2.416h4.692l.228-2.416A12.526,12.526,0,0,0,292.012,366.918Zm-13.258-10.548a6.351,6.351,0,1,1,6.351,6.352A6.351,6.351,0,0,1,278.753,356.371Z" transform="translate(-141.528 -184.495)" fill="#f0f0f0"/>
        </g>
      </g>
    </g>
    <g id="Hourglass" transform="translate(79.015 162.108)">
      <g id="Grupo_87094" data-name="Grupo 87094" transform="translate(0 0)">
        <g id="Grupo_87087" data-name="Grupo 87087">
          <path id="Trazado_141268" data-name="Trazado 141268" d="M122.792,192.265c-21.98,3.8-39.155,10.6-38.361,15.2l.368,2.132h0c.795,4.592,19.256,5.233,41.236,1.432s39.154-10.6,38.36-15.2l-.368-2.132C163.233,189.1,144.772,188.464,122.792,192.265Z" transform="translate(-83.362 -187.515)" fill="#ff9d00"/>
          <ellipse id="Elipse_4244" data-name="Elipse 4244" cx="40.389" cy="8.438" rx="40.389" ry="8.438" transform="translate(0 13.765) rotate(-9.811)" fill="#fff" opacity="0.2"/>
          <path id="Trazado_141269" data-name="Trazado 141269" d="M126.382,202.2c-19.68,3.4-35.059,9.5-34.347,13.607l.614,3.553h0c.711,4.112,17.241,4.686,36.922,1.283s35.059-9.5,34.348-13.607h0l-.614-3.554C162.593,199.375,146.063,198.8,126.382,202.2Z" transform="translate(-85.798 -190.781)" fill="url(#linear-gradient)"/>
          <ellipse id="Elipse_4245" data-name="Elipse 4245" cx="36.164" cy="7.555" rx="36.164" ry="7.555" transform="matrix(0.985, -0.17, 0.17, 0.985, 5.563, 21.139)" fill="#a66d58" opacity="0.2"/>
        </g>
        <g id="Grupo_87088" data-name="Grupo 87088" transform="translate(11.025 16.574)">
          <path id="Trazado_141270" data-name="Trazado 141270" d="M149.195,259.637a6.293,6.293,0,0,1-1.7-9.841c7.975-8.678,17.627-22.5,15.174-36.68-.526-3.042-15.182-3.048-32.734-.014s-31.355,7.963-30.828,11.006c2.452,14.183,16.185,23.958,26.611,29.454a6.293,6.293,0,0,1,1.7,9.841c-7.975,8.678-17.627,22.5-15.174,36.68.527,3.042,15.182,3.049,32.734.013s31.355-7.962,30.829-11.005C173.353,274.908,159.621,265.133,149.195,259.637Z" transform="translate(-99.091 -210.829)" fill="#407bff"/>
          <path id="Trazado_141271" data-name="Trazado 141271" d="M149.195,259.637a6.293,6.293,0,0,1-1.7-9.841c7.975-8.678,17.627-22.5,15.174-36.68-.526-3.042-15.182-3.048-32.734-.014s-31.355,7.963-30.828,11.006c2.452,14.183,16.185,23.958,26.611,29.454a6.293,6.293,0,0,1,1.7,9.841c-7.975,8.678-17.627,22.5-15.174,36.68.527,3.042,15.182,3.049,32.734.013s31.355-7.962,30.829-11.005C173.353,274.908,159.621,265.133,149.195,259.637Z" transform="translate(-99.091 -210.829)" fill="#fff" opacity="0.8"/>
        </g>
        <g id="Grupo_87089" data-name="Grupo 87089" transform="translate(25.501 85.977)">
          <path id="Trazado_141272" data-name="Trazado 141272" d="M181.067,322.61c.315,3.187-56.227,14.194-59.983,9.3a3.958,3.958,0,0,1-.423-3.768,10.728,10.728,0,0,1,1.688-3.133c1.744-2.365,5.6-3.4,8.209-4.356,1.761-.642,3.538-1.236,5.311-1.849,1.9-.659,3.857-.2,5.512-1.647.99-.866,1.731-2.147,3.007-2.463.941-.232,1.954.14,2.885-.11,1.211-.324,2.075-1.627,3.326-1.652a7.871,7.871,0,0,1,1.809.445,11.357,11.357,0,0,0,3.317-.23,13.769,13.769,0,0,1,3.283.234,100.183,100.183,0,0,0,10.211,1.406c2.526.137,5.318.074,7.776.77a4.7,4.7,0,0,1,2.5,2.2l.007,0A11.75,11.75,0,0,1,181.067,322.61Z" transform="translate(-120.388 -312.937)" fill="#263238"/>
          <path id="Trazado_141273" data-name="Trazado 141273" d="M182.025,317.008c.049.024.009.012-.112-.025A.415.415,0,0,1,182.025,317.008Z" transform="translate(-140.094 -314.233)" fill="#fff" opacity="0.2"/>
          <path id="Trazado_141274" data-name="Trazado 141274" d="M179.625,317.768c-1.564-1.418-4.451-1.319-5.281-1.259s-1.119-.648-1.75-.875a23.933,23.933,0,0,0-4.321.244s1.389.262,1.645.709c.232.425,1.837-.063,2.043-.124-.215.12-2.1,1.115-2.995.511-.951-.638-1.255.517-1.962.8a8.579,8.579,0,0,1-3.295-.118,29.51,29.51,0,0,0-3.195-.021,4.612,4.612,0,0,1,1.817-.652c.6.069,2.987-1.185,2.5-1.1s-1.607-.563-2.475-.833a11.794,11.794,0,0,0-3.156.2,10.341,10.341,0,0,1,3.126.434,14.824,14.824,0,0,0-2.035.644,6.651,6.651,0,0,1-1.874.324,2.6,2.6,0,0,0-1.264.977,19.929,19.929,0,0,1-2.363.409,5.63,5.63,0,0,1-2.315-.275l2.147-.7-.731-.211a8.508,8.508,0,0,0-1.552-.362c-.866-.143-1.227.677-1.44.88a6.708,6.708,0,0,1-2.628-.131c-.532-.163-4.454,1.464-4.454,1.464l2.449-.423a6.008,6.008,0,0,0,2.011.468c1.637.22,1.874-.324,2.558-.277s2.968.665,2.968.665l-.883.236a8.6,8.6,0,0,1-2.352-.014,4.452,4.452,0,0,0-2.5.6,20.491,20.491,0,0,1-3.194.463,3.643,3.643,0,0,0-2.242,1.1,2.78,2.78,0,0,1-2.826.674c-1.234-.321-3.322,1.193-3.322,1.193s1.093-1.451,1.662-1.549a15.777,15.777,0,0,0,2.555-1.283,5.285,5.285,0,0,0-.91.075,2.268,2.268,0,0,1-1.694-.548c-.667-.47-1.361-.1-2.363.409s-2.074,1.117-3.126.375-4.279,1.995-4.279,1.995a12.011,12.011,0,0,0,2.141-.733c.3-.243.508.027,1.461.2s1.262-.473,1.729-.719,1.875.166,1.875.166a2.069,2.069,0,0,1-1.061.2c-.518-.082-1.349,1.406-1.633,1.244a6.5,6.5,0,0,0-3.1.536c-.848.433-2.1,1.917-3.358,1.466-1.067-.389-3.477,2.881-5.591,2.922a10.727,10.727,0,0,1,1.688-3.133c1.744-2.365,5.6-3.4,8.209-4.356,1.761-.642,3.538-1.236,5.311-1.849,1.9-.659,3.857-.2,5.512-1.647.99-.866,1.731-2.147,3.007-2.463.941-.232,1.954.14,2.885-.11,1.211-.324,2.075-1.627,3.326-1.652a7.871,7.871,0,0,1,1.809.445,11.357,11.357,0,0,0,3.317-.23,13.77,13.77,0,0,1,3.283.234,100.181,100.181,0,0,0,10.211,1.406c2.526.137,5.318.074,7.776.77A4.7,4.7,0,0,1,179.625,317.768Z" transform="translate(-120.517 -312.937)" fill="#fff" opacity="0.2"/>
        </g>
        <g id="Grupo_87091" data-name="Grupo 87091" transform="translate(17.718 92.603)">
          <path id="Trazado_141275" data-name="Trazado 141275" d="M147.6,324.9c-19.681,3.4-35.059,9.495-34.348,13.606l.614,3.554h0c.711,4.112,17.241,4.685,36.922,1.282s35.058-9.5,34.347-13.607h0l-.614-3.553C183.811,322.074,167.281,321.5,147.6,324.9Z" transform="translate(-110.312 -322.684)" fill="url(#linear-gradient)"/>
          <path id="Trazado_141276" data-name="Trazado 141276" d="M147.325,334.131c-21.98,3.8-39.155,10.6-38.361,15.2l.368,2.132h0c.795,4.592,19.256,5.233,41.236,1.432s39.154-10.6,38.36-15.2l-.368-2.132C187.766,330.971,169.3,330.33,147.325,334.131Z" transform="translate(-108.938 -325.556)" fill="#ff9d00"/>
          <g id="Grupo_87090" data-name="Grupo 87090" transform="translate(0 6.096)">
            <path id="Trazado_141277" data-name="Trazado 141277" d="M127.413,366.441c-.547-.019-1.075-.046-1.593-.076C126.338,366.4,126.866,366.422,127.413,366.441Z" transform="translate(-114.345 -342.77)" fill="#fff" opacity="0.2"/>
            <path id="Trazado_141278" data-name="Trazado 141278" d="M181.99,360.585l-.142.031Z" transform="translate(-132.291 -340.919)" fill="#fff" opacity="0.2"/>
            <path id="Trazado_141279" data-name="Trazado 141279" d="M115.7,364.961q.329.087.68.167Q116.03,365.048,115.7,364.961Z" transform="translate(-111.104 -342.32)" fill="#fff" opacity="0.2"/>
            <path id="Trazado_141280" data-name="Trazado 141280" d="M147.325,334.131c-21.98,3.8-39.155,10.6-38.361,15.2l.368,2.132a2.764,2.764,0,0,0,1.5,1.792,2.764,2.764,0,0,1-1.5-1.792c-.794-4.591,16.381-11.4,38.361-15.2s40.441-3.16,41.236,1.431h0l-.368-2.132C187.766,330.971,169.3,330.33,147.325,334.131Z" transform="translate(-108.938 -331.651)" fill="#fff" opacity="0.2"/>
          </g>
        </g>
        <g id="Grupo_87092" data-name="Grupo 87092" transform="translate(33.847 59.698)">
          <path id="Trazado_141281" data-name="Trazado 141281" d="M151.568,274.277c-.434,3.394-1.676,8.545-2.235,11.98s1.117,8.752,1.614,10.366,3.844,1.351,3.714,2.641,5,1.5,5,1.5-24.07,9.512-26.483,8.91,4.51-5.359,5.845-5.669,2.06-1.138,2.938-3.042,1.822-1.56,2.757-3.47a42.18,42.18,0,0,0,2.255-4.413c1.071-2.652,1.992-10.8.875-11.484-1.163-.71-.108,6.242-1.068,6.474s1.254-6.852-1.674-10.428S151.568,274.277,151.568,274.277Z" transform="translate(-132.668 -274.274)" fill="#263238"/>
          <path id="Trazado_141282" data-name="Trazado 141282" d="M159.658,300.768s-24.07,9.515-26.48,8.912c-2.221-.553,3.458-4.625,5.423-5.517.132,1.4,3.9-.032,5.4-.86s1.613-.226,2.166-.471a32.213,32.213,0,0,0,4.286-3.232c-.433.125-3.539,2.422-4.286,1.675s-1.983.684-2.912,1.117c-.8.383-1-.082-1.67-.659.126-.232.251-.489.377-.765.879-1.9,1.82-1.563,2.756-3.471a42.407,42.407,0,0,0,2.253-4.412c1.073-2.655,2-10.8.879-11.486-1.162-.709-.107,6.245-1.067,6.471s1.249-6.847-1.676-10.425,6.465-3.371,6.465-3.371c-.433,3.4-1.675,8.549-2.234,11.982a20.679,20.679,0,0,0,.822,7.6c-.157.558-.377,1.066-.634,1.148-.621.189-1.054,2.3-1.864,2.36s-.126,1.55.992.935c.74-.408,1.908-.659,2.73-1.035,1.048.928,3.4.916,3.283,2C154.53,300.555,159.658,300.768,159.658,300.768Z" transform="translate(-132.669 -274.274)" fill="#fff" opacity="0.2"/>
        </g>
        <g id="Grupo_87093" data-name="Grupo 87093" transform="translate(25.101 39.877)">
          <path id="Trazado_141283" data-name="Trazado 141283" d="M160.5,249.4c-.119.194-.22.351-.282.464a56.992,56.992,0,0,1-3.076,4.883,30.383,30.383,0,0,1-3.69,4.67c-1.306,1.255-2.636,1.845-3.42,3.352a5.188,5.188,0,0,0-.44,1.173c-.288,1.136-.377,2.5-1.368,3.138a4.629,4.629,0,0,0-.7.421c-.5.427-.47,1.174-.6,1.813s-.747,1.337-1.325,1.042c-.489-.251-.633-1.092-1.186-1.06a2.144,2.144,0,0,0-.4.125c-.558.145-1.073-.295-1.5-.672s-1.042-.74-1.532-.445a27.522,27.522,0,0,0-4.851-3.552c-1.419-.854-2.887-1.626-4.425-2.454-3.414-1.845-7.344-3.672-9.722-5.548a6.779,6.779,0,0,1-1.9-2.1,2.8,2.8,0,0,1-.276-.879c-.389-3.358,10-4.356,13.6-6.86s9.213-.9,11.573-1.419,5.014.22,7.506.031,4.035-.9,5.485.157,3.07.741,3.377,1.55C161.535,247.72,160.92,248.737,160.5,249.4Z" transform="translate(-119.8 -245.113)" fill="#263238"/>
          <path id="Trazado_141284" data-name="Trazado 141284" d="M157.472,249.033c-2.153-.414,2.234-.5,1.9-.747a5.518,5.518,0,0,0-3.8-.991c-2.4.081-4.388-.082-4.9,0s1.663.746,1.663.746h-5.623c-1.82,0,1.242-.746,1.242-.746h-9.439c.251,0,2.071,1.079.992,1.079a11.739,11.739,0,0,0-3.722,1.155,25.385,25.385,0,0,1-3.641,1.161,45.333,45.333,0,0,1,3.628-2.894c-.226.094-3.264,1.331-4.538,1.733-1.325.414-4.72,1.575-5.053,1.656a14.651,14.651,0,0,0,1.908,0,17.127,17.127,0,0,1-3.891,1.488c-.992.126-3.371.941-3.98,2.667a6.778,6.778,0,0,0,1.9,2.1c2.378,1.876,6.308,3.7,9.722,5.548,1.537.829,3.006,1.6,4.425,2.454A27.521,27.521,0,0,1,141.116,269c.49-.295,1.105.069,1.532.445s.941.816,1.5.672a2.144,2.144,0,0,1,.4-.125c.553-.031.7.81,1.186,1.06.578.295,1.193-.408,1.325-1.042s.107-1.387.6-1.813a4.627,4.627,0,0,1,.7-.421c.992-.633,1.08-2,1.368-3.138a5.189,5.189,0,0,1,.44-1.173c.784-1.506,2.115-2.1,3.42-3.352a30.388,30.388,0,0,0,3.69-4.67,57,57,0,0,0,3.076-4.883C159.587,249.271,159.625,249.447,157.472,249.033Zm-30.747,8.774c-.722-.084,1.614-.807,1.614-.807A1.749,1.749,0,0,1,126.725,257.806Zm.434-2.793s1.179-.931,1.676-.869a9.981,9.981,0,0,0,1.427,0S128.4,255.386,127.16,255.014Zm9.373,7.263c-.848-.159.9-.683,1.319-.559S137.526,262.462,136.533,262.276Zm4.2-9.5s-3.6,1.056-2.876,1.056h1.35c-.249,0-3.973.812-4.159.778a17.88,17.88,0,0,1,2.215-1.255s-.263-.33-.246-.455.84-.372.84-.372a2.675,2.675,0,0,1,2.095-.311,4.813,4.813,0,0,0,1.8.311Zm1.516,7.387c-1.007-.916,1.98,0,1.98,0S142.926,260.786,142.244,260.166Zm1.614-9.87c1.366-.93,1.7,0,1.7,0S143.416,250.6,143.857,250.3Zm4.708,3.6-1.046-.538a3.929,3.929,0,0,1,1.427-.517,3.43,3.43,0,0,1,1.924.517C151.244,253.585,148.929,254.082,148.566,253.9Zm2.678,4.566s-1.676-.034-1.836,0a13.708,13.708,0,0,1,1.836-.644Zm2.6-6.718s1.192-.256,1.75.358C156.342,252.93,153.839,251.744,153.839,251.744Z" transform="translate(-119.935 -245.804)" fill="#fff" opacity="0.2"/>
        </g>
      </g>
    </g>
    <g id="Paper_stack" data-name="Paper stack" transform="translate(231.327 200.708)">
      <g id="Grupo_87097" data-name="Grupo 87097" transform="translate(0 0)">
        <g id="Grupo_87095" data-name="Grupo 87095" transform="translate(1.557)">
          <path id="Trazado_141285" data-name="Trazado 141285" d="M316.241,346.311l5.477,1.65h29.961l.662-12.006-5.794-2.483s1.075-9.281,2.814-19.223l3.973-.125,8.442-33.289-4.8-2.075,3.476-11.028h5.214l5.559-15.475s-19.976-7.963-31.886-9.018l-10.668,1.79-.745,13.894-8.691,1.146-1.71,14.973,6.18,1.064-3.973,31.808-8.929,2.512-1.557,21.9,7.774,1.6Z" transform="translate(-309.247 -243.235)" fill="#afafaf"/>
          <path id="Trazado_141287" data-name="Trazado 141287" d="M356,378.473l-29.63.828-5.686-2.862,6.515,1.2,23.009-1.657Z" transform="translate(-312.911 -285.754)" fill="#fff" opacity="0.4"/>
          <path id="Trazado_141288" data-name="Trazado 141288" d="M350.074,344.727l-21.433.063-17.159-3.358.038-.533,8.931-2.51,9.433,5.655Z" transform="translate(-309.963 -273.711)" fill="#fff" opacity="0.4"/>
          <path id="Trazado_141289" data-name="Trazado 141289" d="M360.879,293.063l-26.442-2.586-6.828-.069-6.182-1.061,12.634-1.45Z" transform="translate(-313.148 -257.539)" opacity="0.2" style="isolation: isolate"/>
          <path id="Trazado_141290" data-name="Trazado 141290" d="M374.466,274.373h-5.209l-20.862-9.534-11.668.722,12.308-1.588Z" transform="translate(-318.048 -249.877)" opacity="0.2" style="isolation: isolate"/>
          <path id="Trazado_141291" data-name="Trazado 141291" d="M348.143,243.234l.891,14.1-12.308,1.588.747-13.889Z" transform="translate(-318.048 -243.234)" fill="#fff" opacity="0.2"/>
          <path id="Trazado_141292" data-name="Trazado 141292" d="M334.06,280.983l3.4-14.674-14.317,1.149-1.713,14.975Z" transform="translate(-313.148 -250.625)" fill="#fff" opacity="0.2"/>
          <path id="Trazado_141293" data-name="Trazado 141293" d="M328.649,291.591l12.95.668-7.489,36.8-9.433-5.655Z" transform="translate(-314.189 -258.722)" fill="#fff" opacity="0.2"/>
          <path id="Trazado_141294" data-name="Trazado 141294" d="M310.766,342.866l17.159,3.358L324.46,366.97l-15.213-2.733Z" transform="translate(-309.247 -275.146)" fill="#fff" opacity="0.2"/>
          <path id="Trazado_141295" data-name="Trazado 141295" d="M326,379.516l-.992,11.178-5.479-1.651.783-12.387Z" transform="translate(-312.541 -285.968)" fill="#fff" opacity="0.2"/>
        </g>
        <path id="Trazado_141296" data-name="Trazado 141296" d="M313.4,349.691l15.069,3.43,17.754-.782-16.967,3.807Z" transform="translate(-309.02 -277.332)" fill="#407bff"/>
        <path id="Trazado_141297" data-name="Trazado 141297" d="M319.043,381.974l5.548,3.4H338l-16.273,1.3-5.453-3.724Z" transform="translate(-309.94 -287.671)" fill="#407bff"/>
        <path id="Trazado_141298" data-name="Trazado 141298" d="M337.125,391.859h23.688l2.733,2.054Z" transform="translate(-316.619 -290.838)" fill="#407bff"/>
        <path id="Trazado_141299" data-name="Trazado 141299" d="M322.6,361.031l-13.265-3.714-2.378,1.273Z" transform="translate(-306.956 -279.774)" fill="#407bff"/>
        <path id="Trazado_141300" data-name="Trazado 141300" d="M335.814,369.646l19.94-1.711,2.113.855Z" transform="translate(-316.199 -283.175)" fill="#407bff"/>
        <path id="Trazado_141301" data-name="Trazado 141301" d="M345.011,338.025l21.548-.771,1.874,1.585Z" transform="translate(-319.145 -273.348)" fill="#407bff"/>
        <path id="Trazado_141302" data-name="Trazado 141302" d="M353.023,328.865l-17.709-2.012-10.924-4.071h-3.7l13.039,5.462Z" transform="translate(-311.354 -268.712)" fill="#407bff"/>
        <path id="Trazado_141303" data-name="Trazado 141303" d="M332.253,308.352l8.936,3.215,27.874,2.248-2.516-1.871-25.622-1.608Z" transform="translate(-315.059 -264.091)" fill="#407bff"/>
        <path id="Trazado_141304" data-name="Trazado 141304" d="M330.877,280.956l-12.414.621,3.075,1.49Z" transform="translate(-310.642 -255.316)" fill="#407bff"/>
        <path id="Trazado_141305" data-name="Trazado 141305" d="M329.053,272.876l9.437-1.253,24.333,8.454-24.457-6.331Z" transform="translate(-314.034 -252.327)" fill="#407bff"/>
        <path id="Trazado_141306" data-name="Trazado 141306" d="M359.809,262.614l-14.525-7.842-14.4,4.514,4.243,1.138,12.037-1.731Z" transform="translate(-314.62 -246.929)" fill="#407bff"/>
        <path id="Trazado_141307" data-name="Trazado 141307" d="M366.864,258.307l21.85,9.051h-2.727Z" transform="translate(-326.144 -248.062)" fill="#407bff"/>
        <path id="Trazado_141308" data-name="Trazado 141308" d="M356.636,248.262l10.925,1.241,17.018,9.438S362.6,249.379,356.636,248.262Z" transform="translate(-322.868 -244.844)" fill="#407bff"/>
        <path id="Trazado_141309" data-name="Trazado 141309" d="M328.551,297.576l5.4,1.366-7.631-.683Z" transform="translate(-313.157 -260.639)" fill="#407bff"/>
        <g id="Grupo_87096" data-name="Grupo 87096" transform="translate(0 3.418)">
          <path id="Trazado_141310" data-name="Trazado 141310" d="M313.4,349.691l15.069,3.43,17.754-.782-16.967,3.807Z" transform="translate(-309.02 -280.749)" fill="#fff" opacity="0.7"/>
          <path id="Trazado_141311" data-name="Trazado 141311" d="M319.043,381.974l5.548,3.4H338l-16.273,1.3-5.453-3.724Z" transform="translate(-309.94 -291.089)" fill="#fff" opacity="0.7"/>
          <path id="Trazado_141312" data-name="Trazado 141312" d="M337.125,391.859h23.688l2.733,2.054Z" transform="translate(-316.619 -294.255)" fill="#fff" opacity="0.7"/>
          <path id="Trazado_141313" data-name="Trazado 141313" d="M322.6,361.031l-13.265-3.714-2.378,1.273Z" transform="translate(-306.956 -283.191)" fill="#fff" opacity="0.7"/>
          <path id="Trazado_141314" data-name="Trazado 141314" d="M335.814,369.646l19.94-1.711,2.113.855Z" transform="translate(-316.199 -286.592)" fill="#fff" opacity="0.7"/>
          <path id="Trazado_141315" data-name="Trazado 141315" d="M345.011,338.025l21.548-.771,1.874,1.585Z" transform="translate(-319.145 -276.765)" fill="#fff" opacity="0.7"/>
          <path id="Trazado_141316" data-name="Trazado 141316" d="M353.023,328.865l-17.709-2.012-10.924-4.071h-3.7l13.039,5.462Z" transform="translate(-311.354 -272.13)" fill="#fff" opacity="0.7"/>
          <path id="Trazado_141317" data-name="Trazado 141317" d="M332.253,308.352l8.936,3.215,27.874,2.248-2.516-1.871-25.622-1.608Z" transform="translate(-315.059 -267.509)" fill="#fff" opacity="0.7"/>
          <path id="Trazado_141318" data-name="Trazado 141318" d="M330.877,280.956l-12.414.621,3.075,1.49Z" transform="translate(-310.642 -258.734)" fill="#fff" opacity="0.7"/>
          <path id="Trazado_141319" data-name="Trazado 141319" d="M329.053,272.876l9.437-1.253,24.333,8.454-24.457-6.331Z" transform="translate(-314.034 -255.744)" fill="#fff" opacity="0.7"/>
          <path id="Trazado_141320" data-name="Trazado 141320" d="M359.809,262.614l-14.525-7.842-14.4,4.514,4.243,1.138,12.037-1.731Z" transform="translate(-314.62 -250.347)" fill="#fff" opacity="0.7"/>
          <path id="Trazado_141321" data-name="Trazado 141321" d="M366.864,258.307l21.85,9.051h-2.727Z" transform="translate(-326.144 -251.479)" fill="#fff" opacity="0.7"/>
          <path id="Trazado_141322" data-name="Trazado 141322" d="M356.636,248.262l10.925,1.241,17.018,9.438S362.6,249.379,356.636,248.262Z" transform="translate(-322.868 -248.262)" fill="#fff" opacity="0.7"/>
          <path id="Trazado_141323" data-name="Trazado 141323" d="M328.551,297.576l5.4,1.366-7.631-.683Z" transform="translate(-313.157 -264.057)" fill="#fff" opacity="0.7"/>
        </g>
        <path id="Trazado_141324" data-name="Trazado 141324" d="M335.814,302.69l7.376,1.862,20.748,1.986-20.748-1.018Z" transform="translate(-316.199 -262.277)" opacity="0.1" style="isolation: isolate"/>
        <path id="Trazado_141325" data-name="Trazado 141325" d="M332.253,294.654l11.773.573L366.083,299l-22.749-2.359Z" transform="translate(-315.059 -259.703)" opacity="0.1" style="isolation: isolate"/>
        <path id="Trazado_141326" data-name="Trazado 141326" d="M327.595,284.287l9.239-1.457,23.412,5.43-23.606-4.593Z" transform="translate(-313.567 -255.916)" opacity="0.1" style="isolation: isolate"/>
        <path id="Trazado_141327" data-name="Trazado 141327" d="M330.883,278.065l7.788-.223,23.688,6.105-23.913-5.132Z" transform="translate(-314.62 -254.319)" opacity="0.1" style="isolation: isolate"/>
        <path id="Trazado_141328" data-name="Trazado 141328" d="M323.528,270.985l11.827-1.354-11.827,2.235Z" transform="translate(-312.264 -251.689)" opacity="0.1" style="isolation: isolate"/>
        <path id="Trazado_141329" data-name="Trazado 141329" d="M322.987,276.366h4.123l-4.123,1Z" transform="translate(-312.091 -253.846)" opacity="0.1" style="isolation: isolate"/>
        <path id="Trazado_141330" data-name="Trazado 141330" d="M337.544,250.178l11.077-1.917,14.811,5.34-14.678-4.1-11.21,1.428Z" transform="translate(-316.753 -244.844)" opacity="0.1" style="isolation: isolate"/>
        <path id="Trazado_141331" data-name="Trazado 141331" d="M385.77,272.657l-16.9-5.278,16.419,6.61Z" transform="translate(-326.788 -250.967)" opacity="0.1" style="isolation: isolate"/>
        <path id="Trazado_141332" data-name="Trazado 141332" d="M350.448,252.748l2.475-.558,26.946,8.684-26.829-7.795Z" transform="translate(-320.886 -246.102)" opacity="0.1" style="isolation: isolate"/>
        <path id="Trazado_141333" data-name="Trazado 141333" d="M395.225,256.689l-9.67-3.435,9.145,4.3Z" transform="translate(-332.131 -246.443)" opacity="0.1" style="isolation: isolate"/>
        <path id="Trazado_141334" data-name="Trazado 141334" d="M329.053,314.014l10.338,3.16,23.432,1.889-23.654-.8Z" transform="translate(-314.034 -265.904)" opacity="0.1" style="isolation: isolate"/>
        <path id="Trazado_141335" data-name="Trazado 141335" d="M325.769,328.383l10.408,4.018,23.484.534H336.068Z" transform="translate(-312.982 -270.507)" opacity="0.1" style="isolation: isolate"/>
        <path id="Trazado_141336" data-name="Trazado 141336" d="M355.983,341.682l-20.044-2.235-8.344-3.393,7.981,4.631Z" transform="translate(-313.567 -272.964)" opacity="0.1" style="isolation: isolate"/>
        <path id="Trazado_141337" data-name="Trazado 141337" d="M372,325.576c-.186-.067-16.159-.481-16.159-.481l15.909,1.469Z" transform="translate(-322.615 -269.454)" opacity="0.1" style="isolation: isolate"/>
        <path id="Trazado_141338" data-name="Trazado 141338" d="M311.035,345.186l17.135,3.739h12l-12.12.738-16.709-3.443Z" transform="translate(-308.263 -275.889)" opacity="0.1"/>
        <path id="Trazado_141339" data-name="Trazado 141339" d="M358.75,357.856c-.006.037-16.665,1.863-16.665,1.863l16.524-.931Z" transform="translate(-318.208 -279.947)" opacity="0.1"/>
        <path id="Trazado_141340" data-name="Trazado 141340" d="M316.269,356.143c-.222-.111,10.346,2.095,10.346,2.095S320.033,358.026,316.269,356.143Z" transform="translate(-309.938 -279.397)" opacity="0.1"/>
        <path id="Trazado_141341" data-name="Trazado 141341" d="M310.066,362.781l14.563,3.5L310.066,363.9Z" transform="translate(-307.952 -281.524)" opacity="0.1"/>
        <path id="Trazado_141342" data-name="Trazado 141342" d="M314.08,370.452l12.353,2.812,18.4-.371-18.4,1.321Z" transform="translate(-309.238 -283.981)" opacity="0.1"/>
        <path id="Trazado_141343" data-name="Trazado 141343" d="M338.676,365.358h12.911l-10.594.524Z" transform="translate(-317.116 -282.349)" opacity="0.1"/>
        <path id="Trazado_141344" data-name="Trazado 141344" d="M322.987,380.863l3.969,1.731s21.116-.172,20.733,0-20.815.918-20.815.918Z" transform="translate(-312.091 -287.316)" opacity="0.1"/>
        <path id="Trazado_141345" data-name="Trazado 141345" d="M359.164,388.9s-19.726.5-19.3.5h16.32Z" transform="translate(-317.495 -289.889)" opacity="0.1"/>
        <path id="Trazado_141346" data-name="Trazado 141346" d="M371.235,382.743s-3.233-.33-2.981,0a11.152,11.152,0,0,0,2.821.754Z" transform="translate(-326.585 -287.871)" opacity="0.1"/>
        <path id="Trazado_141347" data-name="Trazado 141347" d="M322.987,391.859l3.4.706,18.252,1.348-18.333-.437Z" transform="translate(-312.091 -290.838)" opacity="0.1"/>
      </g>
    </g>
    <g id="Character" transform="translate(121.51 132.489)">
      <g id="Grupo_87113" data-name="Grupo 87113" transform="translate(0 0)">
        <path id="Trazado_141348" data-name="Trazado 141348" d="M268.753,172.862c4.373,1.949,12.613,1.683,15.773-5.243s2.934-12.867-4.211-16.2-16.166.918-16.934,7.222S261.844,169.783,268.753,172.862Z" transform="translate(-183.027 -145.234)" fill="#263238"/>
        <g id="Grupo_87098" data-name="Grupo 87098" transform="translate(0 147.884)">
          <path id="Trazado_141349" data-name="Trazado 141349" d="M146.8,372.793a6.691,6.691,0,0,0,1.023-2.2h0s2.151-2.459,8.993-4.009l.6-3.08a2.586,2.586,0,0,0-1.25-2.688,1.445,1.445,0,0,0-.411-.168,17.556,17.556,0,0,0-2.266-.182,62.53,62.53,0,0,0-7.594.434l.034.548,4.78-.083c1.622-.02-.2,1.337-1.917,1.8s-3.527,1.334-3.39,4.886C145.578,372.2,145.849,373.9,146.8,372.793Z" transform="translate(-145.391 -360.439)" fill="#2e353a"/>
          <path id="Trazado_141350" data-name="Trazado 141350" d="M159.65,366.437s-8.783,2.331-10.756,4.254c0,0-1.212-3.306,3.316-5.657,5.856-3.04,4.615-4.288,4.615-4.288a14.643,14.643,0,0,1,2.509.972C160.868,362.63,159.65,366.437,159.65,366.437Z" transform="translate(-146.466 -360.537)" fill="#e4897b"/>
        </g>
        <g id="Grupo_87099" data-name="Grupo 87099" transform="translate(122.205 175.37)">
          <path id="Trazado_141351" data-name="Trazado 141351" d="M341.126,407.563a6.687,6.687,0,0,0-2.394.4h0s-3.244-.383-8.39-5.152l-2.879,1.247a2.588,2.588,0,0,0-1.511,2.551,1.458,1.458,0,0,0,.094.433,17.607,17.607,0,0,0,1.131,1.973,62.649,62.649,0,0,0,4.651,6.018l.432-.338-2.77-3.9c-.935-1.327,1.214-.593,2.569.563s3.094,2.155,5.947.035C341.322,408.906,342.577,407.718,341.126,407.563Z" transform="translate(-325.426 -401.496)" fill="#2e353a"/>
          <path id="Trazado_141352" data-name="Trazado 141352" d="M328.9,400.877s6.887,5.926,9.589,6.467c0,0-2.042,2.868-6.541.462-5.818-3.111-6.146-1.383-6.146-1.383a14.677,14.677,0,0,1-.616-2.619C325.071,402.024,328.9,400.877,328.9,400.877Z" transform="translate(-325.182 -400.877)" fill="#e4897b"/>
        </g>
        <path id="Trazado_141353" data-name="Trazado 141353" d="M284.533,199.114c2.239,1.529,5.931,15.7,7.047,16.618s9.357-3.517,9.357-3.517l1.8,4.014s-12.452,7.616-14.163,6.185-7.313-16.776-7.313-16.776Z" transform="translate(-188.91 -160.884)" fill="#263238"/>
        <path id="Trazado_141354" data-name="Trazado 141354" d="M284.533,199.114c2.239,1.529,5.931,15.7,7.047,16.618s9.357-3.517,9.357-3.517l1.8,4.014s-12.452,7.616-14.163,6.185-7.313-16.776-7.313-16.776Z" transform="translate(-188.91 -160.884)" fill="#fff" opacity="0.2"/>
        <g id="Grupo_87100" data-name="Grupo 87100" transform="translate(49.87 43)">
          <path id="Trazado_141355" data-name="Trazado 141355" d="M218.761,214.969l8.479,8.566s25.894,8.823,32.349-.551c0,0-2.813-14.091-10.075-16.5S218.761,214.969,218.761,214.969Z" transform="translate(-218.761 -206.131)" fill="#263238"/>
          <path id="Trazado_141356" data-name="Trazado 141356" d="M218.761,214.969l8.479,8.566s25.894,8.823,32.349-.551c0,0-2.813-14.091-10.075-16.5S218.761,214.969,218.761,214.969Z" transform="translate(-218.761 -206.131)" fill="#fff" opacity="0.1"/>
        </g>
        <path id="Trazado_141357" data-name="Trazado 141357" d="M309.538,219.827l5.131-2.8,2.424-5.75a28.737,28.737,0,0,1,2.951,1.2c.346.267-1.084,5.016-1.443,5.319a9.115,9.115,0,0,1-2.4.534l-4.884,3.091Z" transform="translate(-197.966 -164.78)" fill="#e4897b"/>
        <g id="Grupo_87103" data-name="Grupo 87103" transform="translate(47.881 29.818)">
          <path id="Trazado_141358" data-name="Trazado 141358" d="M241.672,188.22s16.814-.387,29.1,7.4a125.8,125.8,0,0,1-7.547,28.052l-24.65-4.076s2.639-7.021-.281-21.065Z" transform="translate(-223.028 -187.212)" fill="#407bff"/>
          <path id="Trazado_141359" data-name="Trazado 141359" d="M241.672,188.22s16.814-.387,29.1,7.4a125.8,125.8,0,0,1-7.547,28.052l-24.65-4.076s2.639-7.021-.281-21.065Z" transform="translate(-223.028 -187.212)" fill="#e4ddfa" opacity="0.6"/>
          <g id="Grupo_87102" data-name="Grupo 87102">
            <path id="Trazado_141360" data-name="Trazado 141360" d="M241.752,187.093c3.422,14.438-11.576,27.358-22.967,27.512l-2.95-6.257,12.174-5.081,6.471-15.407Z" transform="translate(-215.835 -186.852)" fill="#263238"/>
            <path id="Trazado_141361" data-name="Trazado 141361" d="M278.038,194.465s-2.285,20.188.232,24.783c0,0,4.3-7.877,5.276-21.29A23.116,23.116,0,0,0,278.038,194.465Z" transform="translate(-235.454 -189.213)" fill="#263238"/>
            <path id="Trazado_141362" data-name="Trazado 141362" d="M241.752,187.093c3.422,14.438-11.576,27.358-22.967,27.512l-2.95-6.257,12.174-5.081,6.471-15.407Z" transform="translate(-215.835 -186.852)" fill="#fff" opacity="0.3"/>
            <path id="Trazado_141363" data-name="Trazado 141363" d="M278.038,194.465s-2.285,20.188.232,24.783c0,0,4.3-7.877,5.276-21.29A23.116,23.116,0,0,0,278.038,194.465Z" transform="translate(-235.454 -189.213)" fill="#fff" opacity="0.3"/>
            <g id="Grupo_87101" data-name="Grupo 87101" transform="translate(19.143)">
              <path id="Trazado_141364" data-name="Trazado 141364" d="M254.533,187.172s-3.034-1.652-8.1,1.49l3.1,2.2-2.3,2.606A30.978,30.978,0,0,1,244,206.953s5.523-5.631,7.38-11.791S252.4,187.607,254.533,187.172Z" transform="translate(-243.998 -186.738)" fill="#263238"/>
              <path id="Trazado_141365" data-name="Trazado 141365" d="M274.159,191.4a12.907,12.907,0,0,1,6.8,4.987l-1.945.36,1.894,3.284-4.746,10.6s-.5-8.173-.264-13.078A11.115,11.115,0,0,0,274.159,191.4Z" transform="translate(-253.658 -188.232)" fill="#263238"/>
              <path id="Trazado_141366" data-name="Trazado 141366" d="M254.533,187.172s-3.034-1.652-8.1,1.49l3.1,2.2-2.3,2.606A30.978,30.978,0,0,1,244,206.953s5.523-5.631,7.38-11.791S252.4,187.607,254.533,187.172Z" transform="translate(-243.998 -186.738)" fill="#fff" opacity="0.2"/>
              <path id="Trazado_141367" data-name="Trazado 141367" d="M274.159,191.4a12.907,12.907,0,0,1,6.8,4.987l-1.945.36,1.894,3.284-4.746,10.6s-.5-8.173-.264-13.078A11.115,11.115,0,0,0,274.159,191.4Z" transform="translate(-253.658 -188.232)" fill="#fff" opacity="0.2"/>
            </g>
          </g>
        </g>
        <path id="Trazado_141368" data-name="Trazado 141368" d="M239.317,273.421c-4.109,16.952-15.978,39.515-18.292,43.885-1.814,3.443-8.98,4.594-17.683,5.6-16.77,1.945-39.353,5.024-39.353,5.024l-.03-5.289s45.608-10.744,46.347-13.2c1.037-3.473,2.255-19.99,3.341-33.885.128-1.552.247-3.067.364-4.53.194-2.409.37-4.641.521-6.57.35-4.428.571-7.3.571-7.3l24.367-17.208S244.457,252.212,239.317,273.421Z" transform="translate(-151.338 -173.965)" fill="#263238"/>
        <path id="Trazado_141369" data-name="Trazado 141369" d="M239.317,273.421c-4.109,16.952-15.978,39.515-18.292,43.885-1.814,3.443-8.98,4.594-17.683,5.6-16.77,1.945-39.353,5.024-39.353,5.024l-.03-5.289s45.608-10.744,46.347-13.2c1.037-3.473,2.255-19.99,3.341-33.885.128-1.552.247-3.067.364-4.53.194-2.409.37-4.641.521-6.57.35-4.428.571-7.3.571-7.3l24.367-17.208S244.457,252.212,239.317,273.421Z" transform="translate(-151.338 -173.965)" opacity="0.2" style="isolation: isolate"/>
        <path id="Trazado_141370" data-name="Trazado 141370" d="M272.426,302.9c-2.3-5.028-22.1-36.384-22.1-36.384l-19.451,3.29c6.272,18.4,28.608,37.2,32.4,42.075s31.911,48.384,31.911,48.384l3.46-2.448S277.292,313.546,272.426,302.9Z" transform="translate(-172.773 -182.472)" fill="#263238"/>
        <path id="Trazado_141371" data-name="Trazado 141371" d="M236.07,234.387l25.6,1.671-.473,2.931s-2.738,13.168-13.515,20.146l-16.934.381s-1.979-10.728,4.692-23.166Z" transform="translate(-172.643 -172.182)" fill="#263238"/>
        <g id="Grupo_87106" data-name="Grupo 87106" transform="translate(63.294 62.557)">
          <g id="Grupo_87104" data-name="Grupo 87104">
            <path id="Trazado_141372" data-name="Trazado 141372" d="M247.588,235.4l-8.438-.5-.639,1.968,8.888.669Z" transform="translate(-238.511 -234.905)"/>
            <path id="Trazado_141373" data-name="Trazado 141373" d="M253.339,235.729l-.191,2.157,14.8,1.114.142-2.4Z" transform="translate(-243.199 -235.169)"/>
          </g>
          <g id="Grupo_87105" data-name="Grupo 87105" transform="translate(17.505 1.004)">
            <rect id="Rectángulo_30622" data-name="Rectángulo 30622" width="3.617" height="2.724" rx="0.674" transform="translate(0.16 0) rotate(3.373)" fill="none" stroke="#fff" stroke-linecap="round" stroke-linejoin="round" stroke-width="1"/>
            <line id="Línea_1854" data-name="Línea 1854" x2="1.025" y2="0.06" transform="translate(2.625 1.51)" fill="none" stroke="#fff" stroke-linecap="round" stroke-linejoin="round" stroke-width="1"/>
          </g>
        </g>
        <g id="Grupo_87107" data-name="Grupo 87107" transform="translate(64.379 30.826)">
          <path id="Trazado_141374" data-name="Trazado 141374" d="M270.967,211.393l7-3.584a7.134,7.134,0,0,1,1.8-1.845c.752-.343,7.343.653,7.343.653l-2.467,5.217s-4.876-.284-5.4-.685l-6.4,3.426Z" transform="translate(-249.991 -193.881)" fill="#e4897b"/>
          <path id="Trazado_141375" data-name="Trazado 141375" d="M242.253,188.221c-6.433,1.668,3.242,25.274,7.479,26.608s17.842-7.821,17.842-7.821l-2.335-3.929s-11.889,4.746-12.976,4.234-5.48-12.383-6.259-14.5S242.253,188.221,242.253,188.221Z" transform="translate(-240.107 -188.221)" fill="#263238"/>
          <path id="Trazado_141376" data-name="Trazado 141376" d="M242.253,188.221c-6.433,1.668,3.242,25.274,7.479,26.608s17.842-7.821,17.842-7.821l-2.335-3.929s-11.889,4.746-12.976,4.234-5.48-12.383-6.259-14.5S242.253,188.221,242.253,188.221Z" transform="translate(-240.107 -188.221)" fill="#fff" opacity="0.2"/>
          <path id="Trazado_141377" data-name="Trazado 141377" d="M278.53,215.73a.232.232,0,1,1-.183-.272A.232.232,0,0,1,278.53,215.73Z" transform="translate(-252.266 -196.943)" fill="#fff" opacity="0.6"/>
          <path id="Trazado_141378" data-name="Trazado 141378" d="M276.137,217.21a.232.232,0,1,1-.183-.272A.232.232,0,0,1,276.137,217.21Z" transform="translate(-251.5 -197.417)" fill="#fff" opacity="0.6"/>
        </g>
        <g id="Grupo_87108" data-name="Grupo 87108" transform="translate(97.907 32.088)">
          <path id="Trazado_141379" data-name="Trazado 141379" d="M315.937,195.245,307.3,217.634a1.191,1.191,0,0,1-1.36.706L290.125,214.4a.881.881,0,0,1-.625-1.2l8.636-22.389a1.19,1.19,0,0,1,1.36-.706l15.817,3.936A.881.881,0,0,1,315.937,195.245Z" transform="translate(-289.434 -190.078)" fill="#263238"/>
          <path id="Trazado_141380" data-name="Trazado 141380" d="M316.276,195.329l-8.635,22.389a1.191,1.191,0,0,1-1.36.706l-15.1-3.757a.881.881,0,0,1-.625-1.2l8.635-22.389a1.19,1.19,0,0,1,1.36-.706l15.1,3.757A.881.881,0,0,1,316.276,195.329Z" transform="translate(-289.773 -190.162)" fill="#fff" opacity="0.3"/>
          <path id="Trazado_141381" data-name="Trazado 141381" d="M309.618,208.764a1.7,1.7,0,0,0-1.949,1.011,1.261,1.261,0,0,0,.9,1.719,1.7,1.7,0,0,0,1.949-1.011A1.26,1.26,0,0,1,309.618,208.764Z" transform="translate(-295.244 -196.048)" fill="#fff" opacity="0.3"/>
        </g>
        <g id="Grupo_87109" data-name="Grupo 87109" transform="translate(72.709 30.248)">
          <path id="Trazado_141382" data-name="Trazado 141382" d="M252.362,193.087s1-4.5,2.769-5.436,10.243.549,13.187,3.313a11.556,11.556,0,0,1,3.265,6.8l-3.788-1.6-5.746,6.473-4.5-9.061Z" transform="translate(-252.362 -187.37)" fill="#7e5ee3"/>
          <path id="Trazado_141383" data-name="Trazado 141383" d="M252.362,193.087s1-4.5,2.769-5.436,10.243.549,13.187,3.313a11.556,11.556,0,0,1,3.265,6.8l-3.788-1.6-5.746,6.473-4.5-9.061Z" transform="translate(-252.362 -187.37)" fill="#7e5ee3" opacity="0.5"/>
        </g>
        <path id="Trazado_141384" data-name="Trazado 141384" d="M263.4,188.037c4.888.377,7.424,3.755,6.783,6.518l-3.04.421L264.7,201.64l-.966-7.4-3.068-1.949S258.707,187.676,263.4,188.037Z" transform="translate(-182.183 -157.33)" fill="#e4897b"/>
        <path id="Trazado_141385" data-name="Trazado 141385" d="M265.58,191.848c-4.664-3.681-4.12-6.559-4.12-6.559a10.166,10.166,0,0,0,4.364-6.106,12,12,0,0,0,.368-2.026l5.4,4.788a20.473,20.473,0,0,0-1.772,2.42,8.967,8.967,0,0,0-.958,1.985c-.677,2.066.343,2.713.343,2.713C269.076,191.7,265.58,191.848,265.58,191.848Z" transform="translate(-182.561 -153.851)" fill="#e4897b"/>
        <path id="Trazado_141386" data-name="Trazado 141386" d="M271.432,184.041a8.93,8.93,0,0,0-.7,2.09c-2.431-1.47-3.482-4.39-3.926-6.721a11.914,11.914,0,0,0,.108-2.057l5.965,4.062A20.443,20.443,0,0,0,271.432,184.041Z" transform="translate(-184.28 -153.914)" opacity="0.2" style="isolation: isolate"/>
        <g id="Grupo_87112" data-name="Grupo 87112" transform="translate(81.503 6.184)">
          <path id="Trazado_141387" data-name="Trazado 141387" d="M280.206,160.152c5.559,2.685,5.91,6.525,3.55,12.45-2.949,7.4-6.993,11.722-13.2,6.836C262.116,172.8,270.975,155.693,280.206,160.152Z" transform="translate(-265.897 -154.354)" fill="#e4897b"/>
          <path id="Trazado_141388" data-name="Trazado 141388" d="M285.914,175.8a13.038,13.038,0,0,0,.5,3.087,1.7,1.7,0,0,1-1.769-.079Z" transform="translate(-271.498 -159.601)" fill="#de5753"/>
          <g id="Grupo_87110" data-name="Grupo 87110" transform="translate(10.002 12.976)">
            <path id="Trazado_141389" data-name="Trazado 141389" d="M281.247,172.185c-.21.462-.629.723-.937.583s-.387-.627-.177-1.09.629-.723.937-.583S281.457,171.723,281.247,172.185Z" transform="translate(-280.015 -171.057)" fill="#263238"/>
            <path id="Trazado_141390" data-name="Trazado 141390" d="M281.363,171.06l1.183.063S281.662,171.74,281.363,171.06Z" transform="translate(-280.447 -171.058)" fill="#263238"/>
          </g>
          <g id="Grupo_87111" data-name="Grupo 87111" transform="translate(15.785 15.489)">
            <path id="Trazado_141391" data-name="Trazado 141391" d="M289.756,175.882c-.21.462-.629.723-.937.583s-.387-.627-.177-1.089.629-.723.937-.583S289.966,175.42,289.756,175.882Z" transform="translate(-288.524 -174.754)" fill="#263238"/>
            <path id="Trazado_141392" data-name="Trazado 141392" d="M289.872,174.757l1.183.063S290.171,175.437,289.872,174.757Z" transform="translate(-288.956 -174.755)" fill="#263238"/>
          </g>
          <path id="Trazado_141393" data-name="Trazado 141393" d="M283.031,167.2a3.216,3.216,0,0,0-2.381-1.54" transform="translate(-270.217 -156.352)" fill="none" stroke="#263238" stroke-linecap="round" stroke-linejoin="round" stroke-width="0.708"/>
          <path id="Trazado_141394" data-name="Trazado 141394" d="M290.287,170.5a2.881,2.881,0,0,1,2.508.133" transform="translate(-273.304 -157.835)" fill="none" stroke="#263238" stroke-linecap="round" stroke-linejoin="round" stroke-width="0.708"/>
          <path id="Trazado_141395" data-name="Trazado 141395" d="M269.317,165.249s4.8-3.312,6.114-7.027c0,0,13.188.821,8.331,12.263,0,0,5.871-9.407-3.577-14.244-9.432-4.829-16.159,9.161-13.237,15.709C266.948,171.951,266.329,167.328,269.317,165.249Z" transform="translate(-265.607 -153.018)" fill="#263238"/>
          <path id="Trazado_141396" data-name="Trazado 141396" d="M269.351,170.646a2.709,2.709,0,0,0-1.549-3.5c-1.813-.644-4.342,2.5-.468,5.415C267.889,172.984,268.527,172.551,269.351,170.646Z" transform="translate(-265.301 -156.803)" fill="#e4897b"/>
          <path id="Trazado_141397" data-name="Trazado 141397" d="M276.218,152.291s4.194-.943,6.876.388,2.873,3.334,2.873,3.334a3.932,3.932,0,0,1,3.464,1.068c1.673,1.539,2.656,5.983.885,10.731S284.4,171.9,284.4,171.9s5.4-7.05-.353-11.626c0,0-1.886-2.259-4.085-.892s-3.764,7.066-8.6,3.354S272.048,153.382,276.218,152.291Z" transform="translate(-266.641 -151.967)" fill="#263238"/>
          <path id="Trazado_141398" data-name="Trazado 141398" d="M279.461,180.1s2.08,1.153,2.23,2.325" transform="translate(-269.836 -160.976)" fill="none" stroke="#263238" stroke-linecap="round" stroke-linejoin="round" stroke-width="0.708"/>
        </g>
        <path id="Trazado_141399" data-name="Trazado 141399" d="M260.983,150.264s-2.913-9.676-9.248-6.891-9.424,9.748-14.551,5.68-7.473,1.211-9.965,2.824-6.891-.809-5.718-2.824c0,0-3.226,2.471,2.492,5.067s8.536-2.83,10.353-.777,8.267,6.158,11.64,3.226a7.029,7.029,0,0,1,7.106-1.319Z" transform="translate(-169.479 -142.869)" fill="#263238"/>
        <path id="Trazado_141400" data-name="Trazado 141400" d="M258.326,159.421c-2.758.082-6.13,6.184-10.029,4.73s-7.952-4.678-10-3.066" transform="translate(-175.147 -148.171)" fill="none" stroke="#263238" stroke-linecap="round" stroke-linejoin="round" stroke-width="0.5"/>
        <path id="Trazado_141401" data-name="Trazado 141401" d="M245.789,151.7c-5.9-.7-8.823-4.511-11.149-4.218s-5.111,6.089-7.75,4.218" transform="translate(-171.495 -144.343)" fill="none" stroke="#263238" stroke-linecap="round" stroke-linejoin="round" stroke-width="0.5"/>
        <path id="Trazado_141402" data-name="Trazado 141402" d="M284.542,162.215c-1.924-.832-3.079.369-6.4,5.409-1.409,2.138-3.98.523-3.98.523" transform="translate(-186.635 -148.988)" fill="none" stroke="#263238" stroke-linecap="round" stroke-linejoin="round" stroke-width="0.5"/>
      </g>
    </g>
    <g id="Paper_sheets" data-name="Paper sheets" transform="translate(70.832 181.279)">
      <g id="Grupo_87114" data-name="Grupo 87114">
        <path id="Trazado_141403" data-name="Trazado 141403" d="M319.015,220.073l13.892-5.423s15.739,9.209,25.747,10.733l-17.3,3.406S322.61,225.054,319.015,220.073Z" transform="translate(-150.323 -214.65)" fill="#afafaf"/>
        <path id="Trazado_141404" data-name="Trazado 141404" d="M195.245,283.78l10.555-9.524s18.031,2.737,32.1,9.524L223.2,292.8S209.365,285.766,195.245,283.78Z" transform="translate(-110.681 -233.741)" fill="#afafaf"/>
        <path id="Trazado_141405" data-name="Trazado 141405" d="M70.832,303.954l13.554-4.674s11.759,12.568,21.13,12.571L89.974,319.31S73.411,312.973,70.832,303.954Z" transform="translate(-70.832 -241.756)" fill="#afafaf"/>
        <path id="Trazado_141406" data-name="Trazado 141406" d="M144.8,236.793s17.686-2.069,30.227,7.7l-6.465,7.96s-15.527-6.571-29.121-2.725Z" transform="translate(-92.808 -221.683)" fill="#afafaf"/>
        <path id="Trazado_141407" data-name="Trazado 141407" d="M370.906,346.237l17.046,2.912s-14.794,9.818-27.25,11.625l-13.449-4.359S363.441,354.722,370.906,346.237Z" transform="translate(-159.368 -256.796)" fill="#e8e8e8"/>
        <path id="Trazado_141408" data-name="Trazado 141408" d="M374.087,299.126s16.39-.886,27.977,3.923l6.953-6.638s-18.194-7.974-29.919-3.989Z" transform="translate(-167.962 -239.203)" fill="#e8e8e8"/>
        <path id="Trazado_141409" data-name="Trazado 141409" d="M209.289,389.861s8.195-8.622,28.641-10.9l12.4,5.586s-18.492,4.014-26.91,7.921Z" transform="translate(-115.179 -267.278)" fill="#afafaf"/>
      </g>
    </g>
  </g>
</svg>
