<svg xmlns="http://www.w3.org/2000/svg" xmlns:xlink="http://www.w3.org/1999/xlink" width="592" height="424" viewBox="0 0 592 424">
  <defs>
    <clipPath id="clip-path">
      <rect id="Rectángulo_32275" data-name="Rectángulo 32275" width="424" height="592" transform="translate(-0.136)" fill="#fff" stroke="#707070" stroke-width="1" opacity="0.325"/>
    </clipPath>
  </defs>
  <g id="Grupo_59889" data-name="Grupo 59889" transform="translate(1362.476 849.447) rotate(-90)">
    <g id="Grupo_67" data-name="Grupo 67" transform="translate(425.583 -1362.476)" clip-path="url(#clip-path)">
      <path id="Trazado_108698" data-name="Trazado 108698" d="M342.759,1233.781a383.464,383.464,0,0,1,76.727-128.926c103.216-114.323,268.575-156.3,422.1-143.865,79.169,6.413,158.251,25.595,237.16,16.516s161.224-56.234,178.958-133.659c8.97-39.164.357-80.719,9.109-119.932s48.294-77.8,85.274-62.088c30.061,12.778,42.259,55.037,74.324,61.266,28.681,5.57,54.073-23.939,56.959-53.012s-9.266-57.2-18.245-85.008c-23.428-72.52-25.737-153.04,1.263-224.306s84.95-131.882,157.637-154.781c24.453-7.7,50.99-11.134,75.73-4.409,46.653,12.678,77.465,59.286,87.135,106.656s2.5,96.3-2.249,144.415A1418.176,1418.176,0,0,0,1801.681,850.5c13.1,70.423,31.44,143.889,10.263,212.317-28.136,90.925-118.512,147.706-207.721,180.89-188.856,70.25-396.41,70.117-597.114,52.2S606.466,1243.189,342.759,1233.781Z" transform="translate(-1261.2 -49.228)" fill="#81d4fa" opacity="0.418"/>
    </g>
  </g>
</svg>
