<svg id="Grupo_77973" data-name="Grupo 77973" xmlns="http://www.w3.org/2000/svg" xmlns:xlink="http://www.w3.org/1999/xlink" width="117.692" height="117.691" viewBox="0 0 117.692 117.691">
  <defs>
    <radialGradient id="radial-gradient" cx="0.076" cy="0.019" r="1.465" gradientTransform="translate(0.001)" gradientUnits="objectBoundingBox">
      <stop offset="0" stop-color="#f6f6f7"/>
      <stop offset="0.477" stop-color="#f9f9fa"/>
      <stop offset="0.715" stop-color="#fff"/>
    </radialGradient>
  </defs>
  <g id="Grupo_18531" data-name="Grupo 18531" transform="translate(0 0)">
    <g id="Grupo_18423" data-name="Grupo 18423" transform="translate(0 0)">
      <g id="Grupo_18421" data-name="Grupo 18421">
        <g id="Grupo_18420" data-name="Grupo 18420">
          <g id="Grupo_18419" data-name="Grupo 18419">
            <path id="Trazado_40936" data-name="Trazado 40936" d="M312.314,2204.565a58.846,58.846,0,1,1-58.845-58.844A58.845,58.845,0,0,1,312.314,2204.565Z" transform="translate(-194.623 -2145.721)" fill="#fff"/>
          </g>
        </g>
      </g>
      <path id="Trazado_40937" data-name="Trazado 40937" d="M311.665,2203.857A58.844,58.844,0,1,0,252.82,2262.7,58.613,58.613,0,0,0,311.665,2203.857Z" transform="translate(-193.974 -2145.013)" fill="url(#radial-gradient)"/>
      <path id="Trazado_40938" data-name="Trazado 40938" d="M291.975,2198.12a44.917,44.917,0,1,0-44.917,44.917A44.75,44.75,0,0,0,291.975,2198.12Z" transform="translate(-188.034 -2139.08)" fill="none" stroke="#00223d" stroke-miterlimit="10" stroke-width="4"/>
      <g id="Grupo_18422" data-name="Grupo 18422" transform="translate(10.425 33.038)">
        <path id="Trazado_40939" data-name="Trazado 40939" d="M301.861,2164.488a58.853,58.853,0,0,1-101.316,58.6,58.666,58.666,0,0,0,101.316-58.6Z" transform="translate(-200.545 -2164.488)" fill="#eceef0"/>
      </g>
    </g>
  </g>
  <g id="DeT2EW.tif" transform="translate(407.585 -1292.686)">
    <g id="Grupo_87660" data-name="Grupo 87660" transform="translate(-384.629 1334.025)">
      <path id="Trazado_139481" data-name="Trazado 139481" d="M-353.194,1355.72c-1.3.487-2.49.889-3.644,1.37-6.139,2.556-4.887,1.3-6.8,7.185-.045.138-.092.275-.134.414-.913,2.98.082,4.342,3.2,4.345q9.905.01,19.81,0c2.039,0,4.078.016,6.117-.014,1.352-.021,2.623-.623,2.6-2a14.171,14.171,0,0,0-2.5-7.828.8.8,0,0,0-.335-.273c-2.629-1.079-5.261-2.15-7.99-3.262l-2.893,8.393c-.189-2.708-1.32-5.425.368-7.675h-5.294c1.715,2.315.594,5.012.361,7.7Zm37.546-5.222c-1.022-2.251-1.021-2.251-.409-4.179.146-.46.3-.919.422-1.385a8.435,8.435,0,0,0-3.936-9.337,7.9,7.9,0,0,0-9.776,1.217,8.253,8.253,0,0,0-2.194,8.659,8.25,8.25,0,0,1,.547,3.357c-.268,1.659-.333,1.943,1.364,2.476,1.183.372,2.408.612,3.615.911-.914,3.331-.184,5.357,2.463,6.861,2.335-1.747,3.46-3.907,2.281-6.737Zm-25.1-7.382c-.419-5.932-2.575-8.843-6.986-8.973-4.723-.14-6.887,2.545-7.346,9.115-1.562.665-1.954,3.493-.428,4.463a5.08,5.08,0,0,1,1.668,2.167,12.554,12.554,0,0,0,1.555,2.26c2.729,2.97,5.772,2.992,8.473.013a26.736,26.736,0,0,0,1.891-2.893c.325-.47.895-.8,1.121-1.3a12.634,12.634,0,0,0,1.122-3.3C-339.609,1344.212-340.364,1343.637-340.746,1343.116Zm-27.895,16.973-.459-.076.313-6.5h-3.766v6.892l-2.579-7.495c-1.118.419-2.077.744-3.009,1.133-5.748,2.4-4.385,1.074-6.185,6.631-.851,2.629.076,3.889,2.825,3.9q5.611.021,11.223,0c1.4-.007,3.124.38,4.095-.287.9-.616,1.073-2.378,1.406-3.677a5.59,5.59,0,0,1,3.726-4.11c.535-.2,1.045-.459,1.907-.842l-7.015-2.776c-.473,1.378-.877,2.56-1.283,3.741Q-368.038,1358.355-368.641,1360.089Zm4.05-19.617a6.05,6.05,0,0,0-8.294-6.019c-2.519.938-3.884,3.184-3.841,6.207a2.221,2.221,0,0,1-.366,1.517,2.848,2.848,0,0,0,.072,3.941,3.824,3.824,0,0,1,1.05,1.236c1.118,2.29,2.684,4.384,5.335,4.359s4.209-2.107,5.3-4.416a3.336,3.336,0,0,1,.955-1.148c.9-.7,1.517-3.273.711-3.605C-364.837,1342.063-364.6,1341.293-364.59,1340.472Z" transform="translate(384.629 -1334.025)" fill="#12263f"/>
      <path id="Trazado_139482" data-name="Trazado 139482" d="M-190.5,1410.49c-.708,1.8-2.16,2.284-3.947,2.274-4.511-.024-9.023-.048-13.533.022a1.441,1.441,0,0,1-1.691-1.3c-.2-.844-.51-1.66-.739-2.5a6.046,6.046,0,0,0-3.412-4.212c1.593-1.752,3.8-1.836,5.78-2.548-1.019,1.317-1.857,2.623-1.371,4.354.117,0,.235.037.294-.006,1.965-1.437,1.935-1.417,3.356.576.834,1.17,1.781,2.259,2.876,3.634,1.047-1.281,1.969-2.312,2.781-3.423,1.613-2.209,1.04-2.518,3.656-.719.54-1.474.457-1.759-1.353-4.505,3.225.922,6.526,1.484,7.3,5.447Z" transform="translate(263.812 -1382.204)" fill="#12263f"/>
      <path id="Trazado_139483" data-name="Trazado 139483" d="M-303.568,1408l2.862,8.362c.234-2.693,1.355-5.39-.361-7.7h5.294c-1.688,2.25-.557,4.967-.368,7.675l2.893-8.393c2.729,1.113,5.362,2.183,7.99,3.263a.794.794,0,0,1,.335.273,14.171,14.171,0,0,1,2.5,7.828c.025,1.376-1.247,1.978-2.6,2-2.039.031-4.078.014-6.117.014q-9.9,0-19.81,0c-3.118,0-4.112-1.365-3.2-4.345.042-.139.089-.276.134-.414,1.911-5.883.659-4.629,6.8-7.185C-306.058,1408.893-304.87,1408.491-303.568,1408Z" transform="translate(335.003 -1386.309)" fill="#12263f"/>
      <path id="Trazado_139484" data-name="Trazado 139484" d="M-188.329,1351.5l-5.624,1.844c1.179,2.83.054,4.99-2.281,6.737-2.648-1.5-3.377-3.529-2.463-6.861-1.207-.3-2.432-.54-3.615-.911-1.7-.533-1.632-.816-1.364-2.476a8.251,8.251,0,0,0-.547-3.357,8.254,8.254,0,0,1,2.194-8.659,7.9,7.9,0,0,1,9.776-1.217,8.435,8.435,0,0,1,3.936,9.337c-.123.467-.276.925-.422,1.385C-189.35,1349.254-189.351,1349.254-188.329,1351.5Z" transform="translate(257.31 -1335.031)" fill="#12263f"/>
      <path id="Trazado_139485" data-name="Trazado 139485" d="M-272.691,1343.389c.381.521,1.136,1.1,1.07,1.553a12.635,12.635,0,0,1-1.122,3.3c-.226.5-.8.832-1.121,1.3a26.734,26.734,0,0,1-1.891,2.893c-2.7,2.979-5.743,2.957-8.473-.013a12.557,12.557,0,0,1-1.555-2.259,5.078,5.078,0,0,0-1.668-2.167c-1.526-.97-1.133-3.8.428-4.463.459-6.571,2.623-9.255,7.346-9.115C-275.267,1334.546-273.111,1337.457-272.691,1343.389Z" transform="translate(316.575 -1334.297)" fill="#12263f"/>
      <path id="Trazado_139486" data-name="Trazado 139486" d="M-368.641,1405.651q.6-1.735,1.2-3.47c.407-1.181.811-2.363,1.283-3.741l7.015,2.776c-.862.384-1.372.647-1.907.842a5.591,5.591,0,0,0-3.726,4.11c-.334,1.3-.51,3.061-1.406,3.677-.971.667-2.7.28-4.095.287q-5.611.031-11.223,0c-2.749-.011-3.677-1.271-2.825-3.9,1.8-5.557.437-4.232,6.185-6.631.932-.389,1.891-.714,3.009-1.133l2.579,7.495v-6.892h3.766l-.313,6.5Z" transform="translate(384.629 -1379.587)" fill="#12263f"/>
      <path id="Trazado_139487" data-name="Trazado 139487" d="M-348.2,1340.471c-.01.822-.248,1.592.921,2.073.807.332.19,2.9-.711,3.605a3.337,3.337,0,0,0-.955,1.148c-1.091,2.309-2.662,4.391-5.3,4.416s-4.217-2.069-5.336-4.359a3.824,3.824,0,0,0-1.05-1.236,2.848,2.848,0,0,1-.072-3.941,2.222,2.222,0,0,0,.366-1.517c-.044-3.023,1.321-5.269,3.841-6.207A6.051,6.051,0,0,1-348.2,1340.471Z" transform="translate(368.239 -1334.025)" fill="#12263f"/>
    </g>
  </g>
</svg>
