<svg xmlns="http://www.w3.org/2000/svg" width="68.153" height="69.281" viewBox="0 0 68.153 69.281">
  <g id="WLmnJl" transform="translate(-546.376 212.211)">
    <g id="Grupo_88571" data-name="Grupo 88571" transform="translate(546.376 -212.21)">
      <path id="Trazado_140947" data-name="Trazado 140947" d="M843.094,172.184c0-2.568,0-5.1-.005-7.624a1.176,1.176,0,0,1,.344-.94,3.024,3.024,0,0,0,.861-2.227c0-4.748.007-9.5-.013-14.243a3.165,3.165,0,0,0-3.331-3.268c-1.134,0-2.268,0-3.578,0,.63-.846,1.133-1.623,1.735-2.313a15,15,0,0,1,9.379-5.081,1.214,1.214,0,0,1,1.369.61c1.694,2.509,3.457,4.973,5.175,7.466a1.067,1.067,0,0,1,.156.731q-1.65,8.476-3.337,16.944a1.207,1.207,0,0,0,.315,1.149c1.153,1.206,2.3,2.421,3.457,3.618a1.023,1.023,0,0,0,1.607-.008c1.169-1.212,2.318-2.444,3.476-3.666a1.222,1.222,0,0,0,.252-1.167q-.7-3.529-1.391-7.059-.979-4.966-1.949-9.933a.775.775,0,0,1,.123-.528q2.748-3.973,5.53-7.922a.706.706,0,0,1,.544-.236,14.271,14.271,0,0,1,7.783,3.085,15.207,15.207,0,0,1,5.791,10.12,15.972,15.972,0,0,1,.125,2.254q.014,9.431.005,18.863c0,1.028-.352,1.377-1.387,1.377H843.094Z" transform="translate(-809.365 -102.903)" fill="#12263f"/>
      <path id="Trazado_140948" data-name="Trazado 140948" d="M892.506-181.235a15.284,15.284,0,0,1-15.03-12.962,15.513,15.513,0,0,1,10.054-17.176,15.108,15.108,0,0,1,18.722,8.072,15.683,15.683,0,0,1-3.364,17.868A15.018,15.018,0,0,1,892.506-181.235Z" transform="translate(-845.429 212.21)" fill="#12263f"/>
      <path id="Trazado_140949" data-name="Trazado 140949" d="M556.975,190.421c0-1.209,0-2.346,0-3.483,0-.951.39-1.335,1.342-1.335h8.9c.963,0,1.313.344,1.316,1.295,0,1.151,0,2.3,0,3.518h9.312c.931,0,1.315.372,1.316,1.311q.007,6.952,0,13.9c0,.968-.381,1.341-1.34,1.341l-30.022,0c-1.1,0-1.426-.332-1.426-1.439q0-6.928,0-13.856c0-.885.375-1.263,1.253-1.263q4.065,0,8.131,0Zm2.153-.034h7.244v-2.633h-7.244Z" transform="translate(-546.376 -147.315)" fill="#12263f"/>
      <path id="Trazado_140950" data-name="Trazado 140950" d="M558.512,429.942h30.372c.009.153.026.306.026.459q0,2.863,0,5.726c0,.918-.37,1.29-1.275,1.29H559.774c-.841,0-1.279-.4-1.282-1.205-.008-1.989,0-3.978,0-5.967C558.49,430.153,558.5,430.061,558.512,429.942Z" transform="translate(-557.322 -368.137)" fill="#12263f"/>
      <path id="Trazado_140951" data-name="Trazado 140951" d="M1013.919,281.548l.638,3.233c.532,2.7,1.058,5.4,1.6,8.09a.83.83,0,0,1-.249.852c-.681.676-1.327,1.387-2.038,2.138-.569-.594-1.083-1.206-1.675-1.729a1.64,1.64,0,0,1-.544-1.788c.761-3.6,1.45-7.206,2.165-10.811Z" transform="translate(-966.812 -234.011)" fill="#12263f"/>
      <path id="Trazado_140952" data-name="Trazado 140952" d="M993.386,142.308l-4.451-6.38h8.9Z" transform="translate(-946.34 -102.421)" fill="#12263f"/>
    </g>
  </g>
</svg>
