<svg xmlns="http://www.w3.org/2000/svg" width="61.811" height="69.281" viewBox="0 0 61.811 69.281">
  <g id="Nxcxw2" transform="translate(3016.291 565.152)">
    <g id="Grupo_88766" data-name="Grupo 88766" transform="translate(-3016.291 -565.153)">
      <path id="Trazado_141766" data-name="Trazado 141766" d="M-3003.57,30.6c-.269.751-.562,1.512-.808,2.288a1.421,1.421,0,0,1-.485.779,5.977,5.977,0,0,0-.82.981,1.127,1.127,0,0,1-.284.314,8.577,8.577,0,0,0-3.16,2.906,25.385,25.385,0,0,0-1.445,2.486,3.5,3.5,0,0,0-.2,1.034,3.183,3.183,0,0,1-.08.607,16.914,16.914,0,0,0-.98,8,5.069,5.069,0,0,0,.385,1.394,2.724,2.724,0,0,0,2.092,1.522c.071.017.162.012.211.055a1.777,1.777,0,0,0,1.295.3c.455,0,.91,0,1.364,0a1.267,1.267,0,0,0,1.336-1.231,1.248,1.248,0,0,0-1.3-1.3c-.81,0-1.62.057-2.429.1a.66.66,0,0,1-.742-.5,11.307,11.307,0,0,1-.2-1.6,13.517,13.517,0,0,1,.444-4.483c.145-.506.307-1.008.48-1.506a.544.544,0,0,1,.235-.258,1.737,1.737,0,0,0,.736-.8,10.058,10.058,0,0,1,2.447-3.466,2.93,2.93,0,0,1,2.225-.9,3.38,3.38,0,0,1,1.939.99,10.987,10.987,0,0,1,2.231,3.129,4.741,4.741,0,0,0,.645.751,1.3,1.3,0,0,1,.238.352,14.19,14.19,0,0,1,1.015,5.759,17.372,17.372,0,0,1-.158,1.89c-.086.547-.355.624-.912.588a19.3,19.3,0,0,0-2.5,0,1.2,1.2,0,0,0-.982,1.227,1.247,1.247,0,0,0,1.035,1.226c.79.044,1.584.012,2.376.011a.242.242,0,0,0,.094-.013c.567-.247,1.151-.463,1.695-.753a2.612,2.612,0,0,0,1.3-2.1,16.706,16.706,0,0,0-.9-8.29,1.4,1.4,0,0,1-.108-.941,1.794,1.794,0,0,0-.336-1.376,14.073,14.073,0,0,0-2.066-3.023A8.716,8.716,0,0,0-3001,34.909a1.534,1.534,0,0,1-.386-.382,10.215,10.215,0,0,0-.78-.9.372.372,0,0,1-.15-.449,7.032,7.032,0,0,1,1.3-2.41c.347-.409.738-.782,1.114-1.166a.489.489,0,0,1,.232-.152c.62-.11,1.243-.206,1.876-.308a6.972,6.972,0,0,0,1.811,3.376,37.868,37.868,0,0,0,4.746,4.732c1.9,1.624,3.846,3.2,5.791,4.808.59-.454,1.136-.846,1.651-1.276,1.815-1.515,3.651-3.006,5.418-4.576a28.517,28.517,0,0,0,4.264-4.572,5.455,5.455,0,0,0,1.125-2.479l1.675.247a1.135,1.135,0,0,0,.154.034,1.922,1.922,0,0,1,1.6.965,8.728,8.728,0,0,1,1.445,3.236c-.36.136-.712.243-1.042.4a4.328,4.328,0,0,0-2.553,3.26,4.569,4.569,0,0,0,4.927,5.447,4.371,4.371,0,0,0,3.81-2.792,4.406,4.406,0,0,0-.539-4.5,4.508,4.508,0,0,0-2.242-1.632.385.385,0,0,1-.216-.212c-.24-.785-.468-1.573-.69-2.363-.024-.086-.021-.229.03-.273a.306.306,0,0,1,.277,0c1.055.6,2.133,1.156,3.148,1.814a17.6,17.6,0,0,1,3.611,3.205,20.353,20.353,0,0,1,2.962,4.4,19.726,19.726,0,0,1,1.786,5.286,17.835,17.835,0,0,1-.091,7.642,8.13,8.13,0,0,1-3.2,4.793,11.027,11.027,0,0,1-3.615,1.634,32.732,32.732,0,0,1-8.163.924c-1.976.02-3.952.049-5.928.051q-9.42.01-18.841,0c-2.388,0-4.778,0-7.165-.065a29.781,29.781,0,0,1-7.182-.907,9.673,9.673,0,0,1-5.162-3.078,8.661,8.661,0,0,1-1.824-4.12,19.546,19.546,0,0,1,1.528-11.441,20.132,20.132,0,0,1,5.864-7.557,19.448,19.448,0,0,1,4.972-2.921A.707.707,0,0,1-3003.57,30.6Z" transform="translate(3016.291 8.563)" fill="#12263f"/>
      <path id="Trazado_141767" data-name="Trazado 141767" d="M-2764.992-565.153a15.116,15.116,0,0,1,8.45,2.563,16.4,16.4,0,0,1,6,7.03,17.281,17.281,0,0,1,1.452,9.113,45.112,45.112,0,0,1-.75,5.2,27.531,27.531,0,0,1-2.389,6.685,20.359,20.359,0,0,1-4.047,5.509,13.4,13.4,0,0,1-6.094,3.455,11.02,11.02,0,0,1-6.274-.3,13.428,13.428,0,0,1-4.7-2.845,21.231,21.231,0,0,1-5.278-7.766,29.6,29.6,0,0,1-2.063-8.2,37.088,37.088,0,0,1-.256-4.2,16.075,16.075,0,0,1,1.392-6.326,16.7,16.7,0,0,1,4.376-6.012,15.741,15.741,0,0,1,5-2.971A15.033,15.033,0,0,1-2764.992-565.153Z" transform="translate(2795.875 565.153)" fill="#12263f"/>
      <path id="Trazado_141768" data-name="Trazado 141768" d="M-2276.589,139.912a2.305,2.305,0,0,1-2.287-2.306,2.306,2.306,0,0,1,2.3-2.292,2.3,2.3,0,0,1,2.3,2.322A2.305,2.305,0,0,1-2276.589,139.912Z" transform="translate(2325.662 -90.871)" fill="#12263f"/>
    </g>
  </g>
</svg>
