<svg id="Grupo_77974" data-name="Grupo 77974" xmlns="http://www.w3.org/2000/svg" xmlns:xlink="http://www.w3.org/1999/xlink" width="117.692" height="117.691" viewBox="0 0 117.692 117.691">
  <defs>
    <radialGradient id="radial-gradient" cx="0.076" cy="0.019" r="1.465" gradientTransform="translate(0.001)" gradientUnits="objectBoundingBox">
      <stop offset="0" stop-color="#f6f6f7"/>
      <stop offset="0.477" stop-color="#f9f9fa"/>
      <stop offset="0.715" stop-color="#fff"/>
    </radialGradient>
  </defs>
  <g id="Grupo_18531" data-name="Grupo 18531" transform="translate(0 0)">
    <g id="Grupo_18423" data-name="Grupo 18423" transform="translate(0 0)">
      <g id="Grupo_18421" data-name="Grupo 18421">
        <g id="Grupo_18420" data-name="Grupo 18420">
          <g id="Grupo_18419" data-name="Grupo 18419">
            <path id="Trazado_40936" data-name="Trazado 40936" d="M312.314,2204.565a58.846,58.846,0,1,1-58.845-58.844A58.845,58.845,0,0,1,312.314,2204.565Z" transform="translate(-194.623 -2145.721)" fill="#fff"/>
          </g>
        </g>
      </g>
      <path id="Trazado_40937" data-name="Trazado 40937" d="M311.665,2203.857A58.844,58.844,0,1,0,252.82,2262.7,58.613,58.613,0,0,0,311.665,2203.857Z" transform="translate(-193.974 -2145.013)" fill="url(#radial-gradient)"/>
      <path id="Trazado_40938" data-name="Trazado 40938" d="M291.975,2198.12a44.917,44.917,0,1,0-44.917,44.917A44.75,44.75,0,0,0,291.975,2198.12Z" transform="translate(-188.034 -2139.08)" fill="none" stroke="#00223d" stroke-miterlimit="10" stroke-width="4"/>
      <g id="Grupo_18422" data-name="Grupo 18422" transform="translate(10.425 33.038)">
        <path id="Trazado_40939" data-name="Trazado 40939" d="M301.861,2164.488a58.853,58.853,0,0,1-101.316,58.6,58.666,58.666,0,0,0,101.316-58.6Z" transform="translate(-200.545 -2164.488)" fill="#eceef0"/>
      </g>
    </g>
  </g>
  <g id="Cld3tM.tif" transform="translate(614.946 72.767)">
    <g id="Grupo_88759" data-name="Grupo 88759" transform="translate(-583.76 -42.6)">
      <path id="Trazado_141746" data-name="Trazado 141746" d="M-565.978,69.255c0,.988-.006,1.911,0,2.835a2.956,2.956,0,0,0,3.077,3.069q6.82.011,13.64,0a2.937,2.937,0,0,0,3.033-3.046c.009-.925,0-1.851,0-2.876h.607q7.931,0,15.862,0c1,0,1.314.322,1.315,1.339q0,17.439,0,34.879c0,1.007-.32,1.326-1.329,1.326l-52.648,0c-1.015,0-1.341-.319-1.341-1.316q0-17.47,0-34.941c0-.918.33-1.288,1.176-1.289q8.116-.008,16.233,0C-566.25,69.232-566.151,69.244-565.978,69.255Zm-7.885,18.572c-.141.074-.23.124-.322.169a9.328,9.328,0,0,0-5.3,6.589,30.554,30.554,0,0,0-.317,5.092c-.031.8.358,1.17,1.165,1.171q8.7.006,17.407,0c.807,0,1.168-.365,1.173-1.17.007-1.029.029-2.059-.014-3.087a9.532,9.532,0,0,0-3.358-7.09,29.04,29.04,0,0,0-2.474-1.745,6.983,6.983,0,0,0,.9-10.533,6.94,6.94,0,0,0-9.821-.035A7,7,0,0,0-573.863,87.828ZM-545.3,80.1v0h11.481a3,3,0,0,0,.554-.017.934.934,0,0,0,.852-.974.929.929,0,0,0-.856-.969,3.219,3.219,0,0,0-.554-.014h-22.839a3.029,3.029,0,0,0-.554.016.932.932,0,0,0-.851.973.937.937,0,0,0,.855.971,2.667,2.667,0,0,0,.493.015Zm.023,5.928h11.421a4.662,4.662,0,0,0,.555-.01.971.971,0,0,0,.9-1,.953.953,0,0,0-.88-.952,3.5,3.5,0,0,0-.555-.012h-22.781a3.146,3.146,0,0,0-.616.019.932.932,0,0,0-.831.99.93.93,0,0,0,.816.943,3,3,0,0,0,.615.022Zm-.025,5.925h11.48a3.038,3.038,0,0,0,.554-.015.933.933,0,0,0,.854-.971.936.936,0,0,0-.855-.971,3.1,3.1,0,0,0-.554-.014h-18.455c-1.564,0-3.127-.007-4.691,0a1,1,0,0,0-1.1,1.046c.039.593.474.923,1.229.924Q-551.069,91.959-545.3,91.956Zm.064,3.955q-5.772,0-11.545,0c-.835,0-1.292.353-1.292.987s.458.983,1.292.989h22.9a3.438,3.438,0,0,0,.616-.016.933.933,0,0,0,.854-.972.933.933,0,0,0-.853-.972,3.075,3.075,0,0,0-.554-.015Z" transform="translate(583.76 -55.399)" fill="#12263f"/>
      <path id="Trazado_141747" data-name="Trazado 141747" d="M-420.115-32.72c0-2.836,0-5.59,0-8.344,0-1.3.241-1.532,1.552-1.533,1.707,0,3.414,0,5.121,0,.881,0,1.226.347,1.228,1.237q.006,3.919,0,7.838v.807c.924,0,1.8,0,2.678,0,.93,0,1.27.337,1.272,1.257q.007,2.715,0,5.431c0,.873-.355,1.215-1.249,1.216q-6.633,0-13.266,0c-.962,0-1.288-.331-1.29-1.3q-.005-2.685,0-5.369c0-.887.347-1.229,1.232-1.235S-421.074-32.72-420.115-32.72Z" transform="translate(443.823 42.6)" fill="#12263f"/>
      <path id="Trazado_141748" data-name="Trazado 141748" d="M-520.261,238.43h-15.7c-.348-3.329.356-6.27,3.188-8.313a7.454,7.454,0,0,1,8.48-.532C-520.871,231.5-519.907,234.656-520.261,238.43Z" transform="translate(541.949 -194.974)" fill="#12263f"/>
      <path id="Trazado_141749" data-name="Trazado 141749" d="M-506.923,133.164A4.941,4.941,0,0,1-502,138.126a4.948,4.948,0,0,1-4.978,4.915,4.946,4.946,0,0,1-4.9-4.932A4.945,4.945,0,0,1-506.923,133.164Z" transform="translate(520.763 -111.422)" fill="#12263f"/>
    </g>
  </g>
</svg>
