<svg id="Grupo_77975" data-name="Grupo 77975" xmlns="http://www.w3.org/2000/svg" xmlns:xlink="http://www.w3.org/1999/xlink" width="117.692" height="117.691" viewBox="0 0 117.692 117.691">
  <defs>
    <radialGradient id="radial-gradient" cx="0.076" cy="0.019" r="1.465" gradientTransform="translate(0.001)" gradientUnits="objectBoundingBox">
      <stop offset="0" stop-color="#f6f6f7"/>
      <stop offset="0.477" stop-color="#f9f9fa"/>
      <stop offset="0.715" stop-color="#fff"/>
    </radialGradient>
  </defs>
  <g id="Grupo_18531" data-name="Grupo 18531" transform="translate(0 0)">
    <g id="Grupo_18423" data-name="Grupo 18423" transform="translate(0 0)">
      <g id="Grupo_18421" data-name="Grupo 18421">
        <g id="Grupo_18420" data-name="Grupo 18420">
          <g id="Grupo_18419" data-name="Grupo 18419">
            <path id="Trazado_40936" data-name="Trazado 40936" d="M312.314,2204.565a58.846,58.846,0,1,1-58.845-58.844A58.845,58.845,0,0,1,312.314,2204.565Z" transform="translate(-194.623 -2145.721)" fill="#fff"/>
          </g>
        </g>
      </g>
      <path id="Trazado_40937" data-name="Trazado 40937" d="M311.665,2203.857A58.844,58.844,0,1,0,252.82,2262.7,58.613,58.613,0,0,0,311.665,2203.857Z" transform="translate(-193.974 -2145.013)" fill="url(#radial-gradient)"/>
      <path id="Trazado_40938" data-name="Trazado 40938" d="M291.975,2198.12a44.917,44.917,0,1,0-44.917,44.917A44.75,44.75,0,0,0,291.975,2198.12Z" transform="translate(-188.034 -2139.08)" fill="none" stroke="#00223d" stroke-miterlimit="10" stroke-width="4"/>
      <g id="Grupo_18422" data-name="Grupo 18422" transform="translate(10.425 33.038)">
        <path id="Trazado_40939" data-name="Trazado 40939" d="M301.861,2164.488a58.853,58.853,0,0,1-101.316,58.6,58.666,58.666,0,0,0,101.316-58.6Z" transform="translate(-200.545 -2164.488)" fill="#eceef0"/>
      </g>
    </g>
  </g>
  <g id="SyGBQY.tif" transform="translate(902.234 98.73)">
    <g id="Grupo_88760" data-name="Grupo 88760" transform="translate(-871.268 -68.45)">
      <path id="Trazado_141750" data-name="Trazado 141750" d="M-820.627-54.621c-.808,2.668.324,4.627,3.171,6a3.369,3.369,0,0,1,1.051,5.119c-1.887,2.463-1.8,4.545.112,6.957a3.415,3.415,0,0,1-1.333,5.319c-2.569,1.34-3.564,3.032-2.709,5.969.658,2.264-1.064,4.2-3.487,4.418-3.623.33-3.958.6-5.021,3.973a3.76,3.76,0,0,1-5.348,2.559c-3.017-1.17-3.789-1-5.963,1.355-2.015,2.177-4.135,2.172-6.128-.016-2.014-2.21-2.92-2.418-5.635-1.3-2.8,1.154-4.7.255-5.682-2.681-.927-2.778-1.671-3.349-4.631-3.551-3.061-.209-4.465-2.017-3.962-5.1.419-2.574-.131-3.728-2.385-5-2.885-1.624-3.331-3.55-1.476-6.379,1.52-2.318,1.5-3.282-.089-5.517-1.839-2.58-1.424-4.675,1.252-6.324,2.521-1.553,2.926-2.445,2.411-5.318-.488-2.724.915-4.553,3.665-4.778,3.282-.269,3.866-.744,4.879-3.977.815-2.6,2.79-3.559,5.308-2.576,3.065,1.2,3.765,1.026,6.078-1.475,1.857-2.009,4-2.016,5.881-.022,2.371,2.51,2.766,2.6,6.084,1.315,2.331-.9,4.425-.059,5.106,2.355.778,2.758,2.287,4.13,5.245,4.115C-821.845-59.185-820.5-57.45-820.627-54.621Zm-22.9-4.705A19.5,19.5,0,0,0-863-39.868a19.528,19.528,0,0,0,19.5,19.434A19.528,19.528,0,0,0-824.034-39.9,19.5,19.5,0,0,0-843.531-59.326Z" transform="translate(871.268 68.45)" fill="#12263f"/>
      <path id="Trazado_141751" data-name="Trazado 141751" d="M-797.91-8.015l-19.944-19.971c4.8-3.916,12.828-3.317,17.9,1.463A14.279,14.279,0,0,1-797.91-8.015Z" transform="translate(837.672 44.619)" fill="#12263f"/>
      <path id="Trazado_141752" data-name="Trazado 141752" d="M-832.833-13.243l19.913,19.961c-3.975,3.9-12.344,3.538-17.406-.849A14.264,14.264,0,0,1-832.833-13.243Z" transform="translate(848.731 33.726)" fill="#12263f"/>
    </g>
  </g>
</svg>
