<svg xmlns="http://www.w3.org/2000/svg" width="85" height="85" viewBox="0 0 85 85">
  <g id="icon1" transform="translate(-441 -27831)">
    <circle id="Elipse_4087" data-name="Elipse 4087" cx="42.5" cy="42.5" r="42.5" transform="translate(441 27831)" fill="#ff9d00"/>
    <g id="Grupo_70618" data-name="Grupo 70618" transform="translate(205.867 26489.025)">
      <path id="Trazado_110063" data-name="Trazado 110063" d="M256.042,1369.538a.872.872,0,0,0,1.716.13,2.517,2.517,0,0,0,.044-.645c0-4.434.008-8.868-.009-13.3,0-.434.09-.55.541-.549q14.929.023,29.857,0c.425,0,.56.077.555.537-.027,2.365-.017,4.73-.011,7.095a1.866,1.866,0,0,0,2.085,2.074c2.384,0,4.769.014,7.153-.012.455,0,.552.123.542.556-.031,1.241,0,2.483-.014,3.724a.917.917,0,0,0,.5.928c.638.317,1.27-.145,1.277-.953.013-1.439-.025-2.878.015-4.316a2.525,2.525,0,0,0-.832-1.987q-4.329-4.283-8.616-8.608a2.906,2.906,0,0,0-1.2-.8H257.23a1.971,1.971,0,0,0-1.213,2.06c.035,4.512.016,9.026.016,13.539A4.721,4.721,0,0,0,256.042,1369.538ZM290.5,1356.6l6.512,6.512h-4.567c-.532,0-1.065-.008-1.6,0-.24.005-.354-.052-.353-.324C290.507,1360.708,290.5,1358.628,290.5,1356.6Z" fill="#fff"/>
      <path id="Trazado_110064" data-name="Trazado 110064" d="M337.514,1382.952q-.473-.241-.951-.469a2.371,2.371,0,0,0-3.41,1.159q-8.691,17.635-17.374,35.274a1.927,1.927,0,0,0-.2,1.027c.041.53.051,1.063.075,1.595h-.013c.033.571.084,1.141.093,1.712a1.273,1.273,0,0,0,.689,1.268,1.323,1.323,0,0,0,1.437-.194q1.322-.944,2.663-1.861a2.4,2.4,0,0,0,.821-.977c1.047-2.156,2.114-4.3,3.174-6.454.5-1,1-2.005,1.483-3.016a.9.9,0,0,0-.441-1.324c-.473-.173-.888.034-1.176.615-.838,1.69-1.674,3.381-2.5,5.079-.15.31-.274.406-.606.208a9.54,9.54,0,0,0-1.426-.7c-.411-.16-.463-.313-.26-.72,1.694-3.393,3.36-6.8,5.034-10.2q3.266-6.638,6.525-13.281c.187-.383.337-.485.727-.243a9.716,9.716,0,0,0,1.376.673c.364.152.439.306.245.688-.909,1.786-1.783,3.589-2.668,5.387q-2.305,4.681-4.608,9.362c-.31.631-.19,1.111.316,1.365s.953.037,1.276-.588c.036-.07.071-.141.105-.211q2.708-5.5,5.416-11,2.656-5.394,5.309-10.791A2.372,2.372,0,0,0,337.514,1382.952Zm-20.064,39.486v-2.209l1.859.913Zm3.169-4.2a1.86,1.86,0,0,1,.259.195c-.212.406-.385.777-.6,1.124-.074.12-.214-.016-.309-.062-.563-.269-1.112-.571-1.685-.817-.315-.136-.278-.276-.158-.529.44-.924.432-.929,1.337-.482C319.85,1417.854,320.236,1418.04,320.618,1418.236Zm13.907-27.572c-.063.114-.183.03-.263-.008-.618-.3-1.228-.617-1.85-.909-.194-.091-.191-.169-.121-.355.4-1.074.412-1.084,1.446-.574.352.174.7.356,1.054.526.123.059.24.109.282.236C334.881,1389.965,334.714,1390.32,334.525,1390.663Zm2.639-5.416a2.91,2.91,0,0,1-.128.344c-.315.652-.649,1.294-.95,1.953-.139.3-.275.35-.572.184-.511-.286-1.043-.537-1.579-.775-.269-.119-.355-.223-.2-.515.362-.671.691-1.36,1.022-2.048a.652.652,0,0,1,1.01-.333c.331.169.666.329,1,.5A.639.639,0,0,1,337.164,1385.247Z" transform="translate(-30.602 -14.778)" fill="#fff"/>
      <path id="Trazado_110065" data-name="Trazado 110065" d="M300.231,1414.951a.809.809,0,0,0-.828-.629.8.8,0,0,0-.821.558,2.275,2.275,0,0,0-.061.7c0,5.323-.012,10.645.012,15.968,0,.563-.118.7-.695.7q-19.664-.029-39.328,0c-.551,0-.708-.1-.707-.686q.031-18.895.014-37.79a2.915,2.915,0,0,0-.048-.7.87.87,0,0,0-1.714.131c-.015.157-.008.315-.008.473q0,19.162,0,38.323c0,1.46.565,2.013,2.047,2.014h40.156c1.456,0,2.04-.581,2.04-2.036q0-8.191,0-16.382A2.454,2.454,0,0,0,300.231,1414.951Z" transform="translate(-0.015 -20.035)" fill="#fff"/>
      <path id="Trazado_110066" data-name="Trazado 110066" d="M264.783,1422.236a1.7,1.7,0,0,0,1.744,1.766q2.334.04,4.669,0a1.73,1.73,0,0,0,1.764-1.82q.018-2.275,0-4.551a1.662,1.662,0,0,0-1.641-1.8q-2.45-.077-4.9,0a1.63,1.63,0,0,0-1.634,1.735c-.019.768,0,1.537,0,2.3C264.779,1420.66,264.764,1421.448,264.783,1422.236Zm1.759-4.292c0-.28.087-.375.37-.372q1.976.017,3.953,0c.263,0,.331.1.329.346-.009,1.317-.016,2.635,0,3.953.005.346-.15.375-.424.369-.649-.014-1.3,0-1.947,0-.63,0-1.259-.016-1.888.006-.316.012-.4-.1-.4-.4Q266.562,1419.891,266.543,1417.944Z" transform="translate(-4.5 -32.059)" fill="#fff"/>
      <path id="Trazado_110067" data-name="Trazado 110067" d="M264.782,1400.255a1.657,1.657,0,0,0,1.676,1.763c1.614.043,3.231.044,4.845-.005a1.675,1.675,0,0,0,1.657-1.788q.018-2.276,0-4.551a1.719,1.719,0,0,0-1.747-1.832c-1.575-.03-3.152-.032-4.728,0a1.673,1.673,0,0,0-1.7,1.742c-.02.788,0,1.576,0,2.364C264.778,1398.719,264.764,1399.487,264.782,1400.255Zm1.76-4.293c0-.284.088-.37.371-.367,1.3.013,2.6.017,3.9,0,.327,0,.388.115.385.409q-.02,1.948,0,3.9c0,.281-.077.38-.365.372-.649-.018-1.3-.005-1.949-.005-.63,0-1.26-.012-1.89,0-.307.008-.46-.044-.454-.411C266.561,1398.561,266.555,1397.261,266.542,1395.962Z" transform="translate(-4.5 -20.766)" fill="#fff"/>
      <path id="Trazado_110068" data-name="Trazado 110068" d="M264.786,1444.269a1.682,1.682,0,0,0,1.738,1.7q2.334.022,4.669,0a1.712,1.712,0,0,0,1.764-1.752q.028-2.334,0-4.669a1.688,1.688,0,0,0-1.752-1.75q-2.334-.025-4.669,0a1.665,1.665,0,0,0-1.754,1.74c-.019.768,0,1.537,0,2.305h0C264.782,1442.654,264.762,1443.462,264.786,1444.269Zm1.754-4.312c0-.3.07-.414.39-.4.648.024,1.3.007,1.949.007s1.3.012,1.949-.006c.279-.008.371.071.368.36-.015,1.319-.013,2.638,0,3.958,0,.252-.062.339-.328.337q-1.978-.02-3.957,0c-.273,0-.374-.061-.37-.355Q266.564,1441.907,266.541,1439.958Z" transform="translate(-4.499 -43.361)" fill="#fff"/>
      <path id="Trazado_110069" data-name="Trazado 110069" d="M272.952,1373.6a1.681,1.681,0,0,0-1.692-1.7q-2.393-.039-4.787,0a1.652,1.652,0,0,0-1.687,1.688q-.038,2.393,0,4.787a1.66,1.66,0,0,0,1.738,1.7c.768.015,1.537,0,2.305,0h2.305c.039,0,.079,0,.118,0a1.7,1.7,0,0,0,1.7-1.687Q272.989,1375.994,272.952,1373.6Zm-2.12,4.708c-.649-.02-1.3-.006-1.947-.006-.669,0-1.338-.01-2.007,0-.253.006-.34-.068-.338-.331q.018-1.977,0-3.954c0-.286.083-.364.364-.361,1.318.014,2.636.012,3.954,0,.25,0,.34.061.337.327q-.019,1.978,0,3.954C271.2,1378.225,271.117,1378.317,270.831,1378.308Z" transform="translate(-4.496 -9.494)" fill="#fff"/>
      <path id="Trazado_110070" data-name="Trazado 110070" d="M305.025,1405.514a.8.8,0,0,0-.589-.906,2.13,2.13,0,0,0-.638-.065q-9.127-.005-18.253,0a2.478,2.478,0,0,0-.528.028.87.87,0,0,0-.681,1.068.937.937,0,0,0,1.04.676c3.111-.01,6.222,0,9.333,0h9.038a3.259,3.259,0,0,0,.531-.012A.814.814,0,0,0,305.025,1405.514Z" transform="translate(-14.535 -26.275)" fill="#fff"/>
      <path id="Trazado_110071" data-name="Trazado 110071" d="M285.681,1396.4a4.42,4.42,0,0,0-.59.019.808.808,0,0,0-.759.834.8.8,0,0,0,.655.861,2.737,2.737,0,0,0,.644.058q9.049,0,18.1,0a2.525,2.525,0,0,0,.757-.085.866.866,0,0,0-.119-1.654,3.339,3.339,0,0,0-.648-.032q-4.495,0-8.99,0Z" transform="translate(-14.55 -22.091)" fill="#fff"/>
      <path id="Trazado_110072" data-name="Trazado 110072" d="M303.278,1428.259a.848.848,0,0,0,.928-.967c-.051-.553-.424-.8-1.232-.8q-8.693,0-17.385,0a2.2,2.2,0,0,0-.7.082.794.794,0,0,0-.562.871.806.806,0,0,0,.682.783,3.343,3.343,0,0,0,.648.035q4.287,0,8.574,0h6.031C301.268,1428.266,302.274,1428.279,303.278,1428.259Z" transform="translate(-14.546 -37.555)" fill="#fff"/>
      <path id="Trazado_110073" data-name="Trazado 110073" d="M285.317,1420.12c.1,0,.2,0,.3,0H301.7a1.9,1.9,0,0,0,.7-.062.867.867,0,0,0,.518-1.2.985.985,0,0,0-1.034-.519c-2.74.007-5.48,0-8.22,0h-3.548c-1.6,0-3.193,0-4.79,0a.9.9,0,0,0-1.009.844C284.3,1419.73,284.687,1420.092,285.317,1420.12Z" transform="translate(-14.542 -33.368)" fill="#fff"/>
      <path id="Trazado_110074" data-name="Trazado 110074" d="M300.156,1442.052a.858.858,0,0,0,.826-.846.873.873,0,0,0-.821-.912,4.7,4.7,0,0,0-.531-.007H285.738a5.536,5.536,0,0,0-.591.007.869.869,0,0,0-.825.907.854.854,0,0,0,.819.851,3.649,3.649,0,0,0,.472.009h14.069A3.907,3.907,0,0,0,300.156,1442.052Z" transform="translate(-14.544 -44.642)" fill="#fff"/>
      <path id="Trazado_110075" data-name="Trazado 110075" d="M285.437,1384.374q6.829,0,13.658,0c.731,0,1.159-.336,1.158-.892s-.421-.88-1.159-.881q-3.4,0-6.8,0-3.429,0-6.859,0c-.7,0-1.1.311-1.121.853C284.3,1384.019,284.718,1384.373,285.437,1384.374Z" transform="translate(-14.542 -15)" fill="#fff"/>
      <path id="Trazado_110076" data-name="Trazado 110076" d="M285.029,1376.156a3.355,3.355,0,0,0,.589.024q3.31,0,6.62,0h3.487c1.2,0,2.4.009,3.605-.006a.876.876,0,0,0,.926-.867.915.915,0,0,0-.862-.886,2.031,2.031,0,0,0-.236-.005q-6.885,0-13.771,0a1.412,1.412,0,0,0-.519.083.866.866,0,0,0,.162,1.654Z" transform="translate(-14.545 -10.795)" fill="#fff"/>
      <path id="Trazado_110077" data-name="Trazado 110077" d="M297.576,1448.508a3.465,3.465,0,0,0-.648-.033q-2.807,0-5.613,0-2.363,0-4.727,0c-.492,0-.986-.013-1.476.022a.792.792,0,0,0-.779.812.81.81,0,0,0,.688.894,2.379,2.379,0,0,0,.527.043q5.761,0,11.522,0a1.889,1.889,0,0,0,.638-.083.863.863,0,0,0-.132-1.653Z" transform="translate(-14.55 -48.85)" fill="#fff"/>
    </g>
  </g>
</svg>
