<svg xmlns="http://www.w3.org/2000/svg" xmlns:xlink="http://www.w3.org/1999/xlink" width="183.348" height="183.348" viewBox="0 0 183.348 183.348">
  <defs>
    <radialGradient id="radial-gradient" cx="0.076" cy="0.019" r="1.465" gradientTransform="translate(0.001)" gradientUnits="objectBoundingBox">
      <stop offset="0" stop-color="#f6f6f7"/>
      <stop offset="0.477" stop-color="#f9f9fa"/>
      <stop offset="0.715" stop-color="#fff"/>
    </radialGradient>
  </defs>
  <g id="img3" transform="translate(0 0.001)">
    <g id="Grupo_18531" data-name="Grupo 18531" transform="translate(0 0)">
      <g id="Grupo_18423" data-name="Grupo 18423" transform="translate(0 0)">
        <g id="Grupo_18421" data-name="Grupo 18421">
          <g id="Grupo_18420" data-name="Grupo 18420">
            <g id="Grupo_18419" data-name="Grupo 18419">
              <path id="Trazado_40936" data-name="Trazado 40936" d="M377.97,2237.392a91.673,91.673,0,1,1-91.672-91.671A91.672,91.672,0,0,1,377.97,2237.392Z" transform="translate(-194.623 -2145.721)" fill="#fff"/>
            </g>
          </g>
        </g>
        <path id="Trazado_40937" data-name="Trazado 40937" d="M376.482,2235.77a91.671,91.671,0,1,0-91.672,91.676A91.311,91.311,0,0,0,376.482,2235.77Z" transform="translate(-193.135 -2144.099)" fill="url(#radial-gradient)"/>
        <path id="Trazado_40938" data-name="Trazado 40938" d="M341.45,2222.48a69.974,69.974,0,1,0-69.974,69.974A69.714,69.714,0,0,0,341.45,2222.48Z" transform="translate(-179.525 -2130.503)" fill="none" stroke="#00223d" stroke-miterlimit="10" stroke-width="4"/>
        <g id="Grupo_18422" data-name="Grupo 18422" transform="translate(16.241 51.468)">
          <path id="Trazado_40939" data-name="Trazado 40939" d="M358.381,2164.488a91.684,91.684,0,0,1-157.836,91.294,91.393,91.393,0,0,0,157.836-91.294Z" transform="translate(-200.545 -2164.488)" fill="#eceef0"/>
        </g>
      </g>
    </g>
    <g id="_2XNG9B" data-name="2XNG9B" transform="translate(298.636 16.449)">
      <g id="Grupo_88572" data-name="Grupo 88572" transform="translate(-241.307 39.226)">
        <path id="Trazado_140953" data-name="Trazado 140953" d="M-81.317,171.831a8.9,8.9,0,0,1,6.478-5.3,29.67,29.67,0,0,1,11.173-.184c.092.016.185.024.356.045a56.176,56.176,0,0,0-1.347-10.168l-1.966.224,1.146,7.429c-1.273,0-2.381.013-3.488,0a27.714,27.714,0,0,0-8.706,1.274c-.52.162-1.04.329-1.569.457a1.127,1.127,0,0,1-.607-.033,30.652,30.652,0,0,0-13.128-1.6,3.921,3.921,0,0,1-.443-.03l1.153-7.489-1.936-.248a51.818,51.818,0,0,0-1.346,9.961c2.468-.074,4.916-.241,7.359-.194a26.645,26.645,0,0,1,7.232,1.359l-1.969,3.013a26.9,26.9,0,0,0-3.56-1.323,9.1,9.1,0,0,0-10.238,5.044,1.154,1.154,0,0,1-1.328.727,6.291,6.291,0,0,1-5.946-6.5,67.279,67.279,0,0,1,1.214-11.759c.457-2.278,1.036-4.536,1.657-6.776a9.434,9.434,0,0,1,4.439-5.711c.218-.13.449-.237.758-.4a16.425,16.425,0,0,0,6.854,12.878,15.951,15.951,0,0,0,11.309,3.036,16.521,16.521,0,0,0,14.8-15.891c.259.125.492.217.705.342a9.617,9.617,0,0,1,4.493,5.676A66.4,66.4,0,0,1-54.912,168.8a6.235,6.235,0,0,1-6.355,6,.818.818,0,0,1-.786-.559,8.966,8.966,0,0,0-8.015-5.412,9.16,9.16,0,0,0-9.156,6.065c-.05.131-.1.264-.15.412Z" transform="translate(123.601 -128.741)" fill="#12263f"/>
        <path id="Trazado_140954" data-name="Trazado 140954" d="M-18.49,39.226a14.414,14.414,0,0,1,14.4,14.382A14.423,14.423,0,0,1-18.382,68.18,14.442,14.442,0,0,1-32.893,53.753,14.422,14.422,0,0,1-18.49,39.226Z" transform="translate(62.651 -39.226)" fill="#12263f"/>
        <path id="Trazado_140955" data-name="Trazado 140955" d="M-45.15,350.95c0-3.14-.005-6.28,0-9.42a7.2,7.2,0,0,1,7.14-7.279,7.208,7.208,0,0,1,7.282,7.218q.03,9.456,0,18.912a7.17,7.17,0,0,1-7.257,7.156,7.163,7.163,0,0,1-7.164-7.167C-45.159,357.23-45.15,354.09-45.15,350.95Z" transform="translate(73.161 -292.128)" fill="#12263f"/>
        <path id="Trazado_140956" data-name="Trazado 140956" d="M94.423,351.8c0,3.068.005,6.137,0,9.205a7.21,7.21,0,1,1-14.419.01q-.019-9.276,0-18.553a7.209,7.209,0,1,1,14.417-.01C94.432,345.568,94.423,348.684,94.423,351.8Z" transform="translate(-34.117 -292.977)" fill="#12263f"/>
        <path id="Trazado_140957" data-name="Trazado 140957" d="M-230.181,469.766a31.248,31.248,0,0,1,9.87,1.511,2.088,2.088,0,0,1,1.461,3.008,14.161,14.161,0,0,1-9.742,8.844,5.767,5.767,0,0,1-3.508-.188,14.434,14.434,0,0,1-8.947-8.507c-.637-1.565-.091-2.666,1.538-3.19A30.356,30.356,0,0,1-230.181,469.766Zm.034,5.684a29.6,29.6,0,0,0,9.223-1.384c.379-.119.9-.214.781-.734a1.221,1.221,0,0,0-.75-.679,29.3,29.3,0,0,0-18.144,0,1.232,1.232,0,0,0-.764.678c-.117.51.4.615.784.735A29.021,29.021,0,0,0-230.147,475.449Z" transform="translate(241.307 -408.293)" fill="#12263f"/>
        <path id="Trazado_140958" data-name="Trazado 140958" d="M96.936,610.839l.415-.323.09.107-.4.338Z" transform="translate(-48.642 -528.947)" fill="#12263f"/>
      </g>
    </g>
  </g>
</svg>
