<svg xmlns="http://www.w3.org/2000/svg" width="363.619" height="181.829" viewBox="0 0 363.619 181.829">
  <g id="img4" transform="translate(-941.188 -4535.813)">
    <g id="Grupo_87956" data-name="Grupo 87956" transform="translate(941.188 4535.813)">
      <g id="Grupo_87954" data-name="Grupo 87954" transform="translate(0 0)">
        <g id="Grupo_87910" data-name="Grupo 87910" transform="translate(196.426 62.308)">
          <path id="Trazado_139733" data-name="Trazado 139733" d="M590.656,358.628c-.409,1.183-4.814,13.533-12,14-1.93.125-3.63-.283-6.52-1.18a44.808,44.808,0,0,1-11.817-5.676,3.9,3.9,0,0,1-4.794-5.592c2.294,1.259,4.261,2.186,5.682,2.817a47.728,47.728,0,0,0,10.914,3.706,35.1,35.1,0,0,0,5.373.616,16.2,16.2,0,0,0,2.2-6.561Z" transform="translate(-555.023 -349.82)" fill="#f27b7b"/>
          <path id="Trazado_139734" data-name="Trazado 139734" d="M597.346,348.146a43.254,43.254,0,0,1-5.346,15.8l-6.406-2.5a18.958,18.958,0,0,1,2.79-10.327c1.643-2.554,3.07-3.173,3.578-3.364A7.131,7.131,0,0,1,597.346,348.146Z" transform="translate(-561.654 -347.381)" fill="#12263f"/>
        </g>
        <path id="Trazado_139735" data-name="Trazado 139735" d="M592.225,391.213a13.68,13.68,0,0,1-3.548,1.148,14.081,14.081,0,0,1-6.467-.4,15.3,15.3,0,0,1-1.78-.647q.267-2.791.558-5.469.177-1.633.362-3.222.126-1.095.255-2.168.23-1.9.469-3.734c.591-4.567,1.216-8.825,1.847-12.759.812-5.07,1.909-11.323,6.782-14.262a10.89,10.89,0,0,1,3.794-1.386,4.741,4.741,0,0,1-.092.569,4.882,4.882,0,0,1-.179.609l1.487,7.251q-1.008,9.955-2.016,19.911v0Q592.962,383.937,592.225,391.213Z" transform="translate(-364.108 -285.276)" fill="#ff9d00"/>
        <g id="Grupo_87913" data-name="Grupo 87913" transform="translate(186.382 92.071)">
          <g id="Grupo_87911" data-name="Grupo 87911" transform="translate(0 20.312)">
            <path id="Trazado_139736" data-name="Trazado 139736" d="M552.783,414.255l-1.5,9.631a1.715,1.715,0,0,0,3.386.078,48.918,48.918,0,0,0,1.38-12.638Z" transform="translate(-544.169 -411.326)" fill="#504f66"/>
            <path id="Trazado_139737" data-name="Trazado 139737" d="M552.774,427.057a2.314,2.314,0,0,1-3.43.029c-1.328,3.1-2.552,3.865-3.46,3.94-.707.06-1.387-.285-2.244.1a3.044,3.044,0,0,0-1.444,1.592,6.36,6.36,0,0,0,3.423,1.32,6.424,6.424,0,0,0,4.087-1.139l.284,1.036,2.761-.108a4.95,4.95,0,0,0,.435-2,5.912,5.912,0,0,0-.314-1.836A6.336,6.336,0,0,1,552.774,427.057Z" transform="translate(-542.197 -414.738)" fill="#504f66"/>
          </g>
          <g id="Grupo_87912" data-name="Grupo 87912" transform="translate(6.179)">
            <path id="Trazado_139738" data-name="Trazado 139738" d="M557.848,390.445h0a5.783,5.783,0,0,0,4.729,6.42l21.262,3.431a6.511,6.511,0,0,0,7.276-5.642h0a6.51,6.51,0,0,0-5.642-7.276l-21.445-1.973A5.783,5.783,0,0,0,557.848,390.445Z" transform="translate(-551.76 -385.388)" fill="#565f86"/>
            <path id="Trazado_139739" data-name="Trazado 139739" d="M550.087,415.747l4.853,1.523,11.493-23.984a5.38,5.38,0,0,0-2.55-7.355h0a5.38,5.38,0,0,0-7.228,2.891C554.557,397.074,552.185,407.495,550.087,415.747Z" transform="translate(-550.087 -385.4)" fill="#565f86"/>
          </g>
        </g>
        <g id="Grupo_87919" data-name="Grupo 87919" transform="translate(51.187 0)">
          <g id="Grupo_87914" data-name="Grupo 87914" transform="translate(12.556 80.85)">
            <path id="Trazado_139740" data-name="Trazado 139740" d="M385.89,445.121a6.839,6.839,0,0,0,1.767,4.265,6.745,6.745,0,0,0,4.264,1.767h36.425a6.031,6.031,0,0,0,6.031-6.031v-68a6.031,6.031,0,0,0-6.031-6.031H391.921a5.622,5.622,0,0,0-3.9,1.064,5.966,5.966,0,0,0-2.134,4.966C385.48,414.08,385.495,441.061,385.89,445.121Z" transform="translate(-385.588 -371.059)" fill="#ff9d00"/>
            <rect id="Rectángulo_32857" data-name="Rectángulo 32857" width="17.839" height="9.076" transform="translate(9.076 31.127) rotate(90)" fill="#c96740"/>
            <rect id="Rectángulo_32858" data-name="Rectángulo 32858" width="17.839" height="9.076" transform="translate(48.788 31.127) rotate(90)" fill="#c96740"/>
          </g>
          <g id="Grupo_87915" data-name="Grupo 87915" transform="translate(61.344 93.029)">
            <path id="Trazado_139741" data-name="Trazado 139741" d="M492.822,389.665v38.013a3.172,3.172,0,0,1-3.384,2.905H451.274a3.172,3.172,0,0,1-3.384-2.905V389.665a3.046,3.046,0,0,1,.991-2.056,4.24,4.24,0,0,1,2.393-.852c1.247-.1,6.334-.151,14.078-.145,2.967,0,6.327.016,10.008.036,4.288.023,9.018.06,14.078.109a3.685,3.685,0,0,1,2.786,1.031A2.417,2.417,0,0,1,492.822,389.665Z" transform="translate(-447.89 -386.611)" fill="#12263f"/>
            <path id="Trazado_139742" data-name="Trazado 139742" d="M480.2,386.648v6.358H470.189v-6.394C473.156,386.615,476.516,386.628,480.2,386.648Z" transform="translate(-452.727 -386.611)" fill="#1c467b"/>
            <rect id="Rectángulo_32859" data-name="Rectángulo 32859" width="10.011" height="6.392" transform="translate(17.461 37.579)" fill="#1c467b"/>
          </g>
          <g id="Grupo_87916" data-name="Grupo 87916" transform="translate(63.689 137)">
            <path id="Trazado_139743" data-name="Trazado 139743" d="M472.68,466.7H452.431a1.689,1.689,0,0,1-1.547-1.8V444.565a1.689,1.689,0,0,1,1.547-1.8H472.68a1.62,1.62,0,0,1,1.1.527,2.256,2.256,0,0,1,.454,1.275c.054.665.081,3.374.077,7.5,0,1.581-.009,3.37-.019,5.331-.013,2.284-.032,4.8-.058,7.5a1.963,1.963,0,0,1-.549,1.484A1.289,1.289,0,0,1,472.68,466.7Z" transform="translate(-450.884 -442.763)" fill="#12263f"/>
            <path id="Trazado_139744" data-name="Trazado 139744" d="M479.833,459.972h-3.387v-5.331h3.406C479.85,456.222,479.843,458.011,479.833,459.972Z" transform="translate(-456.429 -445.34)" fill="#1c467b"/>
            <rect id="Rectángulo_32860" data-name="Rectángulo 32860" width="5.333" height="3.405" transform="translate(3.405 9.301) rotate(90)" fill="#1c467b"/>
          </g>
          <g id="Grupo_87917" data-name="Grupo 87917" transform="translate(0 34.597)">
            <rect id="Rectángulo_32861" data-name="Rectángulo 32861" width="46.253" height="73.901" rx="5.277" transform="translate(73.901 0) rotate(90)" fill="#b0c0d2"/>
            <rect id="Rectángulo_32862" data-name="Rectángulo 32862" width="16.606" height="9.391" transform="translate(73.894 14.622) rotate(90)" fill="#d2e1f1"/>
            <rect id="Rectángulo_32863" data-name="Rectángulo 32863" width="16.606" height="9.391" transform="translate(9.391 14.622) rotate(90)" fill="#d2e1f1"/>
          </g>
          <g id="Grupo_87918" data-name="Grupo 87918" transform="translate(18.008)">
            <rect id="Rectángulo_32864" data-name="Rectángulo 32864" width="34.597" height="35.363" rx="3.157" transform="translate(0 34.597) rotate(-90)" fill="#afafaf"/>
            <rect id="Rectángulo_32865" data-name="Rectángulo 32865" width="11.853" height="6.422" transform="translate(28.94 23.375) rotate(-90)" fill="#e8e8e8"/>
            <rect id="Rectángulo_32866" data-name="Rectángulo 32866" width="11.853" height="6.422" transform="translate(0 23.375) rotate(-90)" fill="#e8e8e8"/>
          </g>
        </g>
        <g id="Grupo_87920" data-name="Grupo 87920" transform="translate(209.517 70.511)">
          <path id="Rectángulo_32867" data-name="Rectángulo 32867" d="M0,0H44.036a0,0,0,0,1,0,0V8.527A17.557,17.557,0,0,1,26.479,26.083H0a0,0,0,0,1,0,0V0A0,0,0,0,1,0,0Z" transform="translate(44.036 61.336) rotate(180)" fill="#9cd1ff"/>
          <path id="Trazado_139745" data-name="Trazado 139745" d="M608.954,419.191h14.894V372.75a14.9,14.9,0,0,0-14.894-14.894h0Z" transform="translate(-579.812 -357.856)" fill="#9cd1ff"/>
        </g>
        <g id="Grupo_87921" data-name="Grupo 87921" transform="translate(162.505 65.861)">
          <path id="Trazado_139746" data-name="Trazado 139746" d="M555.64,375.421q-2.137-3.883-4.272-7.768a113.381,113.381,0,0,1-39.418,5.724q-.121,11.984-.244,23.967a58.054,58.054,0,0,1,43.934-21.923Z" transform="translate(-511.706 -355.331)" fill="#727997"/>
          <path id="Trazado_139747" data-name="Trazado 139747" d="M557.8,370.958c4.606,9.125,10.424,15.471,12.995,14.172s.922-9.746-3.685-18.872-10.423-15.47-12.994-14.172S553.2,361.833,557.8,370.958Zm-.869-15c1.367-.691,5.256,4.259,8.686,11.055s5.1,12.864,3.734,13.554-5.256-4.259-8.686-11.056S555.564,356.648,556.931,355.958Z" transform="translate(-520.642 -351.918)" fill="#12263f"/>
          <path id="Trazado_139748" data-name="Trazado 139748" d="M563.151,371.2c1.865,3.693,3.92,6.413,4.592,6.074s-.294-3.608-2.158-7.3-3.92-6.413-4.592-6.073S561.287,367.5,563.151,371.2Z" transform="translate(-522.351 -354.51)" fill="#12263f"/>
        </g>
        <g id="Grupo_87924" data-name="Grupo 87924" transform="translate(159.062 99.759)">
          <g id="Grupo_87922" data-name="Grupo 87922" transform="translate(0.199 10.553)">
            <path id="Trazado_139749" data-name="Trazado 139749" d="M507.564,431.743l2,2.412,31.02-17.666-1.567-2.738Z" transform="translate(-507.564 -409.781)" fill="#727997"/>
            <path id="Trazado_139750" data-name="Trazado 139750" d="M548.576,409.212a4.013,4.013,0,1,1-1.49,5.476A4.014,4.014,0,0,1,548.576,409.212Z" transform="translate(-516.022 -408.682)" fill="#727997"/>
          </g>
          <g id="Grupo_87923" data-name="Grupo 87923" transform="translate(0)">
            <rect id="Rectángulo_32868" data-name="Rectángulo 32868" width="3.155" height="36.232" transform="matrix(-0.751, -0.661, 0.661, -0.751, 2.368, 34.252)" fill="#727997"/>
            <path id="Trazado_139751" data-name="Trazado 139751" d="M537.524,396.567a4.013,4.013,0,1,1,.36,5.663A4.013,4.013,0,0,1,537.524,396.567Z" transform="translate(-513.646 -395.206)" fill="#727997"/>
          </g>
        </g>
        <path id="Trazado_139752" data-name="Trazado 139752" d="M505.265,441.135v1.522c.2-.042.395-.092.6-.141.338-.077.677-.148,1.023-.2l.486-.085c.127-.021.261-.042.395-.056.522-.07,1.065-.134,1.608-.176.183-.007.367-.021.557-.035a1.724,1.724,0,0,1,.19-.007c.381-.021.762-.028,1.143-.028h.021c.183,0,.359,0,.543.007s.4.007.6.021a1.782,1.782,0,0,1,.19.007c.191.014.374.021.557.035.366.028.726.063,1.085.113.338-.049.677-.084,1.023-.113.176-.007.345-.021.521-.035a1.6,1.6,0,0,1,.183-.007c.352-.021.712-.028,1.072-.028h.021c.169,0,.331,0,.507.007s.374.007.564.021a1.539,1.539,0,0,1,.176.007c.176.014.352.021.521.035.508.042,1.016.106,1.509.176.127.014.247.035.374.056.148.028.3.049.459.085.324.056.641.127.958.2.282.07.557.141.846.219l.557.169c.317.1.627.2.93.31a23.7,23.7,0,0,1,10.815,8.059c.2.268.388.536.586.811.106.162.226.331.331.5.1.141.19.275.275.416.388.627.761,1.276,1.107,1.939.113.218.219.445.325.67s.211.452.31.677a26.267,26.267,0,0,1,2.179,10.519,27.11,27.11,0,0,1-.211,3.314h44.22c-.007-.091-.007-.191-.007-.282a13.513,13.513,0,0,1,13.036-13.5c.155-.007.317-.007.473-.007a13.439,13.439,0,0,1,7.9,2.552V441.135Z" transform="translate(-347.804 -305.41)" fill="#9cd1ff"/>
        <g id="Grupo_87928" data-name="Grupo 87928" transform="translate(148.02 139.404)">
          <path id="Trazado_139753" data-name="Trazado 139753" d="M493.209,468.211h0a21.163,21.163,0,0,0,1.2,5.984h0a1.136,1.136,0,0,1,1.489.6l.024.059a1.136,1.136,0,0,1-.6,1.489h0a21.243,21.243,0,0,0,3.272,4.872l0,0a1.137,1.137,0,0,1,1.606,0l.045.045a1.137,1.137,0,0,1,0,1.608h0a21.311,21.311,0,0,0,5.081,3.381l0-.005a1.134,1.134,0,0,1,1.478-.624l.063.026a1.134,1.134,0,0,1,.623,1.478l0,.008a21.148,21.148,0,0,0,5.758,1.125h0a1.135,1.135,0,0,1,1.135-1.135h.067a1.135,1.135,0,0,1,1.135,1.135h0a21.192,21.192,0,0,0,5.984-1.2l0-.007a1.135,1.135,0,0,1,.607-1.486l.061-.026a1.135,1.135,0,0,1,1.485.6l0,.005a21.016,21.016,0,0,0,4.873-3.276h0a1.137,1.137,0,0,1,0-1.609l.041-.041a1.136,1.136,0,0,1,1.609,0h0a21.346,21.346,0,0,0,3.381-5.085h0a1.137,1.137,0,0,1-.626-1.484l.022-.054a1.137,1.137,0,0,1,1.482-.624l0,0a21.168,21.168,0,0,0,1.126-5.763h0a1.137,1.137,0,0,1-1.138-1.137v-.057a1.137,1.137,0,0,1,1.138-1.138h0a21.2,21.2,0,0,0-1.2-5.984l0,0a1.138,1.138,0,0,1-1.49-.608l-.023-.056a1.137,1.137,0,0,1,.606-1.489l0,0a21.135,21.135,0,0,0-3.277-4.872h0a1.137,1.137,0,0,1-1.609,0l-.041-.041a1.136,1.136,0,0,1,0-1.608h0a21.266,21.266,0,0,0-5.085-3.381v0a1.137,1.137,0,0,1-1.484.626l-.053-.022a1.138,1.138,0,0,1-.625-1.481l0-.005a21.15,21.15,0,0,0-5.763-1.126h0a1.134,1.134,0,0,1-1.135,1.135h-.067a1.134,1.134,0,0,1-1.135-1.135h0a21.2,21.2,0,0,0-5.984,1.2l0,.005a1.136,1.136,0,0,1-.607,1.488l-.057.024a1.135,1.135,0,0,1-1.487-.607l0-.006a21.272,21.272,0,0,0-4.868,3.282h0a1.136,1.136,0,0,1,0,1.608l-.048.048a1.136,1.136,0,0,1-1.6,0l0,0a21.292,21.292,0,0,0-3.376,5.081h0a1.137,1.137,0,0,1,.623,1.482l-.022.055a1.138,1.138,0,0,1-1.482.623h0a21.18,21.18,0,0,0-1.125,5.763h0a1.135,1.135,0,0,1,1.135,1.135v.063A1.134,1.134,0,0,1,493.209,468.211Z" transform="translate(-493.209 -445.833)" fill="#727997"/>
          <circle id="Elipse_4199" data-name="Elipse 4199" cx="12.745" cy="12.745" r="12.745" transform="translate(8.258 8.467)" fill="#12263f"/>
          <circle id="Elipse_4200" data-name="Elipse 4200" cx="5.556" cy="5.556" r="5.556" transform="translate(15.447 15.657)" fill="#fff"/>
          <g id="Grupo_87927" data-name="Grupo 87927" transform="translate(10.304 10.305)">
            <g id="Grupo_87925" data-name="Grupo 87925">
              <path id="Trazado_139754" data-name="Trazado 139754" d="M517.865,460.688a1.7,1.7,0,1,0,1.7-1.7A1.7,1.7,0,0,0,517.865,460.688Z" transform="translate(-508.861 -458.993)" fill="#fff"/>
              <path id="Trazado_139755" data-name="Trazado 139755" d="M518.13,484.215a1.7,1.7,0,1,0,1.7-1.695A1.7,1.7,0,0,0,518.13,484.215Z" transform="translate(-508.919 -464.096)" fill="#fff"/>
              <path id="Trazado_139756" data-name="Trazado 139756" d="M508.062,474.147a1.7,1.7,0,1,0-1.695-1.7A1.7,1.7,0,0,0,508.062,474.147Z" transform="translate(-506.367 -461.545)" fill="#fff"/>
              <path id="Trazado_139757" data-name="Trazado 139757" d="M531.588,474.147a1.7,1.7,0,1,0-1.7-1.7A1.7,1.7,0,0,0,531.588,474.147Z" transform="translate(-511.47 -461.545)" fill="#fff"/>
            </g>
            <g id="Grupo_87926" data-name="Grupo 87926" transform="translate(2.698 2.698)">
              <circle id="Elipse_4201" data-name="Elipse 4201" cx="1.695" cy="1.695" r="1.695" transform="translate(13.027)" fill="#fff"/>
              <path id="Trazado_139758" data-name="Trazado 139758" d="M510.309,479.571a1.7,1.7,0,1,0,2.4,0A1.7,1.7,0,0,0,510.309,479.571Z" transform="translate(-509.812 -466.047)" fill="#fff"/>
              <circle id="Elipse_4202" data-name="Elipse 4202" cx="1.695" cy="1.695" r="1.695" fill="#fff"/>
              <path id="Trazado_139759" data-name="Trazado 139759" d="M526.944,481.968a1.7,1.7,0,1,0,0-2.4A1.7,1.7,0,0,0,526.944,481.968Z" transform="translate(-513.421 -466.047)" fill="#fff"/>
            </g>
          </g>
        </g>
        <rect id="Rectángulo_32869" data-name="Rectángulo 32869" width="44.036" height="13.042" transform="translate(253.552 131.846) rotate(180)" fill="#12263f"/>
        <path id="Trazado_139760" data-name="Trazado 139760" d="M580.184,300.168h-.006c-48.722,0-74.912,39.5-74.912,88.221v22.168H605.826V325.816A25.651,25.651,0,0,0,580.184,300.168Zm17.266,104.89H513.2l-.072-18.475c-.28-7-.695-35.823,18.8-57.466a68.68,68.68,0,0,1,25.552-17.95c6.795-2.7,13.371-3.67,21.423-3.67,12.7,0,18.547,8.893,18.547,21.591Z" transform="translate(-347.804 -274.832)" fill="#12263f"/>
        <path id="Trazado_139761" data-name="Trazado 139761" d="M341.556,472.794H459.094a26.286,26.286,0,0,1-.875-6.754,26.023,26.023,0,0,1,2.842-11.9c.092-.169.176-.345.261-.507s.176-.331.275-.493.2-.339.3-.508.2-.338.31-.507.2-.324.317-.486.205-.31.318-.465c.063-.1.141-.2.211-.3.106-.148.219-.3.331-.444a23.657,23.657,0,0,1,10.709-7.968c.282-.1.564-.2.86-.288.247-.085.515-.162.776-.233.056-.014.12-.028.183-.049.183-.042.374-.092.564-.141.317-.078.634-.148.959-.2l.458-.085c.113-.021.24-.042.367-.056l.359-.047c.356-.046.941-.115,1.3-.137.124-.007.246-.017.371-.027a1.6,1.6,0,0,1,.183-.007c.352-.021.712-.028,1.072-.028h.021c.169,0,.331,0,.507.007s.374.007.564.021a1.539,1.539,0,0,1,.176.007c.176.014.352.021.522.035.508.042,1.016.106,1.509.176.127.014.247.035.374.056.148.028.3.049.459.085.324.056.641.127.958.2.282.07.557.141.846.219l.558.169c.317.1.627.2.93.31a23.7,23.7,0,0,1,10.815,8.059c.2.268.388.536.586.811.106.162.226.331.331.5.1.141.19.275.275.416.388.627.761,1.276,1.107,1.939.114.218.219.445.325.669s.211.452.31.677A26.268,26.268,0,0,1,504.9,466.04a27.075,27.075,0,0,1-.211,3.314,25.017,25.017,0,0,1-.663,3.44h45.4a13.227,13.227,0,0,1-.514-3.44c-.007-.092-.007-.191-.007-.282a13.39,13.39,0,0,1,.367-3.124q-20.368-.159-40.737-.31c-.063-2.115-.565-12.282-7.46-19.509a30.86,30.86,0,0,0-7.854-5.76,26.5,26.5,0,0,0-6.973-2.37,24.5,24.5,0,0,0-4.4-.395h-.578a24.77,24.77,0,0,0-11.373,2.764,1.4,1.4,0,0,1-.141.078,28.048,28.048,0,0,0-14.616,24.994l-106.307.072A7.282,7.282,0,0,0,341.556,472.794Z" transform="translate(-312.294 -304.644)" fill="#12263f"/>
        <path id="Trazado_139762" data-name="Trazado 139762" d="M622.984,440.55v15.659c.155-.007.317-.007.473-.007a13.439,13.439,0,0,1,7.9,2.552v-18.2Z" transform="translate(-373.339 -305.283)" fill="#12263f"/>
        <g id="Grupo_87933" data-name="Grupo 87933" transform="translate(238.789 153.096)">
          <path id="Trazado_139763" data-name="Trazado 139763" d="M609.121,475.27h0a11.316,11.316,0,0,0,.642,3.2h0a.606.606,0,0,1,.795.323l.013.031a.607.607,0,0,1-.323.795h0a11.341,11.341,0,0,0,1.748,2.6h0a.607.607,0,0,1,.858,0l.024.024a.607.607,0,0,1,0,.859h0a11.38,11.38,0,0,0,2.714,1.806v0a.606.606,0,0,1,.79-.333l.034.013a.605.605,0,0,1,.333.789l0,0a11.276,11.276,0,0,0,3.076.6h0a.606.606,0,0,1,.606-.606h.036a.606.606,0,0,1,.606.606h0a11.32,11.32,0,0,0,3.2-.642v0a.606.606,0,0,1,.323-.794l.033-.013a.606.606,0,0,1,.793.323v0a11.236,11.236,0,0,0,2.6-1.75h0a.608.608,0,0,1,0-.86l.022-.022a.607.607,0,0,1,.859,0h0a11.381,11.381,0,0,0,1.806-2.716h0a.608.608,0,0,1-.334-.793l.012-.028a.608.608,0,0,1,.792-.334l0,0a11.3,11.3,0,0,0,.6-3.078h0a.608.608,0,0,1-.608-.608v-.031a.608.608,0,0,1,.608-.608h0a11.319,11.319,0,0,0-.642-3.2h0a.607.607,0,0,1-.8-.325l-.013-.029a.608.608,0,0,1,.323-.8h0a11.3,11.3,0,0,0-1.75-2.6h0a.607.607,0,0,1-.859,0l-.022-.022a.607.607,0,0,1,0-.859h0a11.338,11.338,0,0,0-2.717-1.806h0a.608.608,0,0,1-.792.334l-.029-.012a.608.608,0,0,1-.333-.792l0,0a11.293,11.293,0,0,0-3.078-.6h0a.606.606,0,0,1-.606.606h-.036a.607.607,0,0,1-.606-.606h0a11.325,11.325,0,0,0-3.2.642l0,0a.608.608,0,0,1-.324.795l-.031.013a.606.606,0,0,1-.794-.324l0,0a11.387,11.387,0,0,0-2.6,1.753h0a.607.607,0,0,1,0,.858l-.026.026a.606.606,0,0,1-.856,0l0,0a11.363,11.363,0,0,0-1.8,2.714h0a.606.606,0,0,1,.333.791l-.012.03a.607.607,0,0,1-.792.333h0a11.3,11.3,0,0,0-.6,3.078h0a.606.606,0,0,1,.606.606v.034A.606.606,0,0,1,609.121,475.27Z" transform="translate(-609.121 -463.317)" fill="#727997"/>
          <circle id="Elipse_4203" data-name="Elipse 4203" cx="6.808" cy="6.808" r="6.808" transform="translate(4.522 4.522)" fill="#12263f"/>
          <g id="Grupo_87932" data-name="Grupo 87932" transform="translate(5.504 5.504)">
            <circle id="Elipse_4204" data-name="Elipse 4204" cx="2.967" cy="2.967" r="2.967" transform="translate(2.651 2.858)" fill="#f9f9f9"/>
            <g id="Grupo_87931" data-name="Grupo 87931">
              <g id="Grupo_87929" data-name="Grupo 87929">
                <path id="Trazado_139764" data-name="Trazado 139764" d="M622.167,471.251a.906.906,0,1,0,.906-.905A.905.905,0,0,0,622.167,471.251Z" transform="translate(-617.454 -470.346)" fill="#f9f9f9"/>
                <path id="Trazado_139765" data-name="Trazado 139765" d="M622.167,483.817a.906.906,0,1,0,.906-.905A.906.906,0,0,0,622.167,483.817Z" transform="translate(-617.454 -473.072)" fill="#f9f9f9"/>
                <circle id="Elipse_4205" data-name="Elipse 4205" cx="0.905" cy="0.905" r="0.905" transform="translate(0 4.92)" fill="#f9f9f9"/>
                <circle id="Elipse_4206" data-name="Elipse 4206" cx="0.905" cy="0.905" r="0.905" transform="translate(9.633 4.92)" fill="#f9f9f9"/>
              </g>
              <g id="Grupo_87930" data-name="Grupo 87930" transform="translate(1.234 1.441)">
                <circle id="Elipse_4207" data-name="Elipse 4207" cx="0.905" cy="0.905" r="0.905" transform="translate(6.958 0)" fill="#f9f9f9"/>
                <path id="Trazado_139766" data-name="Trazado 139766" d="M617.99,481.337a.906.906,0,1,0,1.28,0A.907.907,0,0,0,617.99,481.337Z" transform="translate(-617.725 -474.113)" fill="#f9f9f9"/>
                <path id="Trazado_139767" data-name="Trazado 139767" d="M617.99,473.732a.905.905,0,1,0,0-1.28A.9.9,0,0,0,617.99,473.732Z" transform="translate(-617.725 -472.186)" fill="#f9f9f9"/>
                <circle id="Elipse_4208" data-name="Elipse 4208" cx="0.905" cy="0.905" r="0.905" transform="translate(6.958 6.958)" fill="#f9f9f9"/>
              </g>
            </g>
          </g>
        </g>
        <path id="Trazado_139768" data-name="Trazado 139768" d="M602.448,473.2c0,.091,0,.19.007.282H605.5c-.007-.092-.007-.191-.007-.282a13.512,13.512,0,0,1,13.036-13.5c.155-.007.317-.007.473-.007a13.44,13.44,0,0,1,7.9,2.552v-3.589A16.554,16.554,0,0,0,602.448,473.2Z" transform="translate(-368.884 -308.775)" fill="#12263f"/>
        <g id="Grupo_87941" data-name="Grupo 87941" transform="translate(185.951 40.397)">
          <g id="Grupo_87934" data-name="Grupo 87934" transform="translate(0 75.697)">
            <path id="Trazado_139769" data-name="Trazado 139769" d="M557.33,417.671l-4.76,8.505a1.715,1.715,0,0,0,3.146,1.254,48.867,48.867,0,0,0,5.7-11.364Z" transform="translate(-544.009 -416.066)" fill="#504f66"/>
            <path id="Trazado_139770" data-name="Trazado 139770" d="M553.534,429.9a6.373,6.373,0,0,0-.929,2.775c-.007.093-.013.18-.02.266h-9.733a6.383,6.383,0,0,1-1.2-1.426,3.058,3.058,0,0,1,1.909-.991c.936-.059,1.453.5,2.137.694.877.245,2.289-.041,4.616-2.485a2.314,2.314,0,0,0,3.225,1.167Z" transform="translate(-541.647 -418.815)" fill="#62617d"/>
          </g>
          <g id="Grupo_87936" data-name="Grupo 87936" transform="translate(8.522 49.222)">
            <g id="Grupo_87935" data-name="Grupo 87935" transform="translate(0 5)">
              <path id="Trazado_139771" data-name="Trazado 139771" d="M563.892,397.8h0a5.783,5.783,0,0,0,6.036,5.21l21.492-1.374a6.511,6.511,0,0,0,5.843-7.117h0a6.511,6.511,0,0,0-7.117-5.842L568.8,391.511A5.783,5.783,0,0,0,563.892,397.8Z" transform="translate(-554.988 -388.642)" fill="#727997"/>
              <path id="Trazado_139772" data-name="Trazado 139772" d="M552.529,418.226l4.729,2.969,14-20.146a5.38,5.38,0,0,0-1.558-7.627h0a5.38,5.38,0,0,0-7.546,1.912Z" transform="translate(-552.529 -389.5)" fill="#727997"/>
            </g>
            <path id="Trazado_139773" data-name="Trazado 139773" d="M583.066,392.614l18.359.7q-.168-4.484-.335-8.968l-16.474-2.093Q583.842,387.435,583.066,392.614Z" transform="translate(-559.153 -382.257)" fill="#62617d"/>
          </g>
          <path id="Trazado_139774" data-name="Trazado 139774" d="M603.739,333.336a28.289,28.289,0,0,0,1.272,14.305l-7.736.283c1.675-5.1,1.08-8.1.177-9.908-.359-.721-.886-1.492-.636-2.321C597.344,333.952,600.85,333.47,603.739,333.336Z" transform="translate(-553.6 -322.424)" fill="#ffb89e"/>
          <path id="Trazado_139775" data-name="Trazado 139775" d="M594.1,326.674c1.774-1.193,4.576-.377,6.165,1.06,2.567,2.321,2.619,6.742.8,8.738a3.759,3.759,0,0,1-.655.569,4.073,4.073,0,0,1-.65,2.523c-.818,1.185-2.1,1.457-3.743,1.8-2.288.485-4.209.184-4.576-.429a1.247,1.247,0,0,1-.167-.468c-.049-.484.309-.623.249-1-.067-.428-.56-.6-.473-.883.034-.108.134-.167.131-.32a.445.445,0,0,0-.085-.241c-.231-.368.995-1.37.836-1.925-.122-.426-.955-.251-1.145-.692-.235-.547.912-1.12,1.372-2.438.358-1.027-.02-1.381.021-2.626A4.86,4.86,0,0,1,594.1,326.674Z" transform="translate(-552.301 -320.854)" fill="#ffb89e"/>
          <path id="Trazado_139776" data-name="Trazado 139776" d="M598.937,354.868a10.48,10.48,0,0,1-5.709-2.447c.19-.2.3-.3.3-.3a12.1,12.1,0,0,1,3.43-2.151h.006c1.44.111,2.881.188,4.322.293.992.072,1.89.133,2.669.206,1.851.173,3.046.42,3.321,1.078a.332.332,0,0,1,.017.06C607.485,352.678,602.949,355.212,598.937,354.868Z" transform="translate(-552.835 -326.032)" fill="#ffb89e"/>
          <path id="Trazado_139777" data-name="Trazado 139777" d="M601.114,378.527l-1.833,2.413-15.023-1.9a143.835,143.835,0,0,1,1.929-14.706s1.554-8.435,5.094-11.914l.3-.3a12.1,12.1,0,0,1,3.43-2.151l.009,0,0,0c-1.156,1.449-1.344,3.1-.661,3.889.853.987,2.818.363,3.51.143a7.678,7.678,0,0,0,4.142-3.533c.023-.038.043-.074.063-.11a5.812,5.812,0,0,1,3.75,1.091,6.242,6.242,0,0,1,1.942,2.916c1.288,4.44-4.2,8-6.19,15.35A21.674,21.674,0,0,0,601.114,378.527Z" transform="translate(-550.89 -326.031)" fill="#12263f"/>
          <path id="Trazado_139778" data-name="Trazado 139778" d="M593.178,326.521c1.269,1.063,3.212-.061,3.6.65.44.81-1.32,2.29-.745,3.238.206.34.558.26.8.545.7.823-.294,2.353-.957,5.313l0,.013a.456.456,0,0,1-.819.164,2.6,2.6,0,0,0-.97-.876,2.841,2.841,0,0,0-2.034-.193,1.525,1.525,0,0,0-.653,1.151,1.88,1.88,0,0,1,.715-.214c.121-.01.982-.093,1.294.391.164.254.064.608-.137,1.315-.19.668-.319,1.1-.677,1.229a.586.586,0,0,1-.576-.078.545.545,0,0,1-.153-.437.385.385,0,0,0-.345-.415h-.01a1.722,1.722,0,0,0-.3.641l0,.016a1.527,1.527,0,0,0,.623,1.55c.032.023.064.046.1.068,2.626,1.761,7.012-.893,7.634-1.28h0a2.2,2.2,0,0,0,.959-.968,2.51,2.51,0,0,0,.169-.7,11.977,11.977,0,0,0,.129-1.555q-.212-.923-.426-1.847a2.937,2.937,0,0,1-.431.892c-.663.922-2,1.6-2.644,1.163-.117-.078-.358-.3-.387-.968.251-2.254,1.063-3.886,2.027-4.013a1.482,1.482,0,0,1,1.075.284,1.765,1.765,0,0,1,.526,1.283c.146,1.759-1.394,3.818-1.732,4.256a5.121,5.121,0,0,0,1.966-.058,4.831,4.831,0,0,0,1.128-.4c2.33-1.228,3.336-4.605,2.843-7.359a7.04,7.04,0,0,0-2.445-4.344,6.771,6.771,0,0,0-4.964-1.462,5.676,5.676,0,0,1-1.76.09c-.168-.017-1.381-.143-1.431-.521-.048-.359.983-.647.935-.858a1.87,1.87,0,0,0-1.939.2,2.787,2.787,0,0,0-.6,3.223A2.243,2.243,0,0,0,593.178,326.521Z" transform="translate(-552.389 -319.974)" fill="#fff1cc"/>
          <path id="Trazado_139779" data-name="Trazado 139779" d="M600.142,336.252a.3.3,0,0,1-.279-.334c.073-.73.432-1.236.843-1.306a.842.842,0,0,1,.62.187c.6.482.319,1.593.288,1.709-.342,1.3-1.8,2.184-2.157,1.923-.1-.072-.161-.266-.022-.787a.305.305,0,0,1,.433-.19.544.544,0,0,0,.416.045.744.744,0,0,0,.182-1.127A.527.527,0,0,0,600.142,336.252Z" transform="translate(-554.165 -322.699)" fill="#f27b7b"/>
          <path id="Trazado_139780" data-name="Trazado 139780" d="M606.591,391.347a13.683,13.683,0,0,1-3.547,1.148,14.47,14.47,0,0,1-8.248-1.043q.21-1.727.416-3.4.132-1.064.259-2.106c.049-.4.1-.792.145-1.185.086-.7.173-1.4.257-2.078l.028-.22q.128-1.044.254-2.06.08-.645.158-1.278.135-1.085.266-2.136c1.569-12.634,2.684-21.326,2.976-23.471a6.721,6.721,0,0,1,1.024-2.858,6.317,6.317,0,0,1,1.121-1.28,4.977,4.977,0,0,1,6.219-.335c.051.038.1.074.15.114a7.228,7.228,0,0,1,2.01,7.721q-1.074,10.594-2.146,21.189-.1,1.046-.211,2.093-.072.7-.142,1.4-.1.994-.2,1.986c-.009.074-.015.149-.022.223q-.1,1.014-.205,2.027-.068.667-.136,1.334-.1,1.018-.207,2.038Q606.7,390.256,606.591,391.347Z" transform="translate(-553.176 -325.629)" fill="#ff9d00"/>
          <g id="Grupo_87938" data-name="Grupo 87938" transform="translate(35.987)">
            <g id="Grupo_87937" data-name="Grupo 87937">
              <path id="Trazado_139781" data-name="Trazado 139781" d="M600.361,329.068l-10.971-.774h0a9.566,9.566,0,0,1,10.216-8.868l1.428.1Z" transform="translate(-587.99 -319.401)" fill="#ff9d00"/>
              <path id="Trazado_139782" data-name="Trazado 139782" d="M606.923,329.443l-9.746-.688.33-4.67a4.885,4.885,0,0,1,5.217-4.528h0a4.885,4.885,0,0,1,4.529,5.216Z" transform="translate(-589.679 -319.432)" fill="#ff9d00"/>
              <path id="Trazado_139783" data-name="Trazado 139783" d="M605.66,331.586l-17.5-1.236a.6.6,0,0,1-.554-.637h0a.6.6,0,0,1,.637-.554l17.5,1.236a.6.6,0,0,1,.554.637h0A.6.6,0,0,1,605.66,331.586Z" transform="translate(-587.602 -321.518)" fill="#12263f"/>
            </g>
          </g>
          <g id="Grupo_87939" data-name="Grupo 87939" transform="translate(42.295 51.36)">
            <path id="Trazado_139784" data-name="Trazado 139784" d="M607.957,389.559a15.235,15.235,0,0,1-2.059.391,17.639,17.639,0,0,1-9.367-1.547q.08-.645.158-1.278.135-1.085.266-2.136a26.6,26.6,0,0,0,3.268.821,26.989,26.989,0,0,0,8.087.259q-.1,1.047-.211,2.093Q608.028,388.861,607.957,389.559Z" transform="translate(-595.847 -384.988)" fill="#fff"/>
            <path id="Trazado_139785" data-name="Trazado 139785" d="M607.205,396.706c-.536.1-1.1.177-1.688.232a22.158,22.158,0,0,1-9.859-1.414c.049-.4.1-.793.145-1.185.086-.7.173-1.4.257-2.078a19.248,19.248,0,0,0,3.574,1.091,20.028,20.028,0,0,0,7.912-.006q-.1,1.014-.205,2.027Q607.273,396.038,607.205,396.706Z" transform="translate(-595.658 -386.565)" fill="#fff"/>
          </g>
          <g id="Grupo_87940" data-name="Grupo 87940" transform="translate(19.815 24.894)">
            <path id="Trazado_139786" data-name="Trazado 139786" d="M602.685,360.4c-.447,1.168-5.255,13.367-12.448,13.6-1.933.062-3.619-.4-6.478-1.393a44.8,44.8,0,0,1-11.624-6.06,3.9,3.9,0,0,1-4.608-5.746c2.252,1.334,4.186,2.324,5.586,3a47.761,47.761,0,0,0,10.788,4.061,35.171,35.171,0,0,0,5.349.791,21.574,21.574,0,0,0,6.368-12.245Z" transform="translate(-566.951 -352.322)" fill="#ffb89e"/>
            <path id="Trazado_139787" data-name="Trazado 139787" d="M609.333,352.561c2.038,2.5.89,6.2.291,8.125a14.287,14.287,0,0,1-2.209,4.31l-6.851-3.434q1.173-3.858,2.346-7.715a3.709,3.709,0,0,1,6.294-1.438C609.248,352.459,609.291,352.509,609.333,352.561Z" transform="translate(-574.242 -351.191)" fill="#12263f"/>
          </g>
        </g>
        <g id="Grupo_87953" data-name="Grupo 87953" transform="translate(0 62.807)">
          <path id="Trazado_139788" data-name="Trazado 139788" d="M342.163,427.291l25.258-1.5q2.139-10.381,4.279-20.763l12.174,20.894L402.8,408.6l-7.13,24.739,22.01,5.435-20.666,5.994,8.266,20.874-20.047-13.434-9.4,19.064q-2.322-9.435-4.645-18.871l-17.71,14.516q1.452-7.694,2.9-15.387l-16.258-4.645,19.016-8.565Z" transform="translate(-311.985 -360.384)" fill="#d2e1f1"/>
          <g id="Grupo_87952" data-name="Grupo 87952">
            <g id="Grupo_87948" data-name="Grupo 87948" transform="translate(21.562)">
              <g id="Grupo_87946" data-name="Grupo 87946" transform="translate(0 55.697)">
                <g id="Grupo_87942" data-name="Grupo 87942" transform="translate(47.633 39.085)">
                  <path id="Trazado_139789" data-name="Trazado 139789" d="M396.9,471.133q2.2,4.823,4.4,9.647a1.931,1.931,0,0,1-1.061,1.926,1.986,1.986,0,0,1-2.533-1.148l-2.6-4.1a10.947,10.947,0,0,1-1.439-2.222,11.556,11.556,0,0,1-1.059-6.184Z" transform="translate(-392.55 -469.055)" fill="#bf6e55"/>
                  <path id="Trazado_139790" data-name="Trazado 139790" d="M399.074,484.713a2.52,2.52,0,0,0,3.554-.922,23.749,23.749,0,0,0,7.4,2.147c1.716.2,2.893.125,3.064.665.267.841-2.091,2.6-4.464,3.25a9.236,9.236,0,0,1-4.6.034q.006.583.013,1.166l-2.912.713a5.38,5.38,0,0,1-1.052-1.962,6.385,6.385,0,0,1-.222-2.009A6.874,6.874,0,0,0,399.074,484.713Z" transform="translate(-393.965 -472.251)" fill="#12263f"/>
                </g>
                <g id="Grupo_87943" data-name="Grupo 87943" transform="translate(23.978)">
                  <path id="Trazado_139791" data-name="Trazado 139791" d="M362.823,427.458c.072.168.153.334.241.5a6.011,6.011,0,0,0,.847,1.182l1.659,1.94,7.364,8.6,4.8,5.607a5.046,5.046,0,0,0,7.779-6.408l-9.941-13.87-1.211-1.69-1.258-1.756a5.964,5.964,0,0,0-10.464,5.4C362.692,427.134,362.754,427.3,362.823,427.458Z" transform="translate(-362.342 -419.143)" fill="#ff9d00"/>
                  <path id="Trazado_139792" data-name="Trazado 139792" d="M393.155,474.643l5.52-2.254-8.46-27.139a5.048,5.048,0,0,0-6.662-2.913h0a5.048,5.048,0,0,0-2.677,6.731Z" transform="translate(-366.266 -424.091)" fill="#ff9d00"/>
                </g>
                <g id="Grupo_87944" data-name="Grupo 87944" transform="translate(0 36.427)">
                  <path id="Trazado_139793" data-name="Trazado 139793" d="M348.888,470.382l-7.794,7.19a1.931,1.931,0,0,1-2.161-.407,1.986,1.986,0,0,1,.3-2.764l3.081-3.746a10.971,10.971,0,0,1,1.663-2.06,11.566,11.566,0,0,1,5.546-2.933Q349.207,468.021,348.888,470.382Z" transform="translate(-333.194 -465.66)" fill="#bf6e55"/>
                  <path id="Trazado_139794" data-name="Trazado 139794" d="M337.787,476.745a2.521,2.521,0,0,0,1.984,3.091,23.735,23.735,0,0,0,.265,7.7c.348,1.691.782,2.788.323,3.119-.716.515-3.118-1.178-4.479-3.229a9.231,9.231,0,0,1-1.468-4.365l-1.1.376-1.585-2.546a5.383,5.383,0,0,1,1.536-1.612,6.43,6.43,0,0,1,1.84-.837A6.87,6.87,0,0,0,337.787,476.745Z" transform="translate(-331.723 -468.065)" fill="#12263f"/>
                </g>
                <g id="Grupo_87945" data-name="Grupo 87945" transform="translate(6.425 0.15)">
                  <path id="Trazado_139795" data-name="Trazado 139795" d="M368.956,451.117a5.047,5.047,0,0,0,3.843-5.76l-.872-5.635-1.421-9.2-.839-5.428-.122-.793a5.963,5.963,0,0,0-7.22-4.815,6.073,6.073,0,0,0-1.019.333,5.954,5.954,0,0,0-3.382,7.089l.214.878h0l.045.183.254,1.042.648,2.651,3.88,15.9A5.047,5.047,0,0,0,368.956,451.117Z" transform="translate(-343.783 -419.334)" fill="#ff9d00"/>
                  <path id="Trazado_139796" data-name="Trazado 139796" d="M339.928,468.27l3.861,4.543,23.151-16.5a5.049,5.049,0,0,0,.692-7.238h0a5.048,5.048,0,0,0-7.231-.446Z" transform="translate(-339.928 -425.404)" fill="#ff9d00"/>
                </g>
              </g>
              <path id="Trazado_139797" data-name="Trazado 139797" d="M356.6,382.42l6.417-15.5-9.889-11.768a4.566,4.566,0,0,1-2.594-1.351,3.825,3.825,0,0,1-1.087-2.453,4.264,4.264,0,0,1,1.677-3.33A38.478,38.478,0,0,0,355.116,353c4.452,4.686,9.382,8.394,11.882,11.763a6.5,6.5,0,0,1,.96,1.806,7.282,7.282,0,0,1,.119,3.9,104.162,104.162,0,0,1-5.42,15.291Z" transform="translate(-335.567 -348.018)" fill="#b05d45"/>
              <g id="Grupo_87947" data-name="Grupo 87947" transform="translate(19.895 26.202)">
                <path id="Trazado_139798" data-name="Trazado 139798" d="M362.516,399.289a43.541,43.541,0,0,0,2.564-5.249c.415-1.017.813-2.1,1.179-3.255.321-1.009.592-1.988.82-2.928a43.676,43.676,0,0,0,.837-4.458q-2.409-.694-4.819-1.392l-.938-.271-.89-.258a19.077,19.077,0,0,0-4.091,9.953c-.251,3.045.51,4.41.8,4.876a6.149,6.149,0,0,0,.471.652,6.484,6.484,0,0,0,1.8,1.473A8.226,8.226,0,0,0,362.516,399.289Z" transform="translate(-357.128 -381.478)" fill="#fff"/>
              </g>
              <path id="Trazado_139799" data-name="Trazado 139799" d="M342.649,380.746a24.471,24.471,0,0,1,3.722,13.871l7.363-1.805a24.247,24.247,0,0,1-2.722-9.6,23.174,23.174,0,0,1-.029-2.421Z" transform="translate(-334.093 -355.117)" fill="#b05d45"/>
              <path id="Trazado_139800" data-name="Trazado 139800" d="M352.751,399.584a10.54,10.54,0,0,0,4.843-3.949c-.24-.139-.375-.2-.375-.2a12.165,12.165,0,0,0-3.912-1.129l-.005,0c-1.362.507-2.734.98-4.1,1.481-.94.345-1.79.652-2.524.939-1.742.68-2.829,1.251-2.912,1.963a.347.347,0,0,0,0,.063C343.878,399.835,348.966,401.03,352.751,399.584Z" transform="translate(-334.335 -358.058)" fill="#b05d45"/>
              <path id="Trazado_139801" data-name="Trazado 139801" d="M352,414.525a31.8,31.8,0,0,1,2.518,6.518c.087.338.153.619.2.811h0l.006,0,.254,1.042c1.173-.3,2.383-.631,3.621-1.017q1.051-.328,2.132-.7c2.292-.8,4.118-1.587,5.477-2.2.276-.124.535-.24.772-.349,1.19-.54,2.183-1.023,2.915-1.388l0,0c-3.767-7.865-5.062-10.975-5.356-12.065l-.012-.045q-.2-.74-.446-1.417a17.735,17.735,0,0,0-3-5.34,15.168,15.168,0,0,0-3.925-3.428c-.24-.139-.375-.2-.375-.2l-2.6-3.623a4.2,4.2,0,0,0-1.8.626c-.075.049-.146.1-.215.149a4.513,4.513,0,0,0,.242.866,4.586,4.586,0,0,0,.5.946c1.135,1.661,1.7,2.491,1.607,2.854-.333,1.279-5.637,1.981-8.282-.525-.035-.033-.065-.063-.091-.088a6.162,6.162,0,0,0-2.507,1.232,5.092,5.092,0,0,0-.611.6v0c-.07.081-.139.168-.206.257,0,0-.069.092-.171.264a6.263,6.263,0,0,0-.9,3.095c-.011,3.3,3.153,5.227,6.407,8.409A19.6,19.6,0,0,1,352,414.525Z" transform="translate(-333.9 -357.367)" fill="#fff"/>
              <path id="Trazado_139802" data-name="Trazado 139802" d="M356.008,417.922q1.03,3.413,2.061,6.826l.648,2.652,5.478-.547,5.943-.594,5.628-.561c-.318-1.039-.854-2.772-1.568-4.912l-7.026-15.219-4.928-5.894-5.42,3.067a13.861,13.861,0,0,1,1.548,4.26A15.526,15.526,0,0,1,356.008,417.922Z" transform="translate(-336.991 -359.223)" fill="#ff9d00"/>
              <path id="Trazado_139803" data-name="Trazado 139803" d="M357.109,391.035l6.449,8.513-1.65.735-6.649-8.522a3.781,3.781,0,0,1,1.85-.726Z" transform="translate(-336.828 -357.349)" fill="#ff9d00"/>
              <path id="Trazado_139804" data-name="Trazado 139804" d="M341.454,401.321l13.85,2.745-.435-1.12-11.241-4.1a4.263,4.263,0,0,0-2.175,2.474Z" transform="translate(-333.834 -359.043)" fill="#ff9d00"/>
            </g>
            <g id="Grupo_87950" data-name="Grupo 87950" transform="translate(24.685 13.392)">
              <path id="Trazado_139805" data-name="Trazado 139805" d="M346.49,383.1a4,4,0,0,1-.415-.068,3.7,3.7,0,0,1-.435-.124c-2.561-.9-4.623-4.844-3.453-8.124.722-2.03,2.818-4.088,4.958-3.875a3.763,3.763,0,0,1,1.128.307,5.267,5.267,0,0,1,2.319,2.034,2.205,2.205,0,0,1,.267.919s.011.036.034.093c.032.073.07.146.111.221.023.039.045.077.07.114a2.5,2.5,0,0,0,1.638,1.084l.579.113a1.212,1.212,0,0,1,.635.342l.01.011a1.215,1.215,0,0,1,.081,1.607c-.228.288-.392.546-.365.632.156.492,1.567.734,1.56,1.151a.473.473,0,0,0,.04.254c.069.136.185.145.269.221.2.191-.021.583.034.978a.66.66,0,0,0,.02.095,1.337,1.337,0,0,0,.563.727.954.954,0,0,1,.156.471c.047,1.332-3.187,2.367-3.849,2.56-1.625.475-2.888.843-4.177.185A3.722,3.722,0,0,1,347,383.947,4.8,4.8,0,0,1,346.49,383.1Zm2.889-1.406c.067-.125.175-.433-.118-1.041-1.3-1.878-2.793-2.935-3.707-2.59a1.492,1.492,0,0,0-.819.764,1.774,1.774,0,0,0,.146,1.387,3.806,3.806,0,0,0,.8,1.128l0,0a2.949,2.949,0,0,0,.807.583C347.509,382.428,349.011,382.39,349.379,381.7Z" transform="translate(-337.042 -366.372)" fill="#bf6e55"/>
              <path id="Trazado_139806" data-name="Trazado 139806" d="M338.776,377.812c-.1-4.326-.114-4.537.1-5.013a6.818,6.818,0,0,1,3.7-3.661,5.7,5.7,0,0,0,1.6-.759l.03-.02a3.976,3.976,0,0,0,.984-.926c-.434-.033-1.1-.137-1.23-.511-.2-.558.824-1.639,1.888-1.785a3.314,3.314,0,0,1,3.324,3.235,2.728,2.728,0,0,1-1.074,2.043c-.8.554-1.469.208-1.976.827-.344.42-.613,1.208-.246,1.626l1.015,1.149a.767.767,0,0,1,.056.946l-.006.009a.767.767,0,0,0,.076.967l4.164,4.349a1.885,1.885,0,0,0,2.279.344l1.433-.8,0,0,.363.337a1.262,1.262,0,0,1-.2,2.006,16.208,16.208,0,0,1-7.1,2.293,1.265,1.265,0,0,1-1.128-.523q-.411-.577-.825-1.153l-.013,0a4.208,4.208,0,0,1-2.637,1.371,4.58,4.58,0,0,1-4.25-2.685A11.875,11.875,0,0,1,338.776,377.812Zm9.921,2.632c.067-.124.175-.433-.118-1.041-1.3-1.878-2.793-2.935-3.707-2.59a1.492,1.492,0,0,0-.819.764,1.774,1.774,0,0,0,.146,1.387,3.8,3.8,0,0,0,.8,1.128l0,0a2.953,2.953,0,0,0,.807.583C346.827,381.175,348.329,381.137,348.7,380.444Z" transform="translate(-336.36 -365.119)" fill="#615a6e"/>
              <g id="Grupo_87949" data-name="Grupo 87949" transform="translate(0 1.759)">
                <path id="Trazado_139807" data-name="Trazado 139807" d="M339.641,380.833,345,367.848a6.355,6.355,0,0,0-8.3,3.446l-.511,1.238a6.346,6.346,0,0,0,3.448,8.3Z" transform="translate(-335.71 -367.365)" fill="#ff9d00"/>
                <path id="Trazado_139808" data-name="Trazado 139808" d="M337.808,385.774l7.4-17.918a6.369,6.369,0,0,0-1.828-.455l-6.583,15.94A1.863,1.863,0,0,0,337.808,385.774Z" transform="translate(-335.915 -367.373)" fill="#ff9d00"/>
              </g>
              <path id="Trazado_139809" data-name="Trazado 139809" d="M347.256,383.895c1.027.5,2.529.464,2.9-.229.067-.125.175-.433-.118-1.041-1.3-1.878-2.793-2.935-3.707-2.59a1.493,1.493,0,0,0-.819.764,1.774,1.774,0,0,0,.146,1.387,3.8,3.8,0,0,0,.8,1.128l0,0A2.95,2.95,0,0,0,347.256,383.895Z" transform="translate(-337.816 -368.34)" fill="#bf6e55"/>
              <path id="Trazado_139810" data-name="Trazado 139810" d="M348.092,381.867a.3.3,0,0,0,.088-.428c-.413-.612-.972-.89-1.369-.757a.849.849,0,0,0-.461.461c-.3.711.477,1.563.559,1.652.921.987,2.634,1.078,2.826.676.053-.111.016-.312-.356-.708a.306.306,0,0,0-.474.038.546.546,0,0,1-.348.237.747.747,0,0,1-.7-.911A.534.534,0,0,1,348.092,381.867Z" transform="translate(-338.003 -368.488)" fill="#b05d45"/>
            </g>
            <g id="Grupo_87951" data-name="Grupo 87951" transform="translate(0 28.887)">
              <path id="Trazado_139811" data-name="Trazado 139811" d="M335.666,403.468l-9.049-13.832-15.411,1.289a4.563,4.563,0,0,1-2.581,1.377,3.818,3.818,0,0,1-2.637-.489,4.267,4.267,0,0,1-1.8-3.265,38.37,38.37,0,0,0,6.362-.479c6.381-1.025,12.226-3,16.419-3.157a6.486,6.486,0,0,1,2.032.229,7.317,7.317,0,0,1,3.289,2.107c1.68,1.727,5.259,6.5,9.514,13.172Z" transform="translate(-304.188 -384.907)" fill="#bf6e55"/>
              <path id="Trazado_139812" data-name="Trazado 139812" d="M345.082,395.276,339.217,400l3.448,5.818,4.973,3.635c.229-.117.441-.239.635-.363a5.508,5.508,0,0,0,2.11-2.323c.031-.067.052-.122.065-.152a22.963,22.963,0,0,0-.684-2.9A23.726,23.726,0,0,0,345.082,395.276Z" transform="translate(-311.786 -387.156)" fill="#fff"/>
            </g>
          </g>
        </g>
      </g>
      <g id="Grupo_87955" data-name="Grupo 87955" transform="translate(125.088 10.341)">
        <rect id="Rectángulo_32870" data-name="Rectángulo 32870" width="27.54" height="82.687" rx="2.639" transform="translate(0 0)" fill="#ff9d00"/>
        <rect id="Rectángulo_32871" data-name="Rectángulo 32871" width="9.435" height="5.639" transform="translate(8.933 77.048)" fill="#c96740"/>
        <rect id="Rectángulo_32872" data-name="Rectángulo 32872" width="9.435" height="5.639" transform="translate(8.933 0)" fill="#c96740"/>
      </g>
    </g>
    <g id="Grupo_87957" data-name="Grupo 87957" transform="translate(1222.796 4590.752)">
      <g id="Grupo_87361" data-name="Grupo 87361">
        <g id="Grupo_87344" data-name="Grupo 87344" transform="translate(0 41.018)">
          <rect id="Rectángulo_32736" data-name="Rectángulo 32736" width="2.327" height="4.024" transform="translate(4.833 6.031) rotate(-45.667)" fill="#edb485"/>
          <g id="Grupo_87343" data-name="Grupo 87343">
            <path id="Trazado_138918" data-name="Trazado 138918" d="M200.874,61.931a.587.587,0,0,1,.161.816h0a.59.59,0,0,1-.819.163l-2.936-1.965a.6.6,0,0,1-.166-.822h0a.6.6,0,0,1,.822-.166Z" transform="translate(-197.014 -57.249)" fill="#edb485"/>
            <path id="Trazado_138919" data-name="Trazado 138919" d="M201.336,61.521a.591.591,0,0,1,.025.833h0a.592.592,0,0,1-.836.025l-2.573-2.43a.594.594,0,0,1-.023-.836h0a.6.6,0,0,1,.833-.023Z" transform="translate(-195.644 -58.933)" fill="#edb485"/>
            <path id="Trazado_138920" data-name="Trazado 138920" d="M199.954,59.25a.635.635,0,0,0-.69.588l-.231,2.846a2.048,2.048,0,0,0,.876.42c.191.028.552-.383.552-.383l.085-2.782A.636.636,0,0,0,199.954,59.25Z" transform="translate(-193.348 -58.363)" fill="#edb485"/>
            <path id="Trazado_138921" data-name="Trazado 138921" d="M200.962,61.625a.59.59,0,0,1,.084.831h0a.6.6,0,0,1-.831.084l-2.748-2.233a.594.594,0,0,1-.084-.833h0a.6.6,0,0,1,.828-.087Z" transform="translate(-196.584 -58.342)" fill="#edb485"/>
            <path id="Rectángulo_32737" data-name="Rectángulo 32737" d="M.414,0H3.587A.416.416,0,0,1,4,.416V3.592a.416.416,0,0,1-.416.416H.415A.415.415,0,0,1,0,3.593V.414A.414.414,0,0,1,.414,0Z" transform="translate(1.954 4.649) rotate(-50.751)" fill="#edb485"/>
          </g>
        </g>
        <g id="Grupo_87345" data-name="Grupo 87345" transform="translate(5.378 22.923)">
          <path id="Trazado_138922" data-name="Trazado 138922" d="M211.461,82.865a10.471,10.471,0,0,1-2.959.422,13.008,13.008,0,0,1-6.782-2.157c-.265-.169-2.8-2.269-2.8-2.269l3.12-3.55a15.34,15.34,0,0,0,2.151,1.841c3.111,1.934,5.69,1.931,8.359-.011,4.727-3.438,5.518-10.065,5.634-12.757.02-.428.037-.884.048-1.371.1-3.122.22-7,1.7-9.4a2.343,2.343,0,0,1,3.987,2.464c-.817,1.332-.929,4.789-1,7.081-.011.5-.028.977-.048,1.43-.313,7.117-3.072,13.081-7.562,16.341A12.544,12.544,0,0,1,211.461,82.865Z" transform="translate(-198.924 -52.506)" fill="#81d4fa"/>
        </g>
        <g id="Grupo_87353" data-name="Grupo 87353" transform="translate(30.353 57.531)">
          <rect id="Rectángulo_32738" data-name="Rectángulo 32738" width="2.803" height="2.359" transform="matrix(0.504, -0.864, 0.864, 0.504, 44.364, 44.436)" fill="#cf9b72"/>
          <rect id="Rectángulo_32739" data-name="Rectángulo 32739" width="3.293" height="3.414" transform="matrix(0.504, -0.864, 0.864, 0.504, 45.554, 45.411)" fill="#fff"/>
          <g id="Grupo_87347" data-name="Grupo 87347">
            <g id="Grupo_87346" data-name="Grupo 87346">
              <path id="Trazado_138923" data-name="Trazado 138923" d="M254.337,105.38c-16.445-9.147-31.775-22.3-36.254-40.582-2.644.611-7.635,1.14-10.288,1.748,5.453,20.2,24.849,34.951,43.406,44.653C252.239,109.254,253.292,107.32,254.337,105.38Z" transform="translate(-207.795 -64.798)" fill="#12263f"/>
            </g>
          </g>
          <g id="Grupo_87349" data-name="Grupo 87349">
            <g id="Grupo_87348" data-name="Grupo 87348">
              <path id="Trazado_138924" data-name="Trazado 138924" d="M218.28,74.131c-1.371,1.115-2.717,2.269-4.074,3.4-.42.349-.831.7-1.242,1.061a47.879,47.879,0,0,1-5.169-12.05c2.652-.608,7.644-1.137,10.288-1.748a46.122,46.122,0,0,0,2.514,7.43C219.794,72.822,219.048,73.506,218.28,74.131Z" transform="translate(-207.795 -64.798)" fill="#12263f"/>
              <path id="Trazado_138925" data-name="Trazado 138925" d="M217.266,73.871c-1.078,1.154-2.185,2.283-3.269,3.429-.4.431-.8.867-1.194,1.306q-1.643-2.2-3.063-4.5c.222-.2.445-.394.673-.591,1.34-1.146,2.686-2.295,4.02-3.455.926-.808,1.822-1.709,2.784-2.5a47.336,47.336,0,0,0,2.269,4.457A8.93,8.93,0,0,0,217.266,73.871Z" transform="translate(-204.264 -59.791)" fill="#4fbef0" style="mix-blend-mode: multiply;isolation: isolate"/>
            </g>
          </g>
          <g id="Grupo_87352" data-name="Grupo 87352" transform="translate(45.503 43.092)">
            <g id="Grupo_87351" data-name="Grupo 87351">
              <g id="Grupo_87350" data-name="Grupo 87350">
                <path id="Trazado_138926" data-name="Trazado 138926" d="M229.211,80.6a.607.607,0,0,1,.242.833c-.555,1-1.737,3.153-1.737,3.153l-2.734,4.947-.707-.386,4.769-8.643Z" transform="translate(-223.378 -79.379)" fill="#12263f"/>
                <path id="Trazado_138927" data-name="Trazado 138927" d="M224.872,89.874l4.772-8.635-.833-.456v-.006l-1.087-.6a.621.621,0,0,0-.774.146l.068.034a1.152,1.152,0,0,1-1.112,2.019l-.07-.042-1.036,2.2.048.025a.633.633,0,0,1,.3.3.406.406,0,0,1,.037.121,1.069,1.069,0,0,1-.056.549.588.588,0,0,0-.045.113,3.553,3.553,0,0,1-.163.332l-.574,1.047C223.743,88.109,223.785,89.277,224.872,89.874Z" transform="translate(-223.957 -80.104)" fill="#2790bf"/>
              </g>
            </g>
          </g>
        </g>
        <rect id="Rectángulo_32740" data-name="Rectángulo 32740" width="2.353" height="2.8" transform="matrix(0.19, -0.982, 0.982, 0.19, 17.447, 114.07)" fill="#cf9b72"/>
        <rect id="Rectángulo_32741" data-name="Rectángulo 32741" width="3.412" height="3.291" transform="translate(16.712 116.547) rotate(-78.916)" fill="#fff"/>
        <path id="Trazado_138928" data-name="Trazado 138928" d="M217.5,65.162h-5.825v7.374H217.5a3.319,3.319,0,0,0,3.322-3.319V67.153C220.819,65.317,219.333,65.162,217.5,65.162Z" transform="translate(-170.403 -6.606)" fill="#12263f"/>
        <g id="Grupo_87355" data-name="Grupo 87355" transform="translate(15.969 56.126)">
          <g id="Grupo_87354" data-name="Grupo 87354">
            <path id="Trazado_138929" data-name="Trazado 138929" d="M209.209,121.019c3.227-18.534,10.606-37.336,26.392-47.584-1.447-2.3-3.587-6.839-5.04-9.136-17.281,11.8-24.821,34.962-27.876,55.675Q205.95,120.494,209.209,121.019Z" transform="translate(-202.686 -64.299)" fill="#12263f"/>
          </g>
        </g>
        <path id="Trazado_138930" data-name="Trazado 138930" d="M206.5,55.753l3.916,36.894a1.433,1.433,0,0,0,1.546,1.32L229.1,92.154a1.443,1.443,0,0,0,1.233-1.619l-3.913-36.9a1.434,1.434,0,0,0-1.548-1.318l-2.616-.189-6.6-.473-7.982,2.43a1.722,1.722,0,0,0-1.137,1.154A1.523,1.523,0,0,0,206.5,55.753Z" transform="translate(-179.804 -31.123)" fill="#2790bf"/>
        <path id="Trazado_138931" data-name="Trazado 138931" d="M209.573,60.222a2.515,2.515,0,0,0,2.768,2.235h0a2.514,2.514,0,0,0,2.235-2.765l-.87-8.224a2.513,2.513,0,0,0-2.765-2.233h0A2.515,2.515,0,0,0,208.7,52Z" transform="translate(-175.819 -35.544)" fill="#d69b6b"/>
        <path id="Trazado_138932" data-name="Trazado 138932" d="M208.406,53.54c-.448-4.22,1.872-8.539,5.259-8.9s6.56,3.373,7.008,7.6-1.934,7.934-5.324,8.291S208.853,57.76,208.406,53.54Z" transform="translate(-176.433 -43.902)" fill="#2a2626"/>
        <path id="Trazado_138933" data-name="Trazado 138933" d="M207.329,58.238a6.187,6.187,0,0,0,6.8,5.5h0a6.186,6.186,0,0,0,5.493-6.8l-.684-6.45a6.176,6.176,0,0,0-6.8-5.49h0a6.174,6.174,0,0,0-5.493,6.794Z" transform="translate(-179.594 -43.288)" fill="#edb485"/>
        <path id="Trazado_138934" data-name="Trazado 138934" d="M211.15,50.74a.235.235,0,0,1-.211.262l-2.666.3a.243.243,0,0,1-.265-.208h0a.241.241,0,0,1,.208-.265l2.672-.3a.234.234,0,0,1,.262.208Z" transform="translate(-177.058 -33.171)" fill="#2a2626"/>
        <path id="Trazado_138935" data-name="Trazado 138935" d="M207.518,45.248a19.06,19.06,0,0,1,5.059-.867c6.039-.332,8.6,4.181,8.77,5.71L219.4,48.925c.16,1.523-4.586,1.853-6.115,2.019l-5.1.541Z" transform="translate(-177.944 -44.364)" fill="#2a2626"/>
        <path id="Trazado_138936" data-name="Trazado 138936" d="M211.915,52.072a1.138,1.138,0,0,0,1.014-1.256l-.31-2.908a1.139,1.139,0,0,0-1.259-1.014h0a1.136,1.136,0,0,0-1.005,1.253l.3,2.914a1.145,1.145,0,0,0,1.256,1.011Z" transform="translate(-172.806 -39.782)" fill="#2a2626"/>
        <path id="Trazado_138937" data-name="Trazado 138937" d="M214.908,50.552a1.783,1.783,0,0,0-2-1.439l-4.738.5-.355-3.322,9.136-.969.642,6.053-2.6-.02Z" transform="translate(-177.409 -42.621)" fill="#2a2626"/>
        <path id="Trazado_138938" data-name="Trazado 138938" d="M211.156,52.171c.715.3,1.678-.36,2.145-1.478s.262-2.264-.453-2.565-1.675.36-2.145,1.478S210.439,51.873,211.156,52.171Z" transform="translate(-172.619 -37.66)" fill="#edb485"/>
        <path id="Trazado_138939" data-name="Trazado 138939" d="M205.628,48.784a3.32,3.32,0,0,1,2.951-3.652l7.016-.746a3.32,3.32,0,0,1,3.652,2.953h0a3.314,3.314,0,0,1-2.951,3.649l-7.013.743a3.315,3.315,0,0,1-3.654-2.948Z" transform="translate(-181.41 -44.357)" fill="#2a2626"/>
        <g id="Grupo_87358" data-name="Grupo 87358" transform="translate(10.479 114.64)">
          <g id="Grupo_87357" data-name="Grupo 87357">
            <g id="Grupo_87356" data-name="Grupo 87356">
              <path id="Trazado_138940" data-name="Trazado 138940" d="M210.565,87.579a.611.611,0,0,1-.707.5c-1.129-.194-3.553-.6-3.553-.6l-5.569-.957.138-.794,9.722,1.661Z" transform="translate(-200.736 -83.916)" fill="#2a2626"/>
              <path id="Trazado_138941" data-name="Trazado 138941" d="M200.784,86.909l9.722,1.658.161-.929v0l.211-1.222a.613.613,0,0,0-.4-.679l-.008.068a1.15,1.15,0,1,1-2.266-.386l.011-.082-2.421-.253-.008.056a.679.679,0,0,1-.183.386.483.483,0,0,1-.1.07,1.022,1.022,0,0,1-.538.127c-.042,0-.087,0-.13-.006a2.291,2.291,0,0,1-.36-.042l-1.174-.2C202.079,85.262,200.992,85.687,200.784,86.909Z" transform="translate(-200.649 -85.082)" fill="#2a2626"/>
            </g>
          </g>
        </g>
        <g id="Grupo_87360" data-name="Grupo 87360" transform="translate(28.238 10.733)">
          <g id="Grupo_87359" data-name="Grupo 87359">
            <path id="Trazado_138942" data-name="Trazado 138942" d="M208.721,49.105a.7.7,0,1,0,.588-.926A.785.785,0,0,0,208.721,49.105Z" transform="translate(-204.01 -48.176)" fill="#2a2626"/>
            <path id="Trazado_138943" data-name="Trazado 138943" d="M207.05,49.28a.7.7,0,1,0,.583-.923A.78.78,0,0,0,207.05,49.28Z" transform="translate(-207.044 -47.853)" fill="#2a2626"/>
          </g>
          <path id="Trazado_138944" data-name="Trazado 138944" d="M208.035,50.7a.73.73,0,0,0,.8.648h0a.729.729,0,0,0,.645-.8l-.107-1.005a.725.725,0,0,0-.8-.642h0a.724.724,0,0,0-.642.8Z" transform="translate(-205.441 -46.873)" fill="#d69b6b"/>
        </g>
      </g>
      <g id="Grupo_87368" data-name="Grupo 87368" transform="translate(38.843 21.11)">
        <path id="Trazado_138945" data-name="Trazado 138945" d="M213.8,70.74a.614.614,0,0,0,.867.132l2.221-1.636a1.956,1.956,0,0,0-.248-.9c-.1-.149-.622-.158-.622-.158l-2.086,1.7A.617.617,0,0,0,213.8,70.74Z" transform="translate(-205.602 -22.246)" fill="#edb485"/>
        <g id="Grupo_87363" data-name="Grupo 87363" transform="translate(0 47.165)">
          <path id="Trazado_138946" data-name="Trazado 138946" d="M213.239,68.614v5.21H214.4v-4h7.385v4h1.163v-5.21Z" transform="translate(-206.401 -68.614)" fill="#12263f"/>
          <g id="Grupo_87362" data-name="Grupo 87362" transform="translate(1.504 2.726)">
            <rect id="Rectángulo_32742" data-name="Rectángulo 32742" width="2.888" height="0.734" fill="#2a2626"/>
            <rect id="Rectángulo_32743" data-name="Rectángulo 32743" width="2.888" height="0.734" transform="translate(17.487)" fill="#2a2626"/>
          </g>
          <rect id="Rectángulo_32744" data-name="Rectángulo 32744" width="23.387" height="16.131" transform="translate(0 3.083)" fill="#ff9d00"/>
          <path id="Trazado_138947" data-name="Trazado 138947" d="M221.1,73.465h-2.216V71.249h-3.026v2.216h-2.219V76.49h2.219v2.217h3.026V76.49H221.1Z" transform="translate(-205.676 -63.83)" fill="#fff"/>
          <path id="Trazado_138948" data-name="Trazado 138948" d="M218.621,81.907a5.675,5.675,0,1,1,5.676-5.676A5.68,5.68,0,0,1,218.621,81.907Zm0-10.927a5.254,5.254,0,1,0,5.257,5.251A5.254,5.254,0,0,0,218.621,70.98Z" transform="translate(-206.93 -65.084)" fill="#fdfffe"/>
          <path id="Trazado_138949" data-name="Trazado 138949" d="M211.829,85.84V70.728H234.2V69.709H210.81V85.84Z" transform="translate(-210.81 -66.626)" fill="#12263f"/>
          <path id="Trazado_138950" data-name="Trazado 138950" d="M233.176,70.071V84.16H210.81v1.023H234.2V70.071Z" transform="translate(-210.81 -65.969)" fill="#12263f"/>
        </g>
        <g id="Grupo_87367" data-name="Grupo 87367" transform="translate(3.977)">
          <g id="Grupo_87365" data-name="Grupo 87365" transform="translate(5.126 42.709)">
            <rect id="Rectángulo_32745" data-name="Rectángulo 32745" width="3.881" height="2.245" transform="translate(2.029 3.557) rotate(-66.404)" fill="#edb485"/>
            <g id="Grupo_87364" data-name="Grupo 87364" transform="translate(0 2.653)">
              <path id="Rectángulo_32746" data-name="Rectángulo 32746" d="M.424,0H3.687a.426.426,0,0,1,.426.426V3.685a.426.426,0,0,1-.426.426H.425A.425.425,0,0,1,0,3.686V.424A.424.424,0,0,1,.424,0Z" transform="translate(0 3.897) rotate(-71.351)" fill="#edb485"/>
            </g>
          </g>
          <g id="Grupo_87366" data-name="Grupo 87366">
            <path id="Trazado_138951" data-name="Trazado 138951" d="M218.943,96.279a44.055,44.055,0,0,0,2.162-9.544,59.113,59.113,0,0,0,.2-16.71c-.487-3.108-2.835-11.645-7.74-13.832A2.261,2.261,0,0,1,215.4,52.06c8.139,3.623,10.285,16.707,10.375,17.256,1.123,7.123.293,14.851-.3,18.83a63.984,63.984,0,0,1-1.458,7.174,20.721,20.721,0,0,1-.932,2.776Z" transform="translate(-212.223 -51.862)" fill="#81d4fa"/>
          </g>
        </g>
      </g>
    </g>
  </g>
</svg>
