<svg xmlns="http://www.w3.org/2000/svg" width="78.931" height="73.285" viewBox="0 0 78.931 73.285">
  <g id="NFukag" transform="translate(-192.953 -728.441)">
    <g id="Grupo_87659" data-name="Grupo 87659" transform="translate(192.953 728.441)">
      <path id="Trazado_139479" data-name="Trazado 139479" d="M225.49,728.441h2.368c.373.055.745.119,1.12.162A18.665,18.665,0,0,1,244.509,741.8a20.1,20.1,0,0,1-.339,11.953,24.548,24.548,0,0,1-8.479,12.286c-.2.156-.411.308-.637.478a.782.782,0,0,0,.147.092,38.745,38.745,0,0,1,6.525,2.415.586.586,0,0,0,.467-.067c1.148-.7,2.284-1.418,3.425-2.129.841-.524,1.683-1.047,2.513-1.562.053.038.085.05.1.073q.654,1.038,1.305,2.078c.567.908.565.9,1.6.749a.4.4,0,0,0,.405-.367c.1-.545.239-1.084.365-1.625s.254-1.066.38-1.594a1.1,1.1,0,0,1,.184,0q4.782,1.1,9.564,2.2c.284.065.3.2.237.44-.193.779-.314,1.581-.568,2.339a1.009,1.009,0,0,0,.514,1.381.675.675,0,0,0,.875.01c.859-.57,1.746-1.1,2.648-1.66l5.458,8.737c-.969.606-1.887,1.176-2.8,1.756-.111.071-.27.205-.263.3a7.8,7.8,0,0,0,.186,1.121c.016.07.141.146.228.166,1.109.255,2.221.5,3.332.748v.263a2.486,2.486,0,0,0-.14.354q-.814,3.521-1.622,7.044c-.183.792-.371,1.583-.562,2.393-.115-.018-.185-.024-.253-.04-.981-.23-1.963-.455-2.941-.7-.261-.065-.45-.039-.574.225a1.028,1.028,0,0,1-.223.323c-.38.344-.308.654-.038,1.051.556.818,1.055,1.675,1.6,2.551l-8.726,5.457c-.6-.955-1.159-1.86-1.73-2.76-.073-.115-.2-.292-.288-.285a3.7,3.7,0,0,0-1.195.218c-.158.07-.189.455-.25.7-.151.61-.286,1.223-.428,1.835-.074.321-.149.641-.227.976-.14-.025-.225-.037-.309-.056q-3.862-.895-7.724-1.79a7.365,7.365,0,0,0-2.753-.307,124.926,124.926,0,0,1-16.392,1.031,3.187,3.187,0,0,1-.324-.029l-.127-.167a2.538,2.538,0,0,0,.483-.3q4.33-4.319,8.652-8.646a.53.53,0,0,0,.136-.685c-.766-1.817-1.511-3.643-2.265-5.465q-2.679-6.479-5.366-12.954a.519.519,0,0,1,.114-.651c.509-.544.989-1.115,1.48-1.676q.643-.736,1.284-1.474a13.994,13.994,0,0,1-9.006-.047.837.837,0,0,0,.167.294c.786.9,1.549,1.831,2.37,2.7a.9.9,0,0,1,.174,1.138c-2.513,6.025-5,12.062-7.507,18.09a.6.6,0,0,0,.165.786q4.4,4.371,8.779,8.766c.076.076.136.167.263.324-.329,0-.572.005-.815,0-1.928-.05-3.857-.078-5.784-.158a100.917,100.917,0,0,1-15.274-1.675,33.359,33.359,0,0,1-7.951-2.39c-1.644-.778-3.184-1.691-3.8-3.572v-1.578c.072-.43.14-.861.215-1.291a20.818,20.818,0,0,1,3.461-8.17,37.406,37.406,0,0,1,21.05-15.055c.185-.054.373-.1.6-.158a1.371,1.371,0,0,0-.138-.15,24.033,24.033,0,0,1-8.56-11.389,19.638,19.638,0,0,1-.736-13.265c2.288-7.117,7.164-11.452,14.492-12.994C224.044,728.613,224.771,728.546,225.49,728.441Zm13.629,49.024c-.343,1.485-.676,2.9-.985,4.329-.018.081.139.271.244.3.707.18,1.42.344,2.136.484.324.063.452.187.447.543a11.816,11.816,0,0,0,.608,3.832c.2.625.2.625-.345.97l-1.964,1.235,2.48,3.964c.76-.474,1.486-.909,2.192-1.375a.4.4,0,0,1,.625.07,11.888,11.888,0,0,0,3.162,2.327c.563.3.564.292.418.935-.166.735-.331,1.471-.5,2.237l4.549,1.061c.2-.861.41-1.665.569-2.479.068-.346.21-.444.551-.438a10.794,10.794,0,0,0,3.995-.673c.363-.136.506-.046.682.253.419.713.873,1.405,1.33,2.134l3.955-2.48c-.482-.771-.928-1.506-1.4-2.226a.362.362,0,0,1,.066-.552,11.718,11.718,0,0,0,2.246-3.007c.4-.755.4-.755,1.262-.562l2.013.453,1.062-4.556c-.871-.206-1.688-.414-2.513-.584-.305-.063-.4-.185-.393-.494a11.289,11.289,0,0,0-.673-4.041c-.12-.325-.079-.481.224-.657.728-.423,1.432-.888,2.168-1.349l-2.481-3.961c-.748.464-1.475.893-2.176,1.361-.282.189-.439.138-.659-.088a11.237,11.237,0,0,0-3.253-2.347c-.354-.168-.46-.332-.349-.728.218-.781.368-1.582.554-2.408l-4.552-1.036c-.2.867-.408,1.687-.58,2.514-.063.3-.186.4-.5.391a11.186,11.186,0,0,0-4.038.678.473.473,0,0,1-.691-.251c-.418-.714-.873-1.407-1.329-2.133l-3.958,2.479,1.561,2.516c-.1.108-.16.187-.232.257a11.71,11.71,0,0,0-2.441,3.4c-.154.327-.327.363-.645.281C240.774,777.834,239.976,777.663,239.119,777.465Z" transform="translate(-192.953 -728.441)" fill="#12263f"/>
      <path id="Trazado_139480" data-name="Trazado 139480" d="M801.873,1264.72a8.405,8.405,0,1,1-8.368-8.423A8.388,8.388,0,0,1,801.873,1264.72Z" transform="translate(-733.134 -1210.004)" fill="#12263f"/>
    </g>
  </g>
</svg>
