<svg xmlns="http://www.w3.org/2000/svg" width="85" height="85" viewBox="0 0 85 85">
  <g id="icon2" transform="translate(-756 -27831)">
    <circle id="Elipse_4087" data-name="Elipse 4087" cx="42.5" cy="42.5" r="42.5" transform="translate(756 27831)" fill="#ff9d00"/>
    <g id="Grupo_64109" data-name="Grupo 64109" transform="translate(-16.107 27243.113)">
      <path id="Trazado_133124" data-name="Trazado 133124" d="M784.886,643.275a2.924,2.924,0,0,1,2.333-2.218,1.5,1.5,0,0,0,1.336-1.093,11.439,11.439,0,0,1,5.772-5.7,1.5,1.5,0,0,0,.837-.879c.505-1.241,1.059-2.461,1.569-3.7a.613.613,0,0,1,.673-.451,5.63,5.63,0,0,1,5.335,3.3.944.944,0,0,0,1.01.627q2.622-.058,5.246-.005c1.092.02,2.187.125,3.318.2.138-.691.258-1.446.446-2.187a16.5,16.5,0,0,1,2.776-5.785q3.021-4.1,6.024-8.212c.13-.177.249-.361.381-.553-1.808-.418-2.746-1.315-2.878-2.723s.642-2.5,2.34-3.192c-.671-.4-1.282-.791-1.914-1.14a.749.749,0,0,1-.447-.759,5.6,5.6,0,0,1,4.33-5.5c.175-.043.352-.081.575-.133-.238-.594.145-.906.525-1.218l.095-.077c2.993-2.573,5.7-2.533,8.634.115.354.319.706.619.5,1.151.539.171,1.057.29,1.537.5a5.524,5.524,0,0,1,3.33,5.289.816.816,0,0,1-.325.558c-.633.425-1.3.805-2,1.231,1.685.673,2.467,1.777,2.33,3.194a3.064,3.064,0,0,1-2.893,2.688c.138.2.253.373.377.542,2.043,2.786,4.1,5.561,6.128,8.362a16.534,16.534,0,0,1-20.5,24.628l-.526-.24c-.073.129-.149.244-.205.368a11.931,11.931,0,0,1-5.344,5.737.752.752,0,0,0-.46.806,5.834,5.834,0,0,1-.094,1.451,2.86,2.86,0,0,1-2.763,2.242c-.61.018-1.22.007-1.83,0a2.945,2.945,0,0,1-3.109-2.66c-.012-.076-.027-.151-.043-.246h-5.743a7.894,7.894,0,0,1-.365,1.205,2.821,2.821,0,0,1-2.555,1.692c-.71.033-1.424.025-2.136,0a2.819,2.819,0,0,1-2.8-2.835v-.033a1.926,1.926,0,0,0-1.233-2.089,11.3,11.3,0,0,1-4.053-3.539.633.633,0,0,0-.416-.271,3.124,3.124,0,0,1-3.112-2.337Zm43.922-26.729c-1.281,0-2.562.017-3.844-.01a.91.91,0,0,0-.851.436q-3.5,4.807-7.022,9.594a14.847,14.847,0,0,0-2.747,6.632c-.084.542-.048.884.568,1.164a11.932,11.932,0,0,1,6.875,13.114.551.551,0,0,0,.353.694l.012,0a14.7,14.7,0,0,0,8.949,1.414,14.461,14.461,0,0,0,9.72-22.64c-2.392-3.387-4.888-6.7-7.355-10.035a1,1,0,0,0-.691-.345c-1.323-.037-2.647-.02-3.967-.02ZM816.083,644.8a3.6,3.6,0,0,0,3.2-1.455,1.275,1.275,0,0,0,.208-1.341,10.447,10.447,0,0,0-9.471-6.891c-2.053-.054-4.108-.013-6.161-.023a4.4,4.4,0,0,1-1.963-.115c-.46-.26-.614-1.052-.908-1.612a5.532,5.532,0,0,0-.306-.526,3.783,3.783,0,0,0-2.016-1.5.443.443,0,0,0-.654.3c-.449,1.11-.955,2.2-1.4,3.309a1.3,1.3,0,0,1-.815.806,9.8,9.8,0,0,0-5.845,5.85c-.5,1.284-.5,1.283-1.885,1.3-.9.009-1.229.345-1.233,1.266v3.477c0,2.063,0,2.072,2.061,2.08a.787.787,0,0,1,.712.414,10.633,10.633,0,0,0,1.811,2.187,37.472,37.472,0,0,0,3.779,2.418.683.683,0,0,1,.434.691c-.03.669-.02,1.342,0,2.012a.979.979,0,0,0,1.066,1.063c.568.015,1.138.011,1.708,0a1,1,0,0,0,1.126-.859.992.992,0,0,0,0-.27c.01-.582,0-1.166,0-1.757h9.756v1.68c.008.867.345,1.2,1.231,1.207.509,0,1.017.007,1.525,0,.789-.012,1.136-.367,1.151-1.172.007-.63.028-1.266-.008-1.89a.635.635,0,0,1,.473-.717,10.169,10.169,0,0,0,6.359-9.337,6.3,6.3,0,0,1-4.461,1.416c-.147-.006-.325.182-.453.314-1.366,1.416-2.724,2.838-4.061,4.235l-1.462-1.4,3.163-3.1c-2.175-1.1-2.886-2.346-2.312-3.972a2.951,2.951,0,0,1,3.3-1.9C815.421,641.354,816.233,642.654,816.083,644.8Zm13.91-34.14c.536-2.4,1.064-4.758,1.579-7.116a.565.565,0,0,0-.08-.432,3.5,3.5,0,0,0-4.281-.723c-1.243.673-1.249.675-.949,2.038.46,2.072.921,4.144,1.388,6.233Zm-1.135,3.929h6.528c.78,0,1.225-.346,1.24-.952.016-.625-.446-1-1.254-1H822.066a.991.991,0,0,0-1.055.923l0,.029a.98.98,0,0,0,1.071,1c2.264.008,4.522,0,6.781,0Zm-3.191-3.833-1.257-5.633a3.622,3.622,0,0,0-3.26,2.576.55.55,0,0,0,.257.733l.021.01c1.161.664,2.3,1.373,3.453,2.049a4.5,4.5,0,0,0,.788.265Zm7.569-5.663-1.266,5.69a5.744,5.744,0,0,0,.83-.31c1.12-.655,2.216-1.351,3.349-1.983a.608.608,0,0,0,.355-.784.568.568,0,0,0-.05-.1A3.672,3.672,0,0,0,833.236,605.1ZM814,644.842c.289-.883.219-1.423-.23-1.738a.9.9,0,0,0-1.173.031.883.883,0,0,0-.275,1.138c.368.764,1.056.577,1.679.571Z" transform="translate(0 -0.029)" fill="#fff"/>
      <path id="Trazado_133125" data-name="Trazado 133125" d="M784.886,608.579c1.553-2.519,3.06-5.066,4.676-7.545a2.6,2.6,0,0,1,4.313,0q2.281,3.419,4.374,6.963a2.453,2.453,0,0,1-2.072,3.633c-.16.01-.32.014-.541.024v11.66h-7.787V611.652a2.747,2.747,0,0,1-2.963-1.968Zm8.78,1.1c.792,0,1.5.01,2.208,0s.908-.394.535-.994q-1.965-3.153-3.953-6.291c-.435-.691-1.042-.678-1.479.014q-1.969,3.114-3.914,6.242c-.413.662-.2,1.025.584,1.036.7.007,1.4,0,2.142,0v11.682h3.882Z" fill="#fff"/>
      <path id="Trazado_133126" data-name="Trazado 133126" d="M819.7,632.351h-7.828V620.725a9.563,9.563,0,0,1-1.072-.156,2.417,2.417,0,0,1-1.562-3.521c1.408-2.375,2.871-4.72,4.407-7.015a2.6,2.6,0,0,1,4.279.022q2.28,3.42,4.375,6.963a2.453,2.453,0,0,1-2.053,3.644c-.16.01-.323,0-.545,0Zm-1.957-1.957V618.71c.751,0,1.439.007,2.127,0,.752-.009.973-.376.584-1q-1.966-3.153-3.952-6.292c-.433-.682-1.036-.667-1.479.027q-1.969,3.113-3.914,6.242c-.411.659-.2,1.018.6,1.025.7.006,1.4,0,2.14,0V630.4Z" transform="translate(-8.432 -3.169)" fill="#fff"/>
      <path id="Trazado_133136" data-name="Trazado 133136" d="M848.933,636.551v-1.989h1.916v1.957c2.616.944,3.951,2.568,3.892,4.75-.3.024-.616.058-.931.071s-.605,0-.943,0c-.04-.219-.067-.433-.116-.643a2.917,2.917,0,1,0-3.611,3.366c.684.19,1.382.336,2.063.532a4.8,4.8,0,0,1,.1,9.256c-.134.042-.265.089-.434.145v1.975h-1.937v-1.978a5.038,5.038,0,0,1-3.25-2.3,5.52,5.52,0,0,1-.644-3.446h1.926c0,.368-.01.729,0,1.088a2.868,2.868,0,0,0,2.656,2.77,2.9,2.9,0,0,0,3.167-2.418,2.857,2.857,0,0,0-2.116-3.2c-.586-.166-1.176-.314-1.767-.46a4.813,4.813,0,0,1-.23-9.4Z" transform="translate(-21.073 -12.158)" fill="#fff"/>
      <path id="Trazado_133137" data-name="Trazado 133137" d="M799.881,658.577a2.928,2.928,0,1,1-2.964,2.891v-.031A2.939,2.939,0,0,1,799.881,658.577Zm-.044,3.9a.972.972,0,1,0-.964-.979.983.983,0,0,0,.965.977Z" transform="translate(-4.218 -20.578)" fill="#fff"/>
    </g>
  </g>
</svg>
