<svg xmlns="http://www.w3.org/2000/svg" width="68.642" height="71.887" viewBox="0 0 68.642 71.887">
  <g id="pYIQTp.tif" transform="translate(2375.471 273.445)">
    <g id="Grupo_88765" data-name="Grupo 88765" transform="translate(-2375.471 -273.445)">
      <path id="Trazado_141760" data-name="Trazado 141760" d="M-2347.8,35c-1.28-.09-2.559-.185-3.839-.269a52.479,52.479,0,0,1-14.277-2.681,19.755,19.755,0,0,1-8.238-5.013c-.079-.086-.156-.174-.232-.263a3.681,3.681,0,0,1-.97-3.51,42.449,42.449,0,0,1,3.147-9.843,9.178,9.178,0,0,1,3.8-4.092c4.382-2.4,8.739-4.854,13.1-7.291a1.364,1.364,0,0,1,1.63.1,15.422,15.422,0,0,0,5.692,2.768,1.691,1.691,0,0,1,1.222,1.134c.56,1.41,1.153,2.807,1.735,4.209.085.205.186.4.342.743.675-1.633,1.337-3.116,1.9-4.637a2.289,2.289,0,0,1,1.77-1.576,13.7,13.7,0,0,0,5.114-2.528,1.607,1.607,0,0,1,1.994-.115c1.4.8,2.825,1.553,4.26,2.286a1.038,1.038,0,0,1,.659,1.075,12.659,12.659,0,0,0,.255,2.205,1.2,1.2,0,0,0,.394.724c.98.7.862,1.706.845,2.706a23.774,23.774,0,0,1-.113,4.751,21.343,21.343,0,0,1-1.949,4.251q-2.325,4.829-4.656,9.654c-1.065,2.207-1.08,2.369-.363,4.678-.894.085-1.77.18-2.648.25-1.279.1-2.559.189-3.838.283Zm-7.551-17.453a2.714,2.714,0,0,1-.028-.35c.058-.771-.017-1.449-.943-1.692-.143-.038-.233-.312-.328-.488a.666.666,0,0,0-1.184-.126,4.5,4.5,0,0,0-.414,1.349,9.171,9.171,0,0,0-.014,1.374h-6.719v2.152h10.427V17.612Z" transform="translate(2375.471 36.887)" fill="#12263f"/>
      <path id="Trazado_141761" data-name="Trazado 141761" d="M-2046.041,32.524a1.833,1.833,0,0,1-1.911,1.1c-7.41-.019-14.821-.009-22.231-.012-1.668,0-2.25-.917-1.531-2.411,2.311-4.794,4.633-9.583,6.927-14.385a3.451,3.451,0,0,0,.317-1.4c.031-2.384.014-4.769.014-7.154V7.511c-1.361-.356-1.518-.563-1.519-1.953,0-.795,0-1.59,0-2.385.006-1.181.42-1.613,1.6-1.618,2.618-.01,5.236,0,7.854,0,.958,0,1.917-.014,2.875,0,1.051.02,1.481.452,1.5,1.5.019.865.007,1.73,0,2.595,0,1.272-.234,1.56-1.5,1.83,0,1.595.109,3.213-.024,4.811a13.122,13.122,0,0,0,1.676,7.42c2.055,3.9,3.871,7.927,5.789,11.9a1.309,1.309,0,0,0,.156.206Zm-10.381-25.087h-5.279c0,.6.033,1.181-.005,1.756-.2,3,.51,6.05-.506,8.983h6.38a10.326,10.326,0,0,1-.554-1.627,10.732,10.732,0,0,1-.034-1.749C-2056.423,12.371-2056.422,9.941-2056.422,7.437Zm1.88,16.648a1.438,1.438,0,0,0-1.472,1.376,1.438,1.438,0,0,0,1.41,1.51,1.461,1.461,0,0,0,1.481-1.446A1.457,1.457,0,0,0-2054.542,24.084Zm-4.216-2.052a1.144,1.144,0,0,0-1.088-1.145A1.172,1.172,0,0,0-2061,22.044a1.132,1.132,0,0,0,1.135,1.094A1.1,1.1,0,0,0-2058.758,22.032Zm-.207,4.645q0-.167,0-.334c-.3-.216-.583-.568-.909-.614a.688.688,0,0,0-.781.772c0,.507.316.843.773.78C-2059.554,27.235-2059.269,26.889-2058.965,26.678Z" transform="translate(2114.683 37.117)" fill="#12263f"/>
      <path id="Trazado_141762" data-name="Trazado 141762" d="M-2241.824-254.355a21.636,21.636,0,0,1-2.656,11.905,18.792,18.792,0,0,1-12.344,9.378,9.719,9.719,0,0,1-6.445-1.075,19.663,19.663,0,0,1-11.214-14.028,30.569,30.569,0,0,1-.378-9.286,37.269,37.269,0,0,1,1.046-6.55,11.394,11.394,0,0,1,8.794-8.593,26.594,26.594,0,0,1,13.586.081,11.56,11.56,0,0,1,8.464,8.357A33.749,33.749,0,0,1-2241.824-254.355Zm-2.507-2.56c-.329.05-.6.081-.875.135a28.1,28.1,0,0,1-9.815.484c-3.336-.516-6.31-1.7-8.252-4.694a.738.738,0,0,0-.566-.247,18.442,18.442,0,0,0-2.367.207,8.342,8.342,0,0,0-6.095,4.149,1.459,1.459,0,0,0-.226.715,49.551,49.551,0,0,0,.283,6.495,16.958,16.958,0,0,0,11.077,13.764,6.52,6.52,0,0,0,4.043.438,16.373,16.373,0,0,0,9.412-6.411C-2244.375-246.352-2243.9-251.49-2244.331-256.915Z" transform="translate(2289.157 273.445)" fill="#12263f"/>
      <path id="Trazado_141763" data-name="Trazado 141763" d="M-2239.332,105.5l.356-.053q-.071-.662-.142-1.324l-.3.041Z" transform="translate(2258.551 -51.032)" fill="#12263f"/>
      <path id="Trazado_141764" data-name="Trazado 141764" d="M-2239.332,105.5l-.09-1.336.3-.041q.071.662.142,1.324Z" transform="translate(2258.551 -51.032)" fill="#12263f"/>
      <path id="Trazado_141765" data-name="Trazado 141765" d="M-2242.411-144.99a34.249,34.249,0,0,1,3.674.275,16.5,16.5,0,0,1,2.91.949,2.424,2.424,0,0,0,2.029,0c3.422-1.635,7.006-1.271,10.588-.822,1.293.162,1.347,1.428,1.055,2.58-.169.669-.461,1.31-.587,1.985-.477,2.545-1.119,3.285-3.726,3.548a15.146,15.146,0,0,1-4.019-.246,4.112,4.112,0,0,1-3.052-2.909c-.206-.52-.312-1.084-.561-1.58a.948.948,0,0,0-.705-.452.945.945,0,0,0-.684.473c-.251.521-.37,1.1-.578,1.648A4.422,4.422,0,0,1-2240-136.5a17.743,17.743,0,0,1-3.623-.016c-1.895-.214-2.694-1.086-3.109-2.97-.193-.877-.534-1.722-.722-2.6-.319-1.487-.059-2.454,1.523-2.559C-2244.671-144.731-2243.421-144.89-2242.411-144.99Zm.664,1.29-.018.066c-.535.027-1.071.038-1.6.083-1.7.145-2.281.769-2.219,2.471a4.076,4.076,0,0,0,.305,1.632,2.963,2.963,0,0,0,1.175,1.384,5.887,5.887,0,0,0,5.071-.043c1.51-.705,1.9-2.153,2.117-3.635.121-.82-.111-1.148-.975-1.327C-2239.169-143.332-2240.463-143.495-2241.748-143.7Zm14.01.047,0,.048c-.256.015-.515.012-.768.048-1.081.156-2.171.276-3.234.516a1.362,1.362,0,0,0-.886.747,4.654,4.654,0,0,0,1.66,3.944,5.865,5.865,0,0,0,5.37.344,2.666,2.666,0,0,0,1.287-1.441,5.883,5.883,0,0,0,.274-2.326,1.622,1.622,0,0,0-1.613-1.707C-2226.339-143.585-2227.042-143.6-2227.738-143.653Z" transform="translate(2265.553 163.051)" fill="#12263f"/>
    </g>
  </g>
</svg>
