<svg xmlns="http://www.w3.org/2000/svg" width="147.313" height="149.445" viewBox="0 0 147.313 149.445">
  <g id="Grupo_88758" data-name="Grupo 88758" transform="translate(-245.503 -22611.307)">
    <g id="Grupo_88740" data-name="Grupo 88740" transform="translate(246.003 22611.809)">
      <g id="Grupo_53572" data-name="Grupo 53572">
        <path id="Trazado_102625" data-name="Trazado 102625" d="M62.408,0A62.408,62.408,0,1,1,.254,68.078C.094,66.384,0,64.407,0,62.408A62.408,62.408,0,0,1,62.408,0Z" transform="translate(11.817 11.812)" fill="#ff9d00" stroke="#7e5ee3" stroke-width="1"/>
        <g id="Grupo_53571" data-name="Grupo 53571">
          <path id="Trazado_100259" data-name="Trazado 100259" d="M232.28,149.386a68.313,68.313,0,0,1,67.946-68.311V75.166a74.221,74.221,0,0,0,0,148.44V217.7A68.313,68.313,0,0,1,232.28,149.386Z" transform="translate(-226.371 -75.166)" fill="#7e5ee3" stroke="#7e5ee3" stroke-width="1"/>
        </g>
      </g>
      <path id="Trazado_109773" data-name="Trazado 109773" d="M72.088,0A72.088,72.088,0,1,1,0,72.088,72.088,72.088,0,0,1,72.088,0Z" transform="translate(2.137 2.132)" fill="none" stroke="#7e5ee3" stroke-width="1" stroke-dasharray="12"/>
    </g>
    <path id="Trazado_141782" data-name="Trazado 141782" d="M3.008,59V19.188h14.3Q24.992,19.188,29,22A9.371,9.371,0,0,1,33,30.18a9.473,9.473,0,0,1-1.422,5.277A8.285,8.285,0,0,1,27.4,38.684a8.391,8.391,0,0,1,4.785,3.063,8.9,8.9,0,0,1,1.668,5.469q0,5.852-3.705,8.791T19.168,59Zm9.6-16.926v9.543h6.289a5.982,5.982,0,0,0,3.992-1.189,4.163,4.163,0,0,0,1.395-3.35q0-4.977-4.949-5Zm0-6.289h5q3.145-.027,4.484-1.152a4.087,4.087,0,0,0,1.34-3.318,4.292,4.292,0,0,0-1.449-3.634,7.757,7.757,0,0,0-4.676-1.111h-4.7Z" transform="translate(301.159 22652.809)" fill="#fff"/>
  </g>
</svg>
