<svg xmlns="http://www.w3.org/2000/svg" width="147.313" height="149.445" viewBox="0 0 147.313 149.445">
  <g id="Grupo_88757" data-name="Grupo 88757" transform="translate(-245.503 -22367.307)">
    <g id="Grupo_53573" data-name="Grupo 53573" transform="translate(246.003 22367.809)">
      <g id="Grupo_53572" data-name="Grupo 53572">
        <path id="Trazado_102625" data-name="Trazado 102625" d="M62.408,0A62.408,62.408,0,1,1,.254,68.078C.094,66.384,0,64.407,0,62.408A62.408,62.408,0,0,1,62.408,0Z" transform="translate(11.817 11.812)" fill="#ff9d00" stroke="#7e5ee3" stroke-width="1"/>
        <g id="Grupo_53571" data-name="Grupo 53571">
          <path id="Trazado_100259" data-name="Trazado 100259" d="M232.28,149.386a68.313,68.313,0,0,1,67.946-68.311V75.166a74.221,74.221,0,0,0,0,148.44V217.7A68.313,68.313,0,0,1,232.28,149.386Z" transform="translate(-226.371 -75.166)" fill="#7e5ee3" stroke="#7e5ee3" stroke-width="1"/>
        </g>
      </g>
      <path id="Trazado_109773" data-name="Trazado 109773" d="M72.088,0A72.088,72.088,0,1,1,0,72.088,72.088,72.088,0,0,1,72.088,0Z" transform="translate(2.137 2.132)" fill="none" stroke="#7e5ee3" stroke-width="1" stroke-dasharray="12"/>
    </g>
    <path id="Trazado_141781" data-name="Trazado 141781" d="M25.621,51.563H12.469L10.172,59H-.082l14.6-39.812h9.023L38.254,59H27.945Zm-10.855-7.41h8.559L19.031,30.344Z" transform="translate(301.159 22408.809)" fill="#fff"/>
  </g>
</svg>
