<svg xmlns="http://www.w3.org/2000/svg" width="85" height="85" viewBox="0 0 85 85">
  <g id="icon3" transform="translate(-1071 -27831)">
    <circle id="Elipse_4087" data-name="Elipse 4087" cx="42.5" cy="42.5" r="42.5" transform="translate(1071 27831)" fill="#ff9d00"/>
    <g id="Grupo_70620" data-name="Grupo 70620" transform="translate(626.027 26501.023)">
      <path id="Trazado_110078" data-name="Trazado 110078" d="M514.4,1350.429a4.6,4.6,0,0,0-4.451-3.387c-.9-.022-1.794-.014-2.691,0-.452.006-.69-.155-.655-.63.007-.095,0-.191,0-.286a2.688,2.688,0,0,0-2.979-2.862c-.171.014-.344-.005-.515,0a2.606,2.606,0,0,0-2.375,1.9,3.417,3.417,0,0,0-.1.908c-.011.965-.012.965-1,.966h-23.02c-1.435,0-1.261.083-1.3-1.245a2.559,2.559,0,0,0-2.566-2.527c-.248-.007-.5,0-.745,0a2.5,2.5,0,0,0-2.521,2,5.067,5.067,0,0,0-.129,1.077c-.017.625-.073.682-.7.69-.9.012-1.8-.018-2.691.01a4.626,4.626,0,0,0-4.532,4.636c.047,15.29.024,30.579.024,45.869a4.266,4.266,0,0,0,.094,1.138,4.088,4.088,0,0,0,3.521,3.29h45.6a5.294,5.294,0,0,0,1.54-.365,4.29,4.29,0,0,0,2.3-3.89q.008-23.106,0-46.213A4.436,4.436,0,0,0,514.4,1350.429Zm-11.894-4.288c.012-.781.313-1.1,1.052-1.1.778-.007,1.114.321,1.131,1.1.024,1.1.024,1.1-1.094,1.1S502.493,1347.236,502.51,1346.142Zm-31.233-.018c.018-.753.349-1.083,1.087-1.086.76,0,1.079.306,1.1,1.061.025,1.137.025,1.137-1.1,1.137C471.25,1347.236,471.25,1347.236,471.277,1346.123Zm41.373,51.3a2.583,2.583,0,0,1-2.843,2.834q-21.822,0-43.645,0a2.615,2.615,0,0,1-2.749-1.871,1.105,1.105,0,0,1-.033-.663,5.4,5.4,0,0,0,3.44.824q16.7-.019,33.392.007a5.217,5.217,0,0,0,3.971-1.665c2.656-2.717,5.363-5.383,8.049-8.07.1-.1.2-.219.314-.346a.563.563,0,0,1,.1.473Q512.654,1393.185,512.65,1397.423Zm-9.653-2.9c0-1.736,0-3.473,0-5.21a1.959,1.959,0,0,1,2.13-2.137c1.546-.011,3.092,0,4.637,0a9.467,9.467,0,0,0,1.489-.049l-8.376,8.374A2.144,2.144,0,0,0,503,1394.519Zm9.654-11.445c0,1.664-.709,2.377-2.359,2.378-1.68,0-3.36-.005-5.04,0a3.691,3.691,0,0,0-3.973,4.01c0,1.738,0,3.475,0,5.212a1.965,1.965,0,0,1-2.127,2.145q-16.552,0-33.1,0a2.552,2.552,0,0,1-2.724-2.724q-.009-16.18-.012-32.361c0-.408.121-.5.513-.5,2.768.016,5.537.009,8.3.007a3.28,3.28,0,0,0,.683-.041.838.838,0,0,0,.032-1.62,2.8,2.8,0,0,0-.682-.053c-2.749,0-5.5-.012-8.248.008-.451,0-.616-.07-.61-.576.031-2.386.01-4.772.015-7.159a2.6,2.6,0,0,1,2.845-2.843c.993,0,1.986.011,2.979-.008.318-.006.433.079.422.411-.023.706-.022,1.413,0,2.119a2.614,2.614,0,0,0,2.506,2.616.849.849,0,0,0,.958-.771.863.863,0,0,0-.8-.94c-.72-.133-.941-.385-.949-1.106-.007-.63.021-1.261-.009-1.89-.018-.369.116-.448.457-.44.935.021,1.87.007,2.806.007q12.772,0,25.545-.016c.625,0,.764.187.726.758a16.372,16.372,0,0,0,.009,2.061,2.569,2.569,0,0,0,2.467,2.336.86.86,0,1,0,.171-1.71c-.745-.141-.932-.356-.939-1.1-.005-.649.012-1.3-.007-1.947-.009-.3.089-.388.39-.387,2.386.012,4.773-.014,7.159.015a2.531,2.531,0,0,1,2.591,2.626c.021,2.5-.008,5,.02,7.5.006.507-.27.432-.571.432H476.638c-1.026,0-1.464.264-1.453.875.012.591.436.843,1.424.843q17.7,0,35.4-.012c.52,0,.659.123.658.652Q512.635,1372.478,512.651,1383.073Z" fill="#fff"/>
      <path id="Trazado_110079" data-name="Trazado 110079" d="M476.219,1397.337q-2.085-.067-4.174,0a1.6,1.6,0,0,0-1.623,1.651c-.026,1.391-.028,2.784,0,4.174a1.6,1.6,0,0,0,1.662,1.6c.686.013,1.372,0,2.059,0,.648,0,1.3.006,1.944,0a1.643,1.643,0,0,0,1.752-1.645c.039-1.372.036-2.746,0-4.118A1.625,1.625,0,0,0,476.219,1397.337Zm-.433,5.714c-1.106-.013-2.213-.015-3.319,0-.289,0-.352-.1-.344-.363.017-.553.005-1.106.005-1.66,0-.534.012-1.068-.005-1.6-.009-.286.062-.4.378-.4q1.631.028,3.262,0c.314,0,.384.112.38.4q-.02,1.631,0,3.262C476.146,1402.967,476.061,1403.054,475.785,1403.051Z" transform="translate(-3.653 -22.02)" fill="#fff"/>
      <path id="Trazado_110080" data-name="Trazado 110080" d="M515.612,1397.337c-1.39-.044-2.784-.042-4.174,0a1.584,1.584,0,0,0-1.62,1.595c-.047,1.409-.049,2.821,0,4.23a1.6,1.6,0,0,0,1.722,1.6c.667.008,1.334,0,2,0,.648,0,1.3.006,1.944,0a1.625,1.625,0,0,0,1.742-1.646c.031-1.372.029-2.746,0-4.118A1.609,1.609,0,0,0,515.612,1397.337Zm-.436,5.716q-1.659-.024-3.319,0c-.281,0-.356-.095-.353-.363q.019-1.631,0-3.262c0-.288.071-.4.383-.4q1.63.027,3.261,0c.32-.006.384.121.376.4-.017.533,0,1.068,0,1.6,0,.553-.014,1.107.005,1.659C515.534,1402.964,515.461,1403.057,515.177,1403.053Z" transform="translate(-19.696 -22.02)" fill="#fff"/>
      <path id="Trazado_110081" data-name="Trazado 110081" d="M495.878,1397.332q-2.057-.056-4.117,0a1.585,1.585,0,0,0-1.63,1.581q-.059,2.142,0,4.287a1.586,1.586,0,0,0,1.64,1.56c.686.014,1.372,0,2.059,0,.648,0,1.3.005,1.944,0a1.645,1.645,0,0,0,1.767-1.688q.047-2.029,0-4.06A1.634,1.634,0,0,0,495.878,1397.332Zm-.038,5.363c0,.278-.089.359-.36.355-1.106-.012-2.213-.015-3.319,0-.3,0-.344-.108-.341-.367.011-1.087.013-2.174,0-3.262,0-.29.072-.408.383-.395.533.023,1.068.007,1.6.007s1.069.015,1.6-.006c.308-.012.441.059.435.4C495.822,1400.52,495.826,1401.608,495.84,1402.7Z" transform="translate(-11.679 -22.02)" fill="#fff"/>
      <path id="Trazado_110082" data-name="Trazado 110082" d="M470.417,1385.125a1.625,1.625,0,0,0,1.678,1.714q2.029.044,4.059,0a1.624,1.624,0,0,0,1.692-1.649c.037-1.371.035-2.745,0-4.117a1.585,1.585,0,0,0-1.572-1.642q-2.142-.073-4.286,0a1.574,1.574,0,0,0-1.567,1.634c-.025.686-.005,1.373-.005,2.059h0C470.413,1383.791,470.4,1384.458,470.417,1385.125Zm1.707-3.619c0-.3.087-.4.389-.391.532.021,1.066.006,1.6.006s1.067.013,1.6-.005c.305-.011.443.06.436.406q-.031,1.6,0,3.2c.006.333-.11.421-.427.416q-1.6-.023-3.2,0c-.284,0-.4-.059-.4-.373C472.14,1383.677,472.139,1382.592,472.124,1381.507Z" transform="translate(-3.655 -14.725)" fill="#fff"/>
      <path id="Trazado_110083" data-name="Trazado 110083" d="M491.919,1386.844c.629.012,1.258,0,1.887,0,.667,0,1.335.017,2,0a1.652,1.652,0,0,0,1.733-1.728c.027-1.315.024-2.631,0-3.946a1.651,1.651,0,0,0-1.761-1.76c-1.315-.027-2.631-.028-3.945,0a1.629,1.629,0,0,0-1.726,1.728q-.04,1.972,0,3.945A1.661,1.661,0,0,0,491.919,1386.844Zm-.1-5.346c0-.307.107-.389.4-.385,1.066.014,2.132.015,3.2,0,.316,0,.443.081.427.415-.024.532-.007,1.066-.007,1.6,0,.514-.015,1.028.006,1.541.013.325-.053.479-.43.471-1.065-.024-2.132-.017-3.2,0-.291,0-.4-.074-.395-.382Q491.838,1383.125,491.814,1381.5Z" transform="translate(-11.674 -14.721)" fill="#fff"/>
      <path id="Trazado_110084" data-name="Trazado 110084" d="M511.545,1386.84q1.973.033,3.946,0a1.655,1.655,0,0,0,1.741-1.774c.014-.629,0-1.258,0-1.887,0-.667.012-1.335,0-2a1.652,1.652,0,0,0-1.745-1.771q-1.972-.043-3.945,0a1.636,1.636,0,0,0-1.742,1.717q-.052,2,0,4A1.638,1.638,0,0,0,511.545,1386.84Zm-.043-5.358c0-.265.075-.372.354-.369q1.656.018,3.312,0c.282,0,.359.109.353.371-.014.571,0,1.141,0,1.713,0,.514-.014,1.028.005,1.542.011.29-.071.4-.38.4q-1.627-.025-3.254,0c-.306,0-.391-.1-.386-.4C511.514,1383.652,511.513,1382.567,511.5,1381.482Z" transform="translate(-19.693 -14.721)" fill="#fff"/>
      <path id="Trazado_110085" data-name="Trazado 110085" d="M531.117,1386.83q2.085.052,4.173,0a1.616,1.616,0,0,0,1.642-1.688c.018-.667,0-1.334,0-2s.012-1.335,0-2a1.6,1.6,0,0,0-1.608-1.719c-1.409-.046-2.821-.043-4.23,0a1.523,1.523,0,0,0-1.568,1.512c-.057,1.464-.057,2.935,0,4.4A1.531,1.531,0,0,0,531.117,1386.83Zm.088-5.337c0-.258.057-.381.346-.378q1.657.018,3.313,0c.274,0,.368.087.36.36-.016.552,0,1.1,0,1.656,0,.533-.011,1.067,0,1.6.008.275-.04.411-.366.406-1.084-.019-2.171-.015-3.256,0-.29,0-.4-.077-.4-.385C531.219,1383.664,531.215,1382.578,531.2,1381.493Z" transform="translate(-27.723 -14.723)" fill="#fff"/>
      <path id="Trazado_110086" data-name="Trazado 110086" d="M536.927,1399.49a1.6,1.6,0,0,0-1.623-1.7c-1.39-.044-2.783-.041-4.173,0a1.569,1.569,0,0,0-1.621,1.589c-.05,1.409-.051,2.822,0,4.23a1.589,1.589,0,0,0,1.674,1.6q2.029.042,4.059,0a1.629,1.629,0,0,0,1.684-1.709c.016-.667,0-1.334,0-2S536.943,1400.157,536.927,1399.49Zm-2.088,4.01c-.551-.023-1.1-.007-1.656-.007-.533,0-1.067-.014-1.6.006-.306.011-.389-.106-.385-.4q.02-1.628,0-3.256c0-.272.086-.367.359-.365,1.1.01,2.209.012,3.313,0,.288,0,.349.116.347.373-.01,1.086-.013,2.171,0,3.256C535.222,1403.4,535.148,1403.514,534.838,1403.5Z" transform="translate(-27.717 -22.203)" fill="#fff"/>
      <path id="Trazado_110087" data-name="Trazado 110087" d="M476.14,1415.281c-1.354-.016-2.708-.019-4.061,0a1.6,1.6,0,0,0-1.653,1.615q-.046,2.086,0,4.175a1.629,1.629,0,0,0,1.686,1.646c.667.014,1.335,0,2,0s1.335.009,2,0a1.629,1.629,0,0,0,1.716-1.564c.055-1.447.056-2.9,0-4.345A1.606,1.606,0,0,0,476.14,1415.281Zm0,5.37c0,.271-.076.362-.353.359q-1.657-.021-3.314,0c-.272,0-.365-.067-.354-.348.022-.571.007-1.143.007-1.84.05-.513-.276-1.37.119-1.728.349-.317,1.193-.092,1.818-.1.572-.006,1.144.01,1.714-.006.265-.008.368.062.364.347Q476.121,1418.994,476.143,1420.651Z" transform="translate(-3.653 -29.338)" fill="#fff"/>
      <path id="Trazado_110088" data-name="Trazado 110088" d="M495.812,1415.281q-2-.022-4,0a1.614,1.614,0,0,0-1.688,1.643q-.052,2.086,0,4.174a1.623,1.623,0,0,0,1.71,1.622c.648.011,1.3,0,1.944,0,.668,0,1.335.007,2,0a1.663,1.663,0,0,0,1.76-1.7c.031-1.353.033-2.708,0-4.061A1.644,1.644,0,0,0,495.812,1415.281Zm.025,5.375c0,.277-.084.357-.357.354-1.1-.014-2.21-.015-3.315,0-.28,0-.353-.079-.35-.353q.022-1.657,0-3.315c0-.271.065-.366.348-.355.552.022,1.1.006,1.657.006s1.105.013,1.657-.005c.272-.009.363.073.359.353Q495.816,1419,495.837,1420.656Z" transform="translate(-11.676 -29.339)" fill="#fff"/>
      <path id="Trazado_110089" data-name="Trazado 110089" d="M517.223,1419.056c0-.724.027-1.45-.007-2.173a1.616,1.616,0,0,0-1.618-1.6c-1.392-.025-2.785-.022-4.176,0a1.622,1.622,0,0,0-1.57,1.262,5.282,5.282,0,0,0-.035,1.709.84.84,0,0,0,1.665-.033,4.808,4.808,0,0,0,.015-.856c-.024-.312.1-.382.392-.378,1.087.015,2.174.02,3.261,0,.325-.007.37.12.367.395-.012,1.087-.017,2.174,0,3.261.006.318-.114.371-.393.368-1.087-.014-2.174-.011-3.261,0a.39.39,0,0,1-.447-.3.777.777,0,0,0-1.031-.473.815.815,0,0,0-.582.933,1.661,1.661,0,0,0,1.674,1.549c1.316.016,2.632.01,3.948,0a1.676,1.676,0,0,0,1.8-1.777c.015-.629,0-1.259,0-1.888Z" transform="translate(-19.688 -29.338)" fill="#fff"/>
    </g>
  </g>
</svg>
