<svg xmlns="http://www.w3.org/2000/svg" xmlns:xlink="http://www.w3.org/1999/xlink" width="280" height="224.701" viewBox="0 0 280 224.701">
  <defs>
    <clipPath id="clip-path">
      <path id="Trazado_141862" data-name="Trazado 141862" d="M431.269,246.96H419.752l2.535-30.058a1.216,1.216,0,0,1,1.212-1.114H428a1.216,1.216,0,0,1,1.213,1.134Z" transform="translate(-419.752 -215.788)" fill="none"/>
    </clipPath>
  </defs>
  <g id="Grupo_88788" data-name="Grupo 88788" transform="translate(-354.474 -122.139)">
    <rect id="Rectángulo_33097" data-name="Rectángulo 33097" width="276.039" height="112.577" transform="translate(358.435 217.807)" fill="#fff"/>
    <rect id="Rectángulo_33098" data-name="Rectángulo 33098" width="276.039" height="13.418" transform="translate(358.435 316.965)" fill="#e1e6f4"/>
    <g id="Grupo_88772" data-name="Grupo 88772" transform="translate(414.049 226.55)">
      <path id="Trazado_141776" data-name="Trazado 141776" d="M438.629,354.734V260.869" transform="translate(-438.629 -260.869)" fill="none" stroke="#dde4ed" stroke-miterlimit="10" stroke-width="0.586"/>
      <path id="Trazado_141777" data-name="Trazado 141777" d="M518.776,354.734V260.869" transform="translate(-462.038 -260.869)" fill="none" stroke="#dde4ed" stroke-miterlimit="10" stroke-width="0.586"/>
      <path id="Trazado_141778" data-name="Trazado 141778" d="M598.922,354.734V260.869" transform="translate(-485.448 -260.869)" fill="none" stroke="#dde4ed" stroke-miterlimit="10" stroke-width="0.586"/>
      <path id="Trazado_141779" data-name="Trazado 141779" d="M679.069,354.734V260.869" transform="translate(-508.857 -260.869)" fill="none" stroke="#dde4ed" stroke-miterlimit="10" stroke-width="0.586"/>
    </g>
    <g id="Grupo_88776" data-name="Grupo 88776" transform="translate(469.678 146.979)">
      <path id="Trazado_141780" data-name="Trazado 141780" d="M546.6,182.892a4.476,4.476,0,0,0-.278-4.189,1.956,1.956,0,0,1-.46-1.077c.025-.456.421-.787.709-1.142a2.923,2.923,0,0,0,.19-3.328c-.223-.348-.52-.646-.721-1.009a4.459,4.459,0,0,1,.093-3.385,8.845,8.845,0,0,1,1.006-2.442,4.6,4.6,0,0,0,.807-1.359c.137-.549-.036-1.157.188-1.676.257-.6.953-.883,1.3-1.431a2.339,2.339,0,0,0-.273-2.43,4.843,4.843,0,0,1-.794-1.438,5.158,5.158,0,0,1,.013-1.408,4.827,4.827,0,0,0-2.768-4.532c-.978-.44-2.129-.561-2.935-1.268-.575-.5-.9-1.252-1.494-1.735a3.151,3.151,0,0,0-2.779-.442,9.314,9.314,0,0,0-2.594,1.318,3.381,3.381,0,0,0-2.133.059,8.044,8.044,0,0,0-4.692,4.2c-.294.636-.5,1.312-.854,1.919a26.844,26.844,0,0,1-1.764,2.264,3.239,3.239,0,0,0-.729,2.678c.212.762.853,1.363,1,2.14.335,1.751-1.881,2.983-2.184,4.74-.253,1.467.893,2.941.526,4.384-.278,1.091-1.317,1.775-2.207,2.466s-1.772,1.7-1.532,2.8c.173.8.911,1.407.995,2.22.176,1.7-2.527,2.78-2.156,4.452.235,1.063,1.541,1.433,2.623,1.564a58.679,58.679,0,0,0,21.608-1.712C545.22,183.869,546.2,183.744,546.6,182.892Z" transform="translate(-518.038 -148.467)" fill="#27304c"/>
      <path id="Trazado_141781" data-name="Trazado 141781" d="M562.518,230.211a19.034,19.034,0,0,1,1.3,3.395,5.65,5.65,0,0,0,.9,2.59c.171.222.479.034.743.129a1.483,1.483,0,0,0,1.126-.191,7.748,7.748,0,0,0,3.923-8.621,4.631,4.631,0,0,0-.786-1.7,3.952,3.952,0,0,0-3.746-1.315,5.809,5.809,0,0,0-3.446,2.178C561.684,227.74,562.031,228.941,562.518,230.211Z" transform="translate(-530.297 -170.657)" fill="#fe9c70"/>
      <path id="Trazado_141782" data-name="Trazado 141782" d="M546.522,182.142a1.167,1.167,0,0,0-.6-.277,8.237,8.237,0,0,1-2.469-1.108,1.774,1.774,0,0,1-.541-.494,2,2,0,0,1-.216-1.051,4.985,4.985,0,0,1,.469-2.42,3.749,3.749,0,0,0,3.56-.669,7.2,7.2,0,0,0,2.132-3.078,8.2,8.2,0,0,0,.637-2.595c.054-.975-.137-1.945-.166-2.922-.07-2.287.731-4.653-.017-6.815-.095-.273-.189-.37-.265-.65a2.111,2.111,0,0,0-1.313-1.414,4.373,4.373,0,0,1-1.044-.363c-.406-.275-.588-.8-1-1.064a2.74,2.74,0,0,0-1.393-.2c-.475-.013-1.033-.188-1.164-.645a4.735,4.735,0,0,1-2,2.769c-.758.474-1.741.847-1.964,1.714-.156.606.134,1.288-.127,1.857-.276.6-1.028.8-1.52,1.24a1.848,1.848,0,0,0-.421,2.1,2.439,2.439,0,0,0-1.778-.576,1.719,1.719,0,0,0-1.3,1.829,3.5,3.5,0,0,0,1.114,2.143,2.076,2.076,0,0,0,1.761.8l-.142,0a20.2,20.2,0,0,1-.617,7.82,8.938,8.938,0,0,1-4.839,5.571c-1.528,2.34-1.829,5.5-1.734,8.295a9.4,9.4,0,0,0,.775,3.907,9.564,9.564,0,0,0,3.708,3.547,40.3,40.3,0,0,0,8.794,4.125,6.61,6.61,0,0,0,3.345.439,4.826,4.826,0,0,0,3.366-3.438,13.3,13.3,0,0,0,.254-5.012q-.364-4.41-1.012-8.792A8.926,8.926,0,0,0,546.522,182.142Z" transform="translate(-520.813 -150.778)" fill="#fe9c70"/>
      <path id="Trazado_141783" data-name="Trazado 141783" d="M550.319,232.733c-3.307,1.344-7.008,1.217-10.566.93-4.191-.337-8.264-.758-12.406-1.474a34.38,34.38,0,0,0-.117-5.527c-.142-1.092-.387-2.168-.634-3.242-.354-1.547-.675-3.082-1.029-4.63a14.8,14.8,0,0,1-7.871-1.462,45.487,45.487,0,0,1-.013-13.2c.38-2.609,1.1-5.372,3.1-7.086a11.8,11.8,0,0,1,2.6-1.56c2.037-.984,4.16-1.725,6.23-2.638a38.966,38.966,0,0,0,10.542,9.91,18.184,18.184,0,0,0,2.493-10.144,23.644,23.644,0,0,1,7.731,3.3,10.94,10.94,0,0,1,2.371,1.658c1.453,1.458,1.961,3.583,2.388,5.6a146.534,146.534,0,0,1,2.47,14.48,8.283,8.283,0,0,0-5.2,1.025,2.312,2.312,0,0,0-1.2,1.31c-.849,3.313-.32,6.746,0,10.151a4.225,4.225,0,0,1-.071,1.749C550.949,232.437,550.864,232.511,550.319,232.733Z" transform="translate(-517.21 -161.359)" fill="#75aaf5"/>
      <path id="Trazado_141784" data-name="Trazado 141784" d="M563.6,211.619a4.579,4.579,0,0,0,.207,3.974,13.81,13.81,0,0,1,1.443,3.845c.232,2.155-1.075,4.187-1.228,6.349" transform="translate(-530.649 -166.912)" fill="none" stroke="#609be2" stroke-miterlimit="10" stroke-width="0.804"/>
      <path id="Trazado_141785" data-name="Trazado 141785" d="M522.917,200.207a14.847,14.847,0,0,1,5.179,2.75,11.134,11.134,0,0,1,2.62,4.285" transform="translate(-518.877 -163.579)" fill="none" stroke="#609be2" stroke-miterlimit="10" stroke-width="0.804"/>
      <path id="Trazado_141786" data-name="Trazado 141786" d="M533.667,211.691q.665,5.408,1.029,10.847" transform="translate(-522.017 -166.933)" fill="none" stroke="#609be2" stroke-miterlimit="10" stroke-width="0.804"/>
      <path id="Trazado_141787" data-name="Trazado 141787" d="M518.569,223.91a32.841,32.841,0,0,0,6.882.748,6.335,6.335,0,0,0,3.005-.534" transform="translate(-517.607 -170.502)" fill="none" stroke="#609be2" stroke-miterlimit="10" stroke-width="0.804"/>
      <path id="Trazado_141788" data-name="Trazado 141788" d="M566.355,224.857a5.363,5.363,0,0,1,4.288-.675" transform="translate(-531.564 -170.529)" fill="none" stroke="#609be2" stroke-miterlimit="10" stroke-width="0.804"/>
      <path id="Trazado_141789" data-name="Trazado 141789" d="M558.633,246.474c-1-1.859-2.611-3.576-4.7-3.886-2.31-.343-4.775,1.855-6.985,1.1-3.079-1.051-6.01-2.49-9.046-3.659a24.5,24.5,0,0,0-9.468-1.865c-.591-2.975-.275-6.364-.389-9.417-2.617.216-6.885.151-8.739-.62a80.807,80.807,0,0,0,1.683,11.073,15.312,15.312,0,0,0,.968,3,3.014,3.014,0,0,0,1.232,1.555,3.3,3.3,0,0,0,1.093.268q8.962,1.12,18,1.461c1.788.067,2.963,2.222,4.669,2.764a6.791,6.791,0,0,0,2.342.205A30.921,30.921,0,0,0,558.633,246.474Z" transform="translate(-517.823 -171.734)" fill="#fe9c70"/>
      <path id="Trazado_141790" data-name="Trazado 141790" d="M530.972,243.238a4.116,4.116,0,0,0-1.428,2.327" transform="translate(-520.812 -176.148)" fill="none" stroke="#ef8054" stroke-miterlimit="10" stroke-width="0.778"/>
      <path id="Trazado_141791" data-name="Trazado 141791" d="M538.3,192.54a.137.137,0,0,0-.17.088" transform="translate(-523.32 -161.338)" fill="none" stroke="#8e6e61" stroke-miterlimit="10" stroke-width="0.804"/>
      <path id="Trazado_141792" data-name="Trazado 141792" d="M538.746,192.682l2.691.1a.736.736,0,0,1,.353.072c.208.122.312.446.552.43" transform="translate(-523.5 -161.381)" fill="none" stroke="#ef8054" stroke-miterlimit="10" stroke-width="0.778"/>
      <path id="Trazado_141793" data-name="Trazado 141793" d="M546.292,192.884a2.02,2.02,0,0,1,1.507-.362,4.816,4.816,0,0,0,1.584,0" transform="translate(-525.704 -161.332)" fill="none" stroke="#ef8054" stroke-miterlimit="10" stroke-width="0.778"/>
      <path id="Trazado_141794" data-name="Trazado 141794" d="M540.85,181.515a15.333,15.333,0,0,0,1.855,6.833" transform="translate(-524.115 -158.12)" fill="none" stroke="#ef8054" stroke-miterlimit="10" stroke-width="0.778"/>
      <path id="Trazado_141795" data-name="Trazado 141795" d="M539.174,171.847a2.133,2.133,0,0,0-.668-1.186c-.377-.268-1.037-.16-1.135.292" transform="translate(-523.099 -154.907)" fill="none" stroke="#ef8054" stroke-miterlimit="10" stroke-width="0.778"/>
      <path id="Trazado_141796" data-name="Trazado 141796" d="M538.762,170.992a1.43,1.43,0,0,0-1.049.36" transform="translate(-523.198 -155.045)" fill="none" stroke="#ef8054" stroke-miterlimit="10" stroke-width="0.778"/>
      <path id="Trazado_141797" data-name="Trazado 141797" d="M544.256,181.224a8.624,8.624,0,0,0,3.127,2.9" transform="translate(-525.109 -158.035)" fill="none" stroke="#ef8054" stroke-miterlimit="10" stroke-width="0.778"/>
      <path id="Trazado_141798" data-name="Trazado 141798" d="M543.7,213.776c-.241-1.363-.879-4.625-.864-4.666a54.674,54.674,0,0,0-6.562.724c.309,1.38.457,3.457.632,4.859C538.945,214.39,541.637,214,543.7,213.776Z" transform="translate(-522.778 -166.18)" fill="#fff"/>
      <path id="Trazado_141799" data-name="Trazado 141799" d="M541.224,209.9c-.42.061-.811.085-1.279.183a.455.455,0,0,1-.53-.338c-.059-.238-.111-.465-.169-.7a.455.455,0,0,1,.381-.561c.433-.055.868-.106,1.3-.162a.454.454,0,0,1,.494.325c.076.265.118.447.179.694A.458.458,0,0,1,541.224,209.9Z" transform="translate(-523.642 -165.948)" fill="#3c7ece"/>
      <g id="Grupo_88773" data-name="Grupo 88773" transform="translate(3.771 2.264)">
        <path id="Trazado_141800" data-name="Trazado 141800" d="M528.314,174.521a2.193,2.193,0,0,0-.626,1.775c.027.648.207,1.281.265,1.928a5.218,5.218,0,0,1-1.645,4.246c-.852.782-2.06,1.427-2.183,2.578" transform="translate(-523 -158.341)" fill="none" stroke="#3e4e72" stroke-miterlimit="10" stroke-width="0.804"/>
        <path id="Trazado_141801" data-name="Trazado 141801" d="M534.378,183.286l-.118,1.22a10.174,10.174,0,0,1-.277,1.761,5.092,5.092,0,0,1-1.425,2.339c-.782.728-1.781,1.2-2.54,1.95" transform="translate(-524.721 -160.901)" fill="none" stroke="#3e4e72" stroke-miterlimit="10" stroke-width="0.804"/>
        <path id="Trazado_141802" data-name="Trazado 141802" d="M552.033,186.944a3.2,3.2,0,0,0,.277,2.354" transform="translate(-531.119 -161.969)" fill="none" stroke="#3e4e72" stroke-miterlimit="10" stroke-width="0.804"/>
        <path id="Trazado_141803" data-name="Trazado 141803" d="M533.43,165.058a3.083,3.083,0,0,0-.035,2.818,3.687,3.687,0,0,1,.622,1.412c.016.368-.147.722-.161,1.09a1.772,1.772,0,0,0,.565,1.288,3.919,3.919,0,0,0,1.221.762" transform="translate(-525.613 -155.577)" fill="none" stroke="#3e4e72" stroke-miterlimit="10" stroke-width="0.804"/>
        <path id="Trazado_141804" data-name="Trazado 141804" d="M542.1,158.671a3.385,3.385,0,0,0-2.233,2.287,18.252,18.252,0,0,0-.268,1.887,2.331,2.331,0,0,1-.893,1.623c-.52.335-1.269.361-1.6.885" transform="translate(-526.791 -153.711)" fill="none" stroke="#3e4e72" stroke-miterlimit="10" stroke-width="0.804"/>
        <path id="Trazado_141805" data-name="Trazado 141805" d="M540.315,158.929a2.933,2.933,0,0,0-.954,2.35" transform="translate(-527.448 -153.787)" fill="none" stroke="#3e4e72" stroke-miterlimit="10" stroke-width="0.804"/>
        <path id="Trazado_141806" data-name="Trazado 141806" d="M536.537,153.51a3.663,3.663,0,0,0-2.35,1.749,13.191,13.191,0,0,0-.285,1.47,2.532,2.532,0,0,1-1.854,1.793" transform="translate(-525.314 -152.204)" fill="none" stroke="#3e4e72" stroke-miterlimit="10" stroke-width="0.804"/>
        <path id="Trazado_141807" data-name="Trazado 141807" d="M543.47,151.665a4.045,4.045,0,0,1,3.179,2.377" transform="translate(-528.65 -151.665)" fill="none" stroke="#3e4e72" stroke-miterlimit="10" stroke-width="0.804"/>
        <path id="Trazado_141808" data-name="Trazado 141808" d="M550.081,154.888a7.227,7.227,0,0,0,1.743.253,2.115,2.115,0,0,1,1.547.738c.265.379.314.89.624,1.232a3.957,3.957,0,0,0,1.114.632A3.541,3.541,0,0,1,556.546,161a19.515,19.515,0,0,0-.1,3.732" transform="translate(-530.581 -152.606)" fill="none" stroke="#3e4e72" stroke-miterlimit="10" stroke-width="0.804"/>
        <path id="Trazado_141809" data-name="Trazado 141809" d="M548.365,152.981a2.966,2.966,0,0,1,2.592.111" transform="translate(-530.08 -151.978)" fill="none" stroke="#3e4e72" stroke-miterlimit="10" stroke-width="0.804"/>
        <path id="Trazado_141810" data-name="Trazado 141810" d="M555.14,184.825a2.09,2.09,0,0,1,.43,2.181,7.068,7.068,0,0,0-.669,1.436,2.637,2.637,0,0,0,1.06,2.07" transform="translate(-531.984 -161.35)" fill="none" stroke="#3e4e72" stroke-miterlimit="10" stroke-width="0.804"/>
        <path id="Trazado_141811" data-name="Trazado 141811" d="M536.379,180.717c.175-.648-.254-1.312-.227-1.983a2.968,2.968,0,0,1,.488-1.3" transform="translate(-526.512 -159.191)" fill="none" stroke="#3e4e72" stroke-miterlimit="10" stroke-width="0.804"/>
        <path id="Trazado_141812" data-name="Trazado 141812" d="M523.7,190.388c-.19.864.447,1.682.58,2.556a2.359,2.359,0,0,1-1.739,2.559" transform="translate(-522.536 -162.975)" fill="none" stroke="#3e4e72" stroke-miterlimit="10" stroke-width="0.984"/>
      </g>
      <path id="Trazado_141813" data-name="Trazado 141813" d="M518.935,227.991c4.43,1.758,9.728.723,10.656.068" transform="translate(-517.714 -171.694)" fill="none" stroke="#609be2" stroke-miterlimit="10" stroke-width="0.804"/>
      <path id="Trazado_141814" data-name="Trazado 141814" d="M569.781,219.117q4.146-7.16,8.389-14.262a7.976,7.976,0,0,0,1.486-3.961,21.271,21.271,0,0,1-.279-3.165c.266-1.785,2.17-3.238,1.786-5,.818-.015,1.15,1.08,1.024,1.889s-.425,1.717.049,2.384c1.862-2.243,3.762-4.592,5.624-6.835.349-.42.83-.886,1.356-.737.191.454-.112.954-.4,1.353l-3.55,4.906a2.863,2.863,0,0,0,.936-.776l3.746-5.021a1.7,1.7,0,0,1,.527-.523.58.58,0,0,1,.691.072c.225.255.074.653-.095.948-1.357,2.364-3.349,4.318-4.687,6.693a59.516,59.516,0,0,1,4.638-3.959.552.552,0,0,1,.27-.146c.21-.026.376.192.412.4a1.465,1.465,0,0,1-.457,1.145,3.368,3.368,0,0,0-.748,1.022c.125-.273.557-.192.76.03a.781.781,0,0,1,.067.847,2.29,2.29,0,0,1-.585.679l-8.111,7.24a2.191,2.191,0,0,0-.842,1.2c-.956,6.33-3.851,12.016-6,18.046a11.768,11.768,0,0,1-2.615,4.667,4.6,4.6,0,0,1-4.945,1.152c-1.576-.735-2.234-2.319-2.829-3.953a2.3,2.3,0,0,1,.139-.49,69.877,69.877,0,0,1,4.049-5.8C569.705,219,569.683,219.286,569.781,219.117Z" transform="translate(-531.284 -160.39)" fill="#fe9c70"/>
      <path id="Trazado_141815" data-name="Trazado 141815" d="M572.425,228.883a9.823,9.823,0,0,0-2.55,6.645" transform="translate(-532.592 -171.955)" fill="none" stroke="#ef8054" stroke-miterlimit="10" stroke-width="0.778"/>
      <path id="Trazado_141816" data-name="Trazado 141816" d="M599.271,198.1a24.94,24.94,0,0,0-4.048,3.062" transform="translate(-539.996 -162.963)" fill="none" stroke="#ef8054" stroke-miterlimit="10" stroke-width="0.778"/>
      <path id="Trazado_141817" data-name="Trazado 141817" d="M592.163,203.235a3.99,3.99,0,0,1-1.748,1.087,8.345,8.345,0,0,0-1.9.845,2.071,2.071,0,0,0-.982,1.733" transform="translate(-537.75 -164.464)" fill="none" stroke="#ef8054" stroke-miterlimit="10" stroke-width="0.778"/>
      <path id="Trazado_141818" data-name="Trazado 141818" d="M591.689,199.554a5.055,5.055,0,0,1,1.908,2.054" transform="translate(-538.964 -163.388)" fill="none" stroke="#ef8054" stroke-miterlimit="10" stroke-width="0.778"/>
      <path id="Trazado_141819" data-name="Trazado 141819" d="M588.844,199.912a2.766,2.766,0,0,1,.383,2.165" transform="translate(-538.133 -163.493)" fill="none" stroke="#ef8054" stroke-miterlimit="10" stroke-width="0.778"/>
      <g id="Grupo_88774" data-name="Grupo 88774" transform="translate(18.61 13.494)">
        <path id="Trazado_141820" data-name="Trazado 141820" d="M543.706,168.522a2.722,2.722,0,0,1,3.262-.731" transform="translate(-543.559 -167.528)" fill="none" stroke="#27304c" stroke-miterlimit="10" stroke-width="1.123"/>
        <path id="Trazado_141821" data-name="Trazado 141821" d="M546.718,168.051a3.839,3.839,0,0,0-3.22.612" transform="translate(-543.498 -167.645)" fill="none" stroke="#27304c" stroke-miterlimit="10" stroke-width="1.123"/>
        <path id="Trazado_141822" data-name="Trazado 141822" d="M546.544,169.711a1.35,1.35,0,0,0-.159,1.128c.054.173.256.36.387.234a.288.288,0,0,0,.067-.173,3.068,3.068,0,0,0-.044-1.1.257.257,0,0,0-.069-.145.18.18,0,0,0-.24.035.438.438,0,0,0-.088.25,1.68,1.68,0,0,0,.215,1.006.868.868,0,0,0-.017-.865.367.367,0,0,0,.054.492" transform="translate(-544.324 -168.14)" fill="none" stroke="#27304c" stroke-miterlimit="10" stroke-width="1.123"/>
      </g>
      <g id="Grupo_88775" data-name="Grupo 88775" transform="translate(25.493 13.448)">
        <path id="Trazado_141823" data-name="Trazado 141823" d="M556.111,168.457a2.234,2.234,0,0,0-2.89-.731" transform="translate(-553.221 -167.464)" fill="none" stroke="#27304c" stroke-miterlimit="10" stroke-width="1.057"/>
        <path id="Trazado_141824" data-name="Trazado 141824" d="M553.457,167.987a3.092,3.092,0,0,1,2.854.612" transform="translate(-553.29 -167.58)" fill="none" stroke="#27304c" stroke-miterlimit="10" stroke-width="1.057"/>
        <path id="Trazado_141825" data-name="Trazado 141825" d="M554.59,169.647a1.5,1.5,0,0,1,.142,1.128c-.047.173-.227.36-.343.234a.31.31,0,0,1-.059-.173,3.442,3.442,0,0,1,.039-1.1.282.282,0,0,1,.061-.146.148.148,0,0,1,.213.036.47.47,0,0,1,.078.25,1.864,1.864,0,0,1-.19,1.006.966.966,0,0,1,.015-.866.4.4,0,0,1-.047.493" transform="translate(-553.537 -168.076)" fill="none" stroke="#27304c" stroke-miterlimit="10" stroke-width="1.057"/>
      </g>
      <path id="Trazado_141826" data-name="Trazado 141826" d="M551.793,170.172a3.536,3.536,0,0,0,.939,2.469.955.955,0,0,1,.177.316.824.824,0,0,1-.222.674,1.719,1.719,0,0,0-.386.619" transform="translate(-527.305 -154.807)" fill="none" stroke="#b56850" stroke-miterlimit="10" stroke-width="0.984"/>
    </g>
    <g id="Grupo_88777" data-name="Grupo 88777" transform="translate(413.387 175.783)">
      <path id="Trazado_141827" data-name="Trazado 141827" d="M439.1,189.156l-1.4,1.492,58,36.675,1.316-1.843-2.281-36.324Z" transform="translate(-437.694 -189.156)" fill="#867d7b"/>
      <path id="Trazado_141828" data-name="Trazado 141828" d="M437.694,191.227l55.8-.088L495.69,227.9l-56.241.088Z" transform="translate(-437.694 -189.735)" fill="#ada19f"/>
      <path id="Trazado_141829" data-name="Trazado 141829" d="M467.741,224.727h11.582l-3.246,24.128-14.214-.526Z" transform="translate(-444.753 -199.545)" fill="#867d7b"/>
      <path id="Trazado_141830" data-name="Trazado 141830" d="M463.01,217.238l21.21-.692.79,13.863H463.075Z" transform="translate(-445.089 -197.156)" fill="none" stroke="#867d7b" stroke-miterlimit="10" stroke-width="1.12"/>
      <path id="Trazado_141831" data-name="Trazado 141831" d="M441.164,194.7l8.248-.088.351,7.282-8.16.439Z" transform="translate(-438.708 -190.749)" fill="none" stroke="#867d7b" stroke-miterlimit="10" stroke-width="1.12"/>
    </g>
    <g id="Grupo_88779" data-name="Grupo 88779" transform="translate(366.141 190.801)">
      <path id="Trazado_141832" data-name="Trazado 141832" d="M390.4,245.745h6.946a8.584,8.584,0,0,0,5.282-7.881,13.427,13.427,0,0,0-.567-4.2H385.681a13.619,13.619,0,0,0-.558,4.2A8.584,8.584,0,0,0,390.4,245.745Z" transform="translate(-375.093 -217.175)" fill="#867d7b"/>
      <path id="Trazado_141833" data-name="Trazado 141833" d="M389.23,237.345a36.862,36.862,0,0,0,9.827-.37" transform="translate(-376.293 -218.141)" fill="none" stroke="#ada19f" stroke-miterlimit="10" stroke-width="0.48"/>
      <path id="Trazado_141834" data-name="Trazado 141834" d="M386.453,241.743a16.478,16.478,0,0,0,5.9.792" transform="translate(-375.482 -219.533)" fill="none" stroke="#ada19f" stroke-miterlimit="10" stroke-width="0.48"/>
      <path id="Trazado_141835" data-name="Trazado 141835" d="M397.132,242.276a20.336,20.336,0,0,0,8.929-1.614" transform="translate(-378.601 -219.218)" fill="none" stroke="#ada19f" stroke-miterlimit="10" stroke-width="0.48"/>
      <path id="Trazado_141836" data-name="Trazado 141836" d="M389.388,246.323a27.834,27.834,0,0,0,11.693-.482" transform="translate(-376.339 -220.73)" fill="none" stroke="#ada19f" stroke-miterlimit="10" stroke-width="0.48"/>
      <path id="Trazado_141837" data-name="Trazado 141837" d="M392.013,249.051a57.722,57.722,0,0,0,7.448-.033" transform="translate(-377.106 -221.658)" fill="none" stroke="#e4e8f4" stroke-miterlimit="10" stroke-width="0.48"/>
      <g id="Grupo_88778" data-name="Grupo 88778">
        <path id="Trazado_141838" data-name="Trazado 141838" d="M400.624,228.574a2.981,2.981,0,0,1,3.119-.382c1.116.536,1.819,1.288,3.056,1.325.377.011.864.4,1.242.411,1.075.031,1.866.985,2.459,1.882s1.252,1.9,2.3,2.136c-.911-.27-2.011.185-2.959.128a14.4,14.4,0,0,1-2.265-.636c-.726-.167-1.489-.12-2.216-.283a7.645,7.645,0,0,1-3.288-2.069A3.283,3.283,0,0,1,400.624,228.574Z" transform="translate(-379.619 -215.495)" fill="#74aa51"/>
        <path id="Trazado_141839" data-name="Trazado 141839" d="M402.063,229.114c1.69.095,3.122,1.207,4.513,2.173a6.363,6.363,0,0,0,1.177.687c.353.146.728.233,1.088.36a27.725,27.725,0,0,0,2.73,1.14" transform="translate(-380.041 -215.845)" fill="none" stroke="#90cc6a" stroke-miterlimit="10" stroke-width="0.385"/>
        <path id="Trazado_141840" data-name="Trazado 141840" d="M387.906,229.017a4.31,4.31,0,0,0-5.109-2.541,11.27,11.27,0,0,1-2.55.854,10.056,10.056,0,0,1-2.345-.46,4.662,4.662,0,0,0-4.356,1.567c-1.014,1.219-1.376,2.939-2.591,3.959,1.113-1.385,2.76-1.56,4.53-1.4s3.491.721,5.267.791A10.633,10.633,0,0,0,387.906,229.017Z" transform="translate(-370.955 -215.027)" fill="#4b742a"/>
        <path id="Trazado_141841" data-name="Trazado 141841" d="M371.241,220.454c1.211,1.053,3.1.534,4.626,1.031,1.8.584,2.875,2.5,4.627,3.2,1.523.613,3.259.2,4.875.492a6.131,6.131,0,0,1,3.256,1.8,5.583,5.583,0,0,0-.6-4.627,4.263,4.263,0,0,0-4.146-1.882c-.742.132-1.521.486-2.212.186a3.188,3.188,0,0,1-.835-.65,6.367,6.367,0,0,0-2.726-1.481,4.076,4.076,0,0,0-2.417.04c-1.4.52-2.434,2.077-3.919,1.974" transform="translate(-371.039 -212.705)" fill="#74aa51"/>
        <path id="Trazado_141842" data-name="Trazado 141842" d="M394.248,223.93c-.964-1.288-1.98-2.764-1.747-4.356.178-1.215,1.077-2.4.681-3.558-.278-.818-1.119-1.311-1.54-2.066-.6-1.074-.241-2.408.132-3.581.1,1.015.975,1.621,1.881,2.093a12.664,12.664,0,0,1,2.679,1.458,4.571,4.571,0,0,1,1.091,4.694,2.99,2.99,0,0,0-.242,1.4,4.651,4.651,0,0,0,.422.958,2.516,2.516,0,0,1-.8,2.969C395.907,224.594,394.913,224.818,394.248,223.93Z" transform="translate(-376.903 -210.37)" fill="#568336"/>
        <path id="Trazado_141843" data-name="Trazado 141843" d="M388.082,225.647a6.544,6.544,0,0,0-3.574-2.192,6.844,6.844,0,0,1-2.325-.663c-.26-.17-.481-.392-.731-.576a5.254,5.254,0,0,0-3.2-.779,13.3,13.3,0,0,1-3.341-.143" transform="translate(-372.11 -213.561)" fill="none" stroke="#90cc6a" stroke-miterlimit="10" stroke-width="0.49"/>
        <path id="Trazado_141844" data-name="Trazado 141844" d="M387.064,228.691a7.38,7.38,0,0,0-4.307.486,11.346,11.346,0,0,1-1.783.755,14.853,14.853,0,0,1-2.876.081,11.345,11.345,0,0,0-3.452.914" transform="translate(-372.033 -215.684)" fill="none" stroke="#90cc6a" stroke-miterlimit="10" stroke-width="0.49"/>
        <path id="Trazado_141845" data-name="Trazado 141845" d="M395.055,223.834a3.311,3.311,0,0,1-.2-2.956c.245-.573.651-1.068.895-1.642a3.305,3.305,0,0,0-.6-3.449c-.638-.692-1.607-1.154-1.882-2.053" transform="translate(-377.473 -211.353)" fill="none" stroke="#90cc6a" stroke-miterlimit="10" stroke-width="0.49"/>
        <path id="Trazado_141846" data-name="Trazado 141846" d="M395.778,224.293a3.8,3.8,0,0,1,.492-3.969c1.006-1.212,2.8-1.834,3.231-3.35.131-.462.11-.956.241-1.419.37-1.317,1.792-2,3.082-2.454s2.734-.958,3.348-2.18c-.614,1.041-.392,2.54-.756,3.693a18.173,18.173,0,0,1-1.485,2.6c-.431.845-.608,1.8-1.034,2.649a9.734,9.734,0,0,1-3.569,3.42C398.234,224.01,397.023,224.712,395.778,224.293Z" transform="translate(-378.103 -210.531)" fill="#74aa51"/>
        <path id="Trazado_141847" data-name="Trazado 141847" d="M412.328,221.47a2.344,2.344,0,0,1-2.151-.2,6.867,6.867,0,0,0-2.049-.9c-1.376-.194-2.618.858-4,1.036-.663.086-1.347-.034-2,.114a4.351,4.351,0,0,0-2,1.292,16.791,16.791,0,0,0-2.667,3.449c-.2.345-.516.738-.339,1.1a1.726,1.726,0,0,0,.89.768,3.589,3.589,0,0,0,2.845-.088A6.03,6.03,0,0,0,403.1,226.2c.685-.871,1.311-1.939,2.382-2.225.827-.222,1.741.093,2.547-.2a7.332,7.332,0,0,0,1.065-.6C410.259,222.515,411.779,222.694,412.328,221.47Z" transform="translate(-378.583 -213.285)" fill="#568336"/>
        <path id="Trazado_141848" data-name="Trazado 141848" d="M412.866,228.151a4.614,4.614,0,0,1-3.768,1.917c-1.152-.1-2.192-.819-3.348-.852-1.311-.037-2.469.806-3.734,1.154a5.172,5.172,0,0,1-5.465-1.977c1.262-1.661,3.526-2.316,5.608-2.47a7.11,7.11,0,0,1,4.457.69c.435.285.8.659,1.223.968A5.979,5.979,0,0,0,412.866,228.151Z" transform="translate(-378.431 -214.896)" fill="#4b742a"/>
        <path id="Trazado_141849" data-name="Trazado 141849" d="M396.7,223.832c.64-2.057,2.454-3.481,4.076-4.9a8.1,8.1,0,0,0,1.213-1.24c.289-.391.513-.826.78-1.232a35.2,35.2,0,0,0,2.25-3.017" transform="translate(-378.474 -211.268)" fill="none" stroke="#90cc6a" stroke-miterlimit="10" stroke-width="0.49"/>
        <path id="Trazado_141850" data-name="Trazado 141850" d="M399.445,226.229a8.833,8.833,0,0,1,5.247-2.621c.61-.074,1.228-.085,1.827-.219.66-.149,1.281-.446,1.944-.58a8.2,8.2,0,0,1,1.207-.121l2.31-.115" transform="translate(-379.276 -213.934)" fill="none" stroke="#90cc6a" stroke-miterlimit="10" stroke-width="0.49"/>
        <path id="Trazado_141851" data-name="Trazado 141851" d="M400.355,228.32a7.125,7.125,0,0,1,4.345-.285c.513.13,1.009.316,1.521.45.769.2,1.567.279,2.327.508.985.3,2.021.845,2.981.476" transform="translate(-379.542 -215.467)" fill="none" stroke="#90cc6a" stroke-miterlimit="10" stroke-width="0.49"/>
      </g>
    </g>
    <g id="Grupo_88782" data-name="Grupo 88782" transform="translate(396.713 164.965)">
      <path id="Trazado_141852" data-name="Trazado 141852" d="M429.666,217.815a31.226,31.226,0,0,1,4.873-17.605" transform="translate(-418.671 -181.566)" fill="none" stroke="#af8e54" stroke-miterlimit="10" stroke-width="1.217"/>
      <path id="Trazado_141853" data-name="Trazado 141853" d="M428.822,211.013a61.379,61.379,0,0,1,1.557-32.581" transform="translate(-417.991 -175.205)" fill="none" stroke="#af8e54" stroke-miterlimit="10" stroke-width="1.168"/>
      <path id="Trazado_141854" data-name="Trazado 141854" d="M418.586,189.056c4.253,6.855,5.442,15.128,6.256,23.153" transform="translate(-415.438 -178.308)" fill="none" stroke="#af8e54" stroke-miterlimit="10" stroke-width="1.168"/>
      <path id="Trazado_141855" data-name="Trazado 141855" d="M433.286,200.593c0-.194-.053-.387-.045-.58a2.011,2.011,0,0,1,.286-.816l1.308-2.493a3.337,3.337,0,0,1,.4-.64,5.722,5.722,0,0,0,.433-.477,5.048,5.048,0,0,0,.351-.891,3.54,3.54,0,0,1,1.2-1.308,2.681,2.681,0,0,1,.9-.522.918.918,0,0,1,.956.242,1.123,1.123,0,0,1,.06,1.063,4.03,4.03,0,0,0-.336,1.055c-.023.378.131.749.111,1.126-.046.859-.933,1.419-1.252,2.216a3.577,3.577,0,0,1-.283.709,2.8,2.8,0,0,1-.827.632,8.527,8.527,0,0,0-1.473,1.618c-.286.33-1.527,1.658-2.034,1.393C432.435,202.6,433.3,201.108,433.286,200.593Z" transform="translate(-419.597 -179.409)" fill="#74aa51"/>
      <path id="Trazado_141856" data-name="Trazado 141856" d="M427.969,183.157c-.042-.277-.157-.537-.212-.812a1.922,1.922,0,0,1,.142-1.183,2.559,2.559,0,0,0,.216-.491c.091-.4-.145-.8-.163-1.208a2.258,2.258,0,0,1,.294-1.033c.545-1.157.521-2.021,1.735-3.421.3-.341.457-.812.859-1.017a1.591,1.591,0,0,1,2.018.991,4.611,4.611,0,0,1,.028,2.5l-.24,1.375a4.811,4.811,0,0,1-.927,2.347l-1.758,2.738c-.344.536-.886,1.825-1.713,1.318C427.582,184.85,428.064,183.784,427.969,183.157Z" transform="translate(-418.106 -173.873)" fill="#74aa51"/>
      <path id="Trazado_141857" data-name="Trazado 141857" d="M417.773,190.611a4.187,4.187,0,0,1-.53-.244c-.413-.294-.38-.915-.625-1.36-.344-.625-1.23-.883-1.4-1.576-.064-.263-.008-.539-.048-.806-.105-.7-.835-1.162-1-1.851a2.473,2.473,0,0,1,.462-1.7,2.239,2.239,0,0,1,.564-.741,1.493,1.493,0,0,1,2.061.658,2.368,2.368,0,0,0,.328.565c.287.3.767.312,1.089.57.748.6.179,1.95.81,2.669.149.17.353.285.5.454.511.578.185,1.334.247,2.008.072.782.566,1.379.174,2.147C419.466,193.254,418.6,191.052,417.773,190.611Z" transform="translate(-414.14 -176.283)" fill="#74aa51"/>
      <path id="Trazado_141858" data-name="Trazado 141858" d="M431.269,246.96H419.752l2.535-30.058a1.216,1.216,0,0,1,1.212-1.114H428a1.216,1.216,0,0,1,1.213,1.134Z" transform="translate(-415.779 -186.116)" fill="#abb6d8"/>
      <g id="Grupo_88781" data-name="Grupo 88781" transform="translate(3.973 29.672)">
        <g id="Grupo_88780" data-name="Grupo 88780" clip-path="url(#clip-path)">
          <path id="Trazado_141859" data-name="Trazado 141859" d="M425.034,214c-.275,1.005.609,1.94,1.477,2.515s1.9,1.151,2.141,2.163a13.366,13.366,0,0,1,.009,1.95,2.874,2.874,0,0,0,1.371,2.116,4.146,4.146,0,0,0,2.508.554" transform="translate(-421.28 -215.265)" fill="none" stroke="#e4e8f4" stroke-miterlimit="10" stroke-width="2"/>
          <path id="Trazado_141860" data-name="Trazado 141860" d="M420.884,223.193a4.919,4.919,0,0,0,3.239,5.59,8.724,8.724,0,0,1,2.787.881,6.952,6.952,0,0,1,1.576,2.428,5.282,5.282,0,0,0,2.359,2.27,3.766,3.766,0,0,0,3.218,0" transform="translate(-420.052 -217.951)" fill="none" stroke="#e4e8f4" stroke-miterlimit="10" stroke-width="2"/>
          <path id="Trazado_141861" data-name="Trazado 141861" d="M417.587,242.092a3.4,3.4,0,0,0,3.14-.124,10.474,10.474,0,0,1,3.035-1.186,3.479,3.479,0,0,1,3.256,1.589,8.8,8.8,0,0,1,.835,2.442c.412,1.547,1.265,3.2,2.813,3.612" transform="translate(-419.12 -223.083)" fill="none" stroke="#e4e8f4" stroke-miterlimit="10" stroke-width="2"/>
        </g>
      </g>
    </g>
    <rect id="Rectángulo_33099" data-name="Rectángulo 33099" width="280" height="12.796" transform="translate(354.474 217.807)" fill="#1c1e3d"/>
    <g id="Grupo_88783" data-name="Grupo 88783" transform="translate(374.592 202.848)">
      <path id="Trazado_141863" data-name="Trazado 141863" d="M391.4,229.524a2.728,2.728,0,0,0-2.383-.345,5.239,5.239,0,0,0-3.648,3.44,26.512,26.512,0,0,0-.513,3.314c-.318,1.772-1.192,3.394-1.666,5.13s-.466,3.792.759,5.11c-.432-.595-.176-1.33.082-2.019,1.319-3.523,3.106-7,5.98-9.423.958-.809,2.116-1.645,2.244-2.892A2.413,2.413,0,0,0,391.4,229.524Z" transform="translate(-382.893 -227.876)" fill="#568336"/>
      <path id="Trazado_141864" data-name="Trazado 141864" d="M402.361,240.643a2.361,2.361,0,0,0-1.316-1.966,5.222,5.222,0,0,1-1.908-1.553c-.418-.736-.332-1.673-.726-2.423a7.574,7.574,0,0,0-1.684-1.688,4.694,4.694,0,0,1-1.419-3.393,2.037,2.037,0,0,1,1.039-1.924,3.476,3.476,0,0,1,2.423-.13,4.423,4.423,0,0,1,3.366,2.868,14.714,14.714,0,0,1,.066,2.994,23.7,23.7,0,0,0,.872,3.8A3.56,3.56,0,0,1,402.361,240.643Z" transform="translate(-386.519 -227.395)" fill="#4b742a"/>
      <path id="Trazado_141865" data-name="Trazado 141865" d="M390.8,231.021a8.417,8.417,0,0,0-4.071,4.475c-.239.625-.4,1.277-.619,1.911-.749,2.2-2.137,4.243-2.241,6.566" transform="translate(-383.178 -228.449)" fill="none" stroke="#90cc6a" stroke-miterlimit="10" stroke-width="0.486"/>
      <path id="Trazado_141866" data-name="Trazado 141866" d="M411.38,237.013a3.806,3.806,0,0,1-4.7.18c-.767-.587-1.3-1.473-2.163-1.909-1.645-.831-3.828.275-5.406-.677a10,10,0,0,1-1.858-2.049,15.245,15.245,0,0,1-1.88-1.871c-.48-.745-.454-1.948.353-2.315,1.716-.778,3.537-1.584,4.952-.34.761.67,1.217,1.637,2,2.286,1.14.948,2.877,1.138,3.719,2.358a10.351,10.351,0,0,1,.772,1.809A4.768,4.768,0,0,0,411.38,237.013Z" transform="translate(-386.445 -227.388)" fill="#699d46"/>
      <path id="Trazado_141867" data-name="Trazado 141867" d="M396.336,229.772a5.246,5.246,0,0,1,4.287,1.8,9.385,9.385,0,0,0,1.281,1.48c.857.657,2.043.685,2.99,1.2a9.152,9.152,0,0,1,2.125,2.03,3.436,3.436,0,0,0,2.524,1.342" transform="translate(-386.819 -228.08)" fill="none" stroke="#90cc6a" stroke-miterlimit="10" stroke-width="0.486"/>
    </g>
    <g id="Grupo_88787" data-name="Grupo 88787" transform="translate(532.3 143.372)">
      <path id="Trazado_141868" data-name="Trazado 141868" d="M696.328,422.665c-.019,2.822-19.355,4.752-33.9,4.652S642,424.869,643.667,422.3c2.525-3.887,11.812-3.413,26.354-3.312S696.347,419.844,696.328,422.665Z" transform="translate(-616.688 -223.854)" fill="#bed3e3" opacity="0.5" style="mix-blend-mode: multiply;isolation: isolate"/>
      <path id="Trazado_141869" data-name="Trazado 141869" d="M663.894,406.738l-.185-8.641,6.7.491-1.34,9.28-3.081,1.571Z" transform="translate(-622.622 -217.772)" fill="#fe9c70"/>
      <path id="Trazado_141870" data-name="Trazado 141870" d="M662.894,415.118a2.762,2.762,0,0,0,.343-1.9,1.293,1.293,0,0,1-.035-.62c.037-.113.111-.211.137-.327.056-.257-.139-.493-.237-.736a1.075,1.075,0,0,1,.364-1.241,11.626,11.626,0,0,0,5,0c.258-.048.645,0,.627.261-.009.131-.136.234-.14.365,0,.166.18.268.25.418.173.368-.376.683-.438,1.085a1.244,1.244,0,0,0,.055.445,4.323,4.323,0,0,1,.056,1.022l-.085,3.511a.819.819,0,0,1-.115.489.83.83,0,0,1-.543.244,9.733,9.733,0,0,1-3.2.2,3.292,3.292,0,0,1-2.549-1.744,1.277,1.277,0,0,1-.109-.84C662.349,415.486,662.606,415.11,662.894,415.118Z" transform="translate(-622.193 -221.333)" fill="#fff"/>
      <path id="Trazado_141871" data-name="Trazado 141871" d="M665.632,421.788a7.023,7.023,0,0,1-3.789.258,4.982,4.982,0,0,0-1.775-.233,8.1,8.1,0,0,0-1.423.528,6.73,6.73,0,0,1-2.376.248l-3.886-.059c-1.075-.016-2.431-.239-2.7-1.279a1.77,1.77,0,0,1,1.058-1.875,7.162,7.162,0,0,1,2.265-.5,8.331,8.331,0,0,0,5.794-3.239,1.745,1.745,0,0,1,1.717.721,1.573,1.573,0,0,1-.153,1.753,5.94,5.94,0,0,0,4.981-1.538q.491,1.189.871,2.42a3.889,3.889,0,0,1,.195.881C666.482,421.009,666.7,421.405,665.632,421.788Z" transform="translate(-618.512 -222.889)" fill="#191c26"/>
      <path id="Trazado_141872" data-name="Trazado 141872" d="M671.617,377.694l.84.227a38.158,38.158,0,0,1-.234,8.173,1.6,1.6,0,0,1-.268.808,1.453,1.453,0,0,1-.76.42,11.853,11.853,0,0,1-4.166.2q-4.484-.35-8.921-1.14a.847.847,0,0,1-.537-.236.837.837,0,0,1-.139-.435,33.079,33.079,0,0,1-.088-7.141,1.759,1.759,0,0,1,.269-.92.631.631,0,0,1,.851-.18c.271-4.328.619-8.949.466-13.283-.113-3.187-.447-6.451.452-9.51a21.574,21.574,0,0,1,12.869,1.279A202.939,202.939,0,0,0,671.617,377.694Z" transform="translate(-620.718 -204.957)" fill="#191c26"/>
      <path id="Trazado_141873" data-name="Trazado 141873" d="M659.572,387.4a43.272,43.272,0,0,0,9.392.484,4.519,4.519,0,0,0,2.406-.624" transform="translate(-621.413 -214.608)" fill="none" stroke="#4f4f68" stroke-miterlimit="10" stroke-width="1"/>
      <path id="Trazado_141874" data-name="Trazado 141874" d="M699.677,403.518l-1.016-8.265,6.474-.179-.384,9.024-2.8,1.8Z" transform="translate(-632.831 -216.89)" fill="#fe9c70"/>
      <path id="Trazado_141875" data-name="Trazado 141875" d="M699.758,411.463a2.658,2.658,0,0,0,.144-1.85,1.243,1.243,0,0,1-.093-.59c.024-.111.086-.214.1-.327.029-.251-.181-.458-.3-.683a1.035,1.035,0,0,1,.229-1.224,11.2,11.2,0,0,0,4.789-.48c.244-.071.619-.064.626.19,0,.127-.108.237-.1.364.012.159.2.24.28.377.2.336-.294.691-.316,1.082a1.2,1.2,0,0,0,.1.421,4.179,4.179,0,0,1,.152.974l.26,3.374a.6.6,0,0,1-.561.767,9.372,9.372,0,0,1-3.045.506,3.172,3.172,0,0,1-2.612-1.424,1.235,1.235,0,0,1-.187-.8C699.27,411.869,699.481,411.483,699.758,411.463Z" transform="translate(-632.992 -220.159)" fill="#fff"/>
      <path id="Trazado_141876" data-name="Trazado 141876" d="M703.012,417.468a6.763,6.763,0,0,1-3.606.614,4.818,4.818,0,0,0-1.724-.051,7.833,7.833,0,0,0-1.313.644,6.487,6.487,0,0,1-2.254.468l-3.73.32c-1.032.088-2.354.007-2.715-.964a1.7,1.7,0,0,1,.832-1.9,6.926,6.926,0,0,1,2.122-.7,8.023,8.023,0,0,0,5.239-3.666,1.68,1.68,0,0,1,1.715.525,1.514,1.514,0,0,1,.024,1.695,5.721,5.721,0,0,0,4.625-1.957q.585,1.092,1.07,2.234a3.775,3.775,0,0,1,.272.825C703.752,416.639,704,417,703.012,417.468Z" transform="translate(-629.598 -221.886)" fill="#191c26"/>
      <path id="Trazado_141877" data-name="Trazado 141877" d="M704.244,374.235l.859.141a38.123,38.123,0,0,1,.59,8.155,1.6,1.6,0,0,1-.185.831,1.449,1.449,0,0,1-.714.494,11.859,11.859,0,0,1-4.125.617q-4.5.1-8.991-.236a.636.636,0,0,1-.74-.6,33.142,33.142,0,0,1-.806-7.1,1.766,1.766,0,0,1,.176-.942.63.63,0,0,1,.828-.265c-.166-4.333-.284-8.966-.874-13.262-.433-3.16-1.094-6.373-.508-9.507a21.571,21.571,0,0,1,12.933-.023A202.982,202.982,0,0,0,704.244,374.235Z" transform="translate(-630.161 -204.18)" fill="#191c26"/>
      <path id="Trazado_141878" data-name="Trazado 141878" d="M692.422,384.937a43.316,43.316,0,0,0,9.393-.464,4.524,4.524,0,0,0,2.33-.864" transform="translate(-631.008 -213.541)" fill="none" stroke="#4f4f68" stroke-miterlimit="10" stroke-width="1"/>
      <path id="Trazado_141879" data-name="Trazado 141879" d="M652.47,239.369c-6.251,24.7-4,51.374-13.39,75.06a19.514,19.514,0,0,0,14.408,8.648c7.93.922,15.83-2.655,23.785-1.993,4.17.347,8.162,1.847,12.305,2.438s8.811.079,11.732-2.919c-1.773-24.2-5.358-51.24-11.382-74.745-3.969-2.69-8.537-2.655-12.505-5.345a24.227,24.227,0,0,0-5.689-3.151,20.557,20.557,0,0,0-6.964-.8C660.989,236.634,656.187,238.672,652.47,239.369Z" transform="translate(-615.428 -170.59)" fill="#7a86de"/>
      <g id="Grupo_88785" data-name="Grupo 88785" transform="translate(0)">
        <path id="Trazado_141880" data-name="Trazado 141880" d="M660.6,148.26a3.079,3.079,0,0,0-1.623.382,4.79,4.79,0,0,0-2.338,2.8,5.039,5.039,0,0,0,.276,3.646c.35.729.869,1.368,1.207,2.1a2.485,2.485,0,0,1,.037,2.326" transform="translate(-620.492 -144.798)" fill="none" stroke="#6c3939" stroke-miterlimit="10" stroke-width="0.648"/>
        <path id="Trazado_141881" data-name="Trazado 141881" d="M655.978,164.919a2.949,2.949,0,0,0,1.574,1.177,1.9,1.9,0,0,0,1.855-.452" transform="translate(-620.364 -149.666)" fill="none" stroke="#6c3939" stroke-miterlimit="10" stroke-width="0.648"/>
        <path id="Trazado_141882" data-name="Trazado 141882" d="M606.608,204.248l1.69-.86.067-1.841,4.234.154-.053,1.473,1.794,1.356-.486,13.336a14.733,14.733,0,0,1-3.511.312,22,22,0,0,1-4.038-.588Z" transform="translate(-605.855 -160.364)" fill="#cfd5ee"/>
        <path id="Trazado_141883" data-name="Trazado 141883" d="M616.994,217.368a7.428,7.428,0,0,0-.209-3.016,3.081,3.081,0,0,0-.614-1.242c-.6-.668-1.611-.865-2.173-1.565a3.648,3.648,0,0,0-.212,1.157.884.884,0,0,1-.521.917,2.669,2.669,0,0,1-1.254.214l-.8.006a8.283,8.283,0,0,1-2.934-.329,2.813,2.813,0,0,1-1.907-2.085.444.444,0,0,0-.6.08,1.141,1.141,0,0,0-.1.617q.021.757.044,1.514a3.012,3.012,0,0,0,.12.9,4.348,4.348,0,0,1,.228.606,5.344,5.344,0,0,1-.025.869,2.441,2.441,0,0,0,1.242,1.754,11.639,11.639,0,0,0,3.892,1.776c1.77.439,3.8.539,5.043,1.869a3.787,3.787,0,0,0,1.625-1.964C618.07,218.616,617.834,217.584,616.994,217.368Z" transform="translate(-605.669 -163.227)" fill="#fe9c70"/>
        <path id="Trazado_141884" data-name="Trazado 141884" d="M606.3,217.367q1.433.941,2.944,1.751a3.6,3.6,0,0,0,1.635.547" transform="translate(-605.853 -164.985)" fill="none" stroke="#ef8054" stroke-miterlimit="10" stroke-width="1.296"/>
        <path id="Trazado_141885" data-name="Trazado 141885" d="M605.818,214.863a10.493,10.493,0,0,0,4.66,1.922" transform="translate(-605.713 -164.253)" fill="none" stroke="#ef8054" stroke-miterlimit="10" stroke-width="1.296"/>
        <path id="Trazado_141886" data-name="Trazado 141886" d="M626.5,223.111c-2.339-1.111-4.59-2.757-5.571-5.153-.912,1.457-2.173,2.454-2.6,4.119a2.337,2.337,0,0,0-.081.927c2.59,1.556,3.591,4.606,5.872,6.587a.427.427,0,0,0,.689-.039,6.725,6.725,0,0,0,2.265-5.076C627.061,223.765,627.141,223.416,626.5,223.111Z" transform="translate(-609.337 -165.157)" fill="#191c26"/>
        <path id="Trazado_141887" data-name="Trazado 141887" d="M660.409,148.2a5.171,5.171,0,0,0-3.49,2.659,5.907,5.907,0,0,0-.081,4.076c.231.709.571,1.382.755,2.1a2.779,2.779,0,0,1-.207,2.166,1.483,1.483,0,0,1-1.933.567,2.807,2.807,0,0,0,2.664,1.213,3.149,3.149,0,0,0,2.6-1.72,24.433,24.433,0,0,0,.749-2.877c.376-1.082,1.2-2,1.364-3.139a3.7,3.7,0,0,0-.686-2.562A10.932,10.932,0,0,0,660.409,148.2Z" transform="translate(-620.211 -144.783)" fill="#6c3939"/>
        <path id="Trazado_141888" data-name="Trazado 141888" d="M670.014,178.362l-2.546-5.825a2.079,2.079,0,0,0-1.065-1.286c-.9-.292-1.747.708-2.7.7a1.924,1.924,0,0,1-1.561-1.115,14.772,14.772,0,0,1-.688-1.89,6.16,6.16,0,0,0-3.193-3.409,6.275,6.275,0,0,0,1.472-3.6,16.538,16.538,0,0,0-.72-3.352,7.348,7.348,0,0,1,.236-3.814,1.777,1.777,0,0,1,1-1,9.289,9.289,0,0,1,7.108.045,8.306,8.306,0,0,1,4.659,5.3c1.068,3.907-1.009,8.038-.533,12.06a30.334,30.334,0,0,1,.571,3.949A3.446,3.446,0,0,1,670.014,178.362Z" transform="translate(-621.032 -146.213)" fill="#fe9c70"/>
        <path id="Trazado_141889" data-name="Trazado 141889" d="M688.068,251.977c-1.694.462-4.078.538-5.772,1a28.253,28.253,0,0,1-3.957.876c-1.4.171-6.73.506-8.141.467-2.147-.061-16.262-1.233-23.494-2.794-.023-1.555,1.195-25.208,1.471-27.233-.622,2.258-2.6,6.014-4.447,7-2.205,1.172-4.926.612-7.245-.314-5.1-2.038-9.369-5.444-13.566-8.986.05-2.871,1.2-5.593,2.328-8.233.448-1.046,1.179-1.878,1.627-2.924a31.791,31.791,0,0,0,7.4,4.664,1.533,1.533,0,0,1,1.054-.91l5.564-12.619c1.332-3.022,2.7-6.106,4.953-8.525,3.567-3.842,8.993-5.639,12.3-9.706,4.75-.294,9.464-.982,14.214-1.276,2.423,1.4,4.537,2.752,6.935,4.2a18.452,18.452,0,0,1,5.552,4.436c1.636,2.2,2.224,4.983,2.75,7.674q2.541,13.01,4.439,26.135c.345,2.386.459,5.3-1.521,6.677-1.452,1.007-3.406.7-5.139.347C686.228,234.829,687.156,245.08,688.068,251.977Z" transform="translate(-610.707 -154.789)" fill="#7a86de"/>
        <path id="Trazado_141890" data-name="Trazado 141890" d="M626.034,239.838l.946-2.641a4.534,4.534,0,0,0,.332-1.351,1.538,1.538,0,0,0-.492-1.254,1.231,1.231,0,0,0-1.082-.219,1.425,1.425,0,0,0-.866.7,3.058,3.058,0,0,0-.256.823l-.544,2.58C624.839,238.935,625.306,239.32,626.034,239.838Z" transform="translate(-611.044 -169.939)" fill="#b77a62"/>
        <path id="Trazado_141891" data-name="Trazado 141891" d="M626.322,235.965a.43.43,0,0,0,.117.651.392.392,0,0,0,.537-.348.36.36,0,0,0-.566-.244" transform="translate(-611.672 -170.413)" fill="#915743"/>
        <path id="Trazado_141892" data-name="Trazado 141892" d="M658.757,232.574c.878-2.135,3.426-8.882,4.3-11.017a17.666,17.666,0,0,0,1.107-8.322" transform="translate(-621.175 -163.777)" fill="none" stroke="#596bc1" stroke-miterlimit="10" stroke-width="1.296"/>
        <path id="Trazado_141893" data-name="Trazado 141893" d="M710.833,201.35c.353,5.564-1.528,11.005-2.171,16.543-.718,6.177.113,12.43,1.255,18.543" transform="translate(-635.673 -160.306)" fill="none" stroke="#596bc1" stroke-miterlimit="10" stroke-width="1.296"/>
        <path id="Trazado_141894" data-name="Trazado 141894" d="M657.184,199a14.62,14.62,0,0,1,5.49,7.2" transform="translate(-620.716 -159.62)" fill="none" stroke="#596bc1" stroke-miterlimit="10" stroke-width="1.296"/>
        <path id="Trazado_141895" data-name="Trazado 141895" d="M685.6,180.154a5.077,5.077,0,0,0-.394-5.041,12.066,12.066,0,0,1-1.717-2.365c-.738-1.923.82-3.957.874-6.017.05-1.93-1.217-3.625-1.72-5.489-.735-2.721.193-5.625-.164-8.421a10.828,10.828,0,0,0-5.973-8,15.524,15.524,0,0,0-10.144-1.05c-2.117.45-4.3,1.433-5.166,3.416-1.076.521-1.3,2.062-1.645,3.205a1.763,1.763,0,0,0,.688,1.768,8.909,8.909,0,0,0,1.758.966,2.832,2.832,0,0,1,1.441,1.339c.146.361.163.763.294,1.13a2.335,2.335,0,0,0,1.555,1.373c.5.147,1.083.188,1.413.589a1.7,1.7,0,0,1,2.19-.76,2.171,2.171,0,0,1,1.056,1.535,6.416,6.416,0,0,1,0,1.92,3.084,3.084,0,0,1-.314,1.268,1.053,1.053,0,0,1-1.094.558,10.389,10.389,0,0,1,.1,4.507c-.263,1.275-1.053,2.423-1.138,3.722-.1,1.477.73,2.862.861,4.337a16.1,16.1,0,0,1-.388,3.495,4.194,4.194,0,0,0,.7,3.346,2.653,2.653,0,0,0,.962-.11,4.537,4.537,0,0,1,.146-2.439,13.1,13.1,0,0,0,.38-1.434c.137-1.082-.4-2.252.075-3.234-.059,1.022.787,1.868.986,2.872.263,1.326-.685,2.758-.148,4a40.815,40.815,0,0,1,5.271-.135c.826.031,1.652.113,2.477.073C681.241,180.958,683.219,179.741,685.6,180.154Z" transform="translate(-621.392 -143.372)" fill="#6c3939"/>
        <path id="Trazado_141896" data-name="Trazado 141896" d="M609.81,203.666a15.456,15.456,0,0,0,3.017-.038" transform="translate(-606.879 -160.972)" fill="none" stroke="#95a1c4" stroke-miterlimit="10" stroke-width="1"/>
        <path id="Trazado_141897" data-name="Trazado 141897" d="M607.082,205.741a10.876,10.876,0,0,0,6.954-.011" transform="translate(-606.082 -161.586)" fill="none" stroke="#95a1c4" stroke-miterlimit="10" stroke-width="1"/>
        <path id="Trazado_141898" data-name="Trazado 141898" d="M610.258,201.958l-.036.991" transform="translate(-606.999 -160.484)" fill="none" stroke="#95a1c4" stroke-miterlimit="10" stroke-width="1"/>
        <path id="Trazado_141899" data-name="Trazado 141899" d="M611.86,201.967q.025.514.052,1.028" transform="translate(-607.478 -160.487)" fill="none" stroke="#95a1c4" stroke-miterlimit="10" stroke-width="1"/>
        <path id="Trazado_141900" data-name="Trazado 141900" d="M613.379,201.921l.048,1.064" transform="translate(-607.921 -160.473)" fill="none" stroke="#95a1c4" stroke-miterlimit="10" stroke-width="1"/>
        <path id="Trazado_141901" data-name="Trazado 141901" d="M614.64,202.016l.042,1.029" transform="translate(-608.29 -160.501)" fill="none" stroke="#95a1c4" stroke-miterlimit="10" stroke-width="1"/>
        <path id="Trazado_141902" data-name="Trazado 141902" d="M671.288,165.778a1.158,1.158,0,0,0-.011-.786,3.7,3.7,0,0,1-.2-.775.594.594,0,0,1,.305-.6.96.96,0,0,1,.638-.176.657.657,0,0,1,.527.373" transform="translate(-624.772 -149.233)" fill="none" stroke="#ef8054" stroke-miterlimit="10" stroke-width="1.296"/>
        <path id="Trazado_141903" data-name="Trazado 141903" d="M671.361,165.351a1.551,1.551,0,0,1,.054-.586.532.532,0,0,1,.421-.37" transform="translate(-624.855 -149.513)" fill="none" stroke="#ef8054" stroke-miterlimit="10" stroke-width="1.296"/>
        <path id="Trazado_141904" data-name="Trazado 141904" d="M659.832,153.3a2.988,2.988,0,0,1,.813-2.322" transform="translate(-621.486 -145.594)" fill="none" stroke="#492424" stroke-miterlimit="10" stroke-width="1.296"/>
        <path id="Trazado_141905" data-name="Trazado 141905" d="M662.743,154.9a5.112,5.112,0,0,1,2.546,2.143c.138.307.214.639.348.949a5.377,5.377,0,0,0,2.072,2.076" transform="translate(-622.339 -146.74)" fill="none" stroke="#492424" stroke-miterlimit="10" stroke-width="1.296"/>
        <path id="Trazado_141906" data-name="Trazado 141906" d="M669.369,160.127a4.669,4.669,0,0,0,1.266,1.144" transform="translate(-624.275 -148.266)" fill="none" stroke="#492424" stroke-miterlimit="10" stroke-width="1.296"/>
        <path id="Trazado_141907" data-name="Trazado 141907" d="M673.007,170.689a5.041,5.041,0,0,1,.973,2.128c.333,2.292-1.907,4.406-1.487,6.684.108.583.385,1.121.531,1.7a7.707,7.707,0,0,1-.229,3.539" transform="translate(-625.172 -151.351)" fill="none" stroke="#492424" stroke-miterlimit="10" stroke-width="1.296"/>
        <path id="Trazado_141908" data-name="Trazado 141908" d="M675.88,180.2a4.632,4.632,0,0,0,.728,3.587,8.7,8.7,0,0,1,1.44,3.449c.094,1.318-.534,2.74.078,3.911" transform="translate(-626.136 -154.129)" fill="none" stroke="#492424" stroke-miterlimit="10" stroke-width="1.296"/>
        <path id="Trazado_141909" data-name="Trazado 141909" d="M689.789,165.622a4.9,4.9,0,0,0,.305,2.6,25.772,25.772,0,0,1,1.3,2.682c.422,1.509-.188,3.089-.733,4.558s-1.026,3.133-.377,4.56a16.13,16.13,0,0,0,.919,1.482,5.217,5.217,0,0,1,.636,3.563" transform="translate(-630.222 -149.871)" fill="none" stroke="#492424" stroke-miterlimit="10" stroke-width="1.296"/>
        <path id="Trazado_141910" data-name="Trazado 141910" d="M687.278,188.113c.309.86.721,1.686.947,2.57a3.647,3.647,0,0,1-.2,2.668" transform="translate(-629.506 -156.44)" fill="none" stroke="#492424" stroke-miterlimit="10" stroke-width="1.296"/>
        <path id="Trazado_141911" data-name="Trazado 141911" d="M671.563,170.132a6.186,6.186,0,0,1-.3,4.093c-.341.777-.842,1.479-1.152,2.269a5.2,5.2,0,0,0-.011,3.73,15.514,15.514,0,0,1,.944,2.263,5.574,5.574,0,0,1-.122,2.285,9.443,9.443,0,0,0-.316,2.277,2.589,2.589,0,0,0,.942,2.019" transform="translate(-624.389 -151.188)" fill="none" stroke="#6c3939" stroke-miterlimit="10" stroke-width="0.648"/>
        <path id="Trazado_141912" data-name="Trazado 141912" d="M674.772,186.329a2.911,2.911,0,0,0,.07,2,5.9,5.9,0,0,1,.438,1.985,9.643,9.643,0,0,1-.368,1.625,1.861,1.861,0,0,0,.235,1.594" transform="translate(-625.809 -155.919)" fill="none" stroke="#6c3939" stroke-miterlimit="10" stroke-width="0.648"/>
        <path id="Trazado_141913" data-name="Trazado 141913" d="M691.52,165.894c.065,2.213,1.968,3.928,2.582,6.055a5.42,5.42,0,0,1-.033,3.1c-.188.6-.48,1.167-.683,1.763a3.043,3.043,0,0,0-.127,1.855c.288.932,1.2,1.512,1.763,2.306a5.579,5.579,0,0,1,.7,3.913" transform="translate(-630.745 -149.95)" fill="none" stroke="#6c3939" stroke-miterlimit="10" stroke-width="0.648"/>
        <path id="Trazado_141914" data-name="Trazado 141914" d="M674.418,187.377a5.725,5.725,0,0,0,.017,1.839,7,7,0,0,1,.189,1.281,6.771,6.771,0,0,1-.442,1.762,2.126,2.126,0,0,0,.094,1.762" transform="translate(-625.639 -156.225)" fill="none" stroke="#6c3939" stroke-miterlimit="10" stroke-width="0.648"/>
        <path id="Trazado_141915" data-name="Trazado 141915" d="M639.034,229.185a7.126,7.126,0,0,1,1.148,4.654" transform="translate(-615.415 -168.436)" fill="none" stroke="#596bc1" stroke-miterlimit="10" stroke-width="1.296"/>
        <path id="Trazado_141916" data-name="Trazado 141916" d="M640.359,228.206a2.513,2.513,0,0,1,1.25,1.27" transform="translate(-615.802 -168.15)" fill="none" stroke="#596bc1" stroke-miterlimit="10" stroke-width="1.296"/>
        <path id="Trazado_141917" data-name="Trazado 141917" d="M630.5,225.523a19.98,19.98,0,0,0-1.879,5.253" transform="translate(-612.374 -167.367)" fill="none" stroke="#596bc1" stroke-miterlimit="10" stroke-width="1.296"/>
        <g id="Grupo_88784" data-name="Grupo 88784" transform="translate(39.313 13.16)">
          <path id="Trazado_141918" data-name="Trazado 141918" d="M664.912,163.339a2.9,2.9,0,0,0-3.71-1.083" transform="translate(-661.202 -161.961)" fill="none" stroke="#6c3939" stroke-miterlimit="10" stroke-width="1.37"/>
          <path id="Trazado_141919" data-name="Trazado 141919" d="M661.5,162.6a4.006,4.006,0,0,1,3.667.927" transform="translate(-661.289 -162.112)" fill="none" stroke="#6c3939" stroke-miterlimit="10" stroke-width="1.37"/>
          <path id="Trazado_141920" data-name="Trazado 141920" d="M662.873,164.793a1.948,1.948,0,0,1,.13,1.468c-.07.222-.311.455-.456.287a.4.4,0,0,1-.069-.227,4.48,4.48,0,0,1,.1-1.421.358.358,0,0,1,.086-.185.192.192,0,0,1,.275.056.614.614,0,0,1,.088.328,2.42,2.42,0,0,1-.293,1.294,1.25,1.25,0,0,1,.06-1.121.523.523,0,0,1-.085.636" transform="translate(-661.57 -162.754)" fill="none" stroke="#6c3939" stroke-miterlimit="10" stroke-width="1.37"/>
        </g>
        <path id="Trazado_141921" data-name="Trazado 141921" d="M663.288,173.438a1.992,1.992,0,0,0,1.566-.949" transform="translate(-622.499 -151.877)" fill="none" stroke="#824631" stroke-miterlimit="10" stroke-width="0.896"/>
      </g>
      <g id="Grupo_88786" data-name="Grupo 88786" transform="translate(39.84 33.404)">
        <path id="Trazado_141922" data-name="Trazado 141922" d="M694.379,237.583c3.3-3.515,3.928-8.988,2.419-13.569a12.066,12.066,0,0,0-1.753-3.5c-1.682-2.236-4.265-3.571-6.72-4.913a39.1,39.1,0,0,1-9.028-6.291c-1.433-1.426-2.67-3.036-4.02-4.541-1.157-1.29-2.4-2.505-3.489-3.855-.862-1.069-1.621-2.216-2.379-3.361l-4.112-6.211a1.565,1.565,0,0,0-.528-.565,1.5,1.5,0,0,0-.7-.222c-.8.017-1.256.52-2.122,1.429.328,1.96,1.108,2.678,2.225,4.322a62.515,62.515,0,0,0,12.149,13.271,5.616,5.616,0,0,1,1.8,2.013,3.851,3.851,0,0,1,.2,1.937c-.486,4.114-4.617,7.43-4.111,11.542A9.369,9.369,0,0,0,677.2,230.2a33.057,33.057,0,0,0,6.424,5.1C686.934,237.322,691.726,240.407,694.379,237.583Z" transform="translate(-661.947 -190.558)" fill="#fff"/>
        <path id="Trazado_141923" data-name="Trazado 141923" d="M688.885,223.452a8.065,8.065,0,0,1,.37,4.088c-.221,1.3-.752,2.663-.231,3.871a4.393,4.393,0,0,0,1,1.315,24.916,24.916,0,0,0,10.87,6.338,3.422,3.422,0,0,0,2.123.095c1.053-.406,1.483-1.637,1.768-2.728" transform="translate(-669.791 -200.165)" fill="none" stroke="#dde4ed" stroke-miterlimit="10" stroke-width="0.787"/>
        <path id="Trazado_141924" data-name="Trazado 141924" d="M697.632,241.171a3.292,3.292,0,0,0-.958,1.464.977.977,0,0,0-.047.559.417.417,0,0,0,.414.319.573.573,0,0,0,.325-.207,2.945,2.945,0,0,0,.78-1.843c.006-.106-.014-.24-.115-.273-.086-.028-.171.038-.235.1a3.814,3.814,0,0,0-1.014,1.8.3.3,0,0,0,.02.251c.108.132.319,0,.418-.137a2.293,2.293,0,0,0,.407-1.607,2.229,2.229,0,0,0-.7,1.583,4.6,4.6,0,0,0,.721-1.4" transform="translate(-672.069 -205.341)" fill="none" stroke="#dde4ed" stroke-miterlimit="10" stroke-width="0.787"/>
      </g>
      <path id="Trazado_141925" data-name="Trazado 141925" d="M663.293,174.921a4.451,4.451,0,0,1-1.732-1.07,7.557,7.557,0,0,1-1.182-2.095A9.813,9.813,0,0,0,658.411,169a1.27,1.27,0,0,1-.316-.4,1.191,1.191,0,0,1,.219-1q.522-.9,1.119-1.758c.818.227,1.312,1.011,2.105,1.311a2.982,2.982,0,0,0,3.067-.9,8.752,8.752,0,0,0,1.638-2.939,7.782,7.782,0,0,1-1.1,2.911c-.28.445-.605.86-.866,1.316a.846.846,0,0,0-.142.418,1,1,0,0,0,.331.595,5.644,5.644,0,0,1,1.083,1.854l1.975-1.79a4.439,4.439,0,0,0,.687-.726.913.913,0,0,0-.041.539,10.324,10.324,0,0,0-1.754,1.877,6.865,6.865,0,0,0-.648.922,8.072,8.072,0,0,0-.45,1.067,7.043,7.043,0,0,1-.813,1.642A2.264,2.264,0,0,1,663.293,174.921Z" transform="translate(-620.968 -149.196)" fill="#fff"/>
    </g>
    <path id="Trazado_141926" data-name="Trazado 141926" d="M552.362,173.045a2.211,2.211,0,0,1-1.719-.245,7.763,7.763,0,0,0-1.063-.717,3.6,3.6,0,0,0-2.045.125,7.852,7.852,0,0,1-4.1-.336,13.111,13.111,0,0,1-3.621-2.01,4.858,4.858,0,0,0,1.792,1.78,1.36,1.36,0,0,1,.607.756,1.261,1.261,0,0,1-.609,1.139,4.108,4.108,0,0,1-2.136.768,11.071,11.071,0,0,0,1.006.489c.915.423,1.276,1.5,1.686,2.422a7.239,7.239,0,0,0,2.251,2.955,4.506,4.506,0,0,0,3.545.852,5.22,5.22,0,0,0,2.767-1.825,8.523,8.523,0,0,0,1.935-4.315A2.125,2.125,0,0,0,552.362,173.045Z" transform="translate(-54.035 -7.737)" fill="#fff"/>
    <path id="Trazado_141927" data-name="Trazado 141927" d="M552.119,173.727a9.37,9.37,0,0,1-2.059,8.351" transform="translate(-57.127 -8.866)" fill="none" stroke="#e3e4e5" stroke-miterlimit="10" stroke-width="1"/>
    <g id="Grupo_88789" data-name="Grupo 88789" transform="translate(507.085 122.139)">
      <g id="Grupo_58084" data-name="Grupo 58084">
        <g id="Grupo_58078" data-name="Grupo 58078">
          <g id="Grupo_58077" data-name="Grupo 58077">
            <path id="Trazado_102315" data-name="Trazado 102315" d="M458.738,5397.142a26.3,26.3,0,1,1-15.757-33.64A26.268,26.268,0,0,1,458.738,5397.142Z" transform="translate(-407.724 -5361.91)" fill="#f5f5f5"/>
          </g>
        </g>
        <g id="Grupo_58080" data-name="Grupo 58080" transform="translate(6.257 6.246)">
          <g id="Grupo_58079" data-name="Grupo 58079">
            <path id="Trazado_102316" data-name="Trazado 102316" d="M453.721,5395.867a20.04,20.04,0,1,1-12.007-25.635A20.017,20.017,0,0,1,453.721,5395.867Z" transform="translate(-414.845 -5369.019)" fill="#ececec"/>
          </g>
        </g>
        <g id="Grupo_58083" data-name="Grupo 58083" transform="translate(7.238 5.502)">
          <g id="Grupo_58082" data-name="Grupo 58082">
            <g id="Grupo_58081" data-name="Grupo 58081">
              <path id="Trazado_102317" data-name="Trazado 102317" d="M454.066,5395.172a11.831,11.831,0,0,1,.325-2.446,21.272,21.272,0,0,0-.075-6.563,20.541,20.541,0,0,0-1.25-4.329,20.042,20.042,0,0,0-2.577-4.456,19.634,19.634,0,0,0-4.058-3.96,19.541,19.541,0,0,0-2.558-1.572,21.2,21.2,0,0,0-2.853-1.194,21.467,21.467,0,0,0-3.006-.73,19.849,19.849,0,0,0-2.993-.25,19.694,19.694,0,0,0-5.615.785,20.021,20.021,0,0,0-4.717,2.063,20.649,20.649,0,0,0-3.572,2.746,21.271,21.271,0,0,0-3.946,5.243,11.727,11.727,0,0,1-1.187,2.162,5.9,5.9,0,0,1,.646-2.417,18.533,18.533,0,0,1,3.713-5.749,20.075,20.075,0,0,1,8.65-5.4,19.351,19.351,0,0,1,2.913-.684,19.867,19.867,0,0,1,3.115-.252,20.555,20.555,0,0,1,3.232.247,20.467,20.467,0,0,1,6.319,2.075,20.389,20.389,0,0,1,2.749,1.716,20.383,20.383,0,0,1,4.3,4.325,20.074,20.074,0,0,1,3.769,9.475,18.545,18.545,0,0,1-.413,6.833A5.89,5.89,0,0,1,454.066,5395.172Z" transform="translate(-415.962 -5368.171)" fill="#e1e1e1"/>
            </g>
          </g>
        </g>
      </g>
      <g id="Grupo_58088" data-name="Grupo 58088" transform="translate(14.857 12.857)">
        <g id="Grupo_58087" data-name="Grupo 58087">
          <g id="Grupo_58086" data-name="Grupo 58086">
            <g id="Grupo_58085" data-name="Grupo 58085">
              <path id="Trazado_102318" data-name="Trazado 102318" d="M434.122,5401.944l-1.145,3.3-2.943-1.024,1.113-3.208a14.771,14.771,0,0,1-6.514-4.9l2.866-3.03a12.607,12.607,0,0,0,4.987,4.074l1.706-4.918c-2.993-1.929-6.265-4.286-4.8-8.5,1.083-3.122,4.28-5.014,9.116-3.929l1.134-3.268,2.945,1.021-1.114,3.209a14.105,14.105,0,0,1,5.354,3.871l-2.729,3.111a12.8,12.8,0,0,0-3.973-3.1l-1.737,5.009c3,1.9,6.217,4.234,4.776,8.386C442.1,5401.115,438.939,5402.989,434.122,5401.944Zm1.573-14.037,1.451-4.182c-1.683-.187-2.6.452-2.936,1.423C433.853,5386.179,434.542,5387.047,435.695,5387.908Zm2.6,8.854c.358-1.031-.3-1.886-1.415-2.769l-1.41,4.064C437.056,5398.246,437.97,5397.705,438.3,5396.762Z" transform="translate(-424.633 -5376.543)" fill="#e1e1e1"/>
            </g>
          </g>
        </g>
      </g>
    </g>
    <g id="Grupo_88790" data-name="Grupo 88790" transform="translate(374.085 224.139)">
      <g id="Grupo_58084-2" data-name="Grupo 58084">
        <g id="Grupo_58078-2" data-name="Grupo 58078">
          <g id="Grupo_58077-2" data-name="Grupo 58077">
            <path id="Trazado_102315-2" data-name="Trazado 102315" d="M458.738,5397.142a26.3,26.3,0,1,1-15.757-33.64A26.268,26.268,0,0,1,458.738,5397.142Z" transform="translate(-407.724 -5361.91)" fill="#f5f5f5"/>
          </g>
        </g>
        <g id="Grupo_58080-2" data-name="Grupo 58080" transform="translate(6.257 6.246)">
          <g id="Grupo_58079-2" data-name="Grupo 58079">
            <path id="Trazado_102316-2" data-name="Trazado 102316" d="M453.721,5395.867a20.04,20.04,0,1,1-12.007-25.635A20.017,20.017,0,0,1,453.721,5395.867Z" transform="translate(-414.845 -5369.019)" fill="#ececec"/>
          </g>
        </g>
        <g id="Grupo_58083-2" data-name="Grupo 58083" transform="translate(7.238 5.502)">
          <g id="Grupo_58082-2" data-name="Grupo 58082">
            <g id="Grupo_58081-2" data-name="Grupo 58081">
              <path id="Trazado_102317-2" data-name="Trazado 102317" d="M454.066,5395.172a11.831,11.831,0,0,1,.325-2.446,21.272,21.272,0,0,0-.075-6.563,20.541,20.541,0,0,0-1.25-4.329,20.042,20.042,0,0,0-2.577-4.456,19.634,19.634,0,0,0-4.058-3.96,19.541,19.541,0,0,0-2.558-1.572,21.2,21.2,0,0,0-2.853-1.194,21.467,21.467,0,0,0-3.006-.73,19.849,19.849,0,0,0-2.993-.25,19.694,19.694,0,0,0-5.615.785,20.021,20.021,0,0,0-4.717,2.063,20.649,20.649,0,0,0-3.572,2.746,21.271,21.271,0,0,0-3.946,5.243,11.727,11.727,0,0,1-1.187,2.162,5.9,5.9,0,0,1,.646-2.417,18.533,18.533,0,0,1,3.713-5.749,20.075,20.075,0,0,1,8.65-5.4,19.351,19.351,0,0,1,2.913-.684,19.867,19.867,0,0,1,3.115-.252,20.555,20.555,0,0,1,3.232.247,20.467,20.467,0,0,1,6.319,2.075,20.389,20.389,0,0,1,2.749,1.716,20.383,20.383,0,0,1,4.3,4.325,20.074,20.074,0,0,1,3.769,9.475,18.545,18.545,0,0,1-.413,6.833A5.89,5.89,0,0,1,454.066,5395.172Z" transform="translate(-415.962 -5368.171)" fill="#e1e1e1"/>
            </g>
          </g>
        </g>
      </g>
      <g id="Grupo_58088-2" data-name="Grupo 58088" transform="translate(14.857 12.857)">
        <g id="Grupo_58087-2" data-name="Grupo 58087">
          <g id="Grupo_58086-2" data-name="Grupo 58086">
            <g id="Grupo_58085-2" data-name="Grupo 58085">
              <path id="Trazado_102318-2" data-name="Trazado 102318" d="M434.122,5401.944l-1.145,3.3-2.943-1.024,1.113-3.208a14.771,14.771,0,0,1-6.514-4.9l2.866-3.03a12.607,12.607,0,0,0,4.987,4.074l1.706-4.918c-2.993-1.929-6.265-4.286-4.8-8.5,1.083-3.122,4.28-5.014,9.116-3.929l1.134-3.268,2.945,1.021-1.114,3.209a14.105,14.105,0,0,1,5.354,3.871l-2.729,3.111a12.8,12.8,0,0,0-3.973-3.1l-1.737,5.009c3,1.9,6.217,4.234,4.776,8.386C442.1,5401.115,438.939,5402.989,434.122,5401.944Zm1.573-14.037,1.451-4.182c-1.683-.187-2.6.452-2.936,1.423C433.853,5386.179,434.542,5387.047,435.695,5387.908Zm2.6,8.854c.358-1.031-.3-1.886-1.415-2.769l-1.41,4.064C437.056,5398.246,437.97,5397.705,438.3,5396.762Z" transform="translate(-424.633 -5376.543)" fill="#e1e1e1"/>
            </g>
          </g>
        </g>
      </g>
    </g>
    <g id="Grupo_88791" data-name="Grupo 88791" transform="translate(533.383 234.838)">
      <g id="Grupo_58084-3" data-name="Grupo 58084">
        <g id="Grupo_58078-3" data-name="Grupo 58078">
          <g id="Grupo_58077-3" data-name="Grupo 58077">
            <path id="Trazado_102315-3" data-name="Trazado 102315" d="M458.738,5397.142a26.3,26.3,0,1,1-15.757-33.64A26.268,26.268,0,0,1,458.738,5397.142Z" transform="translate(-407.724 -5361.91)" fill="#f5f5f5"/>
          </g>
        </g>
        <g id="Grupo_58080-3" data-name="Grupo 58080" transform="translate(6.257 6.246)">
          <g id="Grupo_58079-3" data-name="Grupo 58079">
            <path id="Trazado_102316-3" data-name="Trazado 102316" d="M453.721,5395.867a20.04,20.04,0,1,1-12.007-25.635A20.017,20.017,0,0,1,453.721,5395.867Z" transform="translate(-414.845 -5369.019)" fill="#ececec"/>
          </g>
        </g>
        <g id="Grupo_58083-3" data-name="Grupo 58083" transform="translate(7.238 5.502)">
          <g id="Grupo_58082-3" data-name="Grupo 58082">
            <g id="Grupo_58081-3" data-name="Grupo 58081">
              <path id="Trazado_102317-3" data-name="Trazado 102317" d="M454.066,5395.172a11.831,11.831,0,0,1,.325-2.446,21.272,21.272,0,0,0-.075-6.563,20.541,20.541,0,0,0-1.25-4.329,20.042,20.042,0,0,0-2.577-4.456,19.634,19.634,0,0,0-4.058-3.96,19.541,19.541,0,0,0-2.558-1.572,21.2,21.2,0,0,0-2.853-1.194,21.467,21.467,0,0,0-3.006-.73,19.849,19.849,0,0,0-2.993-.25,19.694,19.694,0,0,0-5.615.785,20.021,20.021,0,0,0-4.717,2.063,20.649,20.649,0,0,0-3.572,2.746,21.271,21.271,0,0,0-3.946,5.243,11.727,11.727,0,0,1-1.187,2.162,5.9,5.9,0,0,1,.646-2.417,18.533,18.533,0,0,1,3.713-5.749,20.075,20.075,0,0,1,8.65-5.4,19.351,19.351,0,0,1,2.913-.684,19.867,19.867,0,0,1,3.115-.252,20.555,20.555,0,0,1,3.232.247,20.467,20.467,0,0,1,6.319,2.075,20.389,20.389,0,0,1,2.749,1.716,20.383,20.383,0,0,1,4.3,4.325,20.074,20.074,0,0,1,3.769,9.475,18.545,18.545,0,0,1-.413,6.833A5.89,5.89,0,0,1,454.066,5395.172Z" transform="translate(-415.962 -5368.171)" fill="#e1e1e1"/>
            </g>
          </g>
        </g>
      </g>
      <g id="Grupo_58088-3" data-name="Grupo 58088" transform="translate(14.857 12.857)">
        <g id="Grupo_58087-3" data-name="Grupo 58087">
          <g id="Grupo_58086-3" data-name="Grupo 58086">
            <g id="Grupo_58085-3" data-name="Grupo 58085">
              <path id="Trazado_102318-3" data-name="Trazado 102318" d="M434.122,5401.944l-1.145,3.3-2.943-1.024,1.113-3.208a14.771,14.771,0,0,1-6.514-4.9l2.866-3.03a12.607,12.607,0,0,0,4.987,4.074l1.706-4.918c-2.993-1.929-6.265-4.286-4.8-8.5,1.083-3.122,4.28-5.014,9.116-3.929l1.134-3.268,2.945,1.021-1.114,3.209a14.105,14.105,0,0,1,5.354,3.871l-2.729,3.111a12.8,12.8,0,0,0-3.973-3.1l-1.737,5.009c3,1.9,6.217,4.234,4.776,8.386C442.1,5401.115,438.939,5402.989,434.122,5401.944Zm1.573-14.037,1.451-4.182c-1.683-.187-2.6.452-2.936,1.423C433.853,5386.179,434.542,5387.047,435.695,5387.908Zm2.6,8.854c.358-1.031-.3-1.886-1.415-2.769l-1.41,4.064C437.056,5398.246,437.97,5397.705,438.3,5396.762Z" transform="translate(-424.633 -5376.543)" fill="#e1e1e1"/>
            </g>
          </g>
        </g>
      </g>
    </g>
  </g>
</svg>
