<svg xmlns="http://www.w3.org/2000/svg" xmlns:xlink="http://www.w3.org/1999/xlink" width="183.348" height="183.348" viewBox="0 0 183.348 183.348">
  <defs>
    <radialGradient id="radial-gradient" cx="0.076" cy="0.019" r="1.465" gradientTransform="translate(0.001)" gradientUnits="objectBoundingBox">
      <stop offset="0" stop-color="#f6f6f7"/>
      <stop offset="0.477" stop-color="#f9f9fa"/>
      <stop offset="0.715" stop-color="#fff"/>
    </radialGradient>
  </defs>
  <g id="img1" transform="translate(0 0.001)">
    <g id="Grupo_18531" data-name="Grupo 18531" transform="translate(0 0)">
      <g id="Grupo_18423" data-name="Grupo 18423" transform="translate(0 0)">
        <g id="Grupo_18421" data-name="Grupo 18421">
          <g id="Grupo_18420" data-name="Grupo 18420">
            <g id="Grupo_18419" data-name="Grupo 18419">
              <path id="Trazado_40936" data-name="Trazado 40936" d="M377.97,2237.392a91.673,91.673,0,1,1-91.672-91.671A91.672,91.672,0,0,1,377.97,2237.392Z" transform="translate(-194.623 -2145.721)" fill="#fff"/>
            </g>
          </g>
        </g>
        <path id="Trazado_40937" data-name="Trazado 40937" d="M376.482,2235.77a91.671,91.671,0,1,0-91.672,91.676A91.311,91.311,0,0,0,376.482,2235.77Z" transform="translate(-193.135 -2144.099)" fill="url(#radial-gradient)"/>
        <path id="Trazado_40938" data-name="Trazado 40938" d="M341.45,2222.48a69.974,69.974,0,1,0-69.974,69.974A69.714,69.714,0,0,0,341.45,2222.48Z" transform="translate(-179.525 -2130.503)" fill="none" stroke="#00223d" stroke-miterlimit="10" stroke-width="4"/>
        <g id="Grupo_18422" data-name="Grupo 18422" transform="translate(16.241 51.468)">
          <path id="Trazado_40939" data-name="Trazado 40939" d="M358.381,2164.488a91.684,91.684,0,0,1-157.836,91.294,91.393,91.393,0,0,0,157.836-91.294Z" transform="translate(-200.545 -2164.488)" fill="#eceef0"/>
        </g>
      </g>
    </g>
    <g id="Grupo_88596" data-name="Grupo 88596" transform="translate(524.539 -1136.858)">
      <path id="Trazado_140969" data-name="Trazado 140969" d="M-433.928,1259.075c-.749,2.176-2.035,4.326-2.144,6.533-.3,6.075-.081,12.175-.111,18.264-.015,3.107-.774,5.7-4.632,5.692-3.8-.005-4.67-2.443-4.659-5.636.019-5.252,0-10.5,0-15.755l-1.464-.14a14.512,14.512,0,0,0-.626,2.882c-.069,4.6-.006,9.209-.047,13.812-.026,2.947-1.3,4.8-4.512,4.85-3.238.049-4.537-1.76-4.545-4.747-.022-7.711-.007-15.424-.007-23.408-5.24-.477-5.892-3.9-5.667-7.981.188-3.4-.081-6.86.38-10.22,1.008-7.343,5.736-10.478,12.958-9.062a7.323,7.323,0,0,0,3.965.045c5.253-2.25,9.12-.279,12.54,4.111,3.451-4.06,7.15-6.589,12.5-4.124,1.2.552,2.97.2,4.389-.127,6.537-1.486,12.052,2.227,12.638,9.017a62.277,62.277,0,0,1-.015,13.333c-.269,2.049-2.53,3.837-3.888,5.743l-1.371-.652c0,7.408-.042,14.817.02,22.225.026,3.113-.4,5.758-4.324,5.842-4.173.09-4.749-2.62-4.678-5.954.085-4.009.054-8.02,0-12.029a32.317,32.317,0,0,0-.431-3.576l-1.39-.029a39.746,39.746,0,0,0-.54,4.329c-.08,4.158-.029,8.317-.053,12.475-.016,2.979-1.259,4.821-4.51,4.778-3.177-.041-4.535-1.8-4.546-4.8-.021-6.386-.194-12.781.061-19.157C-428.5,1262.55-429.282,1260.545-433.928,1259.075Z" transform="translate(0 -6.589)" fill="#12263f"/>
      <path id="Trazado_140970" data-name="Trazado 140970" d="M-430.917,1230.574l-5.895-3.914c2.352-3.745,3.678-7.856,1.284-12.2-2.378-4.312-6.335-5.923-12.48-5.83,1.542-4.511,2.232-8.642,4.281-11.928s5.454-5.326,9.91-3.243a8.186,8.186,0,0,0,4.75.386c8.516-1.686,14.016,2.693,14.231,11.533.022.88,0,1.761-.9,1.714-3.467,2.37-7.677,4.138-10.21,7.264-3.028,3.736-1.661,8.377,1.005,12.284Z" transform="translate(-1.554 -2.196)" fill="#12263f"/>
      <path id="Trazado_140971" data-name="Trazado 140971" d="M-429.867,1172.323a8.761,8.761,0,0,1,8.849,8.626,9.1,9.1,0,0,1-9.106,8.958,8.959,8.959,0,0,1-8.536-8.989A8.6,8.6,0,0,1-429.867,1172.323Z" transform="translate(-2.566)" fill="#12263f"/>
      <path id="Trazado_140972" data-name="Trazado 140972" d="M-445.453,1230.268a8.751,8.751,0,0,1-9.107-8.345,9.089,9.089,0,0,1,8.865-9.188,8.94,8.94,0,0,1,8.8,8.725A8.549,8.549,0,0,1-445.453,1230.268Z" transform="translate(-0.845 -4.372)" fill="#12263f"/>
      <path id="Trazado_140973" data-name="Trazado 140973" d="M-413.987,1230.248a8.346,8.346,0,0,1-8.8-8.556,8.728,8.728,0,0,1,8.555-8.987,8.887,8.887,0,0,1,8.89,8.728A8.615,8.615,0,0,1-413.987,1230.248Z" transform="translate(-4.283 -4.369)" fill="#12263f"/>
    </g>
  </g>
</svg>
