<svg xmlns="http://www.w3.org/2000/svg" xmlns:xlink="http://www.w3.org/1999/xlink" width="183.348" height="183.348" viewBox="0 0 183.348 183.348">
  <defs>
    <radialGradient id="radial-gradient" cx="0.076" cy="0.019" r="1.465" gradientTransform="translate(0.001)" gradientUnits="objectBoundingBox">
      <stop offset="0" stop-color="#f6f6f7"/>
      <stop offset="0.477" stop-color="#f9f9fa"/>
      <stop offset="0.715" stop-color="#fff"/>
    </radialGradient>
  </defs>
  <g id="img2" transform="translate(0 0.001)">
    <g id="Grupo_18531" data-name="Grupo 18531" transform="translate(0 0)">
      <g id="Grupo_18423" data-name="Grupo 18423" transform="translate(0 0)">
        <g id="Grupo_18421" data-name="Grupo 18421">
          <g id="Grupo_18420" data-name="Grupo 18420">
            <g id="Grupo_18419" data-name="Grupo 18419">
              <path id="Trazado_40936" data-name="Trazado 40936" d="M377.97,2237.392a91.673,91.673,0,1,1-91.672-91.671A91.672,91.672,0,0,1,377.97,2237.392Z" transform="translate(-194.623 -2145.721)" fill="#fff"/>
            </g>
          </g>
        </g>
        <path id="Trazado_40937" data-name="Trazado 40937" d="M376.482,2235.77a91.671,91.671,0,1,0-91.672,91.676A91.311,91.311,0,0,0,376.482,2235.77Z" transform="translate(-193.135 -2144.099)" fill="url(#radial-gradient)"/>
        <path id="Trazado_40938" data-name="Trazado 40938" d="M341.45,2222.48a69.974,69.974,0,1,0-69.974,69.974A69.714,69.714,0,0,0,341.45,2222.48Z" transform="translate(-179.525 -2130.503)" fill="none" stroke="#00223d" stroke-miterlimit="10" stroke-width="4"/>
        <g id="Grupo_18422" data-name="Grupo 18422" transform="translate(16.241 51.468)">
          <path id="Trazado_40939" data-name="Trazado 40939" d="M358.381,2164.488a91.684,91.684,0,0,1-157.836,91.294,91.393,91.393,0,0,0,157.836-91.294Z" transform="translate(-200.545 -2164.488)" fill="#eceef0"/>
        </g>
      </g>
    </g>
    <g id="Grupo_88595" data-name="Grupo 88595" transform="translate(423.921 55.59)">
      <path id="Trazado_140959" data-name="Trazado 140959" d="M-244.92,62.688c0,5.661-.063,11.324.041,16.983.029,1.585-.438,2.075-2,2.379a50.042,50.042,0,0,1-19.792-.146c-.417-.085-.824-.218-1.317-.351V62.717c-2.659,5.789-2.75,11.982-3,18.466a43.014,43.014,0,0,0-2.278-5.139,47.465,47.465,0,0,0-3.288-4.141,2.245,2.245,0,0,1-.607-1.362c.564-4.5,1.4-8.943,3.658-12.953,2.275-4.033,5.485-6.45,10.422-6.251,4.623.186,9.261.108,13.891.02a9.973,9.973,0,0,1,8.709,4.573,24.283,24.283,0,0,1,4.381,12.5c.506,6.608.557,13.254.671,19.887a3.355,3.355,0,0,1-3.611,3.735c-2.061-.112-3.312-1.648-3.178-4.117a84.487,84.487,0,0,0-.685-19.062c-.365-2.112-.977-4.18-1.475-6.269Z" transform="translate(-60.303 -44.132)" fill="#12263f"/>
      <path id="Trazado_140960" data-name="Trazado 140960" d="M-339.322,121.453v7.616c0,1.961.048,3.924-.038,5.881-.02.46-.415,1.211-.773,1.3a34.276,34.276,0,0,1-18.593-.234v-14.7l-.537-.116a48.982,48.982,0,0,0-1.421,6.432c-.334,3.732-.334,7.493-.468,11.242a15,15,0,0,1-.03,1.792,2.714,2.714,0,0,1-2.756,2.3,2.475,2.475,0,0,1-2.622-2.237c-.413-7.419-.454-14.828,2.446-21.874,1.878-4.563,5.031-7.185,10.3-6.852,3.472.219,6.972.126,10.454.014a8.855,8.855,0,0,1,8.343,4.717,25.4,25.4,0,0,1,3.32,11.338c.306,3.791.306,7.611.34,11.419.02,2.261-1.206,3.586-2.971,3.483-1.693-.1-2.6-1.389-2.551-3.683.115-5.341.165-10.676-1.317-15.883-.19-.669-.452-1.317-.68-1.974Z" transform="translate(0 -84.958)" fill="#12263f"/>
      <path id="Trazado_140961" data-name="Trazado 140961" d="M-248.988,149.674l8.3,1.183A10.492,10.492,0,0,0-240,159.64c1.635,2.707,1.485,5.443,1.49,8.28q.021,11.348.011,22.7c0,3.23-1.259,5.193-3.783,5.961a5.139,5.139,0,0,1-6.606-3.865,9.4,9.4,0,0,1-.184-1.942q-.015-19.757,0-39.514C-249.072,150.78-249.023,150.3-248.988,149.674Z" transform="translate(-79.211 -110.328)" fill="#12263f"/>
      <path id="Trazado_140962" data-name="Trazado 140962" d="M-208.674,150.885l8.213-1.164a8.828,8.828,0,0,1,.145,1.073q.01,20.242,0,40.485a5.2,5.2,0,0,1-3.592,5.279,5.144,5.144,0,0,1-6.859-4.271,24.473,24.473,0,0,1-.105-2.932c-.007-8.489-.025-16.978.03-25.466a5.174,5.174,0,0,1,.766-2.537A14.237,14.237,0,0,0-208.674,150.885Z" transform="translate(-104.917 -110.359)" fill="#12263f"/>
      <path id="Trazado_140963" data-name="Trazado 140963" d="M-301,191.42v1.872q0,13.06-.006,26.118a12.882,12.882,0,0,1-.137,2.276,4.42,4.42,0,0,1-4.34,3.507,4.375,4.375,0,0,1-4.219-3.625,13.869,13.869,0,0,1-.115-2.115q-.014-7.835,0-15.671c0-2.148-.058-4.23.966-6.314.677-1.377.537-3.156.786-4.916Z" transform="translate(-38.325 -138.426)" fill="#12263f"/>
      <path id="Trazado_140964" data-name="Trazado 140964" d="M-342.264,191.432l7.258,1.153a11.348,11.348,0,0,0,1.5,7c.175.281.068.746.068,1.126q0,9.718,0,19.436c0,3.025-1.7,4.985-4.356,5.053-2.555.065-4.46-2.017-4.465-4.974q-.025-13.8-.007-27.6Z" transform="translate(-16.487 -138.434)" fill="#12263f"/>
      <path id="Trazado_140965" data-name="Trazado 140965" d="M-233.364,3.209c2.5,0,5.008.05,7.508-.024.979-.029,1.343.4,1.576,1.234a9.657,9.657,0,0,1-3.593,10.29,9.654,9.654,0,0,1-11.158.109A9.672,9.672,0,0,1-242.8,4.6c.244-.951.639-1.459,1.767-1.418C-238.481,3.271-235.922,3.208-233.364,3.209Z" transform="translate(-83.237 -11.724)" fill="#12263f"/>
      <path id="Trazado_140966" data-name="Trazado 140966" d="M-330.478,68.81c2.227,0,4.458-.066,6.68.05a2.052,2.052,0,0,1,1.476,1.049,8.618,8.618,0,0,1-3.062,10,8.712,8.712,0,0,1-10.337-.119,8.484,8.484,0,0,1-2.91-9.88,2.05,2.05,0,0,1,1.473-1.047C-334.936,68.743-332.705,68.81-330.478,68.81Z" transform="translate(-18.54 -55.887)" fill="#12263f"/>
      <path id="Trazado_140967" data-name="Trazado 140967" d="M-221.76-10.3h-15.1C-234.1-15.276-225.194-15.826-221.76-10.3Z" transform="translate(-87.436)" fill="#12263f"/>
      <path id="Trazado_140968" data-name="Trazado 140968" d="M-318.716,57.538h-12.377C-329.387,54.1-321.878,53.291-318.716,57.538Z" transform="translate(-24.007 -46.367)" fill="#12263f"/>
    </g>
  </g>
</svg>
