<svg xmlns="http://www.w3.org/2000/svg" xmlns:xlink="http://www.w3.org/1999/xlink" width="183.348" height="183.348" viewBox="0 0 183.348 183.348">
  <defs>
    <radialGradient id="radial-gradient" cx="0.076" cy="0.019" r="1.465" gradientTransform="translate(0.001)" gradientUnits="objectBoundingBox">
      <stop offset="0" stop-color="#f6f6f7"/>
      <stop offset="0.477" stop-color="#f9f9fa"/>
      <stop offset="0.715" stop-color="#fff"/>
    </radialGradient>
  </defs>
  <g id="img2" transform="translate(0 0.001)">
    <g id="Grupo_18531" data-name="Grupo 18531" transform="translate(0 0)">
      <g id="Grupo_18423" data-name="Grupo 18423" transform="translate(0 0)">
        <g id="Grupo_18421" data-name="Grupo 18421">
          <g id="Grupo_18420" data-name="Grupo 18420">
            <g id="Grupo_18419" data-name="Grupo 18419">
              <path id="Trazado_40936" data-name="Trazado 40936" d="M377.97,2237.392a91.673,91.673,0,1,1-91.672-91.671A91.672,91.672,0,0,1,377.97,2237.392Z" transform="translate(-194.623 -2145.721)" fill="#fff"/>
            </g>
          </g>
        </g>
        <path id="Trazado_40937" data-name="Trazado 40937" d="M376.482,2235.77a91.671,91.671,0,1,0-91.672,91.676A91.311,91.311,0,0,0,376.482,2235.77Z" transform="translate(-193.135 -2144.099)" fill="url(#radial-gradient)"/>
        <path id="Trazado_40938" data-name="Trazado 40938" d="M341.45,2222.48a69.974,69.974,0,1,0-69.974,69.974A69.714,69.714,0,0,0,341.45,2222.48Z" transform="translate(-179.525 -2130.503)" fill="none" stroke="#00223d" stroke-miterlimit="10" stroke-width="4"/>
        <g id="Grupo_18422" data-name="Grupo 18422" transform="translate(16.241 51.468)">
          <path id="Trazado_40939" data-name="Trazado 40939" d="M358.381,2164.488a91.684,91.684,0,0,1-157.836,91.294,91.393,91.393,0,0,0,157.836-91.294Z" transform="translate(-200.545 -2164.488)" fill="#eceef0"/>
        </g>
      </g>
    </g>
    <g id="WLmnJl" transform="translate(-493.807 264.417)">
      <g id="Grupo_88571" data-name="Grupo 88571" transform="translate(546.376 -212.21)">
        <path id="Trazado_140947" data-name="Trazado 140947" d="M843.726,176.13c0-2.851.005-5.659-.006-8.466a1.306,1.306,0,0,1,.382-1.044,3.359,3.359,0,0,0,.956-2.473c0-5.272.008-10.544-.014-15.816a3.514,3.514,0,0,0-3.7-3.629c-1.259-.005-2.518,0-3.973,0,.7-.94,1.258-1.8,1.927-2.568a16.654,16.654,0,0,1,10.415-5.642,1.348,1.348,0,0,1,1.52.677c1.882,2.786,3.838,5.522,5.747,8.291a1.185,1.185,0,0,1,.174.812q-1.832,9.412-3.706,18.815a1.341,1.341,0,0,0,.349,1.276c1.28,1.339,2.549,2.689,3.839,4.018a1.135,1.135,0,0,0,1.784-.009c1.3-1.346,2.574-2.714,3.86-4.071a1.357,1.357,0,0,0,.28-1.3q-.774-3.919-1.545-7.839-1.087-5.514-2.165-11.03a.861.861,0,0,1,.136-.587q3.052-4.411,6.14-8.8a.784.784,0,0,1,.6-.262,15.847,15.847,0,0,1,8.643,3.426,16.886,16.886,0,0,1,6.431,11.238,17.727,17.727,0,0,1,.139,2.5q.016,10.473.006,20.946c0,1.142-.391,1.529-1.54,1.529H843.726Z" transform="translate(-806.271 -99.197)" fill="#12263f"/>
        <path id="Trazado_140948" data-name="Trazado 140948" d="M894.188-177.813a16.972,16.972,0,0,1-16.69-14.394,17.227,17.227,0,0,1,11.164-19.073,16.776,16.776,0,0,1,20.789,8.964,17.415,17.415,0,0,1-3.736,19.841A16.677,16.677,0,0,1,894.188-177.813Z" transform="translate(-841.912 212.21)" fill="#12263f"/>
        <path id="Trazado_140949" data-name="Trazado 140949" d="M558.146,190.953c0-1.343,0-2.6,0-3.867,0-1.056.434-1.483,1.491-1.482h9.884c1.069,0,1.458.382,1.461,1.438,0,1.278,0,2.557,0,3.907h10.34c1.033,0,1.461.413,1.462,1.455q.008,7.72,0,15.44c0,1.075-.424,1.489-1.488,1.489q-16.669,0-33.338,0c-1.218,0-1.584-.369-1.584-1.6q0-7.693.005-15.386c0-.983.417-1.4,1.392-1.4q4.514,0,9.029,0Zm2.39-.038h8.044v-2.924h-8.044Z" transform="translate(-546.376 -143.086)" fill="#12263f"/>
        <path id="Trazado_140950" data-name="Trazado 140950" d="M558.515,429.942h33.726c.01.17.029.34.029.51q0,3.179,0,6.359c0,1.02-.411,1.433-1.416,1.433H559.916c-.933,0-1.42-.448-1.424-1.338-.008-2.209,0-4.417,0-6.626C558.491,430.176,558.505,430.074,558.515,429.942Z" transform="translate(-557.193 -361.311)" fill="#12263f"/>
        <path id="Trazado_140951" data-name="Trazado 140951" d="M1014.176,281.549l.708,3.59c.59,2.995,1.175,5.991,1.777,8.984a.922.922,0,0,1-.276.946c-.756.751-1.474,1.541-2.263,2.374-.631-.66-1.2-1.339-1.86-1.92a1.821,1.821,0,0,1-.6-1.985c.845-3.992,1.61-8,2.4-12.005Z" transform="translate(-961.867 -228.762)" fill="#12263f"/>
        <path id="Trazado_140952" data-name="Trazado 140952" d="M993.878,143.013l-4.943-7.085h9.884Z" transform="translate(-941.636 -98.72)" fill="#12263f"/>
      </g>
    </g>
  </g>
</svg>
