<svg xmlns="http://www.w3.org/2000/svg" width="222.156" height="222.211" viewBox="0 0 222.156 222.211">
  <g id="img3" transform="translate(-297.402 -812.5)">
    <g id="Grupo_66124" data-name="Grupo 66124" transform="translate(297.902 813)">
      <g id="freepik--Form--inject-2" transform="translate(12.047)">
        <rect id="Rectángulo_6026" data-name="Rectángulo 6026" width="111.434" height="146.741" transform="translate(3.514 4.016)" opacity="0.2" style="isolation: isolate"/>
        <rect id="Rectángulo_6027" data-name="Rectángulo 6027" width="111.434" height="146.741" fill="#fff" stroke="#263238" stroke-linecap="round" stroke-linejoin="round" stroke-width="1"/>
        <path id="Trazado_105843" data-name="Trazado 105843" d="M1612.828,6730.8h-76.1v-17.1h98.744v17.1h-20.811" transform="translate(-1530.709 -6686.726)" fill="none" stroke="#263238" stroke-linecap="round" stroke-linejoin="round" stroke-width="1"/>
        <path id="Trazado_105844" data-name="Trazado 105844" d="M1542.9,6779.3h-6.164v-8.839h53.9" transform="translate(-1530.709 -6714.995)" fill="none" stroke="#263238" stroke-linecap="round" stroke-linejoin="round" stroke-width="1"/>
        <path id="Trazado_105845" data-name="Trazado 105845" d="M1600.746,6770.461h42.505v8.839h-90.909" transform="translate(-1538.483 -6714.995)" fill="none" stroke="#263238" stroke-linecap="round" stroke-linejoin="round" stroke-width="1"/>
        <path id="Trazado_105846" data-name="Trazado 105846" d="M1620.006,6814.94h-83.274v-8.84h98.744v8.84h-13.633" transform="translate(-1530.709 -6732.745)" fill="none" stroke="#263238" stroke-linecap="round" stroke-linejoin="round" stroke-width="1"/>
        <path id="Trazado_105847" data-name="Trazado 105847" d="M1562.261,6885.556h-25.529v-45.016h98.744v45.016h-70.715" transform="translate(-1530.709 -6749.898)" fill="none" stroke="#263238" stroke-linecap="round" stroke-linejoin="round" stroke-width="1"/>
        <rect id="Rectángulo_6028" data-name="Rectángulo 6028" width="98.744" height="7.866" transform="translate(6.023 90.643)" fill="#d1d1d1" stroke="#263238" stroke-linecap="round" stroke-linejoin="round" stroke-width="1"/>
        <path id="Trazado_105848" data-name="Trazado 105848" d="M1583.67,6748.1v11.073h-46.937v-11.405" transform="translate(-1530.709 -6703.694)" fill="none" stroke="#263238" stroke-linecap="round" stroke-linejoin="round" stroke-width="1"/>
        <rect id="Rectángulo_6029" data-name="Rectángulo 6029" width="98.744" height="4.964" transform="translate(6.023 33.043)" fill="#d1d1d1" stroke="#263238" stroke-linecap="round" stroke-linejoin="round" stroke-width="1"/>
        <line id="Línea_271" data-name="Línea 271" y2="5.632" transform="translate(71.985 27.437)" fill="none" stroke="#263238" stroke-linecap="round" stroke-linejoin="round" stroke-width="1"/>
        <rect id="Rectángulo_6030" data-name="Rectángulo 6030" width="6.726" height="3.288" transform="translate(77.953 28.38)" fill="#d1d1d1" stroke="#263238" stroke-linecap="round" stroke-linejoin="round" stroke-width="1"/>
        <line id="Línea_272" data-name="Línea 272" y2="5.968" transform="translate(56.269 38.163)" fill="none" stroke="#263238" stroke-linecap="round" stroke-linejoin="round" stroke-width="1"/>
        <line id="Línea_273" data-name="Línea 273" y2="5.968" transform="translate(76.914 38.163)" fill="none" stroke="#263238" stroke-linecap="round" stroke-linejoin="round" stroke-width="1"/>
        <line id="Línea_274" data-name="Línea 274" y1="11.324" transform="translate(24.189 44.157)" fill="none" stroke="#263238" stroke-linecap="round" stroke-linejoin="round" stroke-width="1"/>
        <line id="Línea_275" data-name="Línea 275" y1="11.324" transform="translate(35.684 44.157)" fill="none" stroke="#263238" stroke-linecap="round" stroke-linejoin="round" stroke-width="1"/>
        <line id="Línea_276" data-name="Línea 276" y2="8.614" transform="translate(48.218 55.536)" fill="none" stroke="#263238" stroke-linecap="round" stroke-linejoin="round" stroke-width="1"/>
        <line id="Línea_277" data-name="Línea 277" y2="26.629" transform="translate(71.759 55.416)" fill="none" stroke="#263238" stroke-linecap="round" stroke-linejoin="round" stroke-width="1"/>
        <path id="Trazado_105849" data-name="Trazado 105849" d="M1536.732,6788.071v9.061H1602.5" transform="translate(-1530.709 -6723.766)" fill="none" stroke="#263238" stroke-linecap="round" stroke-linejoin="round" stroke-width="1"/>
        <line id="Línea_278" data-name="Línea 278" y2="8.714" transform="translate(30.795 64.37)" fill="none" stroke="#263238" stroke-linecap="round" stroke-linejoin="round" stroke-width="1"/>
        <line id="Línea_279" data-name="Línea 279" x2="5.838" transform="translate(98.98 105.837)" fill="none" stroke="#263238" stroke-linecap="round" stroke-linejoin="round" stroke-width="1"/>
        <line id="Línea_280" data-name="Línea 280" x2="90.648" transform="translate(6.159 105.837)" fill="none" stroke="#263238" stroke-linecap="round" stroke-linejoin="round" stroke-width="1"/>
        <line id="Línea_281" data-name="Línea 281" x2="98.659" transform="translate(6.159 112.944)" fill="none" stroke="#263238" stroke-linecap="round" stroke-linejoin="round" stroke-width="1"/>
        <line id="Línea_282" data-name="Línea 282" x2="68.261" transform="translate(36.557 120.022)" fill="none" stroke="#263238" stroke-linecap="round" stroke-linejoin="round" stroke-width="1"/>
        <line id="Línea_283" data-name="Línea 283" x2="27.894" transform="translate(6.159 120.022)" fill="none" stroke="#263238" stroke-linecap="round" stroke-linejoin="round" stroke-width="1"/>
        <rect id="Rectángulo_6031" data-name="Rectángulo 6031" width="3.338" height="3.338" transform="translate(21.609 107.795)" fill="#d1d1d1" stroke="#263238" stroke-linecap="round" stroke-linejoin="round" stroke-width="1"/>
        <rect id="Rectángulo_6032" data-name="Rectángulo 6032" width="3.338" height="3.338" transform="translate(40.759 107.795)" fill="#d1d1d1" stroke="#263238" stroke-linecap="round" stroke-linejoin="round" stroke-width="1"/>
        <rect id="Rectángulo_6033" data-name="Rectángulo 6033" width="3.338" height="3.338" transform="translate(27.532 114.606)" fill="#d1d1d1" stroke="#263238" stroke-linecap="round" stroke-linejoin="round" stroke-width="1"/>
        <rect id="Rectángulo_6034" data-name="Rectángulo 6034" width="3.338" height="3.338" transform="translate(45.838 114.606)" fill="#d1d1d1" stroke="#263238" stroke-linecap="round" stroke-linejoin="round" stroke-width="1"/>
        <rect id="Rectángulo_6035" data-name="Rectángulo 6035" width="3.338" height="3.338" transform="translate(63.337 114.606)" fill="#d1d1d1" stroke="#263238" stroke-linecap="round" stroke-linejoin="round" stroke-width="1"/>
        <rect id="Rectángulo_6036" data-name="Rectángulo 6036" width="3.338" height="3.338" transform="translate(81.106 114.606)" fill="#d1d1d1" stroke="#263238" stroke-linecap="round" stroke-linejoin="round" stroke-width="1"/>
        <line id="Línea_284" data-name="Línea 284" y2="7.083" transform="translate(25.986 113.005)" fill="none" stroke="#263238" stroke-linecap="round" stroke-linejoin="round" stroke-width="1"/>
        <line id="Línea_285" data-name="Línea 285" y2="7.083" transform="translate(43.891 113.005)" fill="none" stroke="#263238" stroke-linecap="round" stroke-linejoin="round" stroke-width="1"/>
        <line id="Línea_286" data-name="Línea 286" y2="7.083" transform="translate(61.79 113.005)" fill="none" stroke="#263238" stroke-linecap="round" stroke-linejoin="round" stroke-width="1"/>
        <line id="Línea_287" data-name="Línea 287" y2="7.083" transform="translate(79.69 113.005)" fill="none" stroke="#263238" stroke-linecap="round" stroke-linejoin="round" stroke-width="1"/>
        <line id="Línea_288" data-name="Línea 288" x2="98.659" transform="translate(6.159 127.24)" fill="none" stroke="#263238" stroke-linecap="round" stroke-linejoin="round" stroke-width="1"/>
        <rect id="Rectángulo_6037" data-name="Rectángulo 6037" width="3.338" height="3.338" transform="translate(15.285 121.824)" fill="#d1d1d1" stroke="#263238" stroke-linecap="round" stroke-linejoin="round" stroke-width="1"/>
        <rect id="Rectángulo_6038" data-name="Rectángulo 6038" width="3.338" height="3.338" transform="translate(45.838 121.824)" fill="#d1d1d1" stroke="#263238" stroke-linecap="round" stroke-linejoin="round" stroke-width="1"/>
        <rect id="Rectángulo_6039" data-name="Rectángulo 6039" width="3.338" height="3.338" transform="translate(63.337 121.824)" fill="#d1d1d1" stroke="#263238" stroke-linecap="round" stroke-linejoin="round" stroke-width="1"/>
        <rect id="Rectángulo_6040" data-name="Rectángulo 6040" width="3.338" height="3.338" transform="translate(85.884 121.824)" fill="#d1d1d1" stroke="#263238" stroke-linecap="round" stroke-linejoin="round" stroke-width="1"/>
        <line id="Línea_289" data-name="Línea 289" y2="7.007" transform="translate(13.738 120.223)" fill="none" stroke="#263238" stroke-linecap="round" stroke-linejoin="round" stroke-width="1"/>
        <line id="Línea_290" data-name="Línea 290" y2="7.007" transform="translate(43.891 120.223)" fill="none" stroke="#263238" stroke-linecap="round" stroke-linejoin="round" stroke-width="1"/>
        <line id="Línea_291" data-name="Línea 291" y2="7.007" transform="translate(61.79 120.223)" fill="none" stroke="#263238" stroke-linecap="round" stroke-linejoin="round" stroke-width="1"/>
        <line id="Línea_292" data-name="Línea 292" y2="7.007" transform="translate(84.469 120.223)" fill="none" stroke="#263238" stroke-linecap="round" stroke-linejoin="round" stroke-width="1"/>
        <line id="Línea_293" data-name="Línea 293" x2="10.872" transform="translate(36.055 24.129)" fill="none" stroke="#263238" stroke-miterlimit="10" stroke-width="1"/>
        <line id="Línea_294" data-name="Línea 294" x2="27.828" transform="translate(6.395 24.129)" fill="none" stroke="#263238" stroke-miterlimit="10" stroke-width="1"/>
        <line id="Línea_295" data-name="Línea 295" x2="23.963" transform="translate(55.511 24.129)" fill="none" stroke="#263238" stroke-miterlimit="10" stroke-width="1"/>
        <line id="Línea_296" data-name="Línea 296" x2="18.934" transform="translate(85.985 24.129)" fill="none" stroke="#263238" stroke-miterlimit="10" stroke-width="1"/>
        <text id="Afiliación" transform="translate(0.604 6.296)" fill="#344154" font-size="13" font-family="Roboto-Bold, Roboto" font-weight="700"><tspan x="28.378" y="14">Afiliación</tspan></text>
      </g>
      <g id="freepik--Character--inject-2" transform="translate(0 77.803)">
        <path id="Trazado_105850" data-name="Trazado 105850" d="M1704.672,7044.211l37.255-1.53,20.344,24.727-50.241,4.377Z" transform="translate(-1602.304 -6928.376)" fill="#fff" stroke="#263238" stroke-linecap="round" stroke-linejoin="round" stroke-width="1"/>
        <path id="Trazado_105851" data-name="Trazado 105851" d="M1719.662,7076.866l40.272-2.806,2.655,3.343-41.808,3.177Z" transform="translate(-1609.77 -6944.004)" fill="none" stroke="#263238" stroke-linecap="round" stroke-linejoin="round" stroke-width="0.5"/>
        <path id="Trazado_105852" data-name="Trazado 105852" d="M1717.252,7069.24l38.6-2.43,1.23,1.552-39.308,2.59Z" transform="translate(-1608.569 -6940.393)" fill="none" stroke="#263238" stroke-linecap="round" stroke-linejoin="round" stroke-width="0.5"/>
        <path id="Trazado_105853" data-name="Trazado 105853" d="M1715.3,7063.053l37.225-2.144,1.14,1.436-37.893,2.279Z" transform="translate(-1607.598 -6937.454)" fill="none" stroke="#263238" stroke-linecap="round" stroke-linejoin="round" stroke-width="0.5"/>
        <path id="Trazado_105854" data-name="Trazado 105854" d="M1710.292,7047.1l33.651-1.466,5.04,6.351-36.613,2.012Z" transform="translate(-1605.103 -6929.845)" fill="none" stroke="#263238" stroke-linecap="round" stroke-linejoin="round" stroke-width="0.5"/>
        <path id="Trazado_105855" data-name="Trazado 105855" d="M1713.652,7057.809l36.055-1.907.949,1.194-36.612,2.012Z" transform="translate(-1606.776 -6934.96)" fill="#d1d1d1" stroke="#263238" stroke-linecap="round" stroke-linejoin="round" stroke-width="0.5"/>
        <path id="Trazado_105856" data-name="Trazado 105856" d="M1761.872,7073.209l-1.2-2.124,18.031-1.184,1.656,2.087" transform="translate(-1630.194 -6941.934)" fill="none" stroke="#263238" stroke-linecap="round" stroke-linejoin="round" stroke-width="0.5"/>
        <path id="Trazado_105857" data-name="Trazado 105857" d="M1720.432,7079.292l40.8-2.932.773.969-41.25,3.041Z" transform="translate(-1610.153 -6945.15)" fill="#d1d1d1" stroke="#263238" stroke-linecap="round" stroke-linejoin="round" stroke-width="0.5"/>
        <line id="Línea_297" data-name="Línea 297" x1="0.567" y1="1.21" transform="translate(124.951 134.157)" fill="none" stroke="#263238" stroke-linecap="round" stroke-linejoin="round" stroke-width="0.5"/>
        <path id="Trazado_105858" data-name="Trazado 105858" d="M1738.992,7083.427l2.927-.217.311.709-2.946.225Z" transform="translate(-1619.397 -6948.562)" fill="#d1d1d1" stroke="#263238" stroke-linecap="round" stroke-linejoin="round" stroke-width="0.5"/>
        <line id="Línea_298" data-name="Línea 298" x1="0.658" y1="1.195" transform="translate(130.362 131.426)" fill="none" stroke="#263238" stroke-linecap="round" stroke-linejoin="round" stroke-width="0.5"/>
        <line id="Línea_299" data-name="Línea 299" x1="0.542" y1="1.225" transform="translate(121.819 132.019)" fill="none" stroke="#263238" stroke-linecap="round" stroke-linejoin="round" stroke-width="0.5"/>
        <line id="Línea_300" data-name="Línea 300" x2="1.491" y2="2.113" transform="translate(141.666 128.415)" fill="none" stroke="#263238" stroke-linecap="round" stroke-linejoin="round" stroke-width="0.5"/>
        <line id="Línea_301" data-name="Línea 301" x2="1.385" y2="2.138" transform="translate(137.249 128.706)" fill="none" stroke="#263238" stroke-linecap="round" stroke-linejoin="round" stroke-width="0.5"/>
        <line id="Línea_302" data-name="Línea 302" x1="0.929" y1="1.571" transform="translate(131.421 127.446)" fill="none" stroke="#263238" stroke-linecap="round" stroke-linejoin="round" stroke-width="0.5"/>
        <line id="Línea_303" data-name="Línea 303" x1="2.249" y1="4.784" transform="translate(120.69 124.876)" fill="none" stroke="#263238" stroke-linecap="round" stroke-linejoin="round" stroke-width="0.5"/>
        <path id="Trazado_105859" data-name="Trazado 105859" d="M1768.443,7065.3l-1.209-1.525-24.691,1.485" transform="translate(-1621.165 -6938.881)" fill="none" stroke="#263238" stroke-linecap="round" stroke-linejoin="round" stroke-width="0.5"/>
        <line id="Línea_304" data-name="Línea 304" x1="1.014" y1="1.506" transform="translate(137.043 125.483)" fill="none" stroke="#263238" stroke-linecap="round" stroke-linejoin="round" stroke-width="0.5"/>
        <line id="Línea_305" data-name="Línea 305" x1="35.528" y2="1.812" transform="translate(106.504 119.866)" fill="none" stroke="#263238" stroke-linecap="round" stroke-linejoin="round" stroke-width="0.5"/>
        <line id="Línea_306" data-name="Línea 306" x1="35.056" y2="1.722" transform="translate(106.168 118.852)" fill="none" stroke="#263238" stroke-linecap="round" stroke-linejoin="round" stroke-width="0.5"/>
        <line id="Línea_307" data-name="Línea 307" x1="34.6" y2="1.636" transform="translate(105.847 117.869)" fill="none" stroke="#263238" stroke-linecap="round" stroke-linejoin="round" stroke-width="0.5"/>
        <path id="Trazado_105860" data-name="Trazado 105860" d="M1769.782,7052.826l1.139-.056.347.482-1.149.055Z" transform="translate(-1634.732 -6933.401)" fill="#d1d1d1" stroke="#263238" stroke-linecap="round" stroke-linejoin="round" stroke-width="0.5"/>
        <path id="Trazado_105861" data-name="Trazado 105861" d="M1756.522,7053.48l1.169-.06.306.492-1.175.061Z" transform="translate(-1628.127 -6933.725)" fill="#d1d1d1" stroke="#263238" stroke-linecap="round" stroke-linejoin="round" stroke-width="0.5"/>
        <path id="Trazado_105862" data-name="Trazado 105862" d="M1764.4,7051.086l1.14-.055.326.472-1.144.055Z" transform="translate(-1632.052 -6932.535)" fill="#d1d1d1" stroke="#263238" stroke-linecap="round" stroke-linejoin="round" stroke-width="0.5"/>
        <path id="Trazado_105863" data-name="Trazado 105863" d="M1751.812,7051.686l1.164-.055.286.481-1.17.055Z" transform="translate(-1625.782 -6932.834)" fill="#d1d1d1" stroke="#263238" stroke-linecap="round" stroke-linejoin="round" stroke-width="0.5"/>
        <path id="Trazado_105864" data-name="Trazado 105864" d="M1739.512,7052.276l1.189-.056.246.486-1.195.057Z" transform="translate(-1619.656 -6933.126)" fill="#d1d1d1" stroke="#263238" stroke-linecap="round" stroke-linejoin="round" stroke-width="0.5"/>
        <path id="Trazado_105865" data-name="Trazado 105865" d="M1726.762,7052.886l1.21-.055.211.491-1.219.061Z" transform="translate(-1613.306 -6933.431)" fill="#d1d1d1" stroke="#263238" stroke-linecap="round" stroke-linejoin="round" stroke-width="0.5"/>
        <line id="Línea_308" data-name="Línea 308" x1="0.698" y1="0.999" transform="translate(133.806 118.175)" fill="none" stroke="#263238" stroke-linecap="round" stroke-linejoin="round" stroke-width="0.5"/>
        <line id="Línea_309" data-name="Línea 309" x1="0.622" y1="1.014" transform="translate(127.682 118.461)" fill="none" stroke="#263238" stroke-linecap="round" stroke-linejoin="round" stroke-width="0.5"/>
        <line id="Línea_310" data-name="Línea 310" x1="0.537" y1="1.029" transform="translate(121.433 118.757)" fill="none" stroke="#263238" stroke-linecap="round" stroke-linejoin="round" stroke-width="0.5"/>
        <line id="Línea_311" data-name="Línea 311" x1="0.452" y1="1.049" transform="translate(115.043 119.058)" fill="none" stroke="#263238" stroke-linecap="round" stroke-linejoin="round" stroke-width="0.5"/>
        <line id="Línea_312" data-name="Línea 312" x1="34.143" y2="1.551" transform="translate(105.531 116.895)" fill="none" stroke="#263238" stroke-linecap="round" stroke-linejoin="round" stroke-width="0.5"/>
        <path id="Trazado_105866" data-name="Trazado 105866" d="M1771.232,7048.721l1.109-.05.336.452-1.109.055Z" transform="translate(-1635.454 -6931.359)" fill="#d1d1d1" stroke="#263238" stroke-linecap="round" stroke-linejoin="round" stroke-width="0.5"/>
        <path id="Trazado_105867" data-name="Trazado 105867" d="M1750.632,7049.665l1.144-.054.281.467-1.154.056Z" transform="translate(-1625.194 -6931.828)" fill="#d1d1d1" stroke="#263238" stroke-linecap="round" stroke-linejoin="round" stroke-width="0.5"/>
        <path id="Trazado_105868" data-name="Trazado 105868" d="M1738.492,7050.22l1.17-.05.246.473-1.179.055Z" transform="translate(-1619.148 -6932.106)" fill="#d1d1d1" stroke="#263238" stroke-linecap="round" stroke-linejoin="round" stroke-width="0.5"/>
        <path id="Trazado_105869" data-name="Trazado 105869" d="M1722.482,7050.956l1.205-.055.19.481-1.21.056Z" transform="translate(-1611.174 -6932.471)" fill="#d1d1d1" stroke="#263238" stroke-linecap="round" stroke-linejoin="round" stroke-width="0.5"/>
        <line id="Línea_313" data-name="Línea 313" x1="0.718" y1="0.954" transform="translate(137.189 117.005)" fill="none" stroke="#263238" stroke-linecap="round" stroke-linejoin="round" stroke-width="0.5"/>
        <line id="Línea_314" data-name="Línea 314" x1="0.592" y1="0.979" transform="translate(127.08 117.467)" fill="none" stroke="#263238" stroke-linecap="round" stroke-linejoin="round" stroke-width="0.5"/>
        <line id="Línea_315" data-name="Línea 315" x1="0.517" y1="0.989" transform="translate(120.906 117.748)" fill="none" stroke="#263238" stroke-linecap="round" stroke-linejoin="round" stroke-width="0.5"/>
        <line id="Línea_316" data-name="Línea 316" x1="0.412" y1="1.009" transform="translate(112.899 118.114)" fill="none" stroke="#263238" stroke-linecap="round" stroke-linejoin="round" stroke-width="0.5"/>
        <line id="Línea_317" data-name="Línea 317" x1="16.549" y2="1.275" transform="translate(136.587 133.991)" fill="none" stroke="#263238" stroke-miterlimit="10" stroke-width="0.5"/>
        <line id="Línea_318" data-name="Línea 318" x1="10.38" y2="0.798" transform="translate(122.577 135.548)" fill="none" stroke="#263238" stroke-miterlimit="10" stroke-width="0.5"/>
        <line id="Línea_319" data-name="Línea 319" x1="8.553" y2="0.658" transform="translate(111.138 136.571)" fill="none" stroke="#263238" stroke-miterlimit="10" stroke-width="0.5"/>
        <path id="Trazado_105870" data-name="Trazado 105870" d="M1710.308,6888.512a68.187,68.187,0,0,0-10.375,4.016c-5.521,2.682-16.394,6.7-21.584,8.705s-8.363,7.192-9.366,9.7-5.356,13.217-5.356,13.217-9.2,14.392-11.545,17.905-5.521,8.367-5.687,12.885,2.339,7.027,8.2,7.027,8.367-2.009,11.208-5.02,12.047-17.738,13.387-19.411,5.02-8.03,5.02-8.03,1.842,16.564,1.842,21.749v12.218h52.705s2.51-18.406,3.011-19.912,4.347-12.383,4.347-12.383,13.889,22.421,16.208,25.434,8.94,9.356,15.425,6.815,5.155-9.5,1.641-17.858-9.683-22.589-9.683-23.266-2.51-10.541-12.715-18.241-20.244-9.537-22.588-10.707S1724.529,6888.512,1710.308,6888.512Z" transform="translate(-1573.275 -6851.593)" fill="#7e5ee3" stroke="#263238" stroke-linecap="round" stroke-linejoin="round" stroke-width="1"/>
        <path id="Trazado_105871" data-name="Trazado 105871" d="M1706.241,6948.511l6.525,10.21s-5.356-5.521-8.7-6.359" transform="translate(-1602 -6881.475)" fill="none" stroke="#263238" stroke-linecap="round" stroke-linejoin="round" stroke-width="1"/>
        <path id="Trazado_105872" data-name="Trazado 105872" d="M1711.272,6966.158l-3.85-1.341s-3.514-2.008-6.36-1.17" transform="translate(-1600.506 -6888.912)" fill="none" stroke="#263238" stroke-linecap="round" stroke-linejoin="round" stroke-width="1"/>
        <path id="Trazado_105873" data-name="Trazado 105873" d="M1761.272,6920.18c.376,2.756,1.245,6.18,3.243,8.534" transform="translate(-1630.493 -6867.365)" fill="none" stroke="#263238" stroke-linecap="round" stroke-linejoin="round" stroke-width="1"/>
        <path id="Trazado_105874" data-name="Trazado 105874" d="M1760.726,6911.182s-.035.959.055,2.4" transform="translate(-1630.218 -6862.884)" fill="none" stroke="#263238" stroke-linecap="round" stroke-linejoin="round" stroke-width="1"/>
        <path id="Trazado_105875" data-name="Trazado 105875" d="M1764.382,6941.182a15.2,15.2,0,0,0,1.506,1.346" transform="translate(-1632.042 -6877.825)" fill="none" stroke="#263238" stroke-linecap="round" stroke-linejoin="round" stroke-width="1"/>
        <path id="Trazado_105876" data-name="Trazado 105876" d="M1755.062,6926.181a22.259,22.259,0,0,0,3.98,6.777" transform="translate(-1627.4 -6870.354)" fill="none" stroke="#263238" stroke-linecap="round" stroke-linejoin="round" stroke-width="1"/>
        <path id="Trazado_105877" data-name="Trazado 105877" d="M1817.829,7000.661a19.477,19.477,0,0,1-3.1,4.111" transform="translate(-1657.119 -6907.449)" fill="none" stroke="#263238" stroke-linecap="round" stroke-linejoin="round" stroke-width="1"/>
        <path id="Trazado_105878" data-name="Trazado 105878" d="M1830.261,6967.512s-3.89,8.794-7.529,15.058" transform="translate(-1661.103 -6890.938)" fill="none" stroke="#263238" stroke-linecap="round" stroke-linejoin="round" stroke-width="1"/>
        <path id="Trazado_105879" data-name="Trazado 105879" d="M1802.531,7011.631c-.5.607-.888,1.114-1.129,1.445" transform="translate(-1650.48 -6912.912)" fill="none" stroke="#263238" stroke-linecap="round" stroke-linejoin="round" stroke-width="1"/>
        <path id="Trazado_105880" data-name="Trazado 105880" d="M1811.088,6996.511s-3.082,3.585-5.356,6.361" transform="translate(-1652.636 -6905.381)" fill="none" stroke="#263238" stroke-linecap="round" stroke-linejoin="round" stroke-width="1"/>
        <path id="Trazado_105881" data-name="Trazado 105881" d="M1845.062,6960.9s7.364-11.711,7.7-12.715" transform="translate(-1672.225 -6881.312)" fill="none" stroke="#263238" stroke-linecap="round" stroke-linejoin="round" stroke-width="1"/>
        <path id="Trazado_105882" data-name="Trazado 105882" d="M1856.282,6959.87c2.189-1.772,5.477-4.016,8.759-4.688" transform="translate(-1677.812 -6884.798)" fill="none" stroke="#263238" stroke-linecap="round" stroke-linejoin="round" stroke-width="1"/>
        <path id="Trazado_105883" data-name="Trazado 105883" d="M1851.062,6967.687s.6-.617,1.6-1.506" transform="translate(-1675.213 -6890.275)" fill="none" stroke="#263238" stroke-linecap="round" stroke-linejoin="round" stroke-width="1"/>
        <path id="Trazado_105884" data-name="Trazado 105884" d="M1863.426,6951.511a40.594,40.594,0,0,0-6.024,3.852" transform="translate(-1678.37 -6882.969)" fill="none" stroke="#263238" stroke-linecap="round" stroke-linejoin="round" stroke-width="1"/>
        <path id="Trazado_105885" data-name="Trazado 105885" d="M1875.4,6999.943a9.461,9.461,0,0,1,9.035.5" transform="translate(-1687.335 -6906.635)" fill="none" stroke="#263238" stroke-linecap="round" stroke-linejoin="round" stroke-width="1"/>
        <path id="Trazado_105886" data-name="Trazado 105886" d="M1878.4,6996.257s5.853-1.169,10.2,1.508" transform="translate(-1688.829 -6905.128)" fill="none" stroke="#263238" stroke-linecap="round" stroke-linejoin="round" stroke-width="1"/>
        <path id="Trazado_105887" data-name="Trazado 105887" d="M1659.732,6998.107a9.344,9.344,0,0,1,7.53-2.339" transform="translate(-1579.921 -6904.97)" fill="none" stroke="#263238" stroke-linecap="round" stroke-linejoin="round" stroke-width="1"/>
        <path id="Trazado_105888" data-name="Trazado 105888" d="M1680.372,6996.631a14.3,14.3,0,0,1,1.185.944" transform="translate(-1590.201 -6905.441)" fill="none" stroke="#263238" stroke-linecap="round" stroke-linejoin="round" stroke-width="1"/>
        <path id="Trazado_105889" data-name="Trazado 105889" d="M1671.4,6992.851a8.154,8.154,0,0,1,2.746.854" transform="translate(-1585.734 -6903.558)" fill="none" stroke="#263238" stroke-linecap="round" stroke-linejoin="round" stroke-width="1"/>
        <path id="Trazado_105890" data-name="Trazado 105890" d="M1770.3,6891.324s-1.506,6.359-1,11.042,5.687,11.882,10.039,13.553,12.378-3.177,15.224-6.023,3.012-11.881,3.012-11.881-4.337-9.366-13.553-12.047S1770.3,6891.324,1770.3,6891.324Z" transform="translate(-1634.44 -6850.053)" fill="#ffbf9d" stroke="#263238" stroke-linecap="round" stroke-linejoin="round" stroke-width="1"/>
        <path id="Trazado_105891" data-name="Trazado 105891" d="M1833.637,6893.594a8.216,8.216,0,0,1-.808,5.923c-1.682,3.309-4.929,6.1-5.8,5.818s2.716-12.258,2.716-12.258S1832.126,6891.736,1833.637,6893.594Z" transform="translate(-1663.173 -6853.633)" fill="#ffbf9d" stroke="#263238" stroke-linecap="round" stroke-linejoin="round" stroke-width="1"/>
        <path id="Trazado_105892" data-name="Trazado 105892" d="M1765.586,6875.107a8.235,8.235,0,0,0-1.1,5.877c.547,3.676,2.755,7.345,3.674,7.345s1.285-12.483,1.285-12.483S1767.6,6873.822,1765.586,6875.107Z" transform="translate(-1632.036 -6844.704)" fill="#ffbf9d" stroke="#263238" stroke-linecap="round" stroke-linejoin="round" stroke-width="1"/>
        <path id="Trazado_105893" data-name="Trazado 105893" d="M1771.765,6867.179s-1.285,11.2.181,15.8,4.407,11.75,9,13.587,15.059-6.058,16.71-9.18,6.244-16.344,6.244-16.344a12.008,12.008,0,0,0,1.656-11.391c-2.389-6.61-15.245-10.651-20.58-10.466s-10.651,4.594-11.018,8.082A81.13,81.13,0,0,1,1771.765,6867.179Z" transform="translate(-1635.46 -6832.002)" fill="#ffbf9d" stroke="#263238" stroke-linecap="round" stroke-linejoin="round" stroke-width="1"/>
        <path id="Trazado_105894" data-name="Trazado 105894" d="M1788.407,6894.968s-4.041-4.959-7.715-3.3" transform="translate(-1640.166 -6852.996)" fill="none" stroke="#263238" stroke-linecap="round" stroke-linejoin="round" stroke-width="2"/>
        <path id="Trazado_105895" data-name="Trazado 105895" d="M1808.862,6902.629s5.521-1.284,8.081,1.1" transform="translate(-1654.196 -6858.453)" fill="none" stroke="#263238" stroke-linecap="round" stroke-linejoin="round" stroke-width="2"/>
        <path id="Trazado_105896" data-name="Trazado 105896" d="M1781.792,6900.781s1.18,3.514,5.968,3.107" transform="translate(-1640.713 -6857.703)" fill="none" stroke="#263238" stroke-linecap="round" stroke-linejoin="round" stroke-width="1"/>
        <path id="Trazado_105897" data-name="Trazado 105897" d="M1808.132,6910.651s1.1,2.389,6.244,1.47" transform="translate(-1653.831 -6862.619)" fill="none" stroke="#263238" stroke-linecap="round" stroke-linejoin="round" stroke-width="1"/>
        <path id="Trazado_105898" data-name="Trazado 105898" d="M1790.029,6917.313a3.21,3.21,0,0,0,.3,2.192c.6.9,2.093,2.192,3.193,2.192s3.393-.395,3.99-1a7.1,7.1,0,0,0,1-1.3" transform="translate(-1644.778 -6865.938)" fill="none" stroke="#263238" stroke-linecap="round" stroke-linejoin="round" stroke-width="1"/>
        <path id="Trazado_105899" data-name="Trazado 105899" d="M1785.132,6923.871s2.51,2.891,4.593,3.589,5.983-.5,7.083-.9" transform="translate(-1642.377 -6869.203)" fill="none" stroke="#263238" stroke-linecap="round" stroke-linejoin="round" stroke-width="1"/>
        <path id="Trazado_105900" data-name="Trazado 105900" d="M1808.438,6837.5c-.171-1.205.688-2.927.858-3.956s-1.2-2.927-2.4-4.472a6.918,6.918,0,0,1-1.38-4.3c0-1.034-1.2-1.892-2.233-2.58a19.226,19.226,0,0,1-3.438-2.926c-.688-.859-3.609-.689-4.126-.689s-2.751-1.886-4.126-2.573-4.126.5-4.126.5a23.744,23.744,0,0,0-3.955-1.546,21.917,21.917,0,0,0-3.614,1.205,15.389,15.389,0,0,1-3.012.938,3.153,3.153,0,0,0-.572-.1c-.387-.5-3.825,1.562-3.825,1.562l-3.092.5-1.149,1.862c-1.1.12-3.674.531-3.855,1.792-.231,1.606,0,2.293-.687,3.207s-3.208.688-2.51,2.751,2.289,3.67.226,4.819-3.208,3.207-2.063,4.352,2.063,2.751,1.837,3.669-.462,2.981.457,3.438a16.3,16.3,0,0,1,2.294,1.607l1.145,2.51.688,1.606s1.144-3.67,2.063-4.127,0,1.606,1.837,1.606,3.664-8.714,5.02-8.945,5.521,7.57,9.633,7.57,9.19-3.608,11.259-3.608.457,8.708.457,10.54.457,3.664.457,4.357,2.294-3.213,3.9-4.131c.441-.251.974-.558,1.531-.909a.274.274,0,0,1-.025.126s5.677-3.614,6.365-4.814.171-2.237.171-3.267.688-1.893.858-3.439S1808.609,6838.7,1808.438,6837.5Z" transform="translate(-1629.311 -6814.961)" fill="#344154" stroke="#263238" stroke-linecap="round" stroke-linejoin="round" stroke-width="1"/>
        <line id="Línea_320" data-name="Línea 320" x1="221.156" transform="translate(0 111.84)" fill="none" stroke="#263238" stroke-linecap="round" stroke-linejoin="round" stroke-width="1"/>
        <path id="Trazado_105901" data-name="Trazado 105901" d="M1823.717,7007.439s-6.27-2.3-10.777-.5-15.088,6.084-22.291,7.435a93.98,93.98,0,0,1-20.485,1.35c-6.083-.226-9.462.677-10.812,1.8s-6.3,7.429-5.858,8.107.949.933,3.158.451c.878-.2,3.378-2.926,3.378-2.926l4.517-2.008s-4.728,5.18-4.055,5.852,1.8-.225,2.706-.9,2.7-2.253,2.7-2.253l4.056-1.8s-4.307,2.906-4.307,4.248,1.049.551,2.836-.162a20.717,20.717,0,0,0,2.414-1.78l3.388-.955a14.886,14.886,0,0,0,7.093,1.687,10.854,10.854,0,0,0,7.027-2.62s15.766,2.254,23.647,1.576,17.789.226,21.845-2.7-1.124-10.586-1.576-11.264" transform="translate(-1626.605 -6910.231)" fill="#ffbf9d" stroke="#263238" stroke-linecap="round" stroke-linejoin="round" stroke-width="1"/>
        <path id="Trazado_105902" data-name="Trazado 105902" d="M1755.6,7037.57a15.544,15.544,0,0,1,1.677-3.463c.838-1.05,4.719-3.564,6.084-4.3a15.512,15.512,0,0,1,1.677-.838" transform="translate(-1627.669 -6921.548)" fill="none" stroke="#263238" stroke-linecap="round" stroke-linejoin="round" stroke-width="1"/>
        <line id="Línea_321" data-name="Línea 321" y1="2.635" x2="3.96" transform="translate(137.917 108.261)" fill="none" stroke="#263238" stroke-linecap="round" stroke-linejoin="round" stroke-width="1"/>
        <line id="Línea_322" data-name="Línea 322" y1="1.857" x2="3.694" transform="translate(143.323 109.938)" fill="none" stroke="#263238" stroke-linecap="round" stroke-linejoin="round" stroke-width="1"/>
        <path id="Trazado_105903" data-name="Trazado 105903" d="M1863.131,7007.6c-3.348-.8-8.077-1.581-10.777-.5-4.015,1.6-12.789,5.15-19.752,6.872a6.216,6.216,0,0,1,1.611,3.95,15.359,15.359,0,0,1-.743,5.421c5.306.6,13.136,1.29,17.985.874,7.881-.679,17.789.226,21.845-2.7s-1.124-10.586-1.576-11.264" transform="translate(-1666.019 -6910.39)" fill="#d9a171" stroke="#263238" stroke-linecap="round" stroke-linejoin="round" stroke-width="1"/>
        <path id="Trazado_105904" data-name="Trazado 105904" d="M1651.418,7004.038c.422-1.14,3.514-3.866,7.675-3.137s8.885,5.35,11.585,8.9,4.854,4.517,4.854,4.517l-3.182,9.724s-1.958-.472-5.632-1.405-11.9-2.149-15.676-3.322-5.391-5.24-4.568-9.037a22.644,22.644,0,0,1,2.133-6.053" transform="translate(-1573.214 -6907.507)" fill="#d9a171" stroke="#263238" stroke-linecap="round" stroke-linejoin="round" stroke-width="1"/>
        <path id="Trazado_105905" data-name="Trazado 105905" d="M1685.7,7017.626c-.286-.372-.592-.753-.914-1.145a13.022,13.022,0,0,0-6.922,5.722,11.016,11.016,0,0,0-1.285,7.178c2.008.382,3.86.743,5.15,1.069,3.674.934,5.632,1.405,5.632,1.405l3.182-9.722S1688.393,7021.185,1685.7,7017.626Z" transform="translate(-1588.233 -6915.328)" fill="#ffbf9d" stroke="#263238" stroke-linecap="round" stroke-linejoin="round" stroke-width="1"/>
        <path id="Trazado_105906" data-name="Trazado 105906" d="M1692.123,7031.451c-.211,1.5-.673,3.227,1.506,4.182s4.347,3.308,5.717,3.859a20.634,20.634,0,0,0,5.155,1.245,13.969,13.969,0,0,0,5.853-.216c2.735-.765,2.66-1.466,2.66-1.466a7,7,0,0,0,2.55-.352c.844-.417.251-1.461-.773-1.873s-2.279-.962-2.279-.962,1.556-1.437,1.165-1.793l-.387-.356s1.8.211,1.953-.361-.974-3.1-1.426-5.23-1.4-1.842-3.132-2.184-4.091.095-7.2-.567-7.62.452-9.4.924" transform="translate(-1595.959 -6919.656)" fill="#ffbf9d" stroke="#263238" stroke-linecap="round" stroke-linejoin="round" stroke-width="1"/>
        <path id="Trazado_105907" data-name="Trazado 105907" d="M1716.487,7007.678l2.841,10.039,2.269,1.078-3.363-11.624a.9.9,0,0,0-1.117-.621.855.855,0,0,0-.108.038h0A.909.909,0,0,0,1716.487,7007.678Z" transform="translate(-1608.17 -6910.364)" fill="#344154"/>
        <path id="Trazado_105908" data-name="Trazado 105908" d="M1717.934,7027.3s4.969,2.65,5.311,2.786a31.185,31.185,0,0,1,3.152,5.572c.326.813-.04,1.279-.8,1.7l-1.029-.416-6.179-3.89-2.264-1.08" transform="translate(-1608.006 -6920.716)" fill="#ffbf9d" stroke="#263238" stroke-linecap="round" stroke-linejoin="round" stroke-width="1"/>
        <path id="Trazado_105909" data-name="Trazado 105909" d="M1712.822,7044.551s4.839,2.876,5.858,3.4,4.738.767,4.738.767" transform="translate(-1606.363 -6929.308)" fill="none" stroke="#263238" stroke-linecap="round" stroke-linejoin="round" stroke-width="1"/>
        <path id="Trazado_105910" data-name="Trazado 105910" d="M1709.212,7050.182s4.061,2.238,4.859,2.509,2.51.743,2.51.743" transform="translate(-1604.565 -6932.111)" fill="none" stroke="#263238" stroke-linecap="round" stroke-linejoin="round" stroke-width="1"/>
      </g>
      <g id="freepik--Device--inject-2" transform="translate(11.545 166.658)">
        <path id="Trazado_105911" data-name="Trazado 105911" d="M1624.449,7067.823l18.532-17.047-40.829-2.635Z" transform="translate(-1562.789 -7019.952)" fill="#ccc" stroke="#263238" stroke-linecap="round" stroke-linejoin="round" stroke-width="1"/>
        <path id="Trazado_105912" data-name="Trazado 105912" d="M1643.7,7072.089l8.342-7.906-9.662-.581Z" transform="translate(-1582.826 -7027.652)" fill="#344154" stroke="#263238" stroke-linecap="round" stroke-linejoin="round" stroke-width="1"/>
        <path id="Trazado_105913" data-name="Trazado 105913" d="M1527.788,6991.981l61.123,2.706-3.519,45.165-61.66-2.977Z" transform="translate(-1523.732 -6991.981)" fill="#a6a6a6" stroke="#263238" stroke-linecap="round" stroke-linejoin="round" stroke-width="1"/>
        <path id="Trazado_105914" data-name="Trazado 105914" d="M1524.272,7033.87c3.614-.533,9.713-1.953,20.013-5.285,24.521-7.937,27.607-30.118,44.895-33.9l-61.123-2.706Z" transform="translate(-1524.001 -6991.981)" fill="#344154" stroke="#263238" stroke-linecap="round" stroke-linejoin="round" stroke-width="1"/>
        <ellipse id="Elipse_4066" data-name="Elipse 4066" cx="4.688" cy="3.604" rx="4.688" ry="3.604" transform="translate(27.497 19.295)" fill="#fff" stroke="#263238" stroke-linecap="round" stroke-linejoin="round" stroke-width="1"/>
      </g>
    </g>
  </g>
</svg>
